<?xml version="1.0" encoding="UTF-8" standalone="no"?><svg xmlns="http://www.w3.org/2000/svg" xmlns:xlink="http://www.w3.org/1999/xlink" contentScriptType="application/ecmascript" contentStyleType="text/css" height="915px" preserveAspectRatio="none" style="width:947px;height:915px;" version="1.1" viewBox="0 0 947 915" width="947px" zoomAndPan="magnify"><defs><filter height="300%" id="f1nytpj3k4kqln" width="300%" x="-1" y="-1"><feGaussianBlur result="blurOut" stdDeviation="2.0"/><feColorMatrix in="blurOut" result="blurOut2" type="matrix" values="0 0 0 0 0 0 0 0 0 0 0 0 0 0 0 0 0 0 .4 0"/><feOffset dx="4.0" dy="4.0" in="blurOut2" result="blurOut3"/><feBlend in="SourceGraphic" in2="blurOut3" mode="normal"/></filter></defs><g><!--MD5=[107af66394bf1ebaa045812c9c475148]
class Score--><rect codeLine="1" fill="#FEFECE" filter="url(#f1nytpj3k4kqln)" height="419.3359" id="Score" style="stroke:#A80036;stroke-width:1.5;" width="351" x="82.5" y="118"/><ellipse cx="134.25" cy="134" fill="#ADD1B2" rx="11" ry="11" style="stroke:#A80036;stroke-width:1.0;"/><path d="M136.5938,129.6719 C135.6563,129.2344 135.0625,129.0938 134.1875,129.0938 C131.5625,129.0938 129.5625,131.1719 129.5625,133.8906 L129.5625,135.0156 C129.5625,137.5938 131.6719,139.4844 134.5625,139.4844 C135.7813,139.4844 136.9375,139.1875 137.6875,138.6406 C138.2656,138.2344 138.5938,137.7813 138.5938,137.3906 C138.5938,136.9375 138.2031,136.5469 137.7344,136.5469 C137.5156,136.5469 137.3125,136.625 137.125,136.8125 C136.6719,137.2969 136.6719,137.2969 136.4844,137.3906 C136.0625,137.6563 135.375,137.7813 134.6094,137.7813 C132.5625,137.7813 131.2656,136.6875 131.2656,134.9844 L131.2656,133.8906 C131.2656,132.1094 132.5156,130.7969 134.25,130.7969 C134.8281,130.7969 135.4375,130.9531 135.9063,131.2031 C136.3906,131.4844 136.5625,131.7031 136.6563,132.1094 C136.7188,132.5156 136.75,132.6406 136.8906,132.7656 C137.0313,132.9063 137.2656,133.0156 137.4844,133.0156 C137.75,133.0156 138.0156,132.875 138.1875,132.6563 C138.2969,132.5 138.3281,132.3125 138.3281,131.8906 L138.3281,130.4688 C138.3281,130.0313 138.3125,129.9063 138.2188,129.75 C138.0625,129.4844 137.7813,129.3438 137.4844,129.3438 C137.1875,129.3438 136.9844,129.4375 136.7656,129.75 L136.5938,129.6719 Z " fill="#000000"/><text fill="#000000" font-family="sans-serif" font-size="12" lengthAdjust="spacing" textLength="36" x="154.75" y="138.1543">Score</text><rect fill="#FFFFFF" height="15.9688" style="stroke:#000000;stroke-width:1.0;stroke-dasharray:2.0,2.0;" width="201" x="235.5" y="115"/><text fill="#000000" font-family="sans-serif" font-size="12" font-style="italic" lengthAdjust="spacing" textLength="199" x="236.5" y="127.1387">E extends Staff&lt;? extends Line&gt;</text><line style="stroke:#A80036;stroke-width:1.5;" x1="83.5" x2="432.5" y1="150" y2="150"/><ellipse cx="93.5" cy="161" rx="3" ry="3" style="stroke:#038048;stroke-width:1.0;fill:none;"/><text fill="#000000" font-family="sans-serif" font-size="11" lengthAdjust="spacing" text-decoration="underline" textLength="137" x="102.5" y="164.2104">int DEFAULT_BEATS = 4</text><ellipse cx="93.5" cy="173.8047" rx="3" ry="3" style="stroke:#038048;stroke-width:1.0;fill:none;"/><text fill="#000000" font-family="sans-serif" font-size="11" lengthAdjust="spacing" text-decoration="underline" textLength="156" x="102.5" y="177.0151">int DEFAULT_BEATTYPE = 4</text><ellipse cx="93.5" cy="186.6094" rx="3" ry="3" style="stroke:#038048;stroke-width:1.0;fill:none;"/><text fill="#000000" font-family="sans-serif" font-size="11" lengthAdjust="spacing" text-decoration="underline" textLength="150" x="102.5" y="189.8198">int DEFAULT_DIVISION = 2</text><text fill="#000000" font-family="sans-serif" font-size="11" lengthAdjust="spacing" textLength="0" x="106.5" y="202.6245"/><rect fill="none" height="6" style="stroke:#C82930;stroke-width:1.0;" width="6" x="90.5" y="209.2188"/><text fill="#000000" font-family="sans-serif" font-size="11" lengthAdjust="spacing" textLength="145" x="102.5" y="215.4292">Optional&lt;Integer&gt; beats;</text><rect fill="none" height="6" style="stroke:#C82930;stroke-width:1.0;" width="6" x="90.5" y="222.0234"/><text fill="#000000" font-family="sans-serif" font-size="11" lengthAdjust="spacing" textLength="168" x="102.5" y="228.2339">Optional&lt;Integer&gt; beatTYpe;</text><rect fill="none" height="6" style="stroke:#C82930;stroke-width:1.0;" width="6" x="90.5" y="234.8281"/><text fill="#000000" font-family="sans-serif" font-size="11" lengthAdjust="spacing" textLength="156" x="102.5" y="241.0386">Optional&lt;Integer&gt; division;</text><text fill="#000000" font-family="sans-serif" font-size="11" lengthAdjust="spacing" textLength="0" x="106.5" y="253.8433"/><rect fill="none" height="6" style="stroke:#C82930;stroke-width:1.0;" width="6" x="90.5" y="260.4375"/><text fill="#000000" font-family="sans-serif" font-size="11" lengthAdjust="spacing" textLength="79" x="102.5" y="266.6479">List&lt;E&gt; staffs</text><rect fill="none" height="6" style="stroke:#C82930;stroke-width:1.0;" width="6" x="90.5" y="273.2422"/><text fill="#000000" font-family="sans-serif" font-size="11" lengthAdjust="spacing" textLength="253" x="102.5" y="279.4526">List&lt;Measure&lt;? extends Note&gt;&gt; measures</text><rect fill="none" height="6" style="stroke:#C82930;stroke-width:1.0;" width="6" x="90.5" y="286.0469"/><text fill="#000000" font-family="sans-serif" font-size="11" lengthAdjust="spacing" text-decoration="underline" textLength="133" x="102.5" y="292.2573">int accumulateMeasure</text><rect fill="none" height="6" style="stroke:#C82930;stroke-width:1.0;" width="6" x="90.5" y="298.8516"/><text fill="#000000" font-family="sans-serif" font-size="11" lengthAdjust="spacing" text-decoration="underline" textLength="166" x="102.5" y="305.062">int accumulateMeasureScore</text><line style="stroke:#A80036;stroke-width:1.5;" x1="83.5" x2="432.5" y1="311.6563" y2="311.6563"/><ellipse cx="93.5" cy="322.6563" fill="#84BE84" rx="3" ry="3" style="stroke:#038048;stroke-width:1.0;"/><text fill="#000000" font-family="sans-serif" font-size="11" lengthAdjust="spacing" textLength="41" x="102.5" y="325.8667">Score()</text><text fill="#000000" font-family="sans-serif" font-size="11" lengthAdjust="spacing" textLength="0" x="106.5" y="338.6714"/><ellipse cx="93.5" cy="348.2656" fill="#84BE84" rx="3" ry="3" style="stroke:#038048;stroke-width:1.0;"/><text fill="#000000" font-family="sans-serif" font-size="11" lengthAdjust="spacing" textLength="132" x="102.5" y="351.4761">addStaff(E e) : boolean</text><ellipse cx="93.5" cy="361.0703" fill="#84BE84" rx="3" ry="3" style="stroke:#038048;stroke-width:1.0;"/><text fill="#000000" font-family="sans-serif" font-size="11" lengthAdjust="spacing" textLength="57" x="102.5" y="364.2808">size() : int</text><ellipse cx="93.5" cy="373.875" fill="#84BE84" rx="3" ry="3" style="stroke:#038048;stroke-width:1.0;"/><text fill="#000000" font-family="sans-serif" font-size="11" lengthAdjust="spacing" textLength="115" x="102.5" y="377.0854">getStaffs() : List&lt;E&gt;</text><ellipse cx="93.5" cy="386.6797" fill="#84BE84" rx="3" ry="3" style="stroke:#038048;stroke-width:1.0;"/><text fill="#000000" font-family="sans-serif" font-size="11" lengthAdjust="spacing" textLength="285" x="102.5" y="389.8901">getMeasures() : List&lt;Measure&lt;? extends Note&gt;&gt;</text><ellipse cx="93.5" cy="399.4844" fill="#84BE84" rx="3" ry="3" style="stroke:#038048;stroke-width:1.0;"/><text fill="#000000" font-family="sans-serif" font-size="11" lengthAdjust="spacing" textLength="112" x="102.5" y="402.6948">getNoteCount() : int</text><ellipse cx="93.5" cy="412.2891" fill="#84BE84" rx="3" ry="3" style="stroke:#038048;stroke-width:1.0;"/><text fill="#000000" font-family="sans-serif" font-size="11" lengthAdjust="spacing" textLength="145" x="102.5" y="415.4995">numberOfMeasures() : int</text><ellipse cx="93.5" cy="425.0938" fill="#84BE84" rx="3" ry="3" style="stroke:#038048;stroke-width:1.0;"/><text fill="#000000" font-family="sans-serif" font-size="11" lengthAdjust="spacing" textLength="142" x="102.5" y="428.3042">processMeasures() : void</text><ellipse cx="93.5" cy="437.8984" fill="#84BE84" rx="3" ry="3" style="stroke:#038048;stroke-width:1.0;"/><text fill="#000000" font-family="sans-serif" font-size="11" lengthAdjust="spacing" textLength="279" x="102.5" y="441.1089">getMeasure(int) : ImmutablePair&lt;Range, Range&gt;</text><ellipse cx="93.5" cy="450.7031" fill="#84BE84" rx="3" ry="3" style="stroke:#038048;stroke-width:1.0;"/><text fill="#000000" font-family="sans-serif" font-size="11" lengthAdjust="spacing" textLength="126" x="102.5" y="453.9136">iterator() : Iterator&lt;E&gt;</text><ellipse cx="93.5" cy="463.5078" fill="#84BE84" rx="3" ry="3" style="stroke:#038048;stroke-width:1.0;"/><text fill="#000000" font-family="sans-serif" font-size="11" lengthAdjust="spacing" textLength="325" x="102.5" y="466.7183">measureIterator() : Iterator&lt;Measure&lt;? extends Note&gt;&gt;</text><ellipse cx="93.5" cy="476.3125" fill="#84BE84" rx="3" ry="3" style="stroke:#038048;stroke-width:1.0;"/><text fill="#000000" font-family="sans-serif" font-size="11" lengthAdjust="spacing" textLength="96" x="102.5" y="479.5229">toString() : String</text><ellipse cx="93.5" cy="489.1172" fill="#84BE84" rx="3" ry="3" style="stroke:#038048;stroke-width:1.0;"/><text fill="#000000" font-family="sans-serif" font-size="11" lengthAdjust="spacing" text-decoration="underline" textLength="168" x="102.5" y="492.3276">getAccumulateMeasure() : int</text><ellipse cx="93.5" cy="501.9219" fill="#84BE84" rx="3" ry="3" style="stroke:#038048;stroke-width:1.0;"/><text fill="#000000" font-family="sans-serif" font-size="11" lengthAdjust="spacing" text-decoration="underline" textLength="177" x="102.5" y="505.1323">setAccumulateMeasure() : void</text><ellipse cx="93.5" cy="514.7266" fill="#84BE84" rx="3" ry="3" style="stroke:#038048;stroke-width:1.0;"/><text fill="#000000" font-family="sans-serif" font-size="11" lengthAdjust="spacing" text-decoration="underline" textLength="201" x="102.5" y="517.937">getAccumulateMeasureScore() : int</text><ellipse cx="93.5" cy="527.5313" fill="#84BE84" rx="3" ry="3" style="stroke:#038048;stroke-width:1.0;"/><text fill="#000000" font-family="sans-serif" font-size="11" lengthAdjust="spacing" text-decoration="underline" textLength="210" x="102.5" y="530.7417">setAccumulateMeasureScore() : void</text><!--MD5=[47de47a8b5f06cbc5e036fae0a9149b7]
class Iterable--><rect codeLine="53" fill="#FEFECE" filter="url(#f1nytpj3k4kqln)" height="48" id="Iterable" style="stroke:#A80036;stroke-width:1.5;" width="90" x="300" y="10"/><ellipse cx="315" cy="26" fill="#B4A7E5" rx="11" ry="11" style="stroke:#A80036;stroke-width:1.0;"/><path d="M315.9531,22.7813 L317.6719,22.7813 C318.0625,22.7813 318.25,22.75 318.375,22.6719 C318.6406,22.5156 318.7813,22.2344 318.7813,21.9375 C318.7813,21.6719 318.6719,21.4063 318.4375,21.2344 C318.2656,21.125 318.125,21.0938 317.6719,21.0938 L312.5313,21.0938 C312.0938,21.0938 311.9688,21.1094 311.8125,21.2031 C311.5625,21.3594 311.4063,21.6563 311.4063,21.9375 C311.4063,22.2188 311.5469,22.4688 311.7656,22.6406 C311.9219,22.75 312.1094,22.7813 312.5313,22.7813 L314.25,22.7813 L314.25,29.2969 L312.5313,29.2969 C312.0938,29.2969 311.9688,29.3125 311.8125,29.4219 C311.5625,29.5781 311.4063,29.8594 311.4063,30.1563 C311.4063,30.4063 311.5469,30.6719 311.7656,30.8281 C311.9219,30.9531 312.125,31 312.5313,31 L317.6719,31 C318.4219,31 318.7813,30.7188 318.7813,30.1563 C318.7813,29.875 318.6719,29.625 318.4375,29.4531 C318.2656,29.3281 318.125,29.2969 317.6719,29.2969 L315.9531,29.2969 L315.9531,22.7813 Z " fill="#000000"/><text fill="#000000" font-family="sans-serif" font-size="12" font-style="italic" lengthAdjust="spacing" textLength="46" x="329" y="30.1543">Iterable</text><rect fill="#FFFFFF" height="15.9688" style="stroke:#000000;stroke-width:1.0;stroke-dasharray:2.0,2.0;" width="10" x="383" y="7"/><text fill="#000000" font-family="sans-serif" font-size="12" font-style="italic" lengthAdjust="spacing" textLength="8" x="384" y="19.1387">E</text><line style="stroke:#A80036;stroke-width:1.5;" x1="301" x2="389" y1="42" y2="42"/><line style="stroke:#A80036;stroke-width:1.5;" x1="301" x2="389" y1="50" y2="50"/><!--MD5=[3c430c169582f68806367d58c97ad460]
class ScoreIterator--><rect codeLine="34" fill="#FEFECE" filter="url(#f1nytpj3k4kqln)" height="112.0234" id="ScoreIterator" style="stroke:#A80036;stroke-width:1.5;" width="152" x="7" y="693"/><ellipse cx="35.05" cy="709" fill="#ADD1B2" rx="11" ry="11" style="stroke:#A80036;stroke-width:1.0;"/><path d="M37.3938,704.6719 C36.4563,704.2344 35.8625,704.0938 34.9875,704.0938 C32.3625,704.0938 30.3625,706.1719 30.3625,708.8906 L30.3625,710.0156 C30.3625,712.5938 32.4719,714.4844 35.3625,714.4844 C36.5813,714.4844 37.7375,714.1875 38.4875,713.6406 C39.0656,713.2344 39.3938,712.7813 39.3938,712.3906 C39.3938,711.9375 39.0031,711.5469 38.5344,711.5469 C38.3156,711.5469 38.1125,711.625 37.925,711.8125 C37.4719,712.2969 37.4719,712.2969 37.2844,712.3906 C36.8625,712.6563 36.175,712.7813 35.4094,712.7813 C33.3625,712.7813 32.0656,711.6875 32.0656,709.9844 L32.0656,708.8906 C32.0656,707.1094 33.3156,705.7969 35.05,705.7969 C35.6281,705.7969 36.2375,705.9531 36.7063,706.2031 C37.1906,706.4844 37.3625,706.7031 37.4563,707.1094 C37.5188,707.5156 37.55,707.6406 37.6906,707.7656 C37.8313,707.9063 38.0656,708.0156 38.2844,708.0156 C38.55,708.0156 38.8156,707.875 38.9875,707.6563 C39.0969,707.5 39.1281,707.3125 39.1281,706.8906 L39.1281,705.4688 C39.1281,705.0313 39.1125,704.9063 39.0188,704.75 C38.8625,704.4844 38.5813,704.3438 38.2844,704.3438 C37.9875,704.3438 37.7844,704.4375 37.5656,704.75 L37.3938,704.6719 Z " fill="#000000"/><text fill="#000000" font-family="sans-serif" font-size="12" lengthAdjust="spacing" textLength="80" x="51.95" y="713.1543">ScoreIterator</text><rect fill="#FFFFFF" height="15.9688" style="stroke:#000000;stroke-width:1.0;stroke-dasharray:2.0,2.0;" width="9" x="153" y="690"/><text fill="#000000" font-family="sans-serif" font-size="12" font-style="italic" lengthAdjust="spacing" textLength="7" x="154" y="702.1387">T</text><line style="stroke:#A80036;stroke-width:1.5;" x1="8" x2="158" y1="725" y2="725"/><rect fill="none" height="6" style="stroke:#C82930;stroke-width:1.0;" width="6" x="15" y="733"/><text fill="#000000" font-family="sans-serif" font-size="11" lengthAdjust="spacing" textLength="50" x="27" y="739.2104">int index</text><rect fill="none" height="6" style="stroke:#C82930;stroke-width:1.0;" width="6" x="15" y="745.8047"/><text fill="#000000" font-family="sans-serif" font-size="11" lengthAdjust="spacing" textLength="79" x="27" y="752.0151">List&lt;T&gt; staffs</text><line style="stroke:#A80036;stroke-width:1.5;" x1="8" x2="158" y1="758.6094" y2="758.6094"/><ellipse cx="18" cy="769.6094" fill="#84BE84" rx="3" ry="3" style="stroke:#038048;stroke-width:1.0;"/><text fill="#000000" font-family="sans-serif" font-size="11" lengthAdjust="spacing" textLength="126" x="27" y="772.8198">ScoreIterator(List&lt;T&gt;)</text><ellipse cx="18" cy="782.4141" fill="#84BE84" rx="3" ry="3" style="stroke:#038048;stroke-width:1.0;"/><text fill="#000000" font-family="sans-serif" font-size="11" lengthAdjust="spacing" textLength="112" x="27" y="785.6245">hasNext() : boolean</text><ellipse cx="18" cy="795.2188" fill="#84BE84" rx="3" ry="3" style="stroke:#038048;stroke-width:1.0;"/><text fill="#000000" font-family="sans-serif" font-size="11" lengthAdjust="spacing" textLength="52" x="27" y="798.4292">next() : T</text><!--MD5=[0e56ed922cd42fd232d2cb58453d54d6]
class MeasureIterator--><rect codeLine="43" fill="#FEFECE" filter="url(#f1nytpj3k4kqln)" height="112.0234" id="MeasureIterator" style="stroke:#A80036;stroke-width:1.5;" width="168" x="194" y="693"/><ellipse cx="222.05" cy="709" fill="#ADD1B2" rx="11" ry="11" style="stroke:#A80036;stroke-width:1.0;"/><path d="M224.3938,704.6719 C223.4563,704.2344 222.8625,704.0938 221.9875,704.0938 C219.3625,704.0938 217.3625,706.1719 217.3625,708.8906 L217.3625,710.0156 C217.3625,712.5938 219.4719,714.4844 222.3625,714.4844 C223.5813,714.4844 224.7375,714.1875 225.4875,713.6406 C226.0656,713.2344 226.3938,712.7813 226.3938,712.3906 C226.3938,711.9375 226.0031,711.5469 225.5344,711.5469 C225.3156,711.5469 225.1125,711.625 224.925,711.8125 C224.4719,712.2969 224.4719,712.2969 224.2844,712.3906 C223.8625,712.6563 223.175,712.7813 222.4094,712.7813 C220.3625,712.7813 219.0656,711.6875 219.0656,709.9844 L219.0656,708.8906 C219.0656,707.1094 220.3156,705.7969 222.05,705.7969 C222.6281,705.7969 223.2375,705.9531 223.7063,706.2031 C224.1906,706.4844 224.3625,706.7031 224.4563,707.1094 C224.5188,707.5156 224.55,707.6406 224.6906,707.7656 C224.8313,707.9063 225.0656,708.0156 225.2844,708.0156 C225.55,708.0156 225.8156,707.875 225.9875,707.6563 C226.0969,707.5 226.1281,707.3125 226.1281,706.8906 L226.1281,705.4688 C226.1281,705.0313 226.1125,704.9063 226.0188,704.75 C225.8625,704.4844 225.5813,704.3438 225.2844,704.3438 C224.9875,704.3438 224.7844,704.4375 224.5656,704.75 L224.3938,704.6719 Z " fill="#000000"/><text fill="#000000" font-family="sans-serif" font-size="12" lengthAdjust="spacing" textLength="96" x="238.95" y="713.1543">MeasureIterator</text><rect fill="#FFFFFF" height="15.9688" style="stroke:#000000;stroke-width:1.0;stroke-dasharray:2.0,2.0;" width="9" x="356" y="690"/><text fill="#000000" font-family="sans-serif" font-size="12" font-style="italic" lengthAdjust="spacing" textLength="7" x="357" y="702.1387">T</text><line style="stroke:#A80036;stroke-width:1.5;" x1="195" x2="361" y1="725" y2="725"/><rect fill="none" height="6" style="stroke:#C82930;stroke-width:1.0;" width="6" x="202" y="733"/><text fill="#000000" font-family="sans-serif" font-size="11" lengthAdjust="spacing" textLength="50" x="214" y="739.2104">int index</text><rect fill="none" height="6" style="stroke:#C82930;stroke-width:1.0;" width="6" x="202" y="745.8047"/><text fill="#000000" font-family="sans-serif" font-size="11" lengthAdjust="spacing" textLength="105" x="214" y="752.0151">List&lt;T&gt; measures</text><line style="stroke:#A80036;stroke-width:1.5;" x1="195" x2="361" y1="758.6094" y2="758.6094"/><ellipse cx="205" cy="769.6094" fill="#84BE84" rx="3" ry="3" style="stroke:#038048;stroke-width:1.0;"/><text fill="#000000" font-family="sans-serif" font-size="11" lengthAdjust="spacing" textLength="142" x="214" y="772.8198">MeasureIterator(List&lt;T&gt;)</text><ellipse cx="205" cy="782.4141" fill="#84BE84" rx="3" ry="3" style="stroke:#038048;stroke-width:1.0;"/><text fill="#000000" font-family="sans-serif" font-size="11" lengthAdjust="spacing" textLength="112" x="214" y="785.6245">hasNext() : boolean</text><ellipse cx="205" cy="795.2188" fill="#84BE84" rx="3" ry="3" style="stroke:#038048;stroke-width:1.0;"/><text fill="#000000" font-family="sans-serif" font-size="11" lengthAdjust="spacing" textLength="52" x="214" y="798.4292">next() : T</text><!--MD5=[023ecf6702e3ca2ce47ae747eafb20f1]
class Iterator--><rect codeLine="52" fill="#FEFECE" filter="url(#f1nytpj3k4kqln)" height="48" id="Iterator" style="stroke:#A80036;stroke-width:1.5;" width="88" x="739" y="10"/><ellipse cx="754" cy="26" fill="#B4A7E5" rx="11" ry="11" style="stroke:#A80036;stroke-width:1.0;"/><path d="M754.9531,22.7813 L756.6719,22.7813 C757.0625,22.7813 757.25,22.75 757.375,22.6719 C757.6406,22.5156 757.7813,22.2344 757.7813,21.9375 C757.7813,21.6719 757.6719,21.4063 757.4375,21.2344 C757.2656,21.125 757.125,21.0938 756.6719,21.0938 L751.5313,21.0938 C751.0938,21.0938 750.9688,21.1094 750.8125,21.2031 C750.5625,21.3594 750.4063,21.6563 750.4063,21.9375 C750.4063,22.2188 750.5469,22.4688 750.7656,22.6406 C750.9219,22.75 751.1094,22.7813 751.5313,22.7813 L753.25,22.7813 L753.25,29.2969 L751.5313,29.2969 C751.0938,29.2969 750.9688,29.3125 750.8125,29.4219 C750.5625,29.5781 750.4063,29.8594 750.4063,30.1563 C750.4063,30.4063 750.5469,30.6719 750.7656,30.8281 C750.9219,30.9531 751.125,31 751.5313,31 L756.6719,31 C757.4219,31 757.7813,30.7188 757.7813,30.1563 C757.7813,29.875 757.6719,29.625 757.4375,29.4531 C757.2656,29.3281 757.125,29.2969 756.6719,29.2969 L754.9531,29.2969 L754.9531,22.7813 Z " fill="#000000"/><text fill="#000000" font-family="sans-serif" font-size="12" font-style="italic" lengthAdjust="spacing" textLength="45" x="768" y="30.1543">Iterator</text><rect fill="#FFFFFF" height="15.9688" style="stroke:#000000;stroke-width:1.0;stroke-dasharray:2.0,2.0;" width="9" x="821" y="7"/><text fill="#000000" font-family="sans-serif" font-size="12" font-style="italic" lengthAdjust="spacing" textLength="7" x="822" y="19.1387">T</text><line style="stroke:#A80036;stroke-width:1.5;" x1="740" x2="826" y1="42" y2="42"/><line style="stroke:#A80036;stroke-width:1.5;" x1="740" x2="826" y1="50" y2="50"/><!--MD5=[0437b430ff8a8ae0d12c858c7b1f7578]
class ScoreItem--><rect codeLine="54" fill="#FEFECE" filter="url(#f1nytpj3k4kqln)" height="48" id="ScoreItem" style="stroke:#A80036;stroke-width:1.5;" width="94" x="682" y="303.5"/><ellipse cx="697" cy="319.5" fill="#A9DCDF" rx="11" ry="11" style="stroke:#A80036;stroke-width:1.0;"/><path d="M699.0781,321.3125 L699.4688,322.2969 L699.0781,322.2969 C698.625,322.2969 698.5156,322.3125 698.3594,322.4219 C698.1094,322.5781 697.9531,322.8594 697.9531,323.1563 C697.9531,323.4219 698.0938,323.6719 698.3125,323.8281 C698.4531,323.9531 698.6563,324 699.0781,324 L701.4375,324 C701.7969,324 702.0156,323.9688 702.1563,323.875 C702.4063,323.7344 702.5625,323.4375 702.5625,323.1563 C702.5625,322.875 702.4219,322.625 702.2031,322.4688 C702.0313,322.3281 701.875,322.2969 701.4063,322.2969 L698.0156,314.0938 L694.3438,314.0938 C693.8906,314.0938 693.7656,314.1094 693.6094,314.2031 C693.3594,314.375 693.2031,314.6563 693.2031,314.9375 C693.2031,315.2188 693.3438,315.4688 693.5625,315.6406 C693.7344,315.75 693.9063,315.7813 694.3438,315.7813 L695.4219,315.7813 L692.7813,322.2969 C692.3594,322.2969 692.2031,322.3125 692.0469,322.4219 C691.7969,322.5781 691.6406,322.8594 691.6406,323.1563 C691.6406,323.7188 692.0156,324 692.7656,324 L695.0313,324 C695.3906,324 695.6094,323.9688 695.7344,323.875 C696,323.7344 696.1406,323.4375 696.1406,323.1563 C696.1406,322.875 696.0156,322.625 695.7969,322.4531 C695.625,322.3281 695.4844,322.2969 695.0313,322.2969 L694.6406,322.2969 L695.0313,321.3125 L699.0781,321.3125 Z M698.375,319.6094 L695.7031,319.6094 L697.0469,316.3438 L698.375,319.6094 Z " fill="#000000"/><text fill="#000000" font-family="sans-serif" font-size="12" font-style="italic" lengthAdjust="spacing" textLength="62" x="711" y="323.6543">ScoreItem</text><line style="stroke:#A80036;stroke-width:1.5;" x1="683" x2="775" y1="335.5" y2="335.5"/><line style="stroke:#A80036;stroke-width:1.5;" x1="683" x2="775" y1="343.5" y2="343.5"/><!--MD5=[6081a303407aa0c0464c8b50c38f5612]
class Staff--><rect codeLine="56" fill="#FEFECE" filter="url(#f1nytpj3k4kqln)" height="304.0938" id="Staff" style="stroke:#A80036;stroke-width:1.5;" width="281" x="417.5" y="597"/><ellipse cx="493.25" cy="613" fill="#A9DCDF" rx="11" ry="11" style="stroke:#A80036;stroke-width:1.0;"/><path d="M495.3281,614.8125 L495.7188,615.7969 L495.3281,615.7969 C494.875,615.7969 494.7656,615.8125 494.6094,615.9219 C494.3594,616.0781 494.2031,616.3594 494.2031,616.6563 C494.2031,616.9219 494.3438,617.1719 494.5625,617.3281 C494.7031,617.4531 494.9063,617.5 495.3281,617.5 L497.6875,617.5 C498.0469,617.5 498.2656,617.4688 498.4063,617.375 C498.6563,617.2344 498.8125,616.9375 498.8125,616.6563 C498.8125,616.375 498.6719,616.125 498.4531,615.9688 C498.2813,615.8281 498.125,615.7969 497.6563,615.7969 L494.2656,607.5938 L490.5938,607.5938 C490.1406,607.5938 490.0156,607.6094 489.8594,607.7031 C489.6094,607.875 489.4531,608.1563 489.4531,608.4375 C489.4531,608.7188 489.5938,608.9688 489.8125,609.1406 C489.9844,609.25 490.1563,609.2813 490.5938,609.2813 L491.6719,609.2813 L489.0313,615.7969 C488.6094,615.7969 488.4531,615.8125 488.2969,615.9219 C488.0469,616.0781 487.8906,616.3594 487.8906,616.6563 C487.8906,617.2188 488.2656,617.5 489.0156,617.5 L491.2813,617.5 C491.6406,617.5 491.8594,617.4688 491.9844,617.375 C492.25,617.2344 492.3906,616.9375 492.3906,616.6563 C492.3906,616.375 492.2656,616.125 492.0469,615.9531 C491.875,615.8281 491.7344,615.7969 491.2813,615.7969 L490.8906,615.7969 L491.2813,614.8125 L495.3281,614.8125 Z M494.625,613.1094 L491.9531,613.1094 L493.2969,609.8438 L494.625,613.1094 Z " fill="#000000"/><text fill="#000000" font-family="sans-serif" font-size="12" font-style="italic" lengthAdjust="spacing" textLength="28" x="513.75" y="617.1543">Staff</text><rect fill="#FFFFFF" height="15.9688" style="stroke:#000000;stroke-width:1.0;stroke-dasharray:2.0,2.0;" width="91" x="610.5" y="594"/><text fill="#000000" font-family="sans-serif" font-size="12" font-style="italic" lengthAdjust="spacing" textLength="89" x="611.5" y="606.1387">E extends Line</text><line style="stroke:#A80036;stroke-width:1.5;" x1="418.5" x2="697.5" y1="629" y2="629"/><rect fill="none" height="6" style="stroke:#C82930;stroke-width:1.0;" width="6" x="425.5" y="637"/><text fill="#000000" font-family="sans-serif" font-size="11" lengthAdjust="spacing" textLength="145" x="437.5" y="643.2104">Optional&lt;Integer&gt; beats;</text><rect fill="none" height="6" style="stroke:#C82930;stroke-width:1.0;" width="6" x="425.5" y="649.8047"/><text fill="#000000" font-family="sans-serif" font-size="11" lengthAdjust="spacing" textLength="168" x="437.5" y="656.0151">Optional&lt;Integer&gt; beatTYpe;</text><rect fill="none" height="6" style="stroke:#C82930;stroke-width:1.0;" width="6" x="425.5" y="662.6094"/><text fill="#000000" font-family="sans-serif" font-size="11" lengthAdjust="spacing" textLength="156" x="437.5" y="668.8198">Optional&lt;Integer&gt; division;</text><polygon fill="none" points="428.5,673.4141,432.5,677.4141,428.5,681.4141,424.5,677.4141" style="stroke:#B38D22;stroke-width:1.0;"/><text fill="#000000" font-family="sans-serif" font-size="11" lengthAdjust="spacing" textLength="179" x="437.5" y="681.6245">Stack&lt;Note&gt; repeatNoteStack;</text><line style="stroke:#A80036;stroke-width:1.5;" x1="418.5" x2="697.5" y1="688.2188" y2="688.2188"/><ellipse cx="428.5" cy="699.2188" fill="#84BE84" rx="3" ry="3" style="stroke:#038048;stroke-width:1.0;"/><text fill="#000000" font-family="sans-serif" font-size="11" lengthAdjust="spacing" textLength="35" x="437.5" y="702.4292">Staff()</text><ellipse cx="428.5" cy="712.0234" fill="#84BE84" rx="3" ry="3" style="stroke:#038048;stroke-width:1.0;"/><text fill="#000000" font-family="sans-serif" font-size="11" font-style="italic" lengthAdjust="spacing" textLength="89" x="437.5" y="715.2339">add(E): boolean</text><ellipse cx="428.5" cy="724.8281" fill="#84BE84" rx="3" ry="3" style="stroke:#038048;stroke-width:1.0;"/><text fill="#000000" font-family="sans-serif" font-size="11" font-style="italic" lengthAdjust="spacing" textLength="254" x="437.5" y="728.0386">addLines(Collection&lt;? extends E&gt;) : boolean</text><ellipse cx="428.5" cy="737.6328" fill="#84BE84" rx="3" ry="3" style="stroke:#038048;stroke-width:1.0;"/><text fill="#000000" font-family="sans-serif" font-size="11" font-style="italic" lengthAdjust="spacing" textLength="111" x="437.5" y="740.8433">getLines() : List&lt;E&gt;</text><ellipse cx="428.5" cy="750.4375" fill="#84BE84" rx="3" ry="3" style="stroke:#038048;stroke-width:1.0;"/><text fill="#000000" font-family="sans-serif" font-size="11" font-style="italic" lengthAdjust="spacing" textLength="145" x="437.5" y="753.6479">numberOfMeasures() : int</text><ellipse cx="428.5" cy="763.2422" fill="#84BE84" rx="3" ry="3" style="stroke:#038048;stroke-width:1.0;"/><text fill="#000000" font-family="sans-serif" font-size="11" font-style="italic" lengthAdjust="spacing" textLength="106" x="437.5" y="766.4526">lineCount() : String</text><ellipse cx="428.5" cy="776.0469" fill="#84BE84" rx="3" ry="3" style="stroke:#038048;stroke-width:1.0;"/><text fill="#000000" font-family="sans-serif" font-size="11" font-style="italic" lengthAdjust="spacing" textLength="56" x="437.5" y="779.2573">size() : int</text><ellipse cx="428.5" cy="788.8516" fill="#84BE84" rx="3" ry="3" style="stroke:#038048;stroke-width:1.0;"/><text fill="#000000" font-family="sans-serif" font-size="11" font-style="italic" lengthAdjust="spacing" textLength="64" x="437.5" y="792.062">width() : int</text><ellipse cx="428.5" cy="801.6563" fill="#84BE84" rx="3" ry="3" style="stroke:#038048;stroke-width:1.0;"/><text fill="#000000" font-family="sans-serif" font-size="11" font-style="italic" lengthAdjust="spacing" textLength="158" x="437.5" y="804.8667">getNotes() : TreeSet&lt;Note&gt;</text><ellipse cx="428.5" cy="814.4609" fill="#84BE84" rx="3" ry="3" style="stroke:#038048;stroke-width:1.0;"/><text fill="#000000" font-family="sans-serif" font-size="11" font-style="italic" lengthAdjust="spacing" textLength="173" x="437.5" y="817.6714">noteIterator() : Iterator&lt;Note&gt;</text><ellipse cx="428.5" cy="827.2656" fill="#84BE84" rx="3" ry="3" style="stroke:#038048;stroke-width:1.0;"/><text fill="#000000" font-family="sans-serif" font-size="11" font-style="italic" lengthAdjust="spacing" textLength="255" x="437.5" y="830.4761">measureIterator() : Iterator&lt;Measure&lt;Note&gt;</text><ellipse cx="428.5" cy="840.0703" fill="#84BE84" rx="3" ry="3" style="stroke:#038048;stroke-width:1.0;"/><text fill="#000000" font-family="sans-serif" font-size="11" font-style="italic" lengthAdjust="spacing" textLength="129" x="437.5" y="843.2808">iterator() : Iterator&lt;E&gt;</text><ellipse cx="428.5" cy="852.875" fill="#84BE84" rx="3" ry="3" style="stroke:#038048;stroke-width:1.0;"/><text fill="#000000" font-family="sans-serif" font-size="11" lengthAdjust="spacing" textLength="112" x="437.5" y="856.0854">getNoteCount() : int</text><ellipse cx="428.5" cy="865.6797" fill="#84BE84" rx="3" ry="3" style="stroke:#038048;stroke-width:1.0;"/><text fill="#000000" font-family="sans-serif" font-size="11" lengthAdjust="spacing" textLength="96" x="437.5" y="868.8901">toString() : String</text><ellipse cx="428.5" cy="878.4844" fill="#84BE84" rx="3" ry="3" style="stroke:#038048;stroke-width:1.0;"/><text fill="#000000" font-family="sans-serif" font-size="11" lengthAdjust="spacing" textLength="78" x="437.5" y="881.6948">time() : String</text><ellipse cx="428.5" cy="891.2891" fill="#84BE84" rx="3" ry="3" style="stroke:#038048;stroke-width:1.0;"/><text fill="#000000" font-family="sans-serif" font-size="11" lengthAdjust="spacing" textLength="210" x="437.5" y="894.4995">toList() : List&lt;LinkedList&lt;LineItem&gt;&gt;</text><!--MD5=[d6d0992beb53de3366de8c91c341d9bf]
class Measure--><rect codeLine="80" fill="#FEFECE" filter="url(#f1nytpj3k4kqln)" height="48" id="Measure" style="stroke:#A80036;stroke-width:1.5;" width="180" x="753" y="725"/><ellipse cx="768" cy="741" fill="#ADD1B2" rx="11" ry="11" style="stroke:#A80036;stroke-width:1.0;"/><path d="M770.3438,736.6719 C769.4063,736.2344 768.8125,736.0938 767.9375,736.0938 C765.3125,736.0938 763.3125,738.1719 763.3125,740.8906 L763.3125,742.0156 C763.3125,744.5938 765.4219,746.4844 768.3125,746.4844 C769.5313,746.4844 770.6875,746.1875 771.4375,745.6406 C772.0156,745.2344 772.3438,744.7813 772.3438,744.3906 C772.3438,743.9375 771.9531,743.5469 771.4844,743.5469 C771.2656,743.5469 771.0625,743.625 770.875,743.8125 C770.4219,744.2969 770.4219,744.2969 770.2344,744.3906 C769.8125,744.6563 769.125,744.7813 768.3594,744.7813 C766.3125,744.7813 765.0156,743.6875 765.0156,741.9844 L765.0156,740.8906 C765.0156,739.1094 766.2656,737.7969 768,737.7969 C768.5781,737.7969 769.1875,737.9531 769.6563,738.2031 C770.1406,738.4844 770.3125,738.7031 770.4063,739.1094 C770.4688,739.5156 770.5,739.6406 770.6406,739.7656 C770.7813,739.9063 771.0156,740.0156 771.2344,740.0156 C771.5,740.0156 771.7656,739.875 771.9375,739.6563 C772.0469,739.5 772.0781,739.3125 772.0781,738.8906 L772.0781,737.4688 C772.0781,737.0313 772.0625,736.9063 771.9688,736.75 C771.8125,736.4844 771.5313,736.3438 771.2344,736.3438 C770.9375,736.3438 770.7344,736.4375 770.5156,736.75 L770.3438,736.6719 Z " fill="#000000"/><text fill="#000000" font-family="sans-serif" font-size="12" lengthAdjust="spacing" textLength="52" x="782" y="745.1543">Measure</text><rect fill="#FFFFFF" height="15.9688" style="stroke:#000000;stroke-width:1.0;stroke-dasharray:2.0,2.0;" width="94" x="842" y="722"/><text fill="#000000" font-family="sans-serif" font-size="12" font-style="italic" lengthAdjust="spacing" textLength="92" x="843" y="734.1387">E extends Note</text><line style="stroke:#A80036;stroke-width:1.5;" x1="754" x2="932" y1="757" y2="757"/><line style="stroke:#A80036;stroke-width:1.5;" x1="754" x2="932" y1="765" y2="765"/><!--MD5=[7a4729d26b999f6a4650b01106c103c5]
class Comparable--><rect fill="#FEFECE" filter="url(#f1nytpj3k4kqln)" height="48" id="Comparable" style="stroke:#A80036;stroke-width:1.5;" width="104" x="811" y="303.5"/><ellipse cx="826" cy="319.5" fill="#B4A7E5" rx="11" ry="11" style="stroke:#A80036;stroke-width:1.0;"/><path d="M826.9531,316.2813 L828.6719,316.2813 C829.0625,316.2813 829.25,316.25 829.375,316.1719 C829.6406,316.0156 829.7813,315.7344 829.7813,315.4375 C829.7813,315.1719 829.6719,314.9063 829.4375,314.7344 C829.2656,314.625 829.125,314.5938 828.6719,314.5938 L823.5313,314.5938 C823.0938,314.5938 822.9688,314.6094 822.8125,314.7031 C822.5625,314.8594 822.4063,315.1563 822.4063,315.4375 C822.4063,315.7188 822.5469,315.9688 822.7656,316.1406 C822.9219,316.25 823.1094,316.2813 823.5313,316.2813 L825.25,316.2813 L825.25,322.7969 L823.5313,322.7969 C823.0938,322.7969 822.9688,322.8125 822.8125,322.9219 C822.5625,323.0781 822.4063,323.3594 822.4063,323.6563 C822.4063,323.9063 822.5469,324.1719 822.7656,324.3281 C822.9219,324.4531 823.125,324.5 823.5313,324.5 L828.6719,324.5 C829.4219,324.5 829.7813,324.2188 829.7813,323.6563 C829.7813,323.375 829.6719,323.125 829.4375,322.9531 C829.2656,322.8281 829.125,322.7969 828.6719,322.7969 L826.9531,322.7969 L826.9531,316.2813 Z " fill="#000000"/><text fill="#000000" font-family="sans-serif" font-size="12" font-style="italic" lengthAdjust="spacing" textLength="72" x="840" y="323.6543">Comparable</text><line style="stroke:#A80036;stroke-width:1.5;" x1="812" x2="914" y1="335.5" y2="335.5"/><line style="stroke:#A80036;stroke-width:1.5;" x1="812" x2="914" y1="343.5" y2="343.5"/><!--MD5=[bf87e382a809b01eee8f9b03409cecfa]
class GuitarStaff--><rect fill="#FEFECE" filter="url(#f1nytpj3k4kqln)" height="48" id="GuitarStaff" style="stroke:#A80036;stroke-width:1.5;" width="94" x="610" y="10"/><ellipse cx="625" cy="26" fill="#ADD1B2" rx="11" ry="11" style="stroke:#A80036;stroke-width:1.0;"/><path d="M627.3438,21.6719 C626.4063,21.2344 625.8125,21.0938 624.9375,21.0938 C622.3125,21.0938 620.3125,23.1719 620.3125,25.8906 L620.3125,27.0156 C620.3125,29.5938 622.4219,31.4844 625.3125,31.4844 C626.5313,31.4844 627.6875,31.1875 628.4375,30.6406 C629.0156,30.2344 629.3438,29.7813 629.3438,29.3906 C629.3438,28.9375 628.9531,28.5469 628.4844,28.5469 C628.2656,28.5469 628.0625,28.625 627.875,28.8125 C627.4219,29.2969 627.4219,29.2969 627.2344,29.3906 C626.8125,29.6563 626.125,29.7813 625.3594,29.7813 C623.3125,29.7813 622.0156,28.6875 622.0156,26.9844 L622.0156,25.8906 C622.0156,24.1094 623.2656,22.7969 625,22.7969 C625.5781,22.7969 626.1875,22.9531 626.6563,23.2031 C627.1406,23.4844 627.3125,23.7031 627.4063,24.1094 C627.4688,24.5156 627.5,24.6406 627.6406,24.7656 C627.7813,24.9063 628.0156,25.0156 628.2344,25.0156 C628.5,25.0156 628.7656,24.875 628.9375,24.6563 C629.0469,24.5 629.0781,24.3125 629.0781,23.8906 L629.0781,22.4688 C629.0781,22.0313 629.0625,21.9063 628.9688,21.75 C628.8125,21.4844 628.5313,21.3438 628.2344,21.3438 C627.9375,21.3438 627.7344,21.4375 627.5156,21.75 L627.3438,21.6719 Z " fill="#000000"/><text fill="#000000" font-family="sans-serif" font-size="12" lengthAdjust="spacing" textLength="62" x="639" y="30.1543">GuitarStaff</text><line style="stroke:#A80036;stroke-width:1.5;" x1="611" x2="703" y1="42" y2="42"/><line style="stroke:#A80036;stroke-width:1.5;" x1="611" x2="703" y1="50" y2="50"/><!--MD5=[50ead89b12dbffd6b5c1a3c1237897d8]
class DrumStaff--><rect fill="#FEFECE" filter="url(#f1nytpj3k4kqln)" height="48" id="DrumStaff" style="stroke:#A80036;stroke-width:1.5;" width="91" x="483.5" y="10"/><ellipse cx="498.5" cy="26" fill="#ADD1B2" rx="11" ry="11" style="stroke:#A80036;stroke-width:1.0;"/><path d="M500.8438,21.6719 C499.9063,21.2344 499.3125,21.0938 498.4375,21.0938 C495.8125,21.0938 493.8125,23.1719 493.8125,25.8906 L493.8125,27.0156 C493.8125,29.5938 495.9219,31.4844 498.8125,31.4844 C500.0313,31.4844 501.1875,31.1875 501.9375,30.6406 C502.5156,30.2344 502.8438,29.7813 502.8438,29.3906 C502.8438,28.9375 502.4531,28.5469 501.9844,28.5469 C501.7656,28.5469 501.5625,28.625 501.375,28.8125 C500.9219,29.2969 500.9219,29.2969 500.7344,29.3906 C500.3125,29.6563 499.625,29.7813 498.8594,29.7813 C496.8125,29.7813 495.5156,28.6875 495.5156,26.9844 L495.5156,25.8906 C495.5156,24.1094 496.7656,22.7969 498.5,22.7969 C499.0781,22.7969 499.6875,22.9531 500.1563,23.2031 C500.6406,23.4844 500.8125,23.7031 500.9063,24.1094 C500.9688,24.5156 501,24.6406 501.1406,24.7656 C501.2813,24.9063 501.5156,25.0156 501.7344,25.0156 C502,25.0156 502.2656,24.875 502.4375,24.6563 C502.5469,24.5 502.5781,24.3125 502.5781,23.8906 L502.5781,22.4688 C502.5781,22.0313 502.5625,21.9063 502.4688,21.75 C502.3125,21.4844 502.0313,21.3438 501.7344,21.3438 C501.4375,21.3438 501.2344,21.4375 501.0156,21.75 L500.8438,21.6719 Z " fill="#000000"/><text fill="#000000" font-family="sans-serif" font-size="12" lengthAdjust="spacing" textLength="59" x="512.5" y="30.1543">DrumStaff</text><line style="stroke:#A80036;stroke-width:1.5;" x1="484.5" x2="573.5" y1="42" y2="42"/><line style="stroke:#A80036;stroke-width:1.5;" x1="484.5" x2="573.5" y1="50" y2="50"/><!--MD5=[666d996a60bd6c8c4af0438933dd5d9f]
reverse link Iterable to Score--><path d="M332.306,77.533 C328.762,89.407 324.658,103.158 320.234,117.98 " fill="none" id="Iterable-backto-Score" style="stroke:#A80036;stroke-width:1.0;stroke-dasharray:7.0,7.0;"/><polygon fill="none" points="325.6,75.525,338.027,58.362,339.015,79.529,325.6,75.525" style="stroke:#A80036;stroke-width:1.0;"/><!--MD5=[ce87b53700f245376ec7e49682c64d3b]
reverse link ScoreItem to Staff--><path d="M715.226,370.814 C701.127,413.236 678.07,480.227 655,537 C647.069,556.516 638.335,576.855 629.456,596.869 " fill="none" id="ScoreItem-backto-Staff" style="stroke:#A80036;stroke-width:1.0;"/><polygon fill="none" points="708.655,368.389,721.562,351.584,721.952,372.77,708.655,368.389" style="stroke:#A80036;stroke-width:1.0;"/><!--MD5=[fbbce8bb8c16d002c85e0f6dc18b4b2d]
reverse link Iterable to Staff--><path d="M404.497,69.516 C422.068,82.541 439.621,98.904 451,118 C457.154,128.327 504.049,413.624 533.679,596.709 " fill="none" id="Iterable-backto-Staff" style="stroke:#A80036;stroke-width:1.0;stroke-dasharray:7.0,7.0;"/><polygon fill="none" points="400.363,75.169,387.847,58.071,408.294,63.632,400.363,75.169" style="stroke:#A80036;stroke-width:1.0;"/><!--MD5=[451c7b100fb7cda7035a10cd665dd04a]
reverse link Comparable to Measure--><path d="M860.936,371.783 C856.736,459.897 847.316,657.47 844.1,724.92 " fill="none" id="Comparable-backto-Measure" style="stroke:#A80036;stroke-width:1.0;stroke-dasharray:7.0,7.0;"/><polygon fill="none" points="853.952,371.296,861.896,351.652,867.936,371.962,853.952,371.296" style="stroke:#A80036;stroke-width:1.0;"/><!--MD5=[0b04042fee6e0614e5c9e2a1a1584166]
reverse link Score to ScoreIterator--><path codeLine="82" d="M165.105,551.183 C143.093,603.948 121.539,655.618 106.0413,692.767 " fill="none" id="Score-backto-ScoreIterator" style="stroke:#A80036;stroke-width:1.0;"/><ellipse cx="167.9328" cy="544.4042" fill="#FFFFFF" rx="8" ry="8" style="stroke:#A80036;stroke-width:1.0;"/><line style="stroke:#A80036;stroke-width:1.0;" x1="164.8526" x2="171.013" y1="551.7875" y2="537.021"/><line style="stroke:#A80036;stroke-width:1.0;" x1="160.5495" x2="175.316" y1="541.324" y2="547.4845"/><!--MD5=[af3de0b4ae723efe1be1549f9cfdcb44]
reverse link Score to MeasureIterator--><path codeLine="83" d="M268.665,552.193 C271.164,604.607 273.607,655.855 275.367,692.767 " fill="none" id="Score-backto-MeasureIterator" style="stroke:#A80036;stroke-width:1.0;"/><ellipse cx="268.322" cy="545.0119" fill="#FFFFFF" rx="8" ry="8" style="stroke:#A80036;stroke-width:1.0;"/><line style="stroke:#A80036;stroke-width:1.0;" x1="268.7029" x2="267.941" y1="553.0028" y2="537.021"/><line style="stroke:#A80036;stroke-width:1.0;" x1="260.331" x2="276.3129" y1="545.3929" y2="544.631"/><!--MD5=[c38772ab34ac5dbad5246ede3c48f077]
reverse link Score to Measure--><path codeLine="84" d="M445.166,419.373 C532.097,466.16 634.089,527.884 716,597 C762.339,636.1 805.311,693.317 827.42,724.906 " fill="none" id="Score-backto-Measure" style="stroke:#A80036;stroke-width:1.0;"/><polygon fill="#A80036" points="433.552,413.162,436.957,419.5186,444.1342,418.8203,440.7292,412.4638,433.552,413.162" style="stroke:#A80036;stroke-width:1.0;"/><text fill="#000000" font-family="sans-serif" font-size="13" lengthAdjust="spacing" textLength="7" x="441.6653" y="413.766">*</text><!--MD5=[3d16544ca464ddd356fb0b098038b6b8]
reverse link Score to Staff--><path codeLine="85" d="M414.888,547.881 C426.699,564.397 438.452,580.833 449.855,596.778 " fill="none" id="Score-backto-Staff" style="stroke:#A80036;stroke-width:1.0;"/><polygon fill="#A80036" points="407.121,537.021,407.3573,544.2282,414.101,546.7821,413.8647,539.5749,407.121,537.021" style="stroke:#A80036;stroke-width:1.0;"/><text fill="#000000" font-family="sans-serif" font-size="13" lengthAdjust="spacing" textLength="7" x="405.8093" y="557.5613">*</text><!--MD5=[07245fe8b969e0a18c84bedbe4ae8af3]
reverse link GuitarStaff to Staff--><path codeLine="86" d="M650.97,78.431 C636.996,179.069 601.852,432.177 579,596.76 " fill="none" id="GuitarStaff-backto-Staff" style="stroke:#A80036;stroke-width:1.0;"/><polygon fill="none" points="644.078,77.165,653.762,58.317,657.945,79.09,644.078,77.165" style="stroke:#A80036;stroke-width:1.0;"/><!--MD5=[ec9c8c68395d2b838dc50cad6e1c4aab]
reverse link DrumStaff to Staff--><path codeLine="87" d="M530.766,78.431 C534.86,179.069 545.154,432.177 551.849,596.76 " fill="none" id="DrumStaff-backto-Staff" style="stroke:#A80036;stroke-width:1.0;"/><polygon fill="none" points="523.767,78.585,529.948,58.317,537.755,78.016,523.767,78.585" style="stroke:#A80036;stroke-width:1.0;"/><!--MD5=[b71a5f89cafdd58c395eb91174387d1c]
@startuml
class Score<E extends Staff<? extends Line>> implements Iterable{
  +{static} int DEFAULT_BEATS = 4
  +{static} int DEFAULT_BEATTYPE = 4
  +{static} int DEFAULT_DIVISION = 2

  -Optional<Integer> beats;
  -Optional<Integer> beatTYpe;
  -Optional<Integer> division;

  -List<E> staffs
  -List<Measure<? extends Note>> measures
  -{static} int accumulateMeasure
  -{static} int accumulateMeasureScore

  +Score()

  +addStaff(E e) : boolean
  +size() : int
  +getStaffs() : List<E>
  +getMeasures() : List<Measure<? extends Note>>
  +getNoteCount() : int
  +numberOfMeasures() : int
  +processMeasures() : void
  +getMeasure(int) : ImmutablePair<Range, Range>
  +iterator() : Iterator<E>
  +measureIterator() : Iterator<Measure<? extends Note>>
  +toString() : String
  +{static}getAccumulateMeasure() : int
  +{static}setAccumulateMeasure() : void
  +{static}getAccumulateMeasureScore() : int
  +{static}setAccumulateMeasureScore() : void
}

class ScoreIterator<T> {
  -int index
  -List<T> staffs
  
  +ScoreIterator(List<T>)
  +hasNext() : boolean
  +next() : T
}

class MeasureIterator<T> {
  -int index
  -List<T> measures
  
  +MeasureIterator(List<T>)
  +hasNext() : boolean
  +next() : T
}

interface Iterator<T> {}
interface Iterable<E> {}
abstract class ScoreItem{}

abstract class Staff<E extends Line> extends ScoreItem implements Iterable{
  -Optional<Integer> beats;
  -Optional<Integer> beatTYpe;
  -Optional<Integer> division;
  #Stack<Note> repeatNoteStack;
  
  +Staff()
  +{abstract} add(E): boolean
  +{abstract} addLines(Collection<? extends E>) : boolean
  +{abstract} getLines() : List<E>
  +{abstract} numberOfMeasures() : int
  +{abstract} lineCount() : String
  +{abstract} size() : int
  +{abstract} width() : int
  +{abstract} getNotes() : TreeSet<Note>
  +{abstract} noteIterator() : Iterator<Note>
  +{abstract} measureIterator() : Iterator<Measure<Note>
  +{abstract} iterator() : Iterator<E>
  +getNoteCount() : int
  +toString() : String
  +time() : String
  +toList() : List<LinkedList<LineItem>>
}

class Measure<E extends Note> implements Comparable{}

Score +- - ScoreIterator
Score +- - MeasureIterator
Score "*" *- - Measure
Score "*" *- - Staff
GuitarStaff <|- - - Staff
DrumStaff <|- - - Staff
@enduml

PlantUML version 1.2021.5beta3(Unknown compile time)
(GPL source distribution)
Java Runtime: Java(TM) SE Runtime Environment
JVM: Java HotSpot(TM) 64-Bit Server VM
Default Encoding: UTF-8
Language: en
Country: US
--></g></svg>