<?xml version="1.0" encoding="UTF-8" standalone="no"?><svg xmlns="http://www.w3.org/2000/svg" xmlns:xlink="http://www.w3.org/1999/xlink" contentScriptType="application/ecmascript" contentStyleType="text/css" height="656px" preserveAspectRatio="none" style="width:1688px;height:656px;" version="1.1" viewBox="0 0 1688 656" width="1688px" zoomAndPan="magnify"><defs><filter height="300%" id="ftn4gm56xa1qv" width="300%" x="-1" y="-1"><feGaussianBlur result="blurOut" stdDeviation="2.0"/><feColorMatrix in="blurOut" result="blurOut2" type="matrix" values="0 0 0 0 0 0 0 0 0 0 0 0 0 0 0 0 0 0 .4 0"/><feOffset dx="4.0" dy="4.0" in="blurOut2" result="blurOut3"/><feBlend in="SourceGraphic" in2="blurOut3" mode="normal"/></filter></defs><g><!--MD5=[107af66394bf1ebaa045812c9c475148]
class Score--><rect codeLine="1" fill="#FEFECE" filter="url(#ftn4gm56xa1qv)" height="48" id="Score" style="stroke:#A80036;stroke-width:1.5;" width="271" x="435.5" y="486"/><ellipse cx="450.5" cy="502" fill="#ADD1B2" rx="11" ry="11" style="stroke:#A80036;stroke-width:1.0;"/><path d="M452.8438,497.6719 C451.9063,497.2344 451.3125,497.0938 450.4375,497.0938 C447.8125,497.0938 445.8125,499.1719 445.8125,501.8906 L445.8125,503.0156 C445.8125,505.5938 447.9219,507.4844 450.8125,507.4844 C452.0313,507.4844 453.1875,507.1875 453.9375,506.6406 C454.5156,506.2344 454.8438,505.7813 454.8438,505.3906 C454.8438,504.9375 454.4531,504.5469 453.9844,504.5469 C453.7656,504.5469 453.5625,504.625 453.375,504.8125 C452.9219,505.2969 452.9219,505.2969 452.7344,505.3906 C452.3125,505.6563 451.625,505.7813 450.8594,505.7813 C448.8125,505.7813 447.5156,504.6875 447.5156,502.9844 L447.5156,501.8906 C447.5156,500.1094 448.7656,498.7969 450.5,498.7969 C451.0781,498.7969 451.6875,498.9531 452.1563,499.2031 C452.6406,499.4844 452.8125,499.7031 452.9063,500.1094 C452.9688,500.5156 453,500.6406 453.1406,500.7656 C453.2813,500.9063 453.5156,501.0156 453.7344,501.0156 C454,501.0156 454.2656,500.875 454.4375,500.6563 C454.5469,500.5 454.5781,500.3125 454.5781,499.8906 L454.5781,498.4688 C454.5781,498.0313 454.5625,497.9063 454.4688,497.75 C454.3125,497.4844 454.0313,497.3438 453.7344,497.3438 C453.4375,497.3438 453.2344,497.4375 453.0156,497.75 L452.8438,497.6719 Z " fill="#000000"/><text fill="#000000" font-family="sans-serif" font-size="12" lengthAdjust="spacing" textLength="36" x="464.5" y="506.1543">Score</text><rect fill="#FFFFFF" height="15.9688" style="stroke:#000000;stroke-width:1.0;stroke-dasharray:2.0,2.0;" width="201" x="508.5" y="483"/><text fill="#000000" font-family="sans-serif" font-size="12" font-style="italic" lengthAdjust="spacing" textLength="199" x="509.5" y="495.1387">E extends Staff&lt;? extends Line&gt;</text><line style="stroke:#A80036;stroke-width:1.5;" x1="436.5" x2="705.5" y1="518" y2="518"/><line style="stroke:#A80036;stroke-width:1.5;" x1="436.5" x2="705.5" y1="526" y2="526"/><!--MD5=[47de47a8b5f06cbc5e036fae0a9149b7]
class Iterable--><rect fill="#FEFECE" filter="url(#ftn4gm56xa1qv)" height="48" id="Iterable" style="stroke:#A80036;stroke-width:1.5;" width="78" x="398" y="192.5"/><ellipse cx="413" cy="208.5" fill="#B4A7E5" rx="11" ry="11" style="stroke:#A80036;stroke-width:1.0;"/><path d="M413.9531,205.2813 L415.6719,205.2813 C416.0625,205.2813 416.25,205.25 416.375,205.1719 C416.6406,205.0156 416.7813,204.7344 416.7813,204.4375 C416.7813,204.1719 416.6719,203.9063 416.4375,203.7344 C416.2656,203.625 416.125,203.5938 415.6719,203.5938 L410.5313,203.5938 C410.0938,203.5938 409.9688,203.6094 409.8125,203.7031 C409.5625,203.8594 409.4063,204.1563 409.4063,204.4375 C409.4063,204.7188 409.5469,204.9688 409.7656,205.1406 C409.9219,205.25 410.1094,205.2813 410.5313,205.2813 L412.25,205.2813 L412.25,211.7969 L410.5313,211.7969 C410.0938,211.7969 409.9688,211.8125 409.8125,211.9219 C409.5625,212.0781 409.4063,212.3594 409.4063,212.6563 C409.4063,212.9063 409.5469,213.1719 409.7656,213.3281 C409.9219,213.4531 410.125,213.5 410.5313,213.5 L415.6719,213.5 C416.4219,213.5 416.7813,213.2188 416.7813,212.6563 C416.7813,212.375 416.6719,212.125 416.4375,211.9531 C416.2656,211.8281 416.125,211.7969 415.6719,211.7969 L413.9531,211.7969 L413.9531,205.2813 Z " fill="#000000"/><text fill="#000000" font-family="sans-serif" font-size="12" font-style="italic" lengthAdjust="spacing" textLength="46" x="427" y="212.6543">Iterable</text><line style="stroke:#A80036;stroke-width:1.5;" x1="399" x2="475" y1="224.5" y2="224.5"/><line style="stroke:#A80036;stroke-width:1.5;" x1="399" x2="475" y1="232.5" y2="232.5"/><!--MD5=[6081a303407aa0c0464c8b50c38f5612]
class Staff--><rect codeLine="2" fill="#FEFECE" filter="url(#ftn4gm56xa1qv)" height="48" id="Staff" style="stroke:#A80036;stroke-width:1.5;" width="153" x="157.5" y="594"/><ellipse cx="172.5" cy="610" fill="#A9DCDF" rx="11" ry="11" style="stroke:#A80036;stroke-width:1.0;"/><path d="M174.5781,611.8125 L174.9688,612.7969 L174.5781,612.7969 C174.125,612.7969 174.0156,612.8125 173.8594,612.9219 C173.6094,613.0781 173.4531,613.3594 173.4531,613.6563 C173.4531,613.9219 173.5938,614.1719 173.8125,614.3281 C173.9531,614.4531 174.1563,614.5 174.5781,614.5 L176.9375,614.5 C177.2969,614.5 177.5156,614.4688 177.6563,614.375 C177.9063,614.2344 178.0625,613.9375 178.0625,613.6563 C178.0625,613.375 177.9219,613.125 177.7031,612.9688 C177.5313,612.8281 177.375,612.7969 176.9063,612.7969 L173.5156,604.5938 L169.8438,604.5938 C169.3906,604.5938 169.2656,604.6094 169.1094,604.7031 C168.8594,604.875 168.7031,605.1563 168.7031,605.4375 C168.7031,605.7188 168.8438,605.9688 169.0625,606.1406 C169.2344,606.25 169.4063,606.2813 169.8438,606.2813 L170.9219,606.2813 L168.2813,612.7969 C167.8594,612.7969 167.7031,612.8125 167.5469,612.9219 C167.2969,613.0781 167.1406,613.3594 167.1406,613.6563 C167.1406,614.2188 167.5156,614.5 168.2656,614.5 L170.5313,614.5 C170.8906,614.5 171.1094,614.4688 171.2344,614.375 C171.5,614.2344 171.6406,613.9375 171.6406,613.6563 C171.6406,613.375 171.5156,613.125 171.2969,612.9531 C171.125,612.8281 170.9844,612.7969 170.5313,612.7969 L170.1406,612.7969 L170.5313,611.8125 L174.5781,611.8125 Z M173.875,610.1094 L171.2031,610.1094 L172.5469,606.8438 L173.875,610.1094 Z " fill="#000000"/><text fill="#000000" font-family="sans-serif" font-size="12" font-style="italic" lengthAdjust="spacing" textLength="28" x="186.5" y="614.1543">Staff</text><rect fill="#FFFFFF" height="15.9688" style="stroke:#000000;stroke-width:1.0;stroke-dasharray:2.0,2.0;" width="91" x="222.5" y="591"/><text fill="#000000" font-family="sans-serif" font-size="12" font-style="italic" lengthAdjust="spacing" textLength="89" x="223.5" y="603.1387">E extends Line</text><line style="stroke:#A80036;stroke-width:1.5;" x1="158.5" x2="309.5" y1="626" y2="626"/><line style="stroke:#A80036;stroke-width:1.5;" x1="158.5" x2="309.5" y1="634" y2="634"/><!--MD5=[0437b430ff8a8ae0d12c858c7b1f7578]
class ScoreItem--><rect codeLine="42" fill="#FEFECE" filter="url(#ftn4gm56xa1qv)" height="48" id="ScoreItem" style="stroke:#A80036;stroke-width:1.5;" width="94" x="306" y="486"/><ellipse cx="321" cy="502" fill="#A9DCDF" rx="11" ry="11" style="stroke:#A80036;stroke-width:1.0;"/><path d="M323.0781,503.8125 L323.4688,504.7969 L323.0781,504.7969 C322.625,504.7969 322.5156,504.8125 322.3594,504.9219 C322.1094,505.0781 321.9531,505.3594 321.9531,505.6563 C321.9531,505.9219 322.0938,506.1719 322.3125,506.3281 C322.4531,506.4531 322.6563,506.5 323.0781,506.5 L325.4375,506.5 C325.7969,506.5 326.0156,506.4688 326.1563,506.375 C326.4063,506.2344 326.5625,505.9375 326.5625,505.6563 C326.5625,505.375 326.4219,505.125 326.2031,504.9688 C326.0313,504.8281 325.875,504.7969 325.4063,504.7969 L322.0156,496.5938 L318.3438,496.5938 C317.8906,496.5938 317.7656,496.6094 317.6094,496.7031 C317.3594,496.875 317.2031,497.1563 317.2031,497.4375 C317.2031,497.7188 317.3438,497.9688 317.5625,498.1406 C317.7344,498.25 317.9063,498.2813 318.3438,498.2813 L319.4219,498.2813 L316.7813,504.7969 C316.3594,504.7969 316.2031,504.8125 316.0469,504.9219 C315.7969,505.0781 315.6406,505.3594 315.6406,505.6563 C315.6406,506.2188 316.0156,506.5 316.7656,506.5 L319.0313,506.5 C319.3906,506.5 319.6094,506.4688 319.7344,506.375 C320,506.2344 320.1406,505.9375 320.1406,505.6563 C320.1406,505.375 320.0156,505.125 319.7969,504.9531 C319.625,504.8281 319.4844,504.7969 319.0313,504.7969 L318.6406,504.7969 L319.0313,503.8125 L323.0781,503.8125 Z M322.375,502.1094 L319.7031,502.1094 L321.0469,498.8438 L322.375,502.1094 Z " fill="#000000"/><text fill="#000000" font-family="sans-serif" font-size="12" font-style="italic" lengthAdjust="spacing" textLength="62" x="335" y="506.1543">ScoreItem</text><line style="stroke:#A80036;stroke-width:1.5;" x1="307" x2="399" y1="518" y2="518"/><line style="stroke:#A80036;stroke-width:1.5;" x1="307" x2="399" y1="526" y2="526"/><!--MD5=[ccb08bf2514626e6d11fec6d6805d158]
class Instrument--><rect codeLine="3" fill="#FEFECE" filter="url(#ftn4gm56xa1qv)" height="48" id="Instrument" style="stroke:#A80036;stroke-width:1.5;" width="95" x="871.5" y="594"/><ellipse cx="886.5" cy="610" fill="#EB937F" rx="11" ry="11" style="stroke:#A80036;stroke-width:1.0;"/><path d="M885.2969,610.875 L886.75,610.875 L886.75,610.9844 C886.75,611.3906 886.7813,611.5469 886.8594,611.7031 C887.0156,611.9531 887.2969,612.1094 887.5938,612.1094 C887.8438,612.1094 888.1094,611.9688 888.2656,611.75 C888.3906,611.5938 888.4219,611.4375 888.4219,610.9844 L888.4219,609.0625 C888.4219,608.9063 888.4219,608.8594 888.4063,608.7031 C888.3438,608.2344 888.0313,607.9219 887.5781,607.9219 C887.3281,607.9219 887.0625,608.0625 886.8906,608.2813 C886.7813,608.4531 886.75,608.6094 886.75,609.0625 L886.75,609.1875 L885.2969,609.1875 L885.2969,606.7813 L889.2813,606.7813 L889.2813,607.6406 C889.2813,608.0469 889.3125,608.2188 889.3906,608.375 C889.5625,608.625 889.8438,608.7813 890.125,608.7813 C890.3906,608.7813 890.6563,608.6406 890.8281,608.4219 C890.9375,608.25 890.9688,608.1094 890.9688,607.6406 L890.9688,605.0938 L883.3438,605.0938 C882.9063,605.0938 882.7813,605.1094 882.625,605.2031 C882.375,605.3594 882.2188,605.6563 882.2188,605.9375 C882.2188,606.2188 882.3594,606.4688 882.5781,606.6406 C882.7344,606.75 882.9219,606.7813 883.3438,606.7813 L883.5938,606.7813 L883.5938,613.2969 L883.3438,613.2969 C882.9375,613.2969 882.7813,613.3125 882.625,613.4219 C882.375,613.5938 882.2188,613.8594 882.2188,614.1563 C882.2188,614.4219 882.3594,614.6719 882.5781,614.8281 C882.7188,614.9531 882.9531,615 883.3438,615 L891.3438,615 L891.3438,612.4219 C891.3438,611.9844 891.3125,611.8438 891.2344,611.6875 C891.0625,611.4375 890.7813,611.2813 890.5,611.2813 C890.2344,611.2813 889.9688,611.3906 889.7969,611.6406 C889.6875,611.7969 889.6563,611.9375 889.6563,612.4219 L889.6563,613.2969 L885.2969,613.2969 L885.2969,610.875 Z " fill="#000000"/><text fill="#000000" font-family="sans-serif" font-size="12" lengthAdjust="spacing" textLength="63" x="900.5" y="614.1543">Instrument</text><line style="stroke:#A80036;stroke-width:1.5;" x1="872.5" x2="965.5" y1="626" y2="626"/><line style="stroke:#A80036;stroke-width:1.5;" x1="872.5" x2="965.5" y1="634" y2="634"/><!--MD5=[628cc5a2753cca06eb1ffef55c386535]
class Parser--><rect codeLine="5" fill="#FEFECE" filter="url(#ftn4gm56xa1qv)" height="419.3359" id="Parser" style="stroke:#A80036;stroke-width:1.5;" width="486" x="748" y="7"/><ellipse cx="967.75" cy="23" fill="#ADD1B2" rx="11" ry="11" style="stroke:#A80036;stroke-width:1.0;"/><path d="M970.0938,18.6719 C969.1563,18.2344 968.5625,18.0938 967.6875,18.0938 C965.0625,18.0938 963.0625,20.1719 963.0625,22.8906 L963.0625,24.0156 C963.0625,26.5938 965.1719,28.4844 968.0625,28.4844 C969.2813,28.4844 970.4375,28.1875 971.1875,27.6406 C971.7656,27.2344 972.0938,26.7813 972.0938,26.3906 C972.0938,25.9375 971.7031,25.5469 971.2344,25.5469 C971.0156,25.5469 970.8125,25.625 970.625,25.8125 C970.1719,26.2969 970.1719,26.2969 969.9844,26.3906 C969.5625,26.6563 968.875,26.7813 968.1094,26.7813 C966.0625,26.7813 964.7656,25.6875 964.7656,23.9844 L964.7656,22.8906 C964.7656,21.1094 966.0156,19.7969 967.75,19.7969 C968.3281,19.7969 968.9375,19.9531 969.4063,20.2031 C969.8906,20.4844 970.0625,20.7031 970.1563,21.1094 C970.2188,21.5156 970.25,21.6406 970.3906,21.7656 C970.5313,21.9063 970.7656,22.0156 970.9844,22.0156 C971.25,22.0156 971.5156,21.875 971.6875,21.6563 C971.7969,21.5 971.8281,21.3125 971.8281,20.8906 L971.8281,19.4688 C971.8281,19.0313 971.8125,18.9063 971.7188,18.75 C971.5625,18.4844 971.2813,18.3438 970.9844,18.3438 C970.6875,18.3438 970.4844,18.4375 970.2656,18.75 L970.0938,18.6719 Z " fill="#000000"/><text fill="#000000" font-family="sans-serif" font-size="12" lengthAdjust="spacing" textLength="38" x="988.25" y="27.1543">Parser</text><line style="stroke:#A80036;stroke-width:1.5;" x1="749" x2="1233" y1="39" y2="39"/><ellipse cx="759" cy="50" rx="3" ry="3" style="stroke:#038048;stroke-width:1.0;fill:none;"/><text fill="#000000" font-family="sans-serif" font-size="11" lengthAdjust="spacing" text-decoration="underline" textLength="102" x="768" y="53.2104">String COMMENTS</text><ellipse cx="759" cy="62.8047" rx="3" ry="3" style="stroke:#038048;stroke-width:1.0;fill:none;"/><text fill="#000000" font-family="sans-serif" font-size="11" lengthAdjust="spacing" text-decoration="underline" textLength="99" x="768" y="66.0151">String OUTLIER_G</text><ellipse cx="759" cy="75.6094" rx="3" ry="3" style="stroke:#038048;stroke-width:1.0;fill:none;"/><text fill="#000000" font-family="sans-serif" font-size="11" lengthAdjust="spacing" text-decoration="underline" textLength="98" x="768" y="78.8198">String OUTLIER_B</text><ellipse cx="759" cy="88.4141" rx="3" ry="3" style="stroke:#038048;stroke-width:1.0;fill:none;"/><text fill="#000000" font-family="sans-serif" font-size="11" lengthAdjust="spacing" text-decoration="underline" textLength="99" x="768" y="91.6245">String OUTLIER_D</text><ellipse cx="759" cy="101.2188" rx="3" ry="3" style="stroke:#038048;stroke-width:1.0;fill:none;"/><text fill="#000000" font-family="sans-serif" font-size="11" lengthAdjust="spacing" text-decoration="underline" textLength="132" x="768" y="104.4292">String OUTLIER_GUITAR</text><ellipse cx="759" cy="114.0234" rx="3" ry="3" style="stroke:#038048;stroke-width:1.0;fill:none;"/><text fill="#000000" font-family="sans-serif" font-size="11" lengthAdjust="spacing" text-decoration="underline" textLength="123" x="768" y="117.2339">String OUTLIER_DRUM</text><ellipse cx="759" cy="126.8281" rx="3" ry="3" style="stroke:#038048;stroke-width:1.0;fill:none;"/><text fill="#000000" font-family="sans-serif" font-size="11" lengthAdjust="spacing" text-decoration="underline" textLength="79" x="768" y="130.0386">String STRING</text><ellipse cx="759" cy="139.6328" rx="3" ry="3" style="stroke:#038048;stroke-width:1.0;fill:none;"/><text fill="#000000" font-family="sans-serif" font-size="11" lengthAdjust="spacing" text-decoration="underline" textLength="143" x="768" y="142.8433">String STRING_UNBOUND</text><ellipse cx="759" cy="152.4375" rx="3" ry="3" style="stroke:#038048;stroke-width:1.0;fill:none;"/><text fill="#000000" font-family="sans-serif" font-size="11" lengthAdjust="spacing" text-decoration="underline" textLength="52" x="768" y="155.6479">String GP</text><ellipse cx="759" cy="165.2422" rx="3" ry="3" style="stroke:#038048;stroke-width:1.0;fill:none;"/><text fill="#000000" font-family="sans-serif" font-size="11" lengthAdjust="spacing" text-decoration="underline" textLength="51" x="768" y="168.4526">String BP</text><ellipse cx="759" cy="178.0469" rx="3" ry="3" style="stroke:#038048;stroke-width:1.0;fill:none;"/><text fill="#000000" font-family="sans-serif" font-size="11" lengthAdjust="spacing" text-decoration="underline" textLength="52" x="768" y="181.2573">String DP</text><ellipse cx="759" cy="190.8516" rx="3" ry="3" style="stroke:#038048;stroke-width:1.0;fill:none;"/><text fill="#000000" font-family="sans-serif" font-size="11" lengthAdjust="spacing" text-decoration="underline" textLength="123" x="768" y="194.062">Pattern outlierPlucked</text><ellipse cx="759" cy="203.6563" rx="3" ry="3" style="stroke:#038048;stroke-width:1.0;fill:none;"/><text fill="#000000" font-family="sans-serif" font-size="11" lengthAdjust="spacing" text-decoration="underline" textLength="140" x="768" y="206.8667">Pattern outlierPercussion</text><ellipse cx="759" cy="216.4609" rx="3" ry="3" style="stroke:#038048;stroke-width:1.0;fill:none;"/><text fill="#000000" font-family="sans-serif" font-size="11" lengthAdjust="spacing" text-decoration="underline" textLength="116" x="768" y="219.6714">Pattern guitarPattern</text><ellipse cx="759" cy="229.2656" rx="3" ry="3" style="stroke:#038048;stroke-width:1.0;fill:none;"/><text fill="#000000" font-family="sans-serif" font-size="11" lengthAdjust="spacing" text-decoration="underline" textLength="159" x="768" y="232.4761">Pattern guitarPatternGreedy</text><ellipse cx="759" cy="242.0703" rx="3" ry="3" style="stroke:#038048;stroke-width:1.0;fill:none;"/><text fill="#000000" font-family="sans-serif" font-size="11" lengthAdjust="spacing" text-decoration="underline" textLength="110" x="768" y="245.2808">Pattern bassPattern</text><ellipse cx="759" cy="254.875" rx="3" ry="3" style="stroke:#038048;stroke-width:1.0;fill:none;"/><text fill="#000000" font-family="sans-serif" font-size="11" lengthAdjust="spacing" text-decoration="underline" textLength="113" x="768" y="258.0854">Pattern drumPattern</text><text fill="#000000" font-family="sans-serif" font-size="11" lengthAdjust="spacing" textLength="0" x="772" y="270.8901"/><rect fill="none" height="6" style="stroke:#C82930;stroke-width:1.0;" width="6" x="756" y="277.4844"/><text fill="#000000" font-family="sans-serif" font-size="11" lengthAdjust="spacing" textLength="113" x="768" y="283.6948">Processor processor</text><rect fill="none" height="6" style="stroke:#C82930;stroke-width:1.0;" width="6" x="756" y="290.2891"/><text fill="#000000" font-family="sans-serif" font-size="11" lengthAdjust="spacing" textLength="126" x="768" y="296.4995">Instrument instrument</text><rect fill="none" height="6" style="stroke:#C82930;stroke-width:1.0;" width="6" x="756" y="303.0938"/><text fill="#000000" font-family="sans-serif" font-size="11" lengthAdjust="spacing" textLength="94" x="768" y="309.3042">Score&lt;?&gt; sheet</text><line style="stroke:#A80036;stroke-width:1.5;" x1="749" x2="1233" y1="315.8984" y2="315.8984"/><ellipse cx="759" cy="326.8984" fill="#84BE84" rx="3" ry="3" style="stroke:#038048;stroke-width:1.0;"/><text fill="#000000" font-family="sans-serif" font-size="11" lengthAdjust="spacing" textLength="144" x="768" y="330.1089">Parser(String, Instrument)</text><ellipse cx="759" cy="339.7031" fill="#84BE84" rx="3" ry="3" style="stroke:#038048;stroke-width:1.0;"/><text fill="#000000" font-family="sans-serif" font-size="11" lengthAdjust="spacing" textLength="350" x="768" y="342.9136">parse() : ImmutablePair&lt;String, Collection&lt;ParsingWarning&gt;&gt;</text><ellipse cx="759" cy="352.5078" fill="#84BE84" rx="3" ry="3" style="stroke:#038048;stroke-width:1.0;"/><text fill="#000000" font-family="sans-serif" font-size="11" lengthAdjust="spacing" textLength="426" x="768" y="355.7183">parse(XMLMetadata) : ImmutablePair&lt;String, Collection&lt;ParsingWarning&gt;&gt;</text><ellipse cx="759" cy="365.3125" fill="#84BE84" rx="3" ry="3" style="stroke:#038048;stroke-width:1.0;"/><text fill="#000000" font-family="sans-serif" font-size="11" lengthAdjust="spacing" textLength="312" x="768" y="368.5229">getDetectedInstrument(String) : Optional&lt;Insturment&gt;</text><ellipse cx="759" cy="378.1172" fill="#84BE84" rx="3" ry="3" style="stroke:#038048;stroke-width:1.0;"/><text fill="#000000" font-family="sans-serif" font-size="11" lengthAdjust="spacing" textLength="214" x="768" y="381.3276">getDetectedInsturment() : Instrument</text><rect fill="#F24D5C" height="6" style="stroke:#C82930;stroke-width:1.0;" width="6" x="756" y="387.9219"/><text fill="#000000" font-family="sans-serif" font-size="11" lengthAdjust="spacing" textLength="460" x="768" y="394.1323">parseGuitar(XMLMetadata) : ImmutablePair&lt;String, Collection&lt;ParsingWarning&gt;&gt;</text><rect fill="#F24D5C" height="6" style="stroke:#C82930;stroke-width:1.0;" width="6" x="756" y="400.7266"/><text fill="#000000" font-family="sans-serif" font-size="11" lengthAdjust="spacing" textLength="453" x="768" y="406.937">parseBass(XMLMetadata) : ImmutablePair&lt;String, Collection&lt;ParsingWarning&gt;&gt;</text><rect fill="#F24D5C" height="6" style="stroke:#C82930;stroke-width:1.0;" width="6" x="756" y="413.5313"/><text fill="#000000" font-family="sans-serif" font-size="11" lengthAdjust="spacing" textLength="457" x="768" y="419.7417">parseDrum(XMLMetadata) : ImmutablePair&lt;String, Collection&lt;ParsingWarning&gt;&gt;</text><!--MD5=[0e56ed922cd42fd232d2cb58453d54d6]
class MeasureIterator--><rect codeLine="38" fill="#FEFECE" filter="url(#ftn4gm56xa1qv)" height="48" id="MeasureIterator" style="stroke:#A80036;stroke-width:1.5;" width="128" x="561" y="594"/><ellipse cx="576" cy="610" fill="#ADD1B2" rx="11" ry="11" style="stroke:#A80036;stroke-width:1.0;"/><path d="M578.3438,605.6719 C577.4063,605.2344 576.8125,605.0938 575.9375,605.0938 C573.3125,605.0938 571.3125,607.1719 571.3125,609.8906 L571.3125,611.0156 C571.3125,613.5938 573.4219,615.4844 576.3125,615.4844 C577.5313,615.4844 578.6875,615.1875 579.4375,614.6406 C580.0156,614.2344 580.3438,613.7813 580.3438,613.3906 C580.3438,612.9375 579.9531,612.5469 579.4844,612.5469 C579.2656,612.5469 579.0625,612.625 578.875,612.8125 C578.4219,613.2969 578.4219,613.2969 578.2344,613.3906 C577.8125,613.6563 577.125,613.7813 576.3594,613.7813 C574.3125,613.7813 573.0156,612.6875 573.0156,610.9844 L573.0156,609.8906 C573.0156,608.1094 574.2656,606.7969 576,606.7969 C576.5781,606.7969 577.1875,606.9531 577.6563,607.2031 C578.1406,607.4844 578.3125,607.7031 578.4063,608.1094 C578.4688,608.5156 578.5,608.6406 578.6406,608.7656 C578.7813,608.9063 579.0156,609.0156 579.2344,609.0156 C579.5,609.0156 579.7656,608.875 579.9375,608.6563 C580.0469,608.5 580.0781,608.3125 580.0781,607.8906 L580.0781,606.4688 C580.0781,606.0313 580.0625,605.9063 579.9688,605.75 C579.8125,605.4844 579.5313,605.3438 579.2344,605.3438 C578.9375,605.3438 578.7344,605.4375 578.5156,605.75 L578.3438,605.6719 Z " fill="#000000"/><text fill="#000000" font-family="sans-serif" font-size="12" lengthAdjust="spacing" textLength="96" x="590" y="614.1543">MeasureIterator</text><line style="stroke:#A80036;stroke-width:1.5;" x1="562" x2="688" y1="626" y2="626"/><line style="stroke:#A80036;stroke-width:1.5;" x1="562" x2="688" y1="634" y2="634"/><!--MD5=[023ecf6702e3ca2ce47ae747eafb20f1]
class Iterator--><rect fill="#FEFECE" filter="url(#ftn4gm56xa1qv)" height="48" id="Iterator" style="stroke:#A80036;stroke-width:1.5;" width="77" x="741.5" y="486"/><ellipse cx="756.5" cy="502" fill="#B4A7E5" rx="11" ry="11" style="stroke:#A80036;stroke-width:1.0;"/><path d="M757.4531,498.7813 L759.1719,498.7813 C759.5625,498.7813 759.75,498.75 759.875,498.6719 C760.1406,498.5156 760.2813,498.2344 760.2813,497.9375 C760.2813,497.6719 760.1719,497.4063 759.9375,497.2344 C759.7656,497.125 759.625,497.0938 759.1719,497.0938 L754.0313,497.0938 C753.5938,497.0938 753.4688,497.1094 753.3125,497.2031 C753.0625,497.3594 752.9063,497.6563 752.9063,497.9375 C752.9063,498.2188 753.0469,498.4688 753.2656,498.6406 C753.4219,498.75 753.6094,498.7813 754.0313,498.7813 L755.75,498.7813 L755.75,505.2969 L754.0313,505.2969 C753.5938,505.2969 753.4688,505.3125 753.3125,505.4219 C753.0625,505.5781 752.9063,505.8594 752.9063,506.1563 C752.9063,506.4063 753.0469,506.6719 753.2656,506.8281 C753.4219,506.9531 753.625,507 754.0313,507 L759.1719,507 C759.9219,507 760.2813,506.7188 760.2813,506.1563 C760.2813,505.875 760.1719,505.625 759.9375,505.4531 C759.7656,505.3281 759.625,505.2969 759.1719,505.2969 L757.4531,505.2969 L757.4531,498.7813 Z " fill="#000000"/><text fill="#000000" font-family="sans-serif" font-size="12" font-style="italic" lengthAdjust="spacing" textLength="45" x="770.5" y="506.1543">Iterator</text><line style="stroke:#A80036;stroke-width:1.5;" x1="742.5" x2="817.5" y1="518" y2="518"/><line style="stroke:#A80036;stroke-width:1.5;" x1="742.5" x2="817.5" y1="526" y2="526"/><!--MD5=[3c430c169582f68806367d58c97ad460]
class ScoreIterator--><rect codeLine="39" fill="#FEFECE" filter="url(#ftn4gm56xa1qv)" height="48" id="ScoreIterator" style="stroke:#A80036;stroke-width:1.5;" width="112" x="724" y="594"/><ellipse cx="739" cy="610" fill="#ADD1B2" rx="11" ry="11" style="stroke:#A80036;stroke-width:1.0;"/><path d="M741.3438,605.6719 C740.4063,605.2344 739.8125,605.0938 738.9375,605.0938 C736.3125,605.0938 734.3125,607.1719 734.3125,609.8906 L734.3125,611.0156 C734.3125,613.5938 736.4219,615.4844 739.3125,615.4844 C740.5313,615.4844 741.6875,615.1875 742.4375,614.6406 C743.0156,614.2344 743.3438,613.7813 743.3438,613.3906 C743.3438,612.9375 742.9531,612.5469 742.4844,612.5469 C742.2656,612.5469 742.0625,612.625 741.875,612.8125 C741.4219,613.2969 741.4219,613.2969 741.2344,613.3906 C740.8125,613.6563 740.125,613.7813 739.3594,613.7813 C737.3125,613.7813 736.0156,612.6875 736.0156,610.9844 L736.0156,609.8906 C736.0156,608.1094 737.2656,606.7969 739,606.7969 C739.5781,606.7969 740.1875,606.9531 740.6563,607.2031 C741.1406,607.4844 741.3125,607.7031 741.4063,608.1094 C741.4688,608.5156 741.5,608.6406 741.6406,608.7656 C741.7813,608.9063 742.0156,609.0156 742.2344,609.0156 C742.5,609.0156 742.7656,608.875 742.9375,608.6563 C743.0469,608.5 743.0781,608.3125 743.0781,607.8906 L743.0781,606.4688 C743.0781,606.0313 743.0625,605.9063 742.9688,605.75 C742.8125,605.4844 742.5313,605.3438 742.2344,605.3438 C741.9375,605.3438 741.7344,605.4375 741.5156,605.75 L741.3438,605.6719 Z " fill="#000000"/><text fill="#000000" font-family="sans-serif" font-size="12" lengthAdjust="spacing" textLength="80" x="753" y="614.1543">ScoreIterator</text><line style="stroke:#A80036;stroke-width:1.5;" x1="725" x2="835" y1="626" y2="626"/><line style="stroke:#A80036;stroke-width:1.5;" x1="725" x2="835" y1="634" y2="634"/><!--MD5=[d6d0992beb53de3366de8c91c341d9bf]
class Measure--><rect codeLine="40" fill="#FEFECE" filter="url(#ftn4gm56xa1qv)" height="48" id="Measure" style="stroke:#A80036;stroke-width:1.5;" width="180" x="346" y="594"/><ellipse cx="361" cy="610" fill="#ADD1B2" rx="11" ry="11" style="stroke:#A80036;stroke-width:1.0;"/><path d="M363.3438,605.6719 C362.4063,605.2344 361.8125,605.0938 360.9375,605.0938 C358.3125,605.0938 356.3125,607.1719 356.3125,609.8906 L356.3125,611.0156 C356.3125,613.5938 358.4219,615.4844 361.3125,615.4844 C362.5313,615.4844 363.6875,615.1875 364.4375,614.6406 C365.0156,614.2344 365.3438,613.7813 365.3438,613.3906 C365.3438,612.9375 364.9531,612.5469 364.4844,612.5469 C364.2656,612.5469 364.0625,612.625 363.875,612.8125 C363.4219,613.2969 363.4219,613.2969 363.2344,613.3906 C362.8125,613.6563 362.125,613.7813 361.3594,613.7813 C359.3125,613.7813 358.0156,612.6875 358.0156,610.9844 L358.0156,609.8906 C358.0156,608.1094 359.2656,606.7969 361,606.7969 C361.5781,606.7969 362.1875,606.9531 362.6563,607.2031 C363.1406,607.4844 363.3125,607.7031 363.4063,608.1094 C363.4688,608.5156 363.5,608.6406 363.6406,608.7656 C363.7813,608.9063 364.0156,609.0156 364.2344,609.0156 C364.5,609.0156 364.7656,608.875 364.9375,608.6563 C365.0469,608.5 365.0781,608.3125 365.0781,607.8906 L365.0781,606.4688 C365.0781,606.0313 365.0625,605.9063 364.9688,605.75 C364.8125,605.4844 364.5313,605.3438 364.2344,605.3438 C363.9375,605.3438 363.7344,605.4375 363.5156,605.75 L363.3438,605.6719 Z " fill="#000000"/><text fill="#000000" font-family="sans-serif" font-size="12" lengthAdjust="spacing" textLength="52" x="375" y="614.1543">Measure</text><rect fill="#FFFFFF" height="15.9688" style="stroke:#000000;stroke-width:1.0;stroke-dasharray:2.0,2.0;" width="94" x="435" y="591"/><text fill="#000000" font-family="sans-serif" font-size="12" font-style="italic" lengthAdjust="spacing" textLength="92" x="436" y="603.1387">E extends Note</text><line style="stroke:#A80036;stroke-width:1.5;" x1="347" x2="525" y1="626" y2="626"/><line style="stroke:#A80036;stroke-width:1.5;" x1="347" x2="525" y1="634" y2="634"/><!--MD5=[004b1d6c4ca8aad4ba8b586a335ed4f3]
class Transform--><rect codeLine="41" fill="#FEFECE" filter="url(#ftn4gm56xa1qv)" height="48" id="Transform" style="stroke:#A80036;stroke-width:1.5;" width="295" x="1379.5" y="594"/><ellipse cx="1394.5" cy="610" fill="#ADD1B2" rx="11" ry="11" style="stroke:#A80036;stroke-width:1.0;"/><path d="M1396.8438,605.6719 C1395.9063,605.2344 1395.3125,605.0938 1394.4375,605.0938 C1391.8125,605.0938 1389.8125,607.1719 1389.8125,609.8906 L1389.8125,611.0156 C1389.8125,613.5938 1391.9219,615.4844 1394.8125,615.4844 C1396.0313,615.4844 1397.1875,615.1875 1397.9375,614.6406 C1398.5156,614.2344 1398.8438,613.7813 1398.8438,613.3906 C1398.8438,612.9375 1398.4531,612.5469 1397.9844,612.5469 C1397.7656,612.5469 1397.5625,612.625 1397.375,612.8125 C1396.9219,613.2969 1396.9219,613.2969 1396.7344,613.3906 C1396.3125,613.6563 1395.625,613.7813 1394.8594,613.7813 C1392.8125,613.7813 1391.5156,612.6875 1391.5156,610.9844 L1391.5156,609.8906 C1391.5156,608.1094 1392.7656,606.7969 1394.5,606.7969 C1395.0781,606.7969 1395.6875,606.9531 1396.1563,607.2031 C1396.6406,607.4844 1396.8125,607.7031 1396.9063,608.1094 C1396.9688,608.5156 1397,608.6406 1397.1406,608.7656 C1397.2813,608.9063 1397.5156,609.0156 1397.7344,609.0156 C1398,609.0156 1398.2656,608.875 1398.4375,608.6563 C1398.5469,608.5 1398.5781,608.3125 1398.5781,607.8906 L1398.5781,606.4688 C1398.5781,606.0313 1398.5625,605.9063 1398.4688,605.75 C1398.3125,605.4844 1398.0313,605.3438 1397.7344,605.3438 C1397.4375,605.3438 1397.2344,605.4375 1397.0156,605.75 L1396.8438,605.6719 Z " fill="#000000"/><text fill="#000000" font-family="sans-serif" font-size="12" lengthAdjust="spacing" textLength="61" x="1408.5" y="614.1543">Transform</text><rect fill="#FFFFFF" height="15.9688" style="stroke:#000000;stroke-width:1.0;stroke-dasharray:2.0,2.0;" width="200" x="1477.5" y="591"/><text fill="#000000" font-family="sans-serif" font-size="12" font-style="italic" lengthAdjust="spacing" textLength="198" x="1478.5" y="603.1387">T extends Staff&lt;? extends Line&gt;</text><line style="stroke:#A80036;stroke-width:1.5;" x1="1380.5" x2="1673.5" y1="626" y2="626"/><line style="stroke:#A80036;stroke-width:1.5;" x1="1380.5" x2="1673.5" y1="634" y2="634"/><!--MD5=[df152c2476dc0702efc46fc22338464c]
class Processor--><rect fill="#FEFECE" filter="url(#ftn4gm56xa1qv)" height="48" id="Processor" style="stroke:#A80036;stroke-width:1.5;" width="93" x="1002.5" y="486"/><ellipse cx="1017.5" cy="502" fill="#ADD1B2" rx="11" ry="11" style="stroke:#A80036;stroke-width:1.0;"/><path d="M1019.8438,497.6719 C1018.9063,497.2344 1018.3125,497.0938 1017.4375,497.0938 C1014.8125,497.0938 1012.8125,499.1719 1012.8125,501.8906 L1012.8125,503.0156 C1012.8125,505.5938 1014.9219,507.4844 1017.8125,507.4844 C1019.0313,507.4844 1020.1875,507.1875 1020.9375,506.6406 C1021.5156,506.2344 1021.8438,505.7813 1021.8438,505.3906 C1021.8438,504.9375 1021.4531,504.5469 1020.9844,504.5469 C1020.7656,504.5469 1020.5625,504.625 1020.375,504.8125 C1019.9219,505.2969 1019.9219,505.2969 1019.7344,505.3906 C1019.3125,505.6563 1018.625,505.7813 1017.8594,505.7813 C1015.8125,505.7813 1014.5156,504.6875 1014.5156,502.9844 L1014.5156,501.8906 C1014.5156,500.1094 1015.7656,498.7969 1017.5,498.7969 C1018.0781,498.7969 1018.6875,498.9531 1019.1563,499.2031 C1019.6406,499.4844 1019.8125,499.7031 1019.9063,500.1094 C1019.9688,500.5156 1020,500.6406 1020.1406,500.7656 C1020.2813,500.9063 1020.5156,501.0156 1020.7344,501.0156 C1021,501.0156 1021.2656,500.875 1021.4375,500.6563 C1021.5469,500.5 1021.5781,500.3125 1021.5781,499.8906 L1021.5781,498.4688 C1021.5781,498.0313 1021.5625,497.9063 1021.4688,497.75 C1021.3125,497.4844 1021.0313,497.3438 1020.7344,497.3438 C1020.4375,497.3438 1020.2344,497.4375 1020.0156,497.75 L1019.8438,497.6719 Z " fill="#000000"/><text fill="#000000" font-family="sans-serif" font-size="12" lengthAdjust="spacing" textLength="61" x="1031.5" y="506.1543">Processor</text><line style="stroke:#A80036;stroke-width:1.5;" x1="1003.5" x2="1094.5" y1="518" y2="518"/><line style="stroke:#A80036;stroke-width:1.5;" x1="1003.5" x2="1094.5" y1="526" y2="526"/><!--MD5=[bf87e382a809b01eee8f9b03409cecfa]
class GuitarStaff--><rect fill="#FEFECE" filter="url(#ftn4gm56xa1qv)" height="48" id="GuitarStaff" style="stroke:#A80036;stroke-width:1.5;" width="94" x="7" y="192.5"/><ellipse cx="22" cy="208.5" fill="#ADD1B2" rx="11" ry="11" style="stroke:#A80036;stroke-width:1.0;"/><path d="M24.3438,204.1719 C23.4063,203.7344 22.8125,203.5938 21.9375,203.5938 C19.3125,203.5938 17.3125,205.6719 17.3125,208.3906 L17.3125,209.5156 C17.3125,212.0938 19.4219,213.9844 22.3125,213.9844 C23.5313,213.9844 24.6875,213.6875 25.4375,213.1406 C26.0156,212.7344 26.3438,212.2813 26.3438,211.8906 C26.3438,211.4375 25.9531,211.0469 25.4844,211.0469 C25.2656,211.0469 25.0625,211.125 24.875,211.3125 C24.4219,211.7969 24.4219,211.7969 24.2344,211.8906 C23.8125,212.1563 23.125,212.2813 22.3594,212.2813 C20.3125,212.2813 19.0156,211.1875 19.0156,209.4844 L19.0156,208.3906 C19.0156,206.6094 20.2656,205.2969 22,205.2969 C22.5781,205.2969 23.1875,205.4531 23.6563,205.7031 C24.1406,205.9844 24.3125,206.2031 24.4063,206.6094 C24.4688,207.0156 24.5,207.1406 24.6406,207.2656 C24.7813,207.4063 25.0156,207.5156 25.2344,207.5156 C25.5,207.5156 25.7656,207.375 25.9375,207.1563 C26.0469,207 26.0781,206.8125 26.0781,206.3906 L26.0781,204.9688 C26.0781,204.5313 26.0625,204.4063 25.9688,204.25 C25.8125,203.9844 25.5313,203.8438 25.2344,203.8438 C24.9375,203.8438 24.7344,203.9375 24.5156,204.25 L24.3438,204.1719 Z " fill="#000000"/><text fill="#000000" font-family="sans-serif" font-size="12" lengthAdjust="spacing" textLength="62" x="36" y="212.6543">GuitarStaff</text><line style="stroke:#A80036;stroke-width:1.5;" x1="8" x2="100" y1="224.5" y2="224.5"/><line style="stroke:#A80036;stroke-width:1.5;" x1="8" x2="100" y1="232.5" y2="232.5"/><!--MD5=[50ead89b12dbffd6b5c1a3c1237897d8]
class DrumStaff--><rect fill="#FEFECE" filter="url(#ftn4gm56xa1qv)" height="48" id="DrumStaff" style="stroke:#A80036;stroke-width:1.5;" width="91" x="136.5" y="192.5"/><ellipse cx="151.5" cy="208.5" fill="#ADD1B2" rx="11" ry="11" style="stroke:#A80036;stroke-width:1.0;"/><path d="M153.8438,204.1719 C152.9063,203.7344 152.3125,203.5938 151.4375,203.5938 C148.8125,203.5938 146.8125,205.6719 146.8125,208.3906 L146.8125,209.5156 C146.8125,212.0938 148.9219,213.9844 151.8125,213.9844 C153.0313,213.9844 154.1875,213.6875 154.9375,213.1406 C155.5156,212.7344 155.8438,212.2813 155.8438,211.8906 C155.8438,211.4375 155.4531,211.0469 154.9844,211.0469 C154.7656,211.0469 154.5625,211.125 154.375,211.3125 C153.9219,211.7969 153.9219,211.7969 153.7344,211.8906 C153.3125,212.1563 152.625,212.2813 151.8594,212.2813 C149.8125,212.2813 148.5156,211.1875 148.5156,209.4844 L148.5156,208.3906 C148.5156,206.6094 149.7656,205.2969 151.5,205.2969 C152.0781,205.2969 152.6875,205.4531 153.1563,205.7031 C153.6406,205.9844 153.8125,206.2031 153.9063,206.6094 C153.9688,207.0156 154,207.1406 154.1406,207.2656 C154.2813,207.4063 154.5156,207.5156 154.7344,207.5156 C155,207.5156 155.2656,207.375 155.4375,207.1563 C155.5469,207 155.5781,206.8125 155.5781,206.3906 L155.5781,204.9688 C155.5781,204.5313 155.5625,204.4063 155.4688,204.25 C155.3125,203.9844 155.0313,203.8438 154.7344,203.8438 C154.4375,203.8438 154.2344,203.9375 154.0156,204.25 L153.8438,204.1719 Z " fill="#000000"/><text fill="#000000" font-family="sans-serif" font-size="12" lengthAdjust="spacing" textLength="59" x="165.5" y="212.6543">DrumStaff</text><line style="stroke:#A80036;stroke-width:1.5;" x1="137.5" x2="226.5" y1="224.5" y2="224.5"/><line style="stroke:#A80036;stroke-width:1.5;" x1="137.5" x2="226.5" y1="232.5" y2="232.5"/><!--MD5=[70de36391d1fe102d3a67483a6327fe5]
class SerializeGuitarScore--><rect fill="#FEFECE" filter="url(#ftn4gm56xa1qv)" height="48" id="SerializeGuitarScore" style="stroke:#A80036;stroke-width:1.5;" width="155" x="1001.5" y="594"/><ellipse cx="1016.5" cy="610" fill="#ADD1B2" rx="11" ry="11" style="stroke:#A80036;stroke-width:1.0;"/><path d="M1018.8438,605.6719 C1017.9063,605.2344 1017.3125,605.0938 1016.4375,605.0938 C1013.8125,605.0938 1011.8125,607.1719 1011.8125,609.8906 L1011.8125,611.0156 C1011.8125,613.5938 1013.9219,615.4844 1016.8125,615.4844 C1018.0313,615.4844 1019.1875,615.1875 1019.9375,614.6406 C1020.5156,614.2344 1020.8438,613.7813 1020.8438,613.3906 C1020.8438,612.9375 1020.4531,612.5469 1019.9844,612.5469 C1019.7656,612.5469 1019.5625,612.625 1019.375,612.8125 C1018.9219,613.2969 1018.9219,613.2969 1018.7344,613.3906 C1018.3125,613.6563 1017.625,613.7813 1016.8594,613.7813 C1014.8125,613.7813 1013.5156,612.6875 1013.5156,610.9844 L1013.5156,609.8906 C1013.5156,608.1094 1014.7656,606.7969 1016.5,606.7969 C1017.0781,606.7969 1017.6875,606.9531 1018.1563,607.2031 C1018.6406,607.4844 1018.8125,607.7031 1018.9063,608.1094 C1018.9688,608.5156 1019,608.6406 1019.1406,608.7656 C1019.2813,608.9063 1019.5156,609.0156 1019.7344,609.0156 C1020,609.0156 1020.2656,608.875 1020.4375,608.6563 C1020.5469,608.5 1020.5781,608.3125 1020.5781,607.8906 L1020.5781,606.4688 C1020.5781,606.0313 1020.5625,605.9063 1020.4688,605.75 C1020.3125,605.4844 1020.0313,605.3438 1019.7344,605.3438 C1019.4375,605.3438 1019.2344,605.4375 1019.0156,605.75 L1018.8438,605.6719 Z " fill="#000000"/><text fill="#000000" font-family="sans-serif" font-size="12" lengthAdjust="spacing" textLength="123" x="1030.5" y="614.1543">SerializeGuitarScore</text><line style="stroke:#A80036;stroke-width:1.5;" x1="1002.5" x2="1155.5" y1="626" y2="626"/><line style="stroke:#A80036;stroke-width:1.5;" x1="1002.5" x2="1155.5" y1="634" y2="634"/><!--MD5=[f9c90fe06e085c691cb8540fe108d6c9]
class SerializeDrumScore--><rect fill="#FEFECE" filter="url(#ftn4gm56xa1qv)" height="48" id="SerializeDrumScore" style="stroke:#A80036;stroke-width:1.5;" width="152" x="1192" y="594"/><ellipse cx="1207" cy="610" fill="#ADD1B2" rx="11" ry="11" style="stroke:#A80036;stroke-width:1.0;"/><path d="M1209.3438,605.6719 C1208.4063,605.2344 1207.8125,605.0938 1206.9375,605.0938 C1204.3125,605.0938 1202.3125,607.1719 1202.3125,609.8906 L1202.3125,611.0156 C1202.3125,613.5938 1204.4219,615.4844 1207.3125,615.4844 C1208.5313,615.4844 1209.6875,615.1875 1210.4375,614.6406 C1211.0156,614.2344 1211.3438,613.7813 1211.3438,613.3906 C1211.3438,612.9375 1210.9531,612.5469 1210.4844,612.5469 C1210.2656,612.5469 1210.0625,612.625 1209.875,612.8125 C1209.4219,613.2969 1209.4219,613.2969 1209.2344,613.3906 C1208.8125,613.6563 1208.125,613.7813 1207.3594,613.7813 C1205.3125,613.7813 1204.0156,612.6875 1204.0156,610.9844 L1204.0156,609.8906 C1204.0156,608.1094 1205.2656,606.7969 1207,606.7969 C1207.5781,606.7969 1208.1875,606.9531 1208.6563,607.2031 C1209.1406,607.4844 1209.3125,607.7031 1209.4063,608.1094 C1209.4688,608.5156 1209.5,608.6406 1209.6406,608.7656 C1209.7813,608.9063 1210.0156,609.0156 1210.2344,609.0156 C1210.5,609.0156 1210.7656,608.875 1210.9375,608.6563 C1211.0469,608.5 1211.0781,608.3125 1211.0781,607.8906 L1211.0781,606.4688 C1211.0781,606.0313 1211.0625,605.9063 1210.9688,605.75 C1210.8125,605.4844 1210.5313,605.3438 1210.2344,605.3438 C1209.9375,605.3438 1209.7344,605.4375 1209.5156,605.75 L1209.3438,605.6719 Z " fill="#000000"/><text fill="#000000" font-family="sans-serif" font-size="12" lengthAdjust="spacing" textLength="120" x="1221" y="614.1543">SerializeDrumScore</text><line style="stroke:#A80036;stroke-width:1.5;" x1="1193" x2="1343" y1="626" y2="626"/><line style="stroke:#A80036;stroke-width:1.5;" x1="1193" x2="1343" y1="634" y2="634"/><!--MD5=[666d996a60bd6c8c4af0438933dd5d9f]
reverse link Iterable to Score--><path d="M456.107,259.064 C484.739,321.349 537.82,436.822 560.396,485.931 " fill="none" id="Iterable-backto-Score" style="stroke:#A80036;stroke-width:1.0;stroke-dasharray:7.0,7.0;"/><polygon fill="none" points="449.733,261.958,447.739,240.862,462.453,256.11,449.733,261.958" style="stroke:#A80036;stroke-width:1.0;"/><!--MD5=[ce87b53700f245376ec7e49682c64d3b]
reverse link ScoreItem to Staff--><path d="M312.205,547.3383 C294.98,562.6813 275.428,580.098 260.182,593.6784 " fill="none" id="ScoreItem-backto-Staff" style="stroke:#A80036;stroke-width:1.0;"/><polygon fill="none" points="307.588,542.0763,327.179,534,316.9,552.5303,307.588,542.0763" style="stroke:#A80036;stroke-width:1.0;"/><!--MD5=[fbbce8bb8c16d002c85e0f6dc18b4b2d]
reverse link Iterable to Staff--><path d="M412.468,258.205 C381.621,310.145 327.879,403.193 288,486 C270.175,523.013 252.626,567.4828 242.579,593.9298 " fill="none" id="Iterable-backto-Staff" style="stroke:#A80036;stroke-width:1.0;stroke-dasharray:7.0,7.0;"/><polygon fill="none" points="406.646,254.302,422.911,240.722,418.665,261.481,406.646,254.302" style="stroke:#A80036;stroke-width:1.0;"/><!--MD5=[1abe4852485f7d7e084e3bf669528b01]
reverse link Iterator to MeasureIterator--><path d="M729.534,545.512 C706.37,561.3535 679.521,579.7145 658.834,593.8617 " fill="none" id="Iterator-backto-MeasureIterator" style="stroke:#A80036;stroke-width:1.0;stroke-dasharray:7.0,7.0;"/><polygon fill="none" points="725.907,539.512,746.367,534,733.81,551.0684,725.907,539.512" style="stroke:#A80036;stroke-width:1.0;"/><!--MD5=[f5fa204172c7ebd84436f4fa54ebb1c7]
reverse link Iterator to ScoreIterator--><path d="M780,554.0236 C780,567.5792 780,582.0381 780,593.6784 " fill="none" id="Iterator-backto-ScoreIterator" style="stroke:#A80036;stroke-width:1.0;stroke-dasharray:7.0,7.0;"/><polygon fill="none" points="773,554.0005,780,534,787,554.0004,773,554.0005" style="stroke:#A80036;stroke-width:1.0;"/><!--MD5=[54824497402a5e2eec52c1338129c753]
reverse link Parser to Processor--><path codeLine="44" d="M1035.08,439.017 C1038.75,457.469 1041.97,473.678 1044.39,485.837 " fill="none" id="Parser-backto-Processor" style="stroke:#A80036;stroke-width:1.0;"/><polygon fill="#FFFFFF" points="1032.53,426.248,1029.7786,432.9136,1034.8732,438.017,1037.6246,431.3514,1032.53,426.248" style="stroke:#A80036;stroke-width:1.0;"/><text fill="#000000" font-family="sans-serif" font-size="13" lengthAdjust="spacing" textLength="8" x="1025.8787" y="446.1186">1</text><!--MD5=[07245fe8b969e0a18c84bedbe4ae8af3]
reverse link GuitarStaff to Staff--><path codeLine="45" d="M64.0874,260.145 C74.9767,303.071 94.152,370.668 119,426 C147.7,489.91 193.304,558.9269 217.562,593.881 " fill="none" id="GuitarStaff-backto-Staff" style="stroke:#A80036;stroke-width:1.0;"/><polygon fill="none" points="57.2792,261.773,59.2903,240.679,70.8725,258.423,57.2792,261.773" style="stroke:#A80036;stroke-width:1.0;"/><!--MD5=[ec9c8c68395d2b838dc50cad6e1c4aab]
reverse link DrumStaff to Staff--><path codeLine="46" d="M187.633,260.775 C198.609,345.101 222.524,528.836 230.971,593.7303 " fill="none" id="DrumStaff-backto-Staff" style="stroke:#A80036;stroke-width:1.0;"/><polygon fill="none" points="180.661,261.442,185.021,240.706,194.544,259.635,180.661,261.442" style="stroke:#A80036;stroke-width:1.0;"/><!--MD5=[34033b6af071360fb3fc30fd0c86bb3b]
reverse link Processor to SerializeGuitarScore--><path codeLine="47" d="M1059.15,546.8693 C1063.53,562.3254 1068.52,579.9595 1072.4,593.6784 " fill="none" id="Processor-backto-SerializeGuitarScore" style="stroke:#A80036;stroke-width:1.0;"/><polygon fill="#FFFFFF" points="1055.51,534,1053.2944,540.8623,1058.7766,545.5468,1060.9922,538.6846,1055.51,534" style="stroke:#A80036;stroke-width:1.0;"/><text fill="#000000" font-family="sans-serif" font-size="13" lengthAdjust="spacing" textLength="8" x="1048.1532" y="554.1558">1</text><!--MD5=[fd909cacb635fa1fb1af29d829f6c77e]
reverse link Processor to SerializeDrumScore--><path codeLine="48" d="M1107.76,539.441 C1142.97,556.4837 1187.17,577.8769 1220.22,593.876 " fill="none" id="Processor-backto-SerializeDrumScore" style="stroke:#A80036;stroke-width:1.0;"/><polygon fill="#FFFFFF" points="1095.71,533.61,1099.3646,539.8264,1106.5085,538.8438,1102.8538,532.6274,1095.71,533.61" style="stroke:#A80036;stroke-width:1.0;"/><text fill="#000000" font-family="sans-serif" font-size="13" lengthAdjust="spacing" textLength="8" x="1099.1883" y="554.0556">1</text><!--MD5=[e77e41236a232992886ba9d89c2caf42]
reverse link Processor to Instrument--><path codeLine="49" d="M1010.66,542.2585 C990.472,558.723 966.127,578.5737 947.602,593.6784 " fill="none" id="Processor-backto-Instrument" style="stroke:#A80036;stroke-width:1.0;"/><polygon fill="#FFFFFF" points="1020.79,534,1013.6121,534.691,1011.4892,541.5825,1018.6671,540.8915,1020.79,534" style="stroke:#A80036;stroke-width:1.0;"/><text fill="#000000" font-family="sans-serif" font-size="13" lengthAdjust="spacing" textLength="8" x="1004.5362" y="554.1558">1</text><!--MD5=[afc1935edd4ef5d133e6e5133d5487c4]
reverse link Parser to Instrument--><path codeLine="50" d="M951.063,439.097 C939.694,502.178 928.855,562.3172 923.155,593.944 " fill="none" id="Parser-backto-Instrument" style="stroke:#A80036;stroke-width:1.0;"/><polygon fill="#FFFFFF" points="953.418,426.026,948.4172,431.2214,951.2895,437.8357,956.2903,432.6404,953.418,426.026" style="stroke:#A80036;stroke-width:1.0;"/><text fill="#000000" font-family="sans-serif" font-size="13" lengthAdjust="spacing" textLength="8" x="943.7937" y="446.5665">1</text><!--MD5=[ea3244b827293de151933372d2f50868]
reverse link Parser to Score--><path codeLine="51" d="M736.933,393.835 C684.111,430.496 635.185,464.453 604.349,485.854 " fill="none" id="Parser-backto-Score" style="stroke:#A80036;stroke-width:1.0;"/><polygon fill="#FFFFFF" points="747.901,386.223,740.6912,386.3582,738.0429,393.0654,745.2527,392.9302,747.901,386.223" style="stroke:#A80036;stroke-width:1.0;"/><text fill="#000000" font-family="sans-serif" font-size="13" lengthAdjust="spacing" textLength="8" x="731.7931" y="388.6095">1</text><!--MD5=[43b6fe369902da6002757ec1b1af6c2a]
link Parser to Transform--><path codeLine="52" d="M1234.3,398.839 C1336.98,475.371 1444.54,555.5389 1495.99,593.8895 " fill="none" id="Parser-Transform" style="stroke:#A80036;stroke-width:1.0;"/><!--MD5=[0b04042fee6e0614e5c9e2a1a1584166]
reverse link Score to ScoreIterator--><path codeLine="53" d="M630.016,540.932 C663.104,557.7129 703.75,578.3275 734.378,593.8617 " fill="none" id="Score-backto-ScoreIterator" style="stroke:#A80036;stroke-width:1.0;"/><ellipse cx="623.485" cy="537.6183" fill="#FFFFFF" rx="8" ry="8" style="stroke:#A80036;stroke-width:1.0;"/><line style="stroke:#A80036;stroke-width:1.0;" x1="630.6199" x2="616.35" y1="541.2366" y2="534"/><line style="stroke:#A80036;stroke-width:1.0;" x1="619.8667" x2="627.1033" y1="544.7533" y2="530.4833"/><!--MD5=[af3de0b4ae723efe1be1549f9cfdcb44]
reverse link Score to MeasureIterator--><path codeLine="54" d="M589.752,547.8086 C597.509,563.0363 606.271,580.2366 613.119,593.6784 " fill="none" id="Score-backto-MeasureIterator" style="stroke:#A80036;stroke-width:1.0;"/><ellipse cx="586.3484" cy="541.1283" fill="#FFFFFF" rx="8" ry="8" style="stroke:#A80036;stroke-width:1.0;"/><line style="stroke:#A80036;stroke-width:1.0;" x1="589.9799" x2="582.717" y1="548.2566" y2="534"/><line style="stroke:#A80036;stroke-width:1.0;" x1="579.2201" x2="593.4767" y1="544.7597" y2="537.4969"/><!--MD5=[c38772ab34ac5dbad5246ede3c48f077]
reverse link Score to Measure--><path codeLine="55" d="M531.478,542.0322 C510.453,558.5408 485.027,578.5044 465.702,593.6784 " fill="none" id="Score-backto-Measure" style="stroke:#A80036;stroke-width:1.0;"/><polygon fill="#A80036" points="541.707,534,534.5176,534.5593,532.2688,541.4108,539.4582,540.8515,541.707,534" style="stroke:#A80036;stroke-width:1.0;"/><text fill="#000000" font-family="sans-serif" font-size="13" lengthAdjust="spacing" textLength="7" x="526.3038" y="554.1558">*</text><!--MD5=[3d16544ca464ddd356fb0b098038b6b8]
reverse link Score to Staff--><path codeLine="56" d="M485.325,537.948 C430.326,555.2475 359.658,577.4757 307.272,593.9531 " fill="none" id="Score-backto-Staff" style="stroke:#A80036;stroke-width:1.0;"/><polygon fill="#A80036" points="497.876,534,490.9523,531.9843,486.4288,537.6001,493.3524,539.6158,497.876,534" style="stroke:#A80036;stroke-width:1.0;"/><text fill="#000000" font-family="sans-serif" font-size="13" lengthAdjust="spacing" textLength="7" x="471.2411" y="554.1558">*</text><!--MD5=[c6f5433fb58358e809c63b7e32205d02]
@startuml
class Score<E extends Staff<? extends Line>> implements Iterable{}
abstract class Staff<E extends Line> extends ScoreItem implements Iterable{}
enum Instrument{}

class Parser {
  +{static} String COMMENTS
  +{static} String OUTLIER_G
  +{static} String OUTLIER_B
  +{static} String OUTLIER_D
  +{static} String OUTLIER_GUITAR
  +{static} String OUTLIER_DRUM
  +{static} String STRING
  +{static} String STRING_UNBOUND
  +{static} String GP
  +{static} String BP
  +{static} String DP
  +{static} Pattern outlierPlucked
  +{static} Pattern outlierPercussion
  +{static} Pattern guitarPattern
  +{static} Pattern guitarPatternGreedy
  +{static} Pattern bassPattern
  +{static} Pattern drumPattern

  -Processor processor
  -Instrument instrument
  -Score<?> sheet
  
  +Parser(String, Instrument)
  +parse() : ImmutablePair<String, Collection<ParsingWarning>>
  +parse(XMLMetadata) : ImmutablePair<String, Collection<ParsingWarning>>
  +getDetectedInstrument(String) : Optional<Insturment>
  +getDetectedInsturment() : Instrument
  -parseGuitar(XMLMetadata) : ImmutablePair<String, Collection<ParsingWarning>>
  -parseBass(XMLMetadata) : ImmutablePair<String, Collection<ParsingWarning>>
  -parseDrum(XMLMetadata) : ImmutablePair<String, Collection<ParsingWarning>>
}

class MeasureIterator implements Iterator{}
class ScoreIterator implements Iterator{}
class Measure<E extends Note>{}
class Transform<T extends Staff<? extends Line>>{}
abstract class ScoreItem{}

Parser "1" o- - Processor
GuitarStaff <|- - - Staff
DrumStaff <|- - - Staff
Processor "1" o- - SerializeGuitarScore
Processor "1" o- - SerializeDrumScore
Processor "1" o- - Instrument
Parser "1" o- - Instrument
Parser "1" o- - Score
Parser - - - Transform
Score +- - ScoreIterator
Score +- - MeasureIterator
Score "*" *- - Measure
Score "*" *- - Staff
@enduml

PlantUML version 1.2021.5beta3(Unknown compile time)
(GPL source distribution)
Java Runtime: Java(TM) SE Runtime Environment
JVM: Java HotSpot(TM) 64-Bit Server VM
Default Encoding: UTF-8
Language: en
Country: US
--></g></svg>