<?xml version="1.0" encoding="UTF-8" standalone="no"?><svg xmlns="http://www.w3.org/2000/svg" xmlns:xlink="http://www.w3.org/1999/xlink" contentScriptType="application/ecmascript" contentStyleType="text/css" height="656px" preserveAspectRatio="none" style="width:848px;height:656px;" version="1.1" viewBox="0 0 848 656" width="848px" zoomAndPan="magnify"><defs><filter height="300%" id="fa940xyl838np" width="300%" x="-1" y="-1"><feGaussianBlur result="blurOut" stdDeviation="2.0"/><feColorMatrix in="blurOut" result="blurOut2" type="matrix" values="0 0 0 0 0 0 0 0 0 0 0 0 0 0 0 0 0 0 .4 0"/><feOffset dx="4.0" dy="4.0" in="blurOut2" result="blurOut3"/><feBlend in="SourceGraphic" in2="blurOut3" mode="normal"/></filter></defs><g><!--MD5=[628cc5a2753cca06eb1ffef55c386535]
class Parser--><rect codeLine="1" fill="#FEFECE" filter="url(#fa940xyl838np)" height="419.3359" id="Parser" style="stroke:#A80036;stroke-width:1.5;" width="486" x="313.5" y="7"/><ellipse cx="533.25" cy="23" fill="#ADD1B2" rx="11" ry="11" style="stroke:#A80036;stroke-width:1.0;"/><path d="M535.5938,18.6719 C534.6563,18.2344 534.0625,18.0938 533.1875,18.0938 C530.5625,18.0938 528.5625,20.1719 528.5625,22.8906 L528.5625,24.0156 C528.5625,26.5938 530.6719,28.4844 533.5625,28.4844 C534.7813,28.4844 535.9375,28.1875 536.6875,27.6406 C537.2656,27.2344 537.5938,26.7813 537.5938,26.3906 C537.5938,25.9375 537.2031,25.5469 536.7344,25.5469 C536.5156,25.5469 536.3125,25.625 536.125,25.8125 C535.6719,26.2969 535.6719,26.2969 535.4844,26.3906 C535.0625,26.6563 534.375,26.7813 533.6094,26.7813 C531.5625,26.7813 530.2656,25.6875 530.2656,23.9844 L530.2656,22.8906 C530.2656,21.1094 531.5156,19.7969 533.25,19.7969 C533.8281,19.7969 534.4375,19.9531 534.9063,20.2031 C535.3906,20.4844 535.5625,20.7031 535.6563,21.1094 C535.7188,21.5156 535.75,21.6406 535.8906,21.7656 C536.0313,21.9063 536.2656,22.0156 536.4844,22.0156 C536.75,22.0156 537.0156,21.875 537.1875,21.6563 C537.2969,21.5 537.3281,21.3125 537.3281,20.8906 L537.3281,19.4688 C537.3281,19.0313 537.3125,18.9063 537.2188,18.75 C537.0625,18.4844 536.7813,18.3438 536.4844,18.3438 C536.1875,18.3438 535.9844,18.4375 535.7656,18.75 L535.5938,18.6719 Z " fill="#000000"/><text fill="#000000" font-family="sans-serif" font-size="12" lengthAdjust="spacing" textLength="38" x="553.75" y="27.1543">Parser</text><line style="stroke:#A80036;stroke-width:1.5;" x1="314.5" x2="798.5" y1="39" y2="39"/><ellipse cx="324.5" cy="50" rx="3" ry="3" style="stroke:#038048;stroke-width:1.0;fill:none;"/><text fill="#000000" font-family="sans-serif" font-size="11" lengthAdjust="spacing" text-decoration="underline" textLength="102" x="333.5" y="53.2104">String COMMENTS</text><ellipse cx="324.5" cy="62.8047" rx="3" ry="3" style="stroke:#038048;stroke-width:1.0;fill:none;"/><text fill="#000000" font-family="sans-serif" font-size="11" lengthAdjust="spacing" text-decoration="underline" textLength="99" x="333.5" y="66.0151">String OUTLIER_G</text><ellipse cx="324.5" cy="75.6094" rx="3" ry="3" style="stroke:#038048;stroke-width:1.0;fill:none;"/><text fill="#000000" font-family="sans-serif" font-size="11" lengthAdjust="spacing" text-decoration="underline" textLength="98" x="333.5" y="78.8198">String OUTLIER_B</text><ellipse cx="324.5" cy="88.4141" rx="3" ry="3" style="stroke:#038048;stroke-width:1.0;fill:none;"/><text fill="#000000" font-family="sans-serif" font-size="11" lengthAdjust="spacing" text-decoration="underline" textLength="99" x="333.5" y="91.6245">String OUTLIER_D</text><ellipse cx="324.5" cy="101.2188" rx="3" ry="3" style="stroke:#038048;stroke-width:1.0;fill:none;"/><text fill="#000000" font-family="sans-serif" font-size="11" lengthAdjust="spacing" text-decoration="underline" textLength="132" x="333.5" y="104.4292">String OUTLIER_GUITAR</text><ellipse cx="324.5" cy="114.0234" rx="3" ry="3" style="stroke:#038048;stroke-width:1.0;fill:none;"/><text fill="#000000" font-family="sans-serif" font-size="11" lengthAdjust="spacing" text-decoration="underline" textLength="123" x="333.5" y="117.2339">String OUTLIER_DRUM</text><ellipse cx="324.5" cy="126.8281" rx="3" ry="3" style="stroke:#038048;stroke-width:1.0;fill:none;"/><text fill="#000000" font-family="sans-serif" font-size="11" lengthAdjust="spacing" text-decoration="underline" textLength="79" x="333.5" y="130.0386">String STRING</text><ellipse cx="324.5" cy="139.6328" rx="3" ry="3" style="stroke:#038048;stroke-width:1.0;fill:none;"/><text fill="#000000" font-family="sans-serif" font-size="11" lengthAdjust="spacing" text-decoration="underline" textLength="143" x="333.5" y="142.8433">String STRING_UNBOUND</text><ellipse cx="324.5" cy="152.4375" rx="3" ry="3" style="stroke:#038048;stroke-width:1.0;fill:none;"/><text fill="#000000" font-family="sans-serif" font-size="11" lengthAdjust="spacing" text-decoration="underline" textLength="52" x="333.5" y="155.6479">String GP</text><ellipse cx="324.5" cy="165.2422" rx="3" ry="3" style="stroke:#038048;stroke-width:1.0;fill:none;"/><text fill="#000000" font-family="sans-serif" font-size="11" lengthAdjust="spacing" text-decoration="underline" textLength="51" x="333.5" y="168.4526">String BP</text><ellipse cx="324.5" cy="178.0469" rx="3" ry="3" style="stroke:#038048;stroke-width:1.0;fill:none;"/><text fill="#000000" font-family="sans-serif" font-size="11" lengthAdjust="spacing" text-decoration="underline" textLength="52" x="333.5" y="181.2573">String DP</text><ellipse cx="324.5" cy="190.8516" rx="3" ry="3" style="stroke:#038048;stroke-width:1.0;fill:none;"/><text fill="#000000" font-family="sans-serif" font-size="11" lengthAdjust="spacing" text-decoration="underline" textLength="123" x="333.5" y="194.062">Pattern outlierPlucked</text><ellipse cx="324.5" cy="203.6563" rx="3" ry="3" style="stroke:#038048;stroke-width:1.0;fill:none;"/><text fill="#000000" font-family="sans-serif" font-size="11" lengthAdjust="spacing" text-decoration="underline" textLength="140" x="333.5" y="206.8667">Pattern outlierPercussion</text><ellipse cx="324.5" cy="216.4609" rx="3" ry="3" style="stroke:#038048;stroke-width:1.0;fill:none;"/><text fill="#000000" font-family="sans-serif" font-size="11" lengthAdjust="spacing" text-decoration="underline" textLength="116" x="333.5" y="219.6714">Pattern guitarPattern</text><ellipse cx="324.5" cy="229.2656" rx="3" ry="3" style="stroke:#038048;stroke-width:1.0;fill:none;"/><text fill="#000000" font-family="sans-serif" font-size="11" lengthAdjust="spacing" text-decoration="underline" textLength="159" x="333.5" y="232.4761">Pattern guitarPatternGreedy</text><ellipse cx="324.5" cy="242.0703" rx="3" ry="3" style="stroke:#038048;stroke-width:1.0;fill:none;"/><text fill="#000000" font-family="sans-serif" font-size="11" lengthAdjust="spacing" text-decoration="underline" textLength="110" x="333.5" y="245.2808">Pattern bassPattern</text><ellipse cx="324.5" cy="254.875" rx="3" ry="3" style="stroke:#038048;stroke-width:1.0;fill:none;"/><text fill="#000000" font-family="sans-serif" font-size="11" lengthAdjust="spacing" text-decoration="underline" textLength="113" x="333.5" y="258.0854">Pattern drumPattern</text><text fill="#000000" font-family="sans-serif" font-size="11" lengthAdjust="spacing" textLength="0" x="337.5" y="270.8901"/><rect fill="none" height="6" style="stroke:#C82930;stroke-width:1.0;" width="6" x="321.5" y="277.4844"/><text fill="#000000" font-family="sans-serif" font-size="11" lengthAdjust="spacing" textLength="113" x="333.5" y="283.6948">Processor processor</text><rect fill="none" height="6" style="stroke:#C82930;stroke-width:1.0;" width="6" x="321.5" y="290.2891"/><text fill="#000000" font-family="sans-serif" font-size="11" lengthAdjust="spacing" textLength="126" x="333.5" y="296.4995">Instrument instrument</text><rect fill="none" height="6" style="stroke:#C82930;stroke-width:1.0;" width="6" x="321.5" y="303.0938"/><text fill="#000000" font-family="sans-serif" font-size="11" lengthAdjust="spacing" textLength="94" x="333.5" y="309.3042">Score&lt;?&gt; sheet</text><line style="stroke:#A80036;stroke-width:1.5;" x1="314.5" x2="798.5" y1="315.8984" y2="315.8984"/><ellipse cx="324.5" cy="326.8984" fill="#84BE84" rx="3" ry="3" style="stroke:#038048;stroke-width:1.0;"/><text fill="#000000" font-family="sans-serif" font-size="11" lengthAdjust="spacing" textLength="144" x="333.5" y="330.1089">Parser(String, Instrument)</text><ellipse cx="324.5" cy="339.7031" fill="#84BE84" rx="3" ry="3" style="stroke:#038048;stroke-width:1.0;"/><text fill="#000000" font-family="sans-serif" font-size="11" lengthAdjust="spacing" textLength="350" x="333.5" y="342.9136">parse() : ImmutablePair&lt;String, Collection&lt;ParsingWarning&gt;&gt;</text><ellipse cx="324.5" cy="352.5078" fill="#84BE84" rx="3" ry="3" style="stroke:#038048;stroke-width:1.0;"/><text fill="#000000" font-family="sans-serif" font-size="11" lengthAdjust="spacing" textLength="426" x="333.5" y="355.7183">parse(XMLMetadata) : ImmutablePair&lt;String, Collection&lt;ParsingWarning&gt;&gt;</text><ellipse cx="324.5" cy="365.3125" fill="#84BE84" rx="3" ry="3" style="stroke:#038048;stroke-width:1.0;"/><text fill="#000000" font-family="sans-serif" font-size="11" lengthAdjust="spacing" textLength="312" x="333.5" y="368.5229">getDetectedInstrument(String) : Optional&lt;Insturment&gt;</text><ellipse cx="324.5" cy="378.1172" fill="#84BE84" rx="3" ry="3" style="stroke:#038048;stroke-width:1.0;"/><text fill="#000000" font-family="sans-serif" font-size="11" lengthAdjust="spacing" textLength="214" x="333.5" y="381.3276">getDetectedInsturment() : Instrument</text><rect fill="#F24D5C" height="6" style="stroke:#C82930;stroke-width:1.0;" width="6" x="321.5" y="387.9219"/><text fill="#000000" font-family="sans-serif" font-size="11" lengthAdjust="spacing" textLength="460" x="333.5" y="394.1323">parseGuitar(XMLMetadata) : ImmutablePair&lt;String, Collection&lt;ParsingWarning&gt;&gt;</text><rect fill="#F24D5C" height="6" style="stroke:#C82930;stroke-width:1.0;" width="6" x="321.5" y="400.7266"/><text fill="#000000" font-family="sans-serif" font-size="11" lengthAdjust="spacing" textLength="453" x="333.5" y="406.937">parseBass(XMLMetadata) : ImmutablePair&lt;String, Collection&lt;ParsingWarning&gt;&gt;</text><rect fill="#F24D5C" height="6" style="stroke:#C82930;stroke-width:1.0;" width="6" x="321.5" y="413.5313"/><text fill="#000000" font-family="sans-serif" font-size="11" lengthAdjust="spacing" textLength="457" x="333.5" y="419.7417">parseDrum(XMLMetadata) : ImmutablePair&lt;String, Collection&lt;ParsingWarning&gt;&gt;</text><!--MD5=[70de36391d1fe102d3a67483a6327fe5]
class SerializeGuitarScore--><rect codeLine="34" fill="#FEFECE" filter="url(#fa940xyl838np)" height="48" id="SerializeGuitarScore" style="stroke:#A80036;stroke-width:1.5;" width="155" x="161" y="594"/><ellipse cx="176" cy="610" fill="#ADD1B2" rx="11" ry="11" style="stroke:#A80036;stroke-width:1.0;"/><path d="M178.3438,605.6719 C177.4063,605.2344 176.8125,605.0938 175.9375,605.0938 C173.3125,605.0938 171.3125,607.1719 171.3125,609.8906 L171.3125,611.0156 C171.3125,613.5938 173.4219,615.4844 176.3125,615.4844 C177.5313,615.4844 178.6875,615.1875 179.4375,614.6406 C180.0156,614.2344 180.3438,613.7813 180.3438,613.3906 C180.3438,612.9375 179.9531,612.5469 179.4844,612.5469 C179.2656,612.5469 179.0625,612.625 178.875,612.8125 C178.4219,613.2969 178.4219,613.2969 178.2344,613.3906 C177.8125,613.6563 177.125,613.7813 176.3594,613.7813 C174.3125,613.7813 173.0156,612.6875 173.0156,610.9844 L173.0156,609.8906 C173.0156,608.1094 174.2656,606.7969 176,606.7969 C176.5781,606.7969 177.1875,606.9531 177.6563,607.2031 C178.1406,607.4844 178.3125,607.7031 178.4063,608.1094 C178.4688,608.5156 178.5,608.6406 178.6406,608.7656 C178.7813,608.9063 179.0156,609.0156 179.2344,609.0156 C179.5,609.0156 179.7656,608.875 179.9375,608.6563 C180.0469,608.5 180.0781,608.3125 180.0781,607.8906 L180.0781,606.4688 C180.0781,606.0313 180.0625,605.9063 179.9688,605.75 C179.8125,605.4844 179.5313,605.3438 179.2344,605.3438 C178.9375,605.3438 178.7344,605.4375 178.5156,605.75 L178.3438,605.6719 Z " fill="#000000"/><text fill="#000000" font-family="sans-serif" font-size="12" lengthAdjust="spacing" textLength="123" x="190" y="614.1543">SerializeGuitarScore</text><line style="stroke:#A80036;stroke-width:1.5;" x1="162" x2="315" y1="626" y2="626"/><line style="stroke:#A80036;stroke-width:1.5;" x1="162" x2="315" y1="634" y2="634"/><!--MD5=[f9c90fe06e085c691cb8540fe108d6c9]
class SerializeDrumScore--><rect codeLine="35" fill="#FEFECE" filter="url(#fa940xyl838np)" height="48" id="SerializeDrumScore" style="stroke:#A80036;stroke-width:1.5;" width="152" x="351.5" y="594"/><ellipse cx="366.5" cy="610" fill="#ADD1B2" rx="11" ry="11" style="stroke:#A80036;stroke-width:1.0;"/><path d="M368.8438,605.6719 C367.9063,605.2344 367.3125,605.0938 366.4375,605.0938 C363.8125,605.0938 361.8125,607.1719 361.8125,609.8906 L361.8125,611.0156 C361.8125,613.5938 363.9219,615.4844 366.8125,615.4844 C368.0313,615.4844 369.1875,615.1875 369.9375,614.6406 C370.5156,614.2344 370.8438,613.7813 370.8438,613.3906 C370.8438,612.9375 370.4531,612.5469 369.9844,612.5469 C369.7656,612.5469 369.5625,612.625 369.375,612.8125 C368.9219,613.2969 368.9219,613.2969 368.7344,613.3906 C368.3125,613.6563 367.625,613.7813 366.8594,613.7813 C364.8125,613.7813 363.5156,612.6875 363.5156,610.9844 L363.5156,609.8906 C363.5156,608.1094 364.7656,606.7969 366.5,606.7969 C367.0781,606.7969 367.6875,606.9531 368.1563,607.2031 C368.6406,607.4844 368.8125,607.7031 368.9063,608.1094 C368.9688,608.5156 369,608.6406 369.1406,608.7656 C369.2813,608.9063 369.5156,609.0156 369.7344,609.0156 C370,609.0156 370.2656,608.875 370.4375,608.6563 C370.5469,608.5 370.5781,608.3125 370.5781,607.8906 L370.5781,606.4688 C370.5781,606.0313 370.5625,605.9063 370.4688,605.75 C370.3125,605.4844 370.0313,605.3438 369.7344,605.3438 C369.4375,605.3438 369.2344,605.4375 369.0156,605.75 L368.8438,605.6719 Z " fill="#000000"/><text fill="#000000" font-family="sans-serif" font-size="12" lengthAdjust="spacing" textLength="120" x="380.5" y="614.1543">SerializeDrumScore</text><line style="stroke:#A80036;stroke-width:1.5;" x1="352.5" x2="502.5" y1="626" y2="626"/><line style="stroke:#A80036;stroke-width:1.5;" x1="352.5" x2="502.5" y1="634" y2="634"/><!--MD5=[ccb08bf2514626e6d11fec6d6805d158]
class Instrument--><rect codeLine="36" fill="#FEFECE" filter="url(#fa940xyl838np)" height="48" id="Instrument" style="stroke:#A80036;stroke-width:1.5;" width="95" x="509" y="486"/><ellipse cx="524" cy="502" fill="#EB937F" rx="11" ry="11" style="stroke:#A80036;stroke-width:1.0;"/><path d="M522.7969,502.875 L524.25,502.875 L524.25,502.9844 C524.25,503.3906 524.2813,503.5469 524.3594,503.7031 C524.5156,503.9531 524.7969,504.1094 525.0938,504.1094 C525.3438,504.1094 525.6094,503.9688 525.7656,503.75 C525.8906,503.5938 525.9219,503.4375 525.9219,502.9844 L525.9219,501.0625 C525.9219,500.9063 525.9219,500.8594 525.9063,500.7031 C525.8438,500.2344 525.5313,499.9219 525.0781,499.9219 C524.8281,499.9219 524.5625,500.0625 524.3906,500.2813 C524.2813,500.4531 524.25,500.6094 524.25,501.0625 L524.25,501.1875 L522.7969,501.1875 L522.7969,498.7813 L526.7813,498.7813 L526.7813,499.6406 C526.7813,500.0469 526.8125,500.2188 526.8906,500.375 C527.0625,500.625 527.3438,500.7813 527.625,500.7813 C527.8906,500.7813 528.1563,500.6406 528.3281,500.4219 C528.4375,500.25 528.4688,500.1094 528.4688,499.6406 L528.4688,497.0938 L520.8438,497.0938 C520.4063,497.0938 520.2813,497.1094 520.125,497.2031 C519.875,497.3594 519.7188,497.6563 519.7188,497.9375 C519.7188,498.2188 519.8594,498.4688 520.0781,498.6406 C520.2344,498.75 520.4219,498.7813 520.8438,498.7813 L521.0938,498.7813 L521.0938,505.2969 L520.8438,505.2969 C520.4375,505.2969 520.2813,505.3125 520.125,505.4219 C519.875,505.5938 519.7188,505.8594 519.7188,506.1563 C519.7188,506.4219 519.8594,506.6719 520.0781,506.8281 C520.2188,506.9531 520.4531,507 520.8438,507 L528.8438,507 L528.8438,504.4219 C528.8438,503.9844 528.8125,503.8438 528.7344,503.6875 C528.5625,503.4375 528.2813,503.2813 528,503.2813 C527.7344,503.2813 527.4688,503.3906 527.2969,503.6406 C527.1875,503.7969 527.1563,503.9375 527.1563,504.4219 L527.1563,505.2969 L522.7969,505.2969 L522.7969,502.875 Z " fill="#000000"/><text fill="#000000" font-family="sans-serif" font-size="12" lengthAdjust="spacing" textLength="63" x="538" y="506.1543">Instrument</text><line style="stroke:#A80036;stroke-width:1.5;" x1="510" x2="603" y1="518" y2="518"/><line style="stroke:#A80036;stroke-width:1.5;" x1="510" x2="603" y1="526" y2="526"/><!--MD5=[004b1d6c4ca8aad4ba8b586a335ed4f3]
class Transform--><rect codeLine="37" fill="#FEFECE" filter="url(#fa940xyl838np)" height="48" id="Transform" style="stroke:#A80036;stroke-width:1.5;" width="295" x="539" y="594"/><ellipse cx="554" cy="610" fill="#ADD1B2" rx="11" ry="11" style="stroke:#A80036;stroke-width:1.0;"/><path d="M556.3438,605.6719 C555.4063,605.2344 554.8125,605.0938 553.9375,605.0938 C551.3125,605.0938 549.3125,607.1719 549.3125,609.8906 L549.3125,611.0156 C549.3125,613.5938 551.4219,615.4844 554.3125,615.4844 C555.5313,615.4844 556.6875,615.1875 557.4375,614.6406 C558.0156,614.2344 558.3438,613.7813 558.3438,613.3906 C558.3438,612.9375 557.9531,612.5469 557.4844,612.5469 C557.2656,612.5469 557.0625,612.625 556.875,612.8125 C556.4219,613.2969 556.4219,613.2969 556.2344,613.3906 C555.8125,613.6563 555.125,613.7813 554.3594,613.7813 C552.3125,613.7813 551.0156,612.6875 551.0156,610.9844 L551.0156,609.8906 C551.0156,608.1094 552.2656,606.7969 554,606.7969 C554.5781,606.7969 555.1875,606.9531 555.6563,607.2031 C556.1406,607.4844 556.3125,607.7031 556.4063,608.1094 C556.4688,608.5156 556.5,608.6406 556.6406,608.7656 C556.7813,608.9063 557.0156,609.0156 557.2344,609.0156 C557.5,609.0156 557.7656,608.875 557.9375,608.6563 C558.0469,608.5 558.0781,608.3125 558.0781,607.8906 L558.0781,606.4688 C558.0781,606.0313 558.0625,605.9063 557.9688,605.75 C557.8125,605.4844 557.5313,605.3438 557.2344,605.3438 C556.9375,605.3438 556.7344,605.4375 556.5156,605.75 L556.3438,605.6719 Z " fill="#000000"/><text fill="#000000" font-family="sans-serif" font-size="12" lengthAdjust="spacing" textLength="61" x="568" y="614.1543">Transform</text><rect fill="#FFFFFF" height="15.9688" style="stroke:#000000;stroke-width:1.0;stroke-dasharray:2.0,2.0;" width="200" x="637" y="591"/><text fill="#000000" font-family="sans-serif" font-size="12" font-style="italic" lengthAdjust="spacing" textLength="198" x="638" y="603.1387">T extends Staff&lt;? extends Line&gt;</text><line style="stroke:#A80036;stroke-width:1.5;" x1="540" x2="833" y1="626" y2="626"/><line style="stroke:#A80036;stroke-width:1.5;" x1="540" x2="833" y1="634" y2="634"/><!--MD5=[107af66394bf1ebaa045812c9c475148]
class Score--><rect codeLine="38" fill="#FEFECE" filter="url(#fa940xyl838np)" height="48" id="Score" style="stroke:#A80036;stroke-width:1.5;" width="271" x="7" y="192.5"/><ellipse cx="22" cy="208.5" fill="#ADD1B2" rx="11" ry="11" style="stroke:#A80036;stroke-width:1.0;"/><path d="M24.3438,204.1719 C23.4063,203.7344 22.8125,203.5938 21.9375,203.5938 C19.3125,203.5938 17.3125,205.6719 17.3125,208.3906 L17.3125,209.5156 C17.3125,212.0938 19.4219,213.9844 22.3125,213.9844 C23.5313,213.9844 24.6875,213.6875 25.4375,213.1406 C26.0156,212.7344 26.3438,212.2813 26.3438,211.8906 C26.3438,211.4375 25.9531,211.0469 25.4844,211.0469 C25.2656,211.0469 25.0625,211.125 24.875,211.3125 C24.4219,211.7969 24.4219,211.7969 24.2344,211.8906 C23.8125,212.1563 23.125,212.2813 22.3594,212.2813 C20.3125,212.2813 19.0156,211.1875 19.0156,209.4844 L19.0156,208.3906 C19.0156,206.6094 20.2656,205.2969 22,205.2969 C22.5781,205.2969 23.1875,205.4531 23.6563,205.7031 C24.1406,205.9844 24.3125,206.2031 24.4063,206.6094 C24.4688,207.0156 24.5,207.1406 24.6406,207.2656 C24.7813,207.4063 25.0156,207.5156 25.2344,207.5156 C25.5,207.5156 25.7656,207.375 25.9375,207.1563 C26.0469,207 26.0781,206.8125 26.0781,206.3906 L26.0781,204.9688 C26.0781,204.5313 26.0625,204.4063 25.9688,204.25 C25.8125,203.9844 25.5313,203.8438 25.2344,203.8438 C24.9375,203.8438 24.7344,203.9375 24.5156,204.25 L24.3438,204.1719 Z " fill="#000000"/><text fill="#000000" font-family="sans-serif" font-size="12" lengthAdjust="spacing" textLength="36" x="36" y="212.6543">Score</text><rect fill="#FFFFFF" height="15.9688" style="stroke:#000000;stroke-width:1.0;stroke-dasharray:2.0,2.0;" width="201" x="80" y="189.5"/><text fill="#000000" font-family="sans-serif" font-size="12" font-style="italic" lengthAdjust="spacing" textLength="199" x="81" y="201.6387">E extends Staff&lt;? extends Line&gt;</text><line style="stroke:#A80036;stroke-width:1.5;" x1="8" x2="277" y1="224.5" y2="224.5"/><line style="stroke:#A80036;stroke-width:1.5;" x1="8" x2="277" y1="232.5" y2="232.5"/><!--MD5=[df152c2476dc0702efc46fc22338464c]
class Processor--><rect fill="#FEFECE" filter="url(#fa940xyl838np)" height="48" id="Processor" style="stroke:#A80036;stroke-width:1.5;" width="93" x="381" y="486"/><ellipse cx="396" cy="502" fill="#ADD1B2" rx="11" ry="11" style="stroke:#A80036;stroke-width:1.0;"/><path d="M398.3438,497.6719 C397.4063,497.2344 396.8125,497.0938 395.9375,497.0938 C393.3125,497.0938 391.3125,499.1719 391.3125,501.8906 L391.3125,503.0156 C391.3125,505.5938 393.4219,507.4844 396.3125,507.4844 C397.5313,507.4844 398.6875,507.1875 399.4375,506.6406 C400.0156,506.2344 400.3438,505.7813 400.3438,505.3906 C400.3438,504.9375 399.9531,504.5469 399.4844,504.5469 C399.2656,504.5469 399.0625,504.625 398.875,504.8125 C398.4219,505.2969 398.4219,505.2969 398.2344,505.3906 C397.8125,505.6563 397.125,505.7813 396.3594,505.7813 C394.3125,505.7813 393.0156,504.6875 393.0156,502.9844 L393.0156,501.8906 C393.0156,500.1094 394.2656,498.7969 396,498.7969 C396.5781,498.7969 397.1875,498.9531 397.6563,499.2031 C398.1406,499.4844 398.3125,499.7031 398.4063,500.1094 C398.4688,500.5156 398.5,500.6406 398.6406,500.7656 C398.7813,500.9063 399.0156,501.0156 399.2344,501.0156 C399.5,501.0156 399.7656,500.875 399.9375,500.6563 C400.0469,500.5 400.0781,500.3125 400.0781,499.8906 L400.0781,498.4688 C400.0781,498.0313 400.0625,497.9063 399.9688,497.75 C399.8125,497.4844 399.5313,497.3438 399.2344,497.3438 C398.9375,497.3438 398.7344,497.4375 398.5156,497.75 L398.3438,497.6719 Z " fill="#000000"/><text fill="#000000" font-family="sans-serif" font-size="12" lengthAdjust="spacing" textLength="61" x="410" y="506.1543">Processor</text><line style="stroke:#A80036;stroke-width:1.5;" x1="382" x2="473" y1="518" y2="518"/><line style="stroke:#A80036;stroke-width:1.5;" x1="382" x2="473" y1="526" y2="526"/><!--MD5=[54824497402a5e2eec52c1338129c753]
reverse link Parser to Processor--><path codeLine="40" d="M458.823,438.221 C450.511,457.003 443.209,473.503 437.751,485.837 " fill="none" id="Parser-backto-Processor" style="stroke:#A80036;stroke-width:1.0;"/><polygon fill="#FFFFFF" points="464.121,426.248,458.035,430.1159,459.2646,437.2214,465.3506,433.3535,464.121,426.248" style="stroke:#A80036;stroke-width:1.0;"/><text fill="#000000" font-family="sans-serif" font-size="13" lengthAdjust="spacing" textLength="8" x="452.6574" y="446.1186">1</text><!--MD5=[34033b6af071360fb3fc30fd0c86bb3b]
reverse link Processor to SerializeGuitarScore--><path codeLine="41" d="M374.931,540.483 C344.867,557.3443 307.701,578.1888 279.756,593.8617 " fill="none" id="Processor-backto-SerializeGuitarScore" style="stroke:#A80036;stroke-width:1.0;"/><polygon fill="#FFFFFF" points="386.49,534,379.3002,533.4459,376.0234,539.8695,383.2132,540.4236,386.49,534" style="stroke:#A80036;stroke-width:1.0;"/><text fill="#000000" font-family="sans-serif" font-size="13" lengthAdjust="spacing" textLength="8" x="366.9562" y="554.1558">1</text><!--MD5=[fd909cacb635fa1fb1af29d829f6c77e]
reverse link Processor to SerializeDrumScore--><path codeLine="42" d="M427.5,547.3383 C427.5,562.6813 427.5,580.098 427.5,593.6784 " fill="none" id="Processor-backto-SerializeDrumScore" style="stroke:#A80036;stroke-width:1.0;"/><polygon fill="#FFFFFF" points="427.5,534,423.5,540,427.5,546,431.5,540,427.5,534" style="stroke:#A80036;stroke-width:1.0;"/><text fill="#000000" font-family="sans-serif" font-size="13" lengthAdjust="spacing" textLength="8" x="418.475" y="554.1558">1</text><!--MD5=[e77e41236a232992886ba9d89c2caf42]
reverse link Processor to Instrument--><path codeLine="43" d="M487.145,510 C494.387,510 501.628,510 508.869,510 " fill="none" id="Processor-backto-Instrument" style="stroke:#A80036;stroke-width:1.0;"/><polygon fill="#FFFFFF" points="474.111,510,480.111,514,486.111,510,480.111,506,474.111,510" style="stroke:#A80036;stroke-width:1.0;"/><text fill="#000000" font-family="sans-serif" font-size="13" lengthAdjust="spacing" textLength="8" x="481.8608" y="505.9286">1</text><!--MD5=[afc1935edd4ef5d133e6e5133d5487c4]
reverse link Parser to Instrument--><path codeLine="44" d="M556.5,439.281 C556.5,457.624 556.5,473.736 556.5,485.837 " fill="none" id="Parser-backto-Instrument" style="stroke:#A80036;stroke-width:1.0;"/><polygon fill="#FFFFFF" points="556.5,426.248,552.5,432.248,556.5,438.248,560.5,432.248,556.5,426.248" style="stroke:#A80036;stroke-width:1.0;"/><text fill="#000000" font-family="sans-serif" font-size="13" lengthAdjust="spacing" textLength="8" x="548.3563" y="446.1186">1</text><!--MD5=[181c3962f7ac89b1bb3b2d3f3c7faf10]
link Score to Parser--><path codeLine="45" d="M278.344,216.5 C285.644,216.5 292.944,216.5 300.244,216.5 " fill="none" id="Score-to-Parser" style="stroke:#A80036;stroke-width:1.0;"/><polygon fill="#FFFFFF" points="313.385,216.5,307.385,212.5,301.385,216.5,307.385,220.5,313.385,216.5" style="stroke:#A80036;stroke-width:1.0;"/><text fill="#000000" font-family="sans-serif" font-size="13" lengthAdjust="spacing" textLength="8" x="297.2765" y="213.3175">1</text><!--MD5=[43b6fe369902da6002757ec1b1af6c2a]
link Parser to Transform--><path codeLine="46" d="M624.356,426.026 C646.396,493.756 667.997,560.1383 678.997,593.944 " fill="none" id="Parser-Transform" style="stroke:#A80036;stroke-width:1.0;"/><!--MD5=[cfd783b74d50f444d138b236d484b6fa]
@startuml
class Parser {
  +{static} String COMMENTS
  +{static} String OUTLIER_G
  +{static} String OUTLIER_B
  +{static} String OUTLIER_D
  +{static} String OUTLIER_GUITAR
  +{static} String OUTLIER_DRUM
  +{static} String STRING
  +{static} String STRING_UNBOUND
  +{static} String GP
  +{static} String BP
  +{static} String DP
  +{static} Pattern outlierPlucked
  +{static} Pattern outlierPercussion
  +{static} Pattern guitarPattern
  +{static} Pattern guitarPatternGreedy
  +{static} Pattern bassPattern
  +{static} Pattern drumPattern

  -Processor processor
  -Instrument instrument
  -Score<?> sheet
  
  +Parser(String, Instrument)
  +parse() : ImmutablePair<String, Collection<ParsingWarning>>
  +parse(XMLMetadata) : ImmutablePair<String, Collection<ParsingWarning>>
  +getDetectedInstrument(String) : Optional<Insturment>
  +getDetectedInsturment() : Instrument
  -parseGuitar(XMLMetadata) : ImmutablePair<String, Collection<ParsingWarning>>
  -parseBass(XMLMetadata) : ImmutablePair<String, Collection<ParsingWarning>>
  -parseDrum(XMLMetadata) : ImmutablePair<String, Collection<ParsingWarning>>
}

class SerializeGuitarScore {}
class SerializeDrumScore {}
enum Instrument{}
class Transform<T extends Staff<? extends Line>>{}
class Score<E extends Staff<? extends Line>> {}

Parser "1" o- - Processor
Processor "1" o- - SerializeGuitarScore
Processor "1" o- - SerializeDrumScore
Processor "1" o-right- Instrument
Parser "1" o-right- Instrument
Parser "1" o-left- Score
Parser - - - Transform
@enduml

PlantUML version 1.2021.5beta3(Unknown compile time)
(GPL source distribution)
Java Runtime: Java(TM) SE Runtime Environment
JVM: Java HotSpot(TM) 64-Bit Server VM
Default Encoding: UTF-8
Language: en
Country: US
--></g></svg>