<?xml version="1.0" encoding="UTF-8" standalone="no"?><svg xmlns="http://www.w3.org/2000/svg" xmlns:xlink="http://www.w3.org/1999/xlink" contentScriptType="application/ecmascript" contentStyleType="text/css" height="903px" preserveAspectRatio="none" style="width:950px;height:903px;" version="1.1" viewBox="0 0 950 903" width="950px" zoomAndPan="magnify"><defs><filter height="300%" id="f16ugqeihd2hvb" width="300%" x="-1" y="-1"><feGaussianBlur result="blurOut" stdDeviation="2.0"/><feColorMatrix in="blurOut" result="blurOut2" type="matrix" values="0 0 0 0 0 0 0 0 0 0 0 0 0 0 0 0 0 0 .4 0"/><feOffset dx="4.0" dy="4.0" in="blurOut2" result="blurOut3"/><feBlend in="SourceGraphic" in2="blurOut3" mode="normal"/></filter></defs><g><!--MD5=[107af66394bf1ebaa045812c9c475148]
class Score--><rect codeLine="1" fill="#FEFECE" filter="url(#f16ugqeihd2hvb)" height="406.5313" id="Score" style="stroke:#A80036;stroke-width:1.5;" width="351" x="210" y="118"/><ellipse cx="261.75" cy="134" fill="#ADD1B2" rx="11" ry="11" style="stroke:#A80036;stroke-width:1.0;"/><path d="M264.0938,129.6719 C263.1563,129.2344 262.5625,129.0938 261.6875,129.0938 C259.0625,129.0938 257.0625,131.1719 257.0625,133.8906 L257.0625,135.0156 C257.0625,137.5938 259.1719,139.4844 262.0625,139.4844 C263.2813,139.4844 264.4375,139.1875 265.1875,138.6406 C265.7656,138.2344 266.0938,137.7813 266.0938,137.3906 C266.0938,136.9375 265.7031,136.5469 265.2344,136.5469 C265.0156,136.5469 264.8125,136.625 264.625,136.8125 C264.1719,137.2969 264.1719,137.2969 263.9844,137.3906 C263.5625,137.6563 262.875,137.7813 262.1094,137.7813 C260.0625,137.7813 258.7656,136.6875 258.7656,134.9844 L258.7656,133.8906 C258.7656,132.1094 260.0156,130.7969 261.75,130.7969 C262.3281,130.7969 262.9375,130.9531 263.4063,131.2031 C263.8906,131.4844 264.0625,131.7031 264.1563,132.1094 C264.2188,132.5156 264.25,132.6406 264.3906,132.7656 C264.5313,132.9063 264.7656,133.0156 264.9844,133.0156 C265.25,133.0156 265.5156,132.875 265.6875,132.6563 C265.7969,132.5 265.8281,132.3125 265.8281,131.8906 L265.8281,130.4688 C265.8281,130.0313 265.8125,129.9063 265.7188,129.75 C265.5625,129.4844 265.2813,129.3438 264.9844,129.3438 C264.6875,129.3438 264.4844,129.4375 264.2656,129.75 L264.0938,129.6719 Z " fill="#000000"/><text fill="#000000" font-family="sans-serif" font-size="12" lengthAdjust="spacing" textLength="36" x="282.25" y="138.1543">Score</text><rect fill="#FFFFFF" height="15.9688" style="stroke:#000000;stroke-width:1.0;stroke-dasharray:2.0,2.0;" width="201" x="363" y="115"/><text fill="#000000" font-family="sans-serif" font-size="12" font-style="italic" lengthAdjust="spacing" textLength="199" x="364" y="127.1387">E extends Staff&lt;? extends Line&gt;</text><line style="stroke:#A80036;stroke-width:1.5;" x1="211" x2="560" y1="150" y2="150"/><ellipse cx="221" cy="161" rx="3" ry="3" style="stroke:#038048;stroke-width:1.0;fill:none;"/><text fill="#000000" font-family="sans-serif" font-size="11" lengthAdjust="spacing" text-decoration="underline" textLength="137" x="230" y="164.2104">int DEFAULT_BEATS = 4</text><ellipse cx="221" cy="173.8047" rx="3" ry="3" style="stroke:#038048;stroke-width:1.0;fill:none;"/><text fill="#000000" font-family="sans-serif" font-size="11" lengthAdjust="spacing" text-decoration="underline" textLength="156" x="230" y="177.0151">int DEFAULT_BEATTYPE = 4</text><ellipse cx="221" cy="186.6094" rx="3" ry="3" style="stroke:#038048;stroke-width:1.0;fill:none;"/><text fill="#000000" font-family="sans-serif" font-size="11" lengthAdjust="spacing" text-decoration="underline" textLength="150" x="230" y="189.8198">int DEFAULT_DIVISION = 2</text><text fill="#000000" font-family="sans-serif" font-size="11" lengthAdjust="spacing" textLength="0" x="234" y="202.6245"/><rect fill="none" height="6" style="stroke:#C82930;stroke-width:1.0;" width="6" x="218" y="209.2188"/><text fill="#000000" font-family="sans-serif" font-size="11" lengthAdjust="spacing" textLength="145" x="230" y="215.4292">Optional&lt;Integer&gt; beats;</text><rect fill="none" height="6" style="stroke:#C82930;stroke-width:1.0;" width="6" x="218" y="222.0234"/><text fill="#000000" font-family="sans-serif" font-size="11" lengthAdjust="spacing" textLength="168" x="230" y="228.2339">Optional&lt;Integer&gt; beatTYpe;</text><rect fill="none" height="6" style="stroke:#C82930;stroke-width:1.0;" width="6" x="218" y="234.8281"/><text fill="#000000" font-family="sans-serif" font-size="11" lengthAdjust="spacing" textLength="156" x="230" y="241.0386">Optional&lt;Integer&gt; division;</text><text fill="#000000" font-family="sans-serif" font-size="11" lengthAdjust="spacing" textLength="0" x="234" y="253.8433"/><rect fill="none" height="6" style="stroke:#C82930;stroke-width:1.0;" width="6" x="218" y="260.4375"/><text fill="#000000" font-family="sans-serif" font-size="11" lengthAdjust="spacing" textLength="79" x="230" y="266.6479">List&lt;E&gt; staffs</text><rect fill="none" height="6" style="stroke:#C82930;stroke-width:1.0;" width="6" x="218" y="273.2422"/><text fill="#000000" font-family="sans-serif" font-size="11" lengthAdjust="spacing" textLength="253" x="230" y="279.4526">List&lt;Measure&lt;? extends Note&gt;&gt; measures</text><rect fill="none" height="6" style="stroke:#C82930;stroke-width:1.0;" width="6" x="218" y="286.0469"/><text fill="#000000" font-family="sans-serif" font-size="11" lengthAdjust="spacing" text-decoration="underline" textLength="133" x="230" y="292.2573">int accumulateMeasure</text><rect fill="none" height="6" style="stroke:#C82930;stroke-width:1.0;" width="6" x="218" y="298.8516"/><text fill="#000000" font-family="sans-serif" font-size="11" lengthAdjust="spacing" text-decoration="underline" textLength="166" x="230" y="305.062">int accumulateMeasureScore</text><line style="stroke:#A80036;stroke-width:1.5;" x1="211" x2="560" y1="311.6563" y2="311.6563"/><ellipse cx="221" cy="322.6563" fill="#84BE84" rx="3" ry="3" style="stroke:#038048;stroke-width:1.0;"/><text fill="#000000" font-family="sans-serif" font-size="11" lengthAdjust="spacing" textLength="41" x="230" y="325.8667">Score()</text><ellipse cx="221" cy="335.4609" fill="#84BE84" rx="3" ry="3" style="stroke:#038048;stroke-width:1.0;"/><text fill="#000000" font-family="sans-serif" font-size="11" lengthAdjust="spacing" textLength="132" x="230" y="338.6714">addStaff(E e) : boolean</text><ellipse cx="221" cy="348.2656" fill="#84BE84" rx="3" ry="3" style="stroke:#038048;stroke-width:1.0;"/><text fill="#000000" font-family="sans-serif" font-size="11" lengthAdjust="spacing" textLength="57" x="230" y="351.4761">size() : int</text><ellipse cx="221" cy="361.0703" fill="#84BE84" rx="3" ry="3" style="stroke:#038048;stroke-width:1.0;"/><text fill="#000000" font-family="sans-serif" font-size="11" lengthAdjust="spacing" textLength="115" x="230" y="364.2808">getStaffs() : List&lt;E&gt;</text><ellipse cx="221" cy="373.875" fill="#84BE84" rx="3" ry="3" style="stroke:#038048;stroke-width:1.0;"/><text fill="#000000" font-family="sans-serif" font-size="11" lengthAdjust="spacing" textLength="285" x="230" y="377.0854">getMeasures() : List&lt;Measure&lt;? extends Note&gt;&gt;</text><ellipse cx="221" cy="386.6797" fill="#84BE84" rx="3" ry="3" style="stroke:#038048;stroke-width:1.0;"/><text fill="#000000" font-family="sans-serif" font-size="11" lengthAdjust="spacing" textLength="112" x="230" y="389.8901">getNoteCount() : int</text><ellipse cx="221" cy="399.4844" fill="#84BE84" rx="3" ry="3" style="stroke:#038048;stroke-width:1.0;"/><text fill="#000000" font-family="sans-serif" font-size="11" lengthAdjust="spacing" textLength="145" x="230" y="402.6948">numberOfMeasures() : int</text><ellipse cx="221" cy="412.2891" fill="#84BE84" rx="3" ry="3" style="stroke:#038048;stroke-width:1.0;"/><text fill="#000000" font-family="sans-serif" font-size="11" lengthAdjust="spacing" textLength="142" x="230" y="415.4995">processMeasures() : void</text><ellipse cx="221" cy="425.0938" fill="#84BE84" rx="3" ry="3" style="stroke:#038048;stroke-width:1.0;"/><text fill="#000000" font-family="sans-serif" font-size="11" lengthAdjust="spacing" textLength="279" x="230" y="428.3042">getMeasure(int) : ImmutablePair&lt;Range, Range&gt;</text><ellipse cx="221" cy="437.8984" fill="#84BE84" rx="3" ry="3" style="stroke:#038048;stroke-width:1.0;"/><text fill="#000000" font-family="sans-serif" font-size="11" lengthAdjust="spacing" textLength="126" x="230" y="441.1089">iterator() : Iterator&lt;E&gt;</text><ellipse cx="221" cy="450.7031" fill="#84BE84" rx="3" ry="3" style="stroke:#038048;stroke-width:1.0;"/><text fill="#000000" font-family="sans-serif" font-size="11" lengthAdjust="spacing" textLength="325" x="230" y="453.9136">measureIterator() : Iterator&lt;Measure&lt;? extends Note&gt;&gt;</text><ellipse cx="221" cy="463.5078" fill="#84BE84" rx="3" ry="3" style="stroke:#038048;stroke-width:1.0;"/><text fill="#000000" font-family="sans-serif" font-size="11" lengthAdjust="spacing" textLength="96" x="230" y="466.7183">toString() : String</text><ellipse cx="221" cy="476.3125" fill="#84BE84" rx="3" ry="3" style="stroke:#038048;stroke-width:1.0;"/><text fill="#000000" font-family="sans-serif" font-size="11" lengthAdjust="spacing" text-decoration="underline" textLength="168" x="230" y="479.5229">getAccumulateMeasure() : int</text><ellipse cx="221" cy="489.1172" fill="#84BE84" rx="3" ry="3" style="stroke:#038048;stroke-width:1.0;"/><text fill="#000000" font-family="sans-serif" font-size="11" lengthAdjust="spacing" text-decoration="underline" textLength="177" x="230" y="492.3276">setAccumulateMeasure() : void</text><ellipse cx="221" cy="501.9219" fill="#84BE84" rx="3" ry="3" style="stroke:#038048;stroke-width:1.0;"/><text fill="#000000" font-family="sans-serif" font-size="11" lengthAdjust="spacing" text-decoration="underline" textLength="201" x="230" y="505.1323">getAccumulateMeasureScore() : int</text><ellipse cx="221" cy="514.7266" fill="#84BE84" rx="3" ry="3" style="stroke:#038048;stroke-width:1.0;"/><text fill="#000000" font-family="sans-serif" font-size="11" lengthAdjust="spacing" text-decoration="underline" textLength="210" x="230" y="517.937">setAccumulateMeasureScore() : void</text><!--MD5=[47de47a8b5f06cbc5e036fae0a9149b7]
class Iterable--><rect codeLine="52" fill="#FEFECE" filter="url(#f16ugqeihd2hvb)" height="48" id="Iterable" style="stroke:#A80036;stroke-width:1.5;" width="90" x="219.5" y="10"/><ellipse cx="234.5" cy="26" fill="#B4A7E5" rx="11" ry="11" style="stroke:#A80036;stroke-width:1.0;"/><path d="M235.4531,22.7813 L237.1719,22.7813 C237.5625,22.7813 237.75,22.75 237.875,22.6719 C238.1406,22.5156 238.2813,22.2344 238.2813,21.9375 C238.2813,21.6719 238.1719,21.4063 237.9375,21.2344 C237.7656,21.125 237.625,21.0938 237.1719,21.0938 L232.0313,21.0938 C231.5938,21.0938 231.4688,21.1094 231.3125,21.2031 C231.0625,21.3594 230.9063,21.6563 230.9063,21.9375 C230.9063,22.2188 231.0469,22.4688 231.2656,22.6406 C231.4219,22.75 231.6094,22.7813 232.0313,22.7813 L233.75,22.7813 L233.75,29.2969 L232.0313,29.2969 C231.5938,29.2969 231.4688,29.3125 231.3125,29.4219 C231.0625,29.5781 230.9063,29.8594 230.9063,30.1563 C230.9063,30.4063 231.0469,30.6719 231.2656,30.8281 C231.4219,30.9531 231.625,31 232.0313,31 L237.1719,31 C237.9219,31 238.2813,30.7188 238.2813,30.1563 C238.2813,29.875 238.1719,29.625 237.9375,29.4531 C237.7656,29.3281 237.625,29.2969 237.1719,29.2969 L235.4531,29.2969 L235.4531,22.7813 Z " fill="#000000"/><text fill="#000000" font-family="sans-serif" font-size="12" font-style="italic" lengthAdjust="spacing" textLength="46" x="248.5" y="30.1543">Iterable</text><rect fill="#FFFFFF" height="15.9688" style="stroke:#000000;stroke-width:1.0;stroke-dasharray:2.0,2.0;" width="10" x="302.5" y="7"/><text fill="#000000" font-family="sans-serif" font-size="12" font-style="italic" lengthAdjust="spacing" textLength="8" x="303.5" y="19.1387">E</text><line style="stroke:#A80036;stroke-width:1.5;" x1="220.5" x2="308.5" y1="42" y2="42"/><line style="stroke:#A80036;stroke-width:1.5;" x1="220.5" x2="308.5" y1="50" y2="50"/><!--MD5=[3c430c169582f68806367d58c97ad460]
class ScoreIterator--><rect codeLine="53" fill="#FEFECE" filter="url(#f16ugqeihd2hvb)" height="112.0234" id="ScoreIterator" style="stroke:#A80036;stroke-width:1.5;" width="152" x="784.5" y="681"/><ellipse cx="812.55" cy="697" fill="#ADD1B2" rx="11" ry="11" style="stroke:#A80036;stroke-width:1.0;"/><path d="M814.8938,692.6719 C813.9563,692.2344 813.3625,692.0938 812.4875,692.0938 C809.8625,692.0938 807.8625,694.1719 807.8625,696.8906 L807.8625,698.0156 C807.8625,700.5938 809.9719,702.4844 812.8625,702.4844 C814.0813,702.4844 815.2375,702.1875 815.9875,701.6406 C816.5656,701.2344 816.8938,700.7813 816.8938,700.3906 C816.8938,699.9375 816.5031,699.5469 816.0344,699.5469 C815.8156,699.5469 815.6125,699.625 815.425,699.8125 C814.9719,700.2969 814.9719,700.2969 814.7844,700.3906 C814.3625,700.6563 813.675,700.7813 812.9094,700.7813 C810.8625,700.7813 809.5656,699.6875 809.5656,697.9844 L809.5656,696.8906 C809.5656,695.1094 810.8156,693.7969 812.55,693.7969 C813.1281,693.7969 813.7375,693.9531 814.2063,694.2031 C814.6906,694.4844 814.8625,694.7031 814.9563,695.1094 C815.0188,695.5156 815.05,695.6406 815.1906,695.7656 C815.3313,695.9063 815.5656,696.0156 815.7844,696.0156 C816.05,696.0156 816.3156,695.875 816.4875,695.6563 C816.5969,695.5 816.6281,695.3125 816.6281,694.8906 L816.6281,693.4688 C816.6281,693.0313 816.6125,692.9063 816.5188,692.75 C816.3625,692.4844 816.0813,692.3438 815.7844,692.3438 C815.4875,692.3438 815.2844,692.4375 815.0656,692.75 L814.8938,692.6719 Z " fill="#000000"/><text fill="#000000" font-family="sans-serif" font-size="12" lengthAdjust="spacing" textLength="80" x="829.45" y="701.1543">ScoreIterator</text><rect fill="#FFFFFF" height="15.9688" style="stroke:#000000;stroke-width:1.0;stroke-dasharray:2.0,2.0;" width="9" x="930.5" y="678"/><text fill="#000000" font-family="sans-serif" font-size="12" font-style="italic" lengthAdjust="spacing" textLength="7" x="931.5" y="690.1387">T</text><line style="stroke:#A80036;stroke-width:1.5;" x1="785.5" x2="935.5" y1="713" y2="713"/><rect fill="none" height="6" style="stroke:#C82930;stroke-width:1.0;" width="6" x="792.5" y="721"/><text fill="#000000" font-family="sans-serif" font-size="11" lengthAdjust="spacing" textLength="50" x="804.5" y="727.2104">int index</text><rect fill="none" height="6" style="stroke:#C82930;stroke-width:1.0;" width="6" x="792.5" y="733.8047"/><text fill="#000000" font-family="sans-serif" font-size="11" lengthAdjust="spacing" textLength="79" x="804.5" y="740.0151">List&lt;T&gt; staffs</text><line style="stroke:#A80036;stroke-width:1.5;" x1="785.5" x2="935.5" y1="746.6094" y2="746.6094"/><ellipse cx="795.5" cy="757.6094" fill="#84BE84" rx="3" ry="3" style="stroke:#038048;stroke-width:1.0;"/><text fill="#000000" font-family="sans-serif" font-size="11" lengthAdjust="spacing" textLength="126" x="804.5" y="760.8198">ScoreIterator(List&lt;T&gt;)</text><ellipse cx="795.5" cy="770.4141" fill="#84BE84" rx="3" ry="3" style="stroke:#038048;stroke-width:1.0;"/><text fill="#000000" font-family="sans-serif" font-size="11" lengthAdjust="spacing" textLength="112" x="804.5" y="773.6245">hasNext() : boolean</text><ellipse cx="795.5" cy="783.2188" fill="#84BE84" rx="3" ry="3" style="stroke:#038048;stroke-width:1.0;"/><text fill="#000000" font-family="sans-serif" font-size="11" lengthAdjust="spacing" textLength="52" x="804.5" y="786.4292">next() : T</text><!--MD5=[0e56ed922cd42fd232d2cb58453d54d6]
class MeasureIterator--><rect codeLine="54" fill="#FEFECE" filter="url(#f16ugqeihd2hvb)" height="112.0234" id="MeasureIterator" style="stroke:#A80036;stroke-width:1.5;" width="168" x="581.5" y="681"/><ellipse cx="609.55" cy="697" fill="#ADD1B2" rx="11" ry="11" style="stroke:#A80036;stroke-width:1.0;"/><path d="M611.8938,692.6719 C610.9563,692.2344 610.3625,692.0938 609.4875,692.0938 C606.8625,692.0938 604.8625,694.1719 604.8625,696.8906 L604.8625,698.0156 C604.8625,700.5938 606.9719,702.4844 609.8625,702.4844 C611.0813,702.4844 612.2375,702.1875 612.9875,701.6406 C613.5656,701.2344 613.8938,700.7813 613.8938,700.3906 C613.8938,699.9375 613.5031,699.5469 613.0344,699.5469 C612.8156,699.5469 612.6125,699.625 612.425,699.8125 C611.9719,700.2969 611.9719,700.2969 611.7844,700.3906 C611.3625,700.6563 610.675,700.7813 609.9094,700.7813 C607.8625,700.7813 606.5656,699.6875 606.5656,697.9844 L606.5656,696.8906 C606.5656,695.1094 607.8156,693.7969 609.55,693.7969 C610.1281,693.7969 610.7375,693.9531 611.2063,694.2031 C611.6906,694.4844 611.8625,694.7031 611.9563,695.1094 C612.0188,695.5156 612.05,695.6406 612.1906,695.7656 C612.3313,695.9063 612.5656,696.0156 612.7844,696.0156 C613.05,696.0156 613.3156,695.875 613.4875,695.6563 C613.5969,695.5 613.6281,695.3125 613.6281,694.8906 L613.6281,693.4688 C613.6281,693.0313 613.6125,692.9063 613.5188,692.75 C613.3625,692.4844 613.0813,692.3438 612.7844,692.3438 C612.4875,692.3438 612.2844,692.4375 612.0656,692.75 L611.8938,692.6719 Z " fill="#000000"/><text fill="#000000" font-family="sans-serif" font-size="12" lengthAdjust="spacing" textLength="96" x="626.45" y="701.1543">MeasureIterator</text><rect fill="#FFFFFF" height="15.9688" style="stroke:#000000;stroke-width:1.0;stroke-dasharray:2.0,2.0;" width="9" x="743.5" y="678"/><text fill="#000000" font-family="sans-serif" font-size="12" font-style="italic" lengthAdjust="spacing" textLength="7" x="744.5" y="690.1387">T</text><line style="stroke:#A80036;stroke-width:1.5;" x1="582.5" x2="748.5" y1="713" y2="713"/><rect fill="none" height="6" style="stroke:#C82930;stroke-width:1.0;" width="6" x="589.5" y="721"/><text fill="#000000" font-family="sans-serif" font-size="11" lengthAdjust="spacing" textLength="50" x="601.5" y="727.2104">int index</text><rect fill="none" height="6" style="stroke:#C82930;stroke-width:1.0;" width="6" x="589.5" y="733.8047"/><text fill="#000000" font-family="sans-serif" font-size="11" lengthAdjust="spacing" textLength="105" x="601.5" y="740.0151">List&lt;T&gt; measures</text><line style="stroke:#A80036;stroke-width:1.5;" x1="582.5" x2="748.5" y1="746.6094" y2="746.6094"/><ellipse cx="592.5" cy="757.6094" fill="#84BE84" rx="3" ry="3" style="stroke:#038048;stroke-width:1.0;"/><text fill="#000000" font-family="sans-serif" font-size="11" lengthAdjust="spacing" textLength="142" x="601.5" y="760.8198">MeasureIterator(List&lt;T&gt;)</text><ellipse cx="592.5" cy="770.4141" fill="#84BE84" rx="3" ry="3" style="stroke:#038048;stroke-width:1.0;"/><text fill="#000000" font-family="sans-serif" font-size="11" lengthAdjust="spacing" textLength="112" x="601.5" y="773.6245">hasNext() : boolean</text><ellipse cx="592.5" cy="783.2188" fill="#84BE84" rx="3" ry="3" style="stroke:#038048;stroke-width:1.0;"/><text fill="#000000" font-family="sans-serif" font-size="11" lengthAdjust="spacing" textLength="52" x="601.5" y="786.4292">next() : T</text><!--MD5=[023ecf6702e3ca2ce47ae747eafb20f1]
class Iterator--><rect codeLine="51" fill="#FEFECE" filter="url(#f16ugqeihd2hvb)" height="48" id="Iterator" style="stroke:#A80036;stroke-width:1.5;" width="88" x="814.5" y="297.5"/><ellipse cx="829.5" cy="313.5" fill="#B4A7E5" rx="11" ry="11" style="stroke:#A80036;stroke-width:1.0;"/><path d="M830.4531,310.2813 L832.1719,310.2813 C832.5625,310.2813 832.75,310.25 832.875,310.1719 C833.1406,310.0156 833.2813,309.7344 833.2813,309.4375 C833.2813,309.1719 833.1719,308.9063 832.9375,308.7344 C832.7656,308.625 832.625,308.5938 832.1719,308.5938 L827.0313,308.5938 C826.5938,308.5938 826.4688,308.6094 826.3125,308.7031 C826.0625,308.8594 825.9063,309.1563 825.9063,309.4375 C825.9063,309.7188 826.0469,309.9688 826.2656,310.1406 C826.4219,310.25 826.6094,310.2813 827.0313,310.2813 L828.75,310.2813 L828.75,316.7969 L827.0313,316.7969 C826.5938,316.7969 826.4688,316.8125 826.3125,316.9219 C826.0625,317.0781 825.9063,317.3594 825.9063,317.6563 C825.9063,317.9063 826.0469,318.1719 826.2656,318.3281 C826.4219,318.4531 826.625,318.5 827.0313,318.5 L832.1719,318.5 C832.9219,318.5 833.2813,318.2188 833.2813,317.6563 C833.2813,317.375 833.1719,317.125 832.9375,316.9531 C832.7656,316.8281 832.625,316.7969 832.1719,316.7969 L830.4531,316.7969 L830.4531,310.2813 Z " fill="#000000"/><text fill="#000000" font-family="sans-serif" font-size="12" font-style="italic" lengthAdjust="spacing" textLength="45" x="843.5" y="317.6543">Iterator</text><rect fill="#FFFFFF" height="15.9688" style="stroke:#000000;stroke-width:1.0;stroke-dasharray:2.0,2.0;" width="9" x="896.5" y="294.5"/><text fill="#000000" font-family="sans-serif" font-size="12" font-style="italic" lengthAdjust="spacing" textLength="7" x="897.5" y="306.6387">T</text><line style="stroke:#A80036;stroke-width:1.5;" x1="815.5" x2="901.5" y1="329.5" y2="329.5"/><line style="stroke:#A80036;stroke-width:1.5;" x1="815.5" x2="901.5" y1="337.5" y2="337.5"/><!--MD5=[6081a303407aa0c0464c8b50c38f5612]
class Staff--><rect codeLine="56" fill="#FEFECE" filter="url(#f16ugqeihd2hvb)" height="304.0938" id="Staff" style="stroke:#A80036;stroke-width:1.5;" width="281" x="9" y="585"/><ellipse cx="84.75" cy="601" fill="#A9DCDF" rx="11" ry="11" style="stroke:#A80036;stroke-width:1.0;"/><path d="M86.8281,602.8125 L87.2188,603.7969 L86.8281,603.7969 C86.375,603.7969 86.2656,603.8125 86.1094,603.9219 C85.8594,604.0781 85.7031,604.3594 85.7031,604.6563 C85.7031,604.9219 85.8438,605.1719 86.0625,605.3281 C86.2031,605.4531 86.4063,605.5 86.8281,605.5 L89.1875,605.5 C89.5469,605.5 89.7656,605.4688 89.9063,605.375 C90.1563,605.2344 90.3125,604.9375 90.3125,604.6563 C90.3125,604.375 90.1719,604.125 89.9531,603.9688 C89.7813,603.8281 89.625,603.7969 89.1563,603.7969 L85.7656,595.5938 L82.0938,595.5938 C81.6406,595.5938 81.5156,595.6094 81.3594,595.7031 C81.1094,595.875 80.9531,596.1563 80.9531,596.4375 C80.9531,596.7188 81.0938,596.9688 81.3125,597.1406 C81.4844,597.25 81.6563,597.2813 82.0938,597.2813 L83.1719,597.2813 L80.5313,603.7969 C80.1094,603.7969 79.9531,603.8125 79.7969,603.9219 C79.5469,604.0781 79.3906,604.3594 79.3906,604.6563 C79.3906,605.2188 79.7656,605.5 80.5156,605.5 L82.7813,605.5 C83.1406,605.5 83.3594,605.4688 83.4844,605.375 C83.75,605.2344 83.8906,604.9375 83.8906,604.6563 C83.8906,604.375 83.7656,604.125 83.5469,603.9531 C83.375,603.8281 83.2344,603.7969 82.7813,603.7969 L82.3906,603.7969 L82.7813,602.8125 L86.8281,602.8125 Z M86.125,601.1094 L83.4531,601.1094 L84.7969,597.8438 L86.125,601.1094 Z " fill="#000000"/><text fill="#000000" font-family="sans-serif" font-size="12" font-style="italic" lengthAdjust="spacing" textLength="28" x="105.25" y="605.1543">Staff</text><rect fill="#FFFFFF" height="15.9688" style="stroke:#000000;stroke-width:1.0;stroke-dasharray:2.0,2.0;" width="91" x="202" y="582"/><text fill="#000000" font-family="sans-serif" font-size="12" font-style="italic" lengthAdjust="spacing" textLength="89" x="203" y="594.1387">E extends Line</text><line style="stroke:#A80036;stroke-width:1.5;" x1="10" x2="289" y1="617" y2="617"/><rect fill="none" height="6" style="stroke:#C82930;stroke-width:1.0;" width="6" x="17" y="625"/><text fill="#000000" font-family="sans-serif" font-size="11" lengthAdjust="spacing" textLength="145" x="29" y="631.2104">Optional&lt;Integer&gt; beats;</text><rect fill="none" height="6" style="stroke:#C82930;stroke-width:1.0;" width="6" x="17" y="637.8047"/><text fill="#000000" font-family="sans-serif" font-size="11" lengthAdjust="spacing" textLength="168" x="29" y="644.0151">Optional&lt;Integer&gt; beatTYpe;</text><rect fill="none" height="6" style="stroke:#C82930;stroke-width:1.0;" width="6" x="17" y="650.6094"/><text fill="#000000" font-family="sans-serif" font-size="11" lengthAdjust="spacing" textLength="156" x="29" y="656.8198">Optional&lt;Integer&gt; division;</text><polygon fill="none" points="20,661.4141,24,665.4141,20,669.4141,16,665.4141" style="stroke:#B38D22;stroke-width:1.0;"/><text fill="#000000" font-family="sans-serif" font-size="11" lengthAdjust="spacing" textLength="179" x="29" y="669.6245">Stack&lt;Note&gt; repeatNoteStack;</text><line style="stroke:#A80036;stroke-width:1.5;" x1="10" x2="289" y1="676.2188" y2="676.2188"/><ellipse cx="20" cy="687.2188" fill="#84BE84" rx="3" ry="3" style="stroke:#038048;stroke-width:1.0;"/><text fill="#000000" font-family="sans-serif" font-size="11" lengthAdjust="spacing" textLength="35" x="29" y="690.4292">Staff()</text><ellipse cx="20" cy="700.0234" fill="#84BE84" rx="3" ry="3" style="stroke:#038048;stroke-width:1.0;"/><text fill="#000000" font-family="sans-serif" font-size="11" font-style="italic" lengthAdjust="spacing" textLength="89" x="29" y="703.2339">add(E): boolean</text><ellipse cx="20" cy="712.8281" fill="#84BE84" rx="3" ry="3" style="stroke:#038048;stroke-width:1.0;"/><text fill="#000000" font-family="sans-serif" font-size="11" font-style="italic" lengthAdjust="spacing" textLength="254" x="29" y="716.0386">addLines(Collection&lt;? extends E&gt;) : boolean</text><ellipse cx="20" cy="725.6328" fill="#84BE84" rx="3" ry="3" style="stroke:#038048;stroke-width:1.0;"/><text fill="#000000" font-family="sans-serif" font-size="11" font-style="italic" lengthAdjust="spacing" textLength="111" x="29" y="728.8433">getLines() : List&lt;E&gt;</text><ellipse cx="20" cy="738.4375" fill="#84BE84" rx="3" ry="3" style="stroke:#038048;stroke-width:1.0;"/><text fill="#000000" font-family="sans-serif" font-size="11" font-style="italic" lengthAdjust="spacing" textLength="145" x="29" y="741.6479">numberOfMeasures() : int</text><ellipse cx="20" cy="751.2422" fill="#84BE84" rx="3" ry="3" style="stroke:#038048;stroke-width:1.0;"/><text fill="#000000" font-family="sans-serif" font-size="11" font-style="italic" lengthAdjust="spacing" textLength="106" x="29" y="754.4526">lineCount() : String</text><ellipse cx="20" cy="764.0469" fill="#84BE84" rx="3" ry="3" style="stroke:#038048;stroke-width:1.0;"/><text fill="#000000" font-family="sans-serif" font-size="11" font-style="italic" lengthAdjust="spacing" textLength="56" x="29" y="767.2573">size() : int</text><ellipse cx="20" cy="776.8516" fill="#84BE84" rx="3" ry="3" style="stroke:#038048;stroke-width:1.0;"/><text fill="#000000" font-family="sans-serif" font-size="11" font-style="italic" lengthAdjust="spacing" textLength="64" x="29" y="780.062">width() : int</text><ellipse cx="20" cy="789.6563" fill="#84BE84" rx="3" ry="3" style="stroke:#038048;stroke-width:1.0;"/><text fill="#000000" font-family="sans-serif" font-size="11" font-style="italic" lengthAdjust="spacing" textLength="158" x="29" y="792.8667">getNotes() : TreeSet&lt;Note&gt;</text><ellipse cx="20" cy="802.4609" fill="#84BE84" rx="3" ry="3" style="stroke:#038048;stroke-width:1.0;"/><text fill="#000000" font-family="sans-serif" font-size="11" font-style="italic" lengthAdjust="spacing" textLength="173" x="29" y="805.6714">noteIterator() : Iterator&lt;Note&gt;</text><ellipse cx="20" cy="815.2656" fill="#84BE84" rx="3" ry="3" style="stroke:#038048;stroke-width:1.0;"/><text fill="#000000" font-family="sans-serif" font-size="11" font-style="italic" lengthAdjust="spacing" textLength="255" x="29" y="818.4761">measureIterator() : Iterator&lt;Measure&lt;Note&gt;</text><ellipse cx="20" cy="828.0703" fill="#84BE84" rx="3" ry="3" style="stroke:#038048;stroke-width:1.0;"/><text fill="#000000" font-family="sans-serif" font-size="11" font-style="italic" lengthAdjust="spacing" textLength="129" x="29" y="831.2808">iterator() : Iterator&lt;E&gt;</text><ellipse cx="20" cy="840.875" fill="#84BE84" rx="3" ry="3" style="stroke:#038048;stroke-width:1.0;"/><text fill="#000000" font-family="sans-serif" font-size="11" lengthAdjust="spacing" textLength="112" x="29" y="844.0854">getNoteCount() : int</text><ellipse cx="20" cy="853.6797" fill="#84BE84" rx="3" ry="3" style="stroke:#038048;stroke-width:1.0;"/><text fill="#000000" font-family="sans-serif" font-size="11" lengthAdjust="spacing" textLength="96" x="29" y="856.8901">toString() : String</text><ellipse cx="20" cy="866.4844" fill="#84BE84" rx="3" ry="3" style="stroke:#038048;stroke-width:1.0;"/><text fill="#000000" font-family="sans-serif" font-size="11" lengthAdjust="spacing" textLength="78" x="29" y="869.6948">time() : String</text><ellipse cx="20" cy="879.2891" fill="#84BE84" rx="3" ry="3" style="stroke:#038048;stroke-width:1.0;"/><text fill="#000000" font-family="sans-serif" font-size="11" lengthAdjust="spacing" textLength="210" x="29" y="882.4995">toList() : List&lt;LinkedList&lt;LineItem&gt;&gt;</text><!--MD5=[d6d0992beb53de3366de8c91c341d9bf]
class Measure--><rect codeLine="80" fill="#FEFECE" filter="url(#f16ugqeihd2hvb)" height="48" id="Measure" style="stroke:#A80036;stroke-width:1.5;" width="180" x="596.5" y="297.5"/><ellipse cx="611.5" cy="313.5" fill="#ADD1B2" rx="11" ry="11" style="stroke:#A80036;stroke-width:1.0;"/><path d="M613.8438,309.1719 C612.9063,308.7344 612.3125,308.5938 611.4375,308.5938 C608.8125,308.5938 606.8125,310.6719 606.8125,313.3906 L606.8125,314.5156 C606.8125,317.0938 608.9219,318.9844 611.8125,318.9844 C613.0313,318.9844 614.1875,318.6875 614.9375,318.1406 C615.5156,317.7344 615.8438,317.2813 615.8438,316.8906 C615.8438,316.4375 615.4531,316.0469 614.9844,316.0469 C614.7656,316.0469 614.5625,316.125 614.375,316.3125 C613.9219,316.7969 613.9219,316.7969 613.7344,316.8906 C613.3125,317.1563 612.625,317.2813 611.8594,317.2813 C609.8125,317.2813 608.5156,316.1875 608.5156,314.4844 L608.5156,313.3906 C608.5156,311.6094 609.7656,310.2969 611.5,310.2969 C612.0781,310.2969 612.6875,310.4531 613.1563,310.7031 C613.6406,310.9844 613.8125,311.2031 613.9063,311.6094 C613.9688,312.0156 614,312.1406 614.1406,312.2656 C614.2813,312.4063 614.5156,312.5156 614.7344,312.5156 C615,312.5156 615.2656,312.375 615.4375,312.1563 C615.5469,312 615.5781,311.8125 615.5781,311.3906 L615.5781,309.9688 C615.5781,309.5313 615.5625,309.4063 615.4688,309.25 C615.3125,308.9844 615.0313,308.8438 614.7344,308.8438 C614.4375,308.8438 614.2344,308.9375 614.0156,309.25 L613.8438,309.1719 Z " fill="#000000"/><text fill="#000000" font-family="sans-serif" font-size="12" lengthAdjust="spacing" textLength="52" x="625.5" y="317.6543">Measure</text><rect fill="#FFFFFF" height="15.9688" style="stroke:#000000;stroke-width:1.0;stroke-dasharray:2.0,2.0;" width="94" x="685.5" y="294.5"/><text fill="#000000" font-family="sans-serif" font-size="12" font-style="italic" lengthAdjust="spacing" textLength="92" x="686.5" y="306.6387">E extends Note</text><line style="stroke:#A80036;stroke-width:1.5;" x1="597.5" x2="775.5" y1="329.5" y2="329.5"/><line style="stroke:#A80036;stroke-width:1.5;" x1="597.5" x2="775.5" y1="337.5" y2="337.5"/><!--MD5=[7a4729d26b999f6a4650b01106c103c5]
class Comparable--><rect fill="#FEFECE" filter="url(#f16ugqeihd2hvb)" height="48" id="Comparable" style="stroke:#A80036;stroke-width:1.5;" width="104" x="634.5" y="10"/><ellipse cx="649.5" cy="26" fill="#B4A7E5" rx="11" ry="11" style="stroke:#A80036;stroke-width:1.0;"/><path d="M650.4531,22.7813 L652.1719,22.7813 C652.5625,22.7813 652.75,22.75 652.875,22.6719 C653.1406,22.5156 653.2813,22.2344 653.2813,21.9375 C653.2813,21.6719 653.1719,21.4063 652.9375,21.2344 C652.7656,21.125 652.625,21.0938 652.1719,21.0938 L647.0313,21.0938 C646.5938,21.0938 646.4688,21.1094 646.3125,21.2031 C646.0625,21.3594 645.9063,21.6563 645.9063,21.9375 C645.9063,22.2188 646.0469,22.4688 646.2656,22.6406 C646.4219,22.75 646.6094,22.7813 647.0313,22.7813 L648.75,22.7813 L648.75,29.2969 L647.0313,29.2969 C646.5938,29.2969 646.4688,29.3125 646.3125,29.4219 C646.0625,29.5781 645.9063,29.8594 645.9063,30.1563 C645.9063,30.4063 646.0469,30.6719 646.2656,30.8281 C646.4219,30.9531 646.625,31 647.0313,31 L652.1719,31 C652.9219,31 653.2813,30.7188 653.2813,30.1563 C653.2813,29.875 653.1719,29.625 652.9375,29.4531 C652.7656,29.3281 652.625,29.2969 652.1719,29.2969 L650.4531,29.2969 L650.4531,22.7813 Z " fill="#000000"/><text fill="#000000" font-family="sans-serif" font-size="12" font-style="italic" lengthAdjust="spacing" textLength="72" x="663.5" y="30.1543">Comparable</text><line style="stroke:#A80036;stroke-width:1.5;" x1="635.5" x2="737.5" y1="42" y2="42"/><line style="stroke:#A80036;stroke-width:1.5;" x1="635.5" x2="737.5" y1="50" y2="50"/><!--MD5=[bf87e382a809b01eee8f9b03409cecfa]
class GuitarStaff--><rect fill="#FEFECE" filter="url(#f16ugqeihd2hvb)" height="48" id="GuitarStaff" style="stroke:#A80036;stroke-width:1.5;" width="94" x="325.5" y="713"/><ellipse cx="340.5" cy="729" fill="#ADD1B2" rx="11" ry="11" style="stroke:#A80036;stroke-width:1.0;"/><path d="M342.8438,724.6719 C341.9063,724.2344 341.3125,724.0938 340.4375,724.0938 C337.8125,724.0938 335.8125,726.1719 335.8125,728.8906 L335.8125,730.0156 C335.8125,732.5938 337.9219,734.4844 340.8125,734.4844 C342.0313,734.4844 343.1875,734.1875 343.9375,733.6406 C344.5156,733.2344 344.8438,732.7813 344.8438,732.3906 C344.8438,731.9375 344.4531,731.5469 343.9844,731.5469 C343.7656,731.5469 343.5625,731.625 343.375,731.8125 C342.9219,732.2969 342.9219,732.2969 342.7344,732.3906 C342.3125,732.6563 341.625,732.7813 340.8594,732.7813 C338.8125,732.7813 337.5156,731.6875 337.5156,729.9844 L337.5156,728.8906 C337.5156,727.1094 338.7656,725.7969 340.5,725.7969 C341.0781,725.7969 341.6875,725.9531 342.1563,726.2031 C342.6406,726.4844 342.8125,726.7031 342.9063,727.1094 C342.9688,727.5156 343,727.6406 343.1406,727.7656 C343.2813,727.9063 343.5156,728.0156 343.7344,728.0156 C344,728.0156 344.2656,727.875 344.4375,727.6563 C344.5469,727.5 344.5781,727.3125 344.5781,726.8906 L344.5781,725.4688 C344.5781,725.0313 344.5625,724.9063 344.4688,724.75 C344.3125,724.4844 344.0313,724.3438 343.7344,724.3438 C343.4375,724.3438 343.2344,724.4375 343.0156,724.75 L342.8438,724.6719 Z " fill="#000000"/><text fill="#000000" font-family="sans-serif" font-size="12" lengthAdjust="spacing" textLength="62" x="354.5" y="733.1543">GuitarStaff</text><line style="stroke:#A80036;stroke-width:1.5;" x1="326.5" x2="418.5" y1="745" y2="745"/><line style="stroke:#A80036;stroke-width:1.5;" x1="326.5" x2="418.5" y1="753" y2="753"/><!--MD5=[50ead89b12dbffd6b5c1a3c1237897d8]
class DrumStaff--><rect fill="#FEFECE" filter="url(#f16ugqeihd2hvb)" height="48" id="DrumStaff" style="stroke:#A80036;stroke-width:1.5;" width="91" x="455" y="713"/><ellipse cx="470" cy="729" fill="#ADD1B2" rx="11" ry="11" style="stroke:#A80036;stroke-width:1.0;"/><path d="M472.3438,724.6719 C471.4063,724.2344 470.8125,724.0938 469.9375,724.0938 C467.3125,724.0938 465.3125,726.1719 465.3125,728.8906 L465.3125,730.0156 C465.3125,732.5938 467.4219,734.4844 470.3125,734.4844 C471.5313,734.4844 472.6875,734.1875 473.4375,733.6406 C474.0156,733.2344 474.3438,732.7813 474.3438,732.3906 C474.3438,731.9375 473.9531,731.5469 473.4844,731.5469 C473.2656,731.5469 473.0625,731.625 472.875,731.8125 C472.4219,732.2969 472.4219,732.2969 472.2344,732.3906 C471.8125,732.6563 471.125,732.7813 470.3594,732.7813 C468.3125,732.7813 467.0156,731.6875 467.0156,729.9844 L467.0156,728.8906 C467.0156,727.1094 468.2656,725.7969 470,725.7969 C470.5781,725.7969 471.1875,725.9531 471.6563,726.2031 C472.1406,726.4844 472.3125,726.7031 472.4063,727.1094 C472.4688,727.5156 472.5,727.6406 472.6406,727.7656 C472.7813,727.9063 473.0156,728.0156 473.2344,728.0156 C473.5,728.0156 473.7656,727.875 473.9375,727.6563 C474.0469,727.5 474.0781,727.3125 474.0781,726.8906 L474.0781,725.4688 C474.0781,725.0313 474.0625,724.9063 473.9688,724.75 C473.8125,724.4844 473.5313,724.3438 473.2344,724.3438 C472.9375,724.3438 472.7344,724.4375 472.5156,724.75 L472.3438,724.6719 Z " fill="#000000"/><text fill="#000000" font-family="sans-serif" font-size="12" lengthAdjust="spacing" textLength="59" x="484" y="733.1543">DrumStaff</text><line style="stroke:#A80036;stroke-width:1.5;" x1="456" x2="545" y1="745" y2="745"/><line style="stroke:#A80036;stroke-width:1.5;" x1="456" x2="545" y1="753" y2="753"/><!--MD5=[666d996a60bd6c8c4af0438933dd5d9f]
reverse link Iterable to Score--><path d="M282.327,77.063 C287.392,89.013 293.269,102.88 299.6,117.818 " fill="none" id="Iterable-backto-Score" style="stroke:#A80036;stroke-width:1.0;stroke-dasharray:7.0,7.0;"/><polygon fill="none" points="275.761,79.51,274.402,58.364,288.651,74.047,275.761,79.51" style="stroke:#A80036;stroke-width:1.0;"/><!--MD5=[fbbce8bb8c16d002c85e0f6dc18b4b2d]
reverse link Iterable to Staff--><path d="M222.665,72.804 C210.839,85.888 199.339,101.456 192.5,118 C130.506,267.959 126.65,455.815 133.936,584.813 " fill="none" id="Iterable-backto-Staff" style="stroke:#A80036;stroke-width:1.0;stroke-dasharray:7.0,7.0;"/><polygon fill="none" points="217.973,67.589,236.958,58.176,227.987,77.373,217.973,67.589" style="stroke:#A80036;stroke-width:1.0;"/><!--MD5=[451c7b100fb7cda7035a10cd665dd04a]
reverse link Comparable to Measure--><path d="M686.5,78.566 C686.5,139.885 686.5,249.481 686.5,297.214 " fill="none" id="Comparable-backto-Measure" style="stroke:#A80036;stroke-width:1.0;stroke-dasharray:7.0,7.0;"/><polygon fill="none" points="679.5,78.364,686.5,58.364,693.5,78.364,679.5,78.364" style="stroke:#A80036;stroke-width:1.0;"/><!--MD5=[0b04042fee6e0614e5c9e2a1a1584166]
reverse link Score to ScoreIterator--><path codeLine="82" d="M573.563,521.851 C575.204,522.918 576.85,523.967 578.5,525 C652.849,571.528 697.29,531.124 766.5,585 C798.421,609.849 822.287,648.807 837.984,680.927 " fill="none" id="Score-backto-ScoreIterator" style="stroke:#A80036;stroke-width:1.0;"/><ellipse cx="567.6935" cy="517.8629" fill="#FFFFFF" rx="8" ry="8" style="stroke:#A80036;stroke-width:1.0;"/><line style="stroke:#A80036;stroke-width:1.0;" x1="574.31" x2="561.077" y1="522.3597" y2="513.366"/><line style="stroke:#A80036;stroke-width:1.0;" x1="563.1967" x2="572.1904" y1="524.4794" y2="511.2463"/><!--MD5=[af3de0b4ae723efe1be1549f9cfdcb44]
reverse link Score to MeasureIterator--><path codeLine="83" d="M531.69,538.022 C542.458,553.918 553.15,569.708 563.5,585 C584.955,616.701 608.916,652.169 628.22,680.76 " fill="none" id="Score-backto-MeasureIterator" style="stroke:#A80036;stroke-width:1.0;"/><ellipse cx="527.5299" cy="531.8823" fill="#FFFFFF" rx="8" ry="8" style="stroke:#A80036;stroke-width:1.0;"/><line style="stroke:#A80036;stroke-width:1.0;" x1="532.0168" x2="523.043" y1="538.5056" y2="525.259"/><line style="stroke:#A80036;stroke-width:1.0;" x1="520.9066" x2="534.1532" y1="536.3692" y2="527.3954"/><!--MD5=[b76dae7296041eab1e0d53a54772c85d]
link Measure to Score--><path codeLine="84" d="M596.498,321.5 C589.16,321.5 581.823,321.5 574.486,321.5 " fill="none" id="Measure-to-Score" style="stroke:#A80036;stroke-width:1.0;"/><polygon fill="#A80036" points="561.279,321.5,567.279,325.5,573.279,321.5,567.279,317.5,561.279,321.5" style="stroke:#A80036;stroke-width:1.0;"/><text fill="#000000" font-family="sans-serif" font-size="13" lengthAdjust="spacing" textLength="7" x="568.8423" y="318.2632">*</text><!--MD5=[3d16544ca464ddd356fb0b098038b6b8]
reverse link Score to Staff--><path codeLine="85" d="M263.449,536.348 C254.105,552.719 244.795,569.031 235.754,584.872 " fill="none" id="Score-backto-Staff" style="stroke:#A80036;stroke-width:1.0;"/><polygon fill="#A80036" points="269.92,525.01,263.4717,528.238,263.9713,535.4318,270.4196,532.2038,269.92,525.01" style="stroke:#A80036;stroke-width:1.0;"/><text fill="#000000" font-family="sans-serif" font-size="13" lengthAdjust="spacing" textLength="7" x="258.6406" y="544.6709">*</text><!--MD5=[f5fa204172c7ebd84436f4fa54ebb1c7]
reverse link Iterator to ScoreIterator--><path codeLine="86" d="M858.71,365.956 C859.076,441.659 859.83,597.579 860.233,680.806 " fill="none" id="Iterator-backto-ScoreIterator" style="stroke:#A80036;stroke-width:1.0;stroke-dasharray:7.0,7.0;"/><polygon fill="none" points="851.709,365.651,858.612,345.618,865.709,365.583,851.709,365.651" style="stroke:#A80036;stroke-width:1.0;"/><!--MD5=[1abe4852485f7d7e084e3bf669528b01]
reverse link Iterator to MeasureIterator--><path codeLine="87" d="M847.942,365.162 C836.89,406.906 817.77,471.791 793.5,525 C768.251,580.354 731.63,639.22 704.021,680.67 " fill="none" id="Iterator-backto-MeasureIterator" style="stroke:#A80036;stroke-width:1.0;stroke-dasharray:7.0,7.0;"/><polygon fill="none" points="841.206,363.25,852.971,345.626,854.764,366.74,841.206,363.25" style="stroke:#A80036;stroke-width:1.0;"/><!--MD5=[3a71828fe56701b31061b8eeee8659c2]
link Staff to GuitarStaff--><path codeLine="88" d="M290.182,737 C295.11,737 300.039,737 304.968,737 " fill="none" id="Staff-to-GuitarStaff" style="stroke:#A80036;stroke-width:1.0;"/><polygon fill="none" points="305.231,730,325.231,737,305.231,744,305.231,730" style="stroke:#A80036;stroke-width:1.0;"/><!--MD5=[032da9191837cf421ca1db95f60b3d88]
link Staff to DrumStaff--><path codeLine="89" d="M273.896,584.741 C318.729,548.285 370.288,527.021 419,555 C467.65,582.943 487.365,648.439 495.284,692.747 " fill="none" id="Staff-to-DrumStaff" style="stroke:#A80036;stroke-width:1.0;"/><polygon fill="none" points="502.25,691.998,498.334,712.823,488.409,694.102,502.25,691.998" style="stroke:#A80036;stroke-width:1.0;"/><!--MD5=[ae6280f199dcb34197e24771581a8b34]
@startuml
class Score<E extends Staff<? extends Line>> implements Iterable{
  +{static} int DEFAULT_BEATS = 4
  +{static} int DEFAULT_BEATTYPE = 4
  +{static} int DEFAULT_DIVISION = 2

  -Optional<Integer> beats;
  -Optional<Integer> beatTYpe;
  -Optional<Integer> division;

  -List<E> staffs
  -List<Measure<? extends Note>> measures
  -{static} int accumulateMeasure
  -{static} int accumulateMeasureScore

  +Score()
  +addStaff(E e) : boolean
  +size() : int
  +getStaffs() : List<E>
  +getMeasures() : List<Measure<? extends Note>>
  +getNoteCount() : int
  +numberOfMeasures() : int
  +processMeasures() : void
  +getMeasure(int) : ImmutablePair<Range, Range>
  +iterator() : Iterator<E>
  +measureIterator() : Iterator<Measure<? extends Note>>
  +toString() : String
  +{static}getAccumulateMeasure() : int
  +{static}setAccumulateMeasure() : void
  +{static}getAccumulateMeasureScore() : int
  +{static}setAccumulateMeasureScore() : void
}

class ScoreIterator<T> {
  -int index
  -List<T> staffs
  
  +ScoreIterator(List<T>)
  +hasNext() : boolean
  +next() : T
}

class MeasureIterator<T> {
  -int index
  -List<T> measures
  
  +MeasureIterator(List<T>)
  +hasNext() : boolean
  +next() : T
}

interface Iterator<T> {}
interface Iterable<E> {}
class ScoreIterator {}
class MeasureIterator {}

abstract class Staff<E extends Line> implements Iterable{
  -Optional<Integer> beats;
  -Optional<Integer> beatTYpe;
  -Optional<Integer> division;
  #Stack<Note> repeatNoteStack;
  
  +Staff()
  +{abstract} add(E): boolean
  +{abstract} addLines(Collection<? extends E>) : boolean
  +{abstract} getLines() : List<E>
  +{abstract} numberOfMeasures() : int
  +{abstract} lineCount() : String
  +{abstract} size() : int
  +{abstract} width() : int
  +{abstract} getNotes() : TreeSet<Note>
  +{abstract} noteIterator() : Iterator<Note>
  +{abstract} measureIterator() : Iterator<Measure<Note>
  +{abstract} iterator() : Iterator<E>
  +getNoteCount() : int
  +toString() : String
  +time() : String
  +toList() : List<LinkedList<LineItem>>
}

class Measure<E extends Note> implements Comparable{}

Score +- - ScoreIterator
Score +- - MeasureIterator
Score "*" *-left- Measure
Score "*" *- - Staff
Iterator <|-[dashed]- ScoreIterator
Iterator <|-[dashed]- MeasureIterator
GuitarStaff <|-left- Staff
DrumStaff <|-left- Staff
@enduml

PlantUML version 1.2021.5beta3(Unknown compile time)
(GPL source distribution)
Java Runtime: Java(TM) SE Runtime Environment
JVM: Java HotSpot(TM) 64-Bit Server VM
Default Encoding: UTF-8
Language: en
Country: US
--></g></svg>