<?xml version="1.0" encoding="UTF-8" standalone="no"?><svg xmlns="http://www.w3.org/2000/svg" xmlns:xlink="http://www.w3.org/1999/xlink" contentScriptType="application/ecmascript" contentStyleType="text/css" height="836px" preserveAspectRatio="none" style="width:955px;height:836px;" version="1.1" viewBox="0 0 955 836" width="955px" zoomAndPan="magnify"><defs><filter height="300%" id="fzlrg7a6vynt8" width="300%" x="-1" y="-1"><feGaussianBlur result="blurOut" stdDeviation="2.0"/><feColorMatrix in="blurOut" result="blurOut2" type="matrix" values="0 0 0 0 0 0 0 0 0 0 0 0 0 0 0 0 0 0 .4 0"/><feOffset dx="4.0" dy="4.0" in="blurOut2" result="blurOut3"/><feBlend in="SourceGraphic" in2="blurOut3" mode="normal"/></filter></defs><g><!--MD5=[df152c2476dc0702efc46fc22338464c]
class Processor--><rect codeLine="1" fill="#FEFECE" filter="url(#fzlrg7a6vynt8)" height="304.0938" id="Processor" style="stroke:#A80036;stroke-width:1.5;" width="477" x="134.5" y="115"/><ellipse cx="338.25" cy="131" fill="#ADD1B2" rx="11" ry="11" style="stroke:#A80036;stroke-width:1.0;"/><path d="M340.5938,126.6719 C339.6563,126.2344 339.0625,126.0938 338.1875,126.0938 C335.5625,126.0938 333.5625,128.1719 333.5625,130.8906 L333.5625,132.0156 C333.5625,134.5938 335.6719,136.4844 338.5625,136.4844 C339.7813,136.4844 340.9375,136.1875 341.6875,135.6406 C342.2656,135.2344 342.5938,134.7813 342.5938,134.3906 C342.5938,133.9375 342.2031,133.5469 341.7344,133.5469 C341.5156,133.5469 341.3125,133.625 341.125,133.8125 C340.6719,134.2969 340.6719,134.2969 340.4844,134.3906 C340.0625,134.6563 339.375,134.7813 338.6094,134.7813 C336.5625,134.7813 335.2656,133.6875 335.2656,131.9844 L335.2656,130.8906 C335.2656,129.1094 336.5156,127.7969 338.25,127.7969 C338.8281,127.7969 339.4375,127.9531 339.9063,128.2031 C340.3906,128.4844 340.5625,128.7031 340.6563,129.1094 C340.7188,129.5156 340.75,129.6406 340.8906,129.7656 C341.0313,129.9063 341.2656,130.0156 341.4844,130.0156 C341.75,130.0156 342.0156,129.875 342.1875,129.6563 C342.2969,129.5 342.3281,129.3125 342.3281,128.8906 L342.3281,127.4688 C342.3281,127.0313 342.3125,126.9063 342.2188,126.75 C342.0625,126.4844 341.7813,126.3438 341.4844,126.3438 C341.1875,126.3438 340.9844,126.4375 340.7656,126.75 L340.5938,126.6719 Z " fill="#000000"/><text fill="#000000" font-family="sans-serif" font-size="12" lengthAdjust="spacing" textLength="61" x="358.75" y="135.1543">Processor</text><line style="stroke:#A80036;stroke-width:1.5;" x1="135.5" x2="610.5" y1="147" y2="147"/><rect fill="none" height="6" style="stroke:#C82930;stroke-width:1.0;" width="6" x="142.5" y="155"/><text fill="#000000" font-family="sans-serif" font-size="11" lengthAdjust="spacing" text-decoration="underline" textLength="141" x="154.5" y="161.2104">SerializeGuitarScore sgs</text><rect fill="none" height="6" style="stroke:#C82930;stroke-width:1.0;" width="6" x="142.5" y="167.8047"/><text fill="#000000" font-family="sans-serif" font-size="11" lengthAdjust="spacing" text-decoration="underline" textLength="138" x="154.5" y="174.0151">SerializeDrumScore sds</text><text fill="#000000" font-family="sans-serif" font-size="11" lengthAdjust="spacing" textLength="0" x="158.5" y="186.8198"/><rect fill="none" height="6" style="stroke:#C82930;stroke-width:1.0;" width="6" x="142.5" y="193.4141"/><text fill="#000000" font-family="sans-serif" font-size="11" lengthAdjust="spacing" textLength="65" x="154.5" y="199.6245">String input</text><rect fill="none" height="6" style="stroke:#C82930;stroke-width:1.0;" width="6" x="142.5" y="206.2188"/><text fill="#000000" font-family="sans-serif" font-size="11" lengthAdjust="spacing" textLength="126" x="154.5" y="212.4292">Instrument instrument</text><rect fill="none" height="6" style="stroke:#C82930;stroke-width:1.0;" width="6" x="142.5" y="219.0234"/><text fill="#000000" font-family="sans-serif" font-size="11" lengthAdjust="spacing" textLength="135" x="154.5" y="225.2339">XMLMetadata metadata</text><rect fill="none" height="6" style="stroke:#C82930;stroke-width:1.0;" width="6" x="142.5" y="231.8281"/><text fill="#000000" font-family="sans-serif" font-size="11" lengthAdjust="spacing" textLength="137" x="154.5" y="238.0386">InputValidation validator</text><rect fill="none" height="6" style="stroke:#C82930;stroke-width:1.0;" width="6" x="142.5" y="244.6328"/><text fill="#000000" font-family="sans-serif" font-size="11" lengthAdjust="spacing" textLength="270" x="154.5" y="250.8433">LinkedList&lt;ParseWarning&gt; preprocessWarnings</text><line style="stroke:#A80036;stroke-width:1.5;" x1="135.5" x2="610.5" y1="257.4375" y2="257.4375"/><ellipse cx="145.5" cy="268.4375" fill="#84BE84" rx="3" ry="3" style="stroke:#038048;stroke-width:1.0;"/><text fill="#000000" font-family="sans-serif" font-size="11" lengthAdjust="spacing" textLength="246" x="154.5" y="271.6479">Processor(String, Instrument, XMLMetadata)</text><ellipse cx="145.5" cy="281.2422" fill="#84BE84" rx="3" ry="3" style="stroke:#038048;stroke-width:1.0;"/><text fill="#000000" font-family="sans-serif" font-size="11" lengthAdjust="spacing" textLength="120" x="154.5" y="284.4526">process() : Score&lt;?&gt;</text><ellipse cx="145.5" cy="294.0469" fill="#84BE84" rx="3" ry="3" style="stroke:#038048;stroke-width:1.0;"/><text fill="#000000" font-family="sans-serif" font-size="11" lengthAdjust="spacing" textLength="303" x="154.5" y="297.2573">getPreprocessWarnings() : Collection&lt;ParseWarning&gt;</text><rect fill="#F24D5C" height="6" style="stroke:#C82930;stroke-width:1.0;" width="6" x="142.5" y="303.8516"/><text fill="#000000" font-family="sans-serif" font-size="11" lengthAdjust="spacing" text-decoration="underline" textLength="242" x="154.5" y="310.062">processGuitar(String) : Score&lt;GuitarStaff&gt;</text><rect fill="#F24D5C" height="6" style="stroke:#C82930;stroke-width:1.0;" width="6" x="142.5" y="316.6563"/><text fill="#000000" font-family="sans-serif" font-size="11" lengthAdjust="spacing" text-decoration="underline" textLength="235" x="154.5" y="322.8667">processBass(String) : Score&lt;GuitarStaff&gt;</text><rect fill="#F24D5C" height="6" style="stroke:#C82930;stroke-width:1.0;" width="6" x="142.5" y="329.4609"/><text fill="#000000" font-family="sans-serif" font-size="11" lengthAdjust="spacing" text-decoration="underline" textLength="236" x="154.5" y="335.6714">processDrum(String) : Score&lt;DrumStaff&gt;</text><rect fill="#F24D5C" height="6" style="stroke:#C82930;stroke-width:1.0;" width="6" x="142.5" y="342.2656"/><text fill="#000000" font-family="sans-serif" font-size="11" lengthAdjust="spacing" text-decoration="underline" textLength="182" x="154.5" y="348.4761">preprocessGuitar(String) : String</text><rect fill="#F24D5C" height="6" style="stroke:#C82930;stroke-width:1.0;" width="6" x="142.5" y="355.0703"/><text fill="#000000" font-family="sans-serif" font-size="11" lengthAdjust="spacing" text-decoration="underline" textLength="175" x="154.5" y="361.2808">preprocessBass(String) : String</text><rect fill="#F24D5C" height="6" style="stroke:#C82930;stroke-width:1.0;" width="6" x="142.5" y="367.875"/><text fill="#000000" font-family="sans-serif" font-size="11" lengthAdjust="spacing" text-decoration="underline" textLength="179" x="154.5" y="374.0854">preprocessDrum(String) : String</text><rect fill="#F24D5C" height="6" style="stroke:#C82930;stroke-width:1.0;" width="6" x="142.5" y="380.6797"/><text fill="#000000" font-family="sans-serif" font-size="11" lengthAdjust="spacing" text-decoration="underline" textLength="270" x="154.5" y="386.8901">commentMetadata(Matcher, StringBuffer) : void</text><rect fill="#F24D5C" height="6" style="stroke:#C82930;stroke-width:1.0;" width="6" x="142.5" y="393.4844"/><text fill="#000000" font-family="sans-serif" font-size="11" lengthAdjust="spacing" text-decoration="underline" textLength="451" x="154.5" y="399.6948">extractMetadata(String, Matcher, Matcher, int, StringBuilder, List&lt;String&gt;) : void</text><rect fill="#F24D5C" height="6" style="stroke:#C82930;stroke-width:1.0;" width="6" x="142.5" y="406.2891"/><text fill="#000000" font-family="sans-serif" font-size="11" lengthAdjust="spacing" text-decoration="underline" textLength="202" x="154.5" y="412.4995">showErrors(List&lt;ErrorToken&gt;) : void</text><!--MD5=[70de36391d1fe102d3a67483a6327fe5]
class SerializeGuitarScore--><rect codeLine="26" fill="#FEFECE" filter="url(#fzlrg7a6vynt8)" height="60.8047" id="SerializeGuitarScore" style="stroke:#A80036;stroke-width:1.5;" width="316" x="7" y="517.5"/><ellipse cx="99.25" cy="533.5" fill="#ADD1B2" rx="11" ry="11" style="stroke:#A80036;stroke-width:1.0;"/><path d="M101.5938,529.1719 C100.6563,528.7344 100.0625,528.5938 99.1875,528.5938 C96.5625,528.5938 94.5625,530.6719 94.5625,533.3906 L94.5625,534.5156 C94.5625,537.0938 96.6719,538.9844 99.5625,538.9844 C100.7813,538.9844 101.9375,538.6875 102.6875,538.1406 C103.2656,537.7344 103.5938,537.2813 103.5938,536.8906 C103.5938,536.4375 103.2031,536.0469 102.7344,536.0469 C102.5156,536.0469 102.3125,536.125 102.125,536.3125 C101.6719,536.7969 101.6719,536.7969 101.4844,536.8906 C101.0625,537.1563 100.375,537.2813 99.6094,537.2813 C97.5625,537.2813 96.2656,536.1875 96.2656,534.4844 L96.2656,533.3906 C96.2656,531.6094 97.5156,530.2969 99.25,530.2969 C99.8281,530.2969 100.4375,530.4531 100.9063,530.7031 C101.3906,530.9844 101.5625,531.2031 101.6563,531.6094 C101.7188,532.0156 101.75,532.1406 101.8906,532.2656 C102.0313,532.4063 102.2656,532.5156 102.4844,532.5156 C102.75,532.5156 103.0156,532.375 103.1875,532.1563 C103.2969,532 103.3281,531.8125 103.3281,531.3906 L103.3281,529.9688 C103.3281,529.5313 103.3125,529.4063 103.2188,529.25 C103.0625,528.9844 102.7813,528.8438 102.4844,528.8438 C102.1875,528.8438 101.9844,528.9375 101.7656,529.25 L101.5938,529.1719 Z " fill="#000000"/><text fill="#000000" font-family="sans-serif" font-size="12" lengthAdjust="spacing" textLength="123" x="119.75" y="537.6543">SerializeGuitarScore</text><line style="stroke:#A80036;stroke-width:1.5;" x1="8" x2="322" y1="549.5" y2="549.5"/><line style="stroke:#A80036;stroke-width:1.5;" x1="8" x2="322" y1="557.5" y2="557.5"/><ellipse cx="18" cy="568.5" fill="#84BE84" rx="3" ry="3" style="stroke:#038048;stroke-width:1.0;"/><text fill="#000000" font-family="sans-serif" font-size="11" lengthAdjust="spacing" textLength="290" x="27" y="571.7104">visitSheet(SheetContext ctx) : Score&lt;GuitarStaff&gt;</text><!--MD5=[f9c90fe06e085c691cb8540fe108d6c9]
class SerializeDrumScore--><rect codeLine="30" fill="#FEFECE" filter="url(#fzlrg7a6vynt8)" height="60.8047" id="SerializeDrumScore" style="stroke:#A80036;stroke-width:1.5;" width="313" x="149.5" y="762"/><ellipse cx="241.75" cy="778" fill="#ADD1B2" rx="11" ry="11" style="stroke:#A80036;stroke-width:1.0;"/><path d="M244.0938,773.6719 C243.1563,773.2344 242.5625,773.0938 241.6875,773.0938 C239.0625,773.0938 237.0625,775.1719 237.0625,777.8906 L237.0625,779.0156 C237.0625,781.5938 239.1719,783.4844 242.0625,783.4844 C243.2813,783.4844 244.4375,783.1875 245.1875,782.6406 C245.7656,782.2344 246.0938,781.7813 246.0938,781.3906 C246.0938,780.9375 245.7031,780.5469 245.2344,780.5469 C245.0156,780.5469 244.8125,780.625 244.625,780.8125 C244.1719,781.2969 244.1719,781.2969 243.9844,781.3906 C243.5625,781.6563 242.875,781.7813 242.1094,781.7813 C240.0625,781.7813 238.7656,780.6875 238.7656,778.9844 L238.7656,777.8906 C238.7656,776.1094 240.0156,774.7969 241.75,774.7969 C242.3281,774.7969 242.9375,774.9531 243.4063,775.2031 C243.8906,775.4844 244.0625,775.7031 244.1563,776.1094 C244.2188,776.5156 244.25,776.6406 244.3906,776.7656 C244.5313,776.9063 244.7656,777.0156 244.9844,777.0156 C245.25,777.0156 245.5156,776.875 245.6875,776.6563 C245.7969,776.5 245.8281,776.3125 245.8281,775.8906 L245.8281,774.4688 C245.8281,774.0313 245.8125,773.9063 245.7188,773.75 C245.5625,773.4844 245.2813,773.3438 244.9844,773.3438 C244.6875,773.3438 244.4844,773.4375 244.2656,773.75 L244.0938,773.6719 Z " fill="#000000"/><text fill="#000000" font-family="sans-serif" font-size="12" lengthAdjust="spacing" textLength="120" x="262.25" y="782.1543">SerializeDrumScore</text><line style="stroke:#A80036;stroke-width:1.5;" x1="150.5" x2="461.5" y1="794" y2="794"/><line style="stroke:#A80036;stroke-width:1.5;" x1="150.5" x2="461.5" y1="802" y2="802"/><ellipse cx="160.5" cy="813" fill="#84BE84" rx="3" ry="3" style="stroke:#038048;stroke-width:1.0;"/><text fill="#000000" font-family="sans-serif" font-size="11" lengthAdjust="spacing" textLength="287" x="169.5" y="816.2104">visitSheet(SheetContext ctx) : Score&lt;DrumStaff&gt;</text><!--MD5=[004b1d6c4ca8aad4ba8b586a335ed4f3]
class Transform--><rect codeLine="34" fill="#FEFECE" filter="url(#fzlrg7a6vynt8)" height="48" id="Transform" style="stroke:#A80036;stroke-width:1.5;" width="295" x="646.5" y="524"/><ellipse cx="661.5" cy="540" fill="#ADD1B2" rx="11" ry="11" style="stroke:#A80036;stroke-width:1.0;"/><path d="M663.8438,535.6719 C662.9063,535.2344 662.3125,535.0938 661.4375,535.0938 C658.8125,535.0938 656.8125,537.1719 656.8125,539.8906 L656.8125,541.0156 C656.8125,543.5938 658.9219,545.4844 661.8125,545.4844 C663.0313,545.4844 664.1875,545.1875 664.9375,544.6406 C665.5156,544.2344 665.8438,543.7813 665.8438,543.3906 C665.8438,542.9375 665.4531,542.5469 664.9844,542.5469 C664.7656,542.5469 664.5625,542.625 664.375,542.8125 C663.9219,543.2969 663.9219,543.2969 663.7344,543.3906 C663.3125,543.6563 662.625,543.7813 661.8594,543.7813 C659.8125,543.7813 658.5156,542.6875 658.5156,540.9844 L658.5156,539.8906 C658.5156,538.1094 659.7656,536.7969 661.5,536.7969 C662.0781,536.7969 662.6875,536.9531 663.1563,537.2031 C663.6406,537.4844 663.8125,537.7031 663.9063,538.1094 C663.9688,538.5156 664,538.6406 664.1406,538.7656 C664.2813,538.9063 664.5156,539.0156 664.7344,539.0156 C665,539.0156 665.2656,538.875 665.4375,538.6563 C665.5469,538.5 665.5781,538.3125 665.5781,537.8906 L665.5781,536.4688 C665.5781,536.0313 665.5625,535.9063 665.4688,535.75 C665.3125,535.4844 665.0313,535.3438 664.7344,535.3438 C664.4375,535.3438 664.2344,535.4375 664.0156,535.75 L663.8438,535.6719 Z " fill="#000000"/><text fill="#000000" font-family="sans-serif" font-size="12" lengthAdjust="spacing" textLength="61" x="675.5" y="544.1543">Transform</text><rect fill="#FFFFFF" height="15.9688" style="stroke:#000000;stroke-width:1.0;stroke-dasharray:2.0,2.0;" width="200" x="744.5" y="521"/><text fill="#000000" font-family="sans-serif" font-size="12" font-style="italic" lengthAdjust="spacing" textLength="198" x="745.5" y="533.1387">T extends Staff&lt;? extends Line&gt;</text><line style="stroke:#A80036;stroke-width:1.5;" x1="647.5" x2="940.5" y1="556" y2="556"/><line style="stroke:#A80036;stroke-width:1.5;" x1="647.5" x2="940.5" y1="564" y2="564"/><!--MD5=[ccb08bf2514626e6d11fec6d6805d158]
class Instrument--><rect codeLine="36" fill="#FEFECE" filter="url(#fzlrg7a6vynt8)" height="137.6328" id="Instrument" style="stroke:#A80036;stroke-width:1.5;" width="173" x="435.5" y="479"/><ellipse cx="486.25" cy="495" fill="#EB937F" rx="11" ry="11" style="stroke:#A80036;stroke-width:1.0;"/><path d="M485.0469,495.875 L486.5,495.875 L486.5,495.9844 C486.5,496.3906 486.5313,496.5469 486.6094,496.7031 C486.7656,496.9531 487.0469,497.1094 487.3438,497.1094 C487.5938,497.1094 487.8594,496.9688 488.0156,496.75 C488.1406,496.5938 488.1719,496.4375 488.1719,495.9844 L488.1719,494.0625 C488.1719,493.9063 488.1719,493.8594 488.1563,493.7031 C488.0938,493.2344 487.7813,492.9219 487.3281,492.9219 C487.0781,492.9219 486.8125,493.0625 486.6406,493.2813 C486.5313,493.4531 486.5,493.6094 486.5,494.0625 L486.5,494.1875 L485.0469,494.1875 L485.0469,491.7813 L489.0313,491.7813 L489.0313,492.6406 C489.0313,493.0469 489.0625,493.2188 489.1406,493.375 C489.3125,493.625 489.5938,493.7813 489.875,493.7813 C490.1406,493.7813 490.4063,493.6406 490.5781,493.4219 C490.6875,493.25 490.7188,493.1094 490.7188,492.6406 L490.7188,490.0938 L483.0938,490.0938 C482.6563,490.0938 482.5313,490.1094 482.375,490.2031 C482.125,490.3594 481.9688,490.6563 481.9688,490.9375 C481.9688,491.2188 482.1094,491.4688 482.3281,491.6406 C482.4844,491.75 482.6719,491.7813 483.0938,491.7813 L483.3438,491.7813 L483.3438,498.2969 L483.0938,498.2969 C482.6875,498.2969 482.5313,498.3125 482.375,498.4219 C482.125,498.5938 481.9688,498.8594 481.9688,499.1563 C481.9688,499.4219 482.1094,499.6719 482.3281,499.8281 C482.4688,499.9531 482.7031,500 483.0938,500 L491.0938,500 L491.0938,497.4219 C491.0938,496.9844 491.0625,496.8438 490.9844,496.6875 C490.8125,496.4375 490.5313,496.2813 490.25,496.2813 C489.9844,496.2813 489.7188,496.3906 489.5469,496.6406 C489.4375,496.7969 489.4063,496.9375 489.4063,497.4219 L489.4063,498.2969 L485.0469,498.2969 L485.0469,495.875 Z " fill="#000000"/><text fill="#000000" font-family="sans-serif" font-size="12" lengthAdjust="spacing" textLength="63" x="506.75" y="499.1543">Instrument</text><line style="stroke:#A80036;stroke-width:1.5;" x1="436.5" x2="607.5" y1="511" y2="511"/><rect fill="none" height="6" style="stroke:#C82930;stroke-width:1.0;" width="6" x="443.5" y="519"/><text fill="#000000" font-family="sans-serif" font-size="11" lengthAdjust="spacing" textLength="70" x="455.5" y="525.2104">String name</text><rect fill="none" height="6" style="stroke:#C82930;stroke-width:1.0;" width="6" x="443.5" y="531.8047"/><text fill="#000000" font-family="sans-serif" font-size="11" lengthAdjust="spacing" textLength="102" x="455.5" y="538.0151">String[][] drumSet</text><line style="stroke:#A80036;stroke-width:1.5;" x1="436.5" x2="607.5" y1="544.6094" y2="544.6094"/><text fill="#000000" font-family="sans-serif" font-size="11" lengthAdjust="spacing" textLength="147" x="455.5" y="558.8198">GUITAR("Classical Guitar")</text><text fill="#000000" font-family="sans-serif" font-size="11" lengthAdjust="spacing" textLength="115" x="455.5" y="571.6245">BASS("Bass Guitar")</text><text fill="#000000" font-family="sans-serif" font-size="11" lengthAdjust="spacing" textLength="100" x="455.5" y="584.4292">DRUM("Drumset")</text><rect fill="#F24D5C" height="6" style="stroke:#C82930;stroke-width:1.0;" width="6" x="443.5" y="591.0234"/><text fill="#000000" font-family="sans-serif" font-size="11" lengthAdjust="spacing" textLength="102" x="455.5" y="597.2339">Instrument(String)</text><ellipse cx="446.5" cy="606.8281" fill="#84BE84" rx="3" ry="3" style="stroke:#038048;stroke-width:1.0;"/><text fill="#000000" font-family="sans-serif" font-size="11" lengthAdjust="spacing" textLength="105" x="455.5" y="610.0386">getName() : String</text><path d="M356.5,18.5 L356.5,43.6328 A0,0 0 0 0 356.5,43.6328 L369,43.6328 L373,114.965 L377,43.6328 L389.5,43.6328 A0,0 0 0 0 389.5,43.6328 L389.5,28.5 L379.5,18.5 L356.5,18.5 A0,0 0 0 0 356.5,18.5 " fill="#FBFB77" filter="url(#fzlrg7a6vynt8)" style="stroke:#A80036;stroke-width:1.0;"/><path d="M379.5,18.5 L379.5,28.5 L389.5,28.5 L379.5,18.5 " fill="#FBFB77" style="stroke:#A80036;stroke-width:1.0;"/><text fill="#000000" font-family="sans-serif" font-size="13" lengthAdjust="spacing" textLength="12" x="362.5" y="35.5669">1.</text><path d="M219.5,677 L219.5,702.1328 L252.5,702.1328 L252.5,687 L242.5,677 L219.5,677 " fill="#FBFB77" filter="url(#fzlrg7a6vynt8)" style="stroke:#A80036;stroke-width:1.0;"/><path d="M242.5,677 L242.5,687 L252.5,687 L242.5,677 " fill="#FBFB77" style="stroke:#A80036;stroke-width:1.0;"/><text fill="#000000" font-family="sans-serif" font-size="13" lengthAdjust="spacing" textLength="12" x="225.5" y="694.0669">2.</text><path d="M789.5,254.5 L789.5,279.6328 A0,0 0 0 0 789.5,279.6328 L801.5,279.6328 L795.007,523.595 L809.5,279.6328 L822.5,279.6328 A0,0 0 0 0 822.5,279.6328 L822.5,264.5 L812.5,254.5 L789.5,254.5 A0,0 0 0 0 789.5,254.5 " fill="#FBFB77" filter="url(#fzlrg7a6vynt8)" style="stroke:#A80036;stroke-width:1.0;"/><path d="M812.5,254.5 L812.5,264.5 L822.5,264.5 L812.5,254.5 " fill="#FBFB77" style="stroke:#A80036;stroke-width:1.0;"/><text fill="#000000" font-family="sans-serif" font-size="13" lengthAdjust="spacing" textLength="12" x="795.5" y="271.5669">3.</text><!--MD5=[628cc5a2753cca06eb1ffef55c386535]
class Parser--><rect fill="#FEFECE" filter="url(#fzlrg7a6vynt8)" height="48" id="Parser" style="stroke:#A80036;stroke-width:1.5;" width="70" x="630" y="7"/><ellipse cx="645" cy="23" fill="#ADD1B2" rx="11" ry="11" style="stroke:#A80036;stroke-width:1.0;"/><path d="M647.3438,18.6719 C646.4063,18.2344 645.8125,18.0938 644.9375,18.0938 C642.3125,18.0938 640.3125,20.1719 640.3125,22.8906 L640.3125,24.0156 C640.3125,26.5938 642.4219,28.4844 645.3125,28.4844 C646.5313,28.4844 647.6875,28.1875 648.4375,27.6406 C649.0156,27.2344 649.3438,26.7813 649.3438,26.3906 C649.3438,25.9375 648.9531,25.5469 648.4844,25.5469 C648.2656,25.5469 648.0625,25.625 647.875,25.8125 C647.4219,26.2969 647.4219,26.2969 647.2344,26.3906 C646.8125,26.6563 646.125,26.7813 645.3594,26.7813 C643.3125,26.7813 642.0156,25.6875 642.0156,23.9844 L642.0156,22.8906 C642.0156,21.1094 643.2656,19.7969 645,19.7969 C645.5781,19.7969 646.1875,19.9531 646.6563,20.2031 C647.1406,20.4844 647.3125,20.7031 647.4063,21.1094 C647.4688,21.5156 647.5,21.6406 647.6406,21.7656 C647.7813,21.9063 648.0156,22.0156 648.2344,22.0156 C648.5,22.0156 648.7656,21.875 648.9375,21.6563 C649.0469,21.5 649.0781,21.3125 649.0781,20.8906 L649.0781,19.4688 C649.0781,19.0313 649.0625,18.9063 648.9688,18.75 C648.8125,18.4844 648.5313,18.3438 648.2344,18.3438 C647.9375,18.3438 647.7344,18.4375 647.5156,18.75 L647.3438,18.6719 Z " fill="#000000"/><text fill="#000000" font-family="sans-serif" font-size="12" lengthAdjust="spacing" textLength="38" x="659" y="27.1543">Parser</text><line style="stroke:#A80036;stroke-width:1.5;" x1="631" x2="699" y1="39" y2="39"/><line style="stroke:#A80036;stroke-width:1.5;" x1="631" x2="699" y1="47" y2="47"/><!--MD5=[741a8627ba8baa87db06094297ab8d13]
link SerializeGuitarScore to N2--><path codeLine="50" d="M180.057,578.584 C195.607,609.136 219.094,655.284 230.019,676.749 " fill="none" id="SerializeGuitarScore-N2" style="stroke:#A80036;stroke-width:1.0;stroke-dasharray:7.0,7.0;"/><!--MD5=[6413470511d8c22d0ac601a1ec44b16f]
link N2 to SerializeDrumScore--><path codeLine="51" d="M244.03,702.086 C254.085,716.594 271.676,741.9754 285.553,761.9981 " fill="none" id="N2-SerializeDrumScore" style="stroke:#A80036;stroke-width:1.0;stroke-dasharray:7.0,7.0;"/><!--MD5=[54824497402a5e2eec52c1338129c753]
reverse link Parser to Processor--><path codeLine="54" d="M626.046,63.216 C608.289,77.446 585.842,95.435 561.686,114.793 " fill="none" id="Parser-backto-Processor" style="stroke:#A80036;stroke-width:1.0;"/><polygon fill="#FFFFFF" points="636.203,55.077,629.0196,55.708,626.8391,62.5815,634.0226,61.9506,636.203,55.077" style="stroke:#A80036;stroke-width:1.0;"/><text fill="#000000" font-family="sans-serif" font-size="13" lengthAdjust="spacing" textLength="8" x="619.7988" y="75.2525">1</text><!--MD5=[34033b6af071360fb3fc30fd0c86bb3b]
reverse link Processor to SerializeGuitarScore--><path codeLine="55" d="M252.36,429.821 C227.297,463.439 203.557,495.281 187.169,517.264 " fill="none" id="Processor-backto-SerializeGuitarScore" style="stroke:#A80036;stroke-width:1.0;"/><polygon fill="#FFFFFF" points="260.174,419.339,253.3808,421.7583,253.0012,428.9594,259.7944,426.5401,260.174,419.339" style="stroke:#A80036;stroke-width:1.0;"/><text fill="#000000" font-family="sans-serif" font-size="13" lengthAdjust="spacing" textLength="8" x="246.5152" y="439.149">1</text><!--MD5=[fd909cacb635fa1fb1af29d829f6c77e]
reverse link Processor to SerializeDrumScore--><path codeLine="56" d="M360.813,432.252 C355.592,490.72 348.669,556.939 340,617 C332.614,668.168 320.338,727.0823 312.733,761.7007 " fill="none" id="Processor-backto-SerializeDrumScore" style="stroke:#A80036;stroke-width:1.0;"/><polygon fill="#FFFFFF" points="361.968,419.125,357.4573,424.7511,360.9157,431.0788,365.4264,425.4527,361.968,419.125" style="stroke:#A80036;stroke-width:1.0;"/><text fill="#000000" font-family="sans-serif" font-size="13" lengthAdjust="spacing" textLength="8" x="353.2399" y="438.9247">1</text><!--MD5=[e77e41236a232992886ba9d89c2caf42]
reverse link Processor to Instrument--><path codeLine="57" d="M460.031,430.963 C468.95,447.665 477.622,463.904 485.517,478.686 " fill="none" id="Processor-backto-Instrument" style="stroke:#A80036;stroke-width:1.0;"/><polygon fill="#FFFFFF" points="453.823,419.339,453.1212,426.5159,459.4761,429.924,460.1779,422.7471,453.823,419.339" style="stroke:#A80036;stroke-width:1.0;"/><text fill="#000000" font-family="sans-serif" font-size="13" lengthAdjust="spacing" textLength="8" x="449.5441" y="439.149">1</text><!--MD5=[afc1935edd4ef5d133e6e5133d5487c4]
reverse link Parser to Instrument--><path codeLine="58" d="M668.611,68.724 C674.089,139.551 679.105,298.654 629,419 C620.15,440.258 606.477,460.656 591.831,478.68 " fill="none" id="Parser-backto-Instrument" style="stroke:#A80036;stroke-width:1.0;"/><polygon fill="#FFFFFF" points="667.49,55.383,664.0065,61.6969,668.4948,67.3409,671.9784,61.027,667.49,55.383" style="stroke:#A80036;stroke-width:1.0;"/><text fill="#000000" font-family="sans-serif" font-size="13" lengthAdjust="spacing" textLength="8" x="659.1219" y="75.2376">1</text><!--MD5=[43b6fe369902da6002757ec1b1af6c2a]
link Parser to Transform--><path codeLine="59" d="M672.719,55.127 C678.136,71.707 685.385,94.619 691,115 C733.695,269.985 775.167,459.074 789.087,523.908 " fill="none" id="Parser-Transform" style="stroke:#A80036;stroke-width:1.0;"/><!--MD5=[7bd9b0ea4e86e0eaf6b39a2871d3b610]
@startuml
class Processor {
  -{static} SerializeGuitarScore sgs
  -{static} SerializeDrumScore sds

  -String input
  -Instrument instrument
  -XMLMetadata metadata
  -InputValidation validator
  -LinkedList<ParseWarning> preprocessWarnings

  +Processor(String, Instrument, XMLMetadata)
  +process() : Score<?>
  +getPreprocessWarnings() : Collection<ParseWarning>
  -{static} processGuitar(String) : Score<GuitarStaff>
  -{static} processBass(String) : Score<GuitarStaff>
  -{static} processDrum(String) : Score<DrumStaff>
  -{static} preprocessGuitar(String) : String
  -{static} preprocessBass(String) : String
  -{static} preprocessDrum(String) : String
  -{static} commentMetadata(Matcher, StringBuffer) : void
  -{static} extractMetadata(String, Matcher, Matcher, int, StringBuilder, List<String>) : void
  -{static} showErrors(List<ErrorToken>) : void
  
}

class SerializeGuitarScore {
  +visitSheet(SheetContext ctx) : Score<GuitarStaff>
}

class SerializeDrumScore {
  +visitSheet(SheetContext ctx) : Score<DrumStaff>
}

class Transform<T extends Staff<? extends Line>>{}

enum Instrument {
  GUITAR("Classical Guitar")
  BASS("Bass Guitar")
  DRUM("Drumset")
  
  -String name
  -String[][] drumSet

  -Instrument(String)
  +getName() : String
}

note top of Processor : 1.
note "2." as N2
SerializeGuitarScore .. N2
N2 .. SerializeDrumScore
note top of Transform : 3.

Parser "1" o- - Processor
Processor "1" o- - SerializeGuitarScore
Processor "1" o- - SerializeDrumScore
Processor "1" o- - Instrument
Parser "1" o- - Instrument
Parser - - - Transform
@enduml

PlantUML version 1.2021.5beta3(Unknown compile time)
(GPL source distribution)
Java Runtime: Java(TM) SE Runtime Environment
JVM: Java HotSpot(TM) 64-Bit Server VM
Default Encoding: UTF-8
Language: en
Country: US
--></g></svg>