<?xml version="1.0" encoding="UTF-8" standalone="no"?><svg xmlns="http://www.w3.org/2000/svg" xmlns:xlink="http://www.w3.org/1999/xlink" contentScriptType="application/ecmascript" contentStyleType="text/css" height="1152px" preserveAspectRatio="none" style="width:1515px;height:1152px;" version="1.1" viewBox="0 0 1515 1152" width="1515px" zoomAndPan="magnify"><defs><filter height="300%" id="fwz5g0mo4st2x" width="300%" x="-1" y="-1"><feGaussianBlur result="blurOut" stdDeviation="2.0"/><feColorMatrix in="blurOut" result="blurOut2" type="matrix" values="0 0 0 0 0 0 0 0 0 0 0 0 0 0 0 0 0 0 .4 0"/><feOffset dx="4.0" dy="4.0" in="blurOut2" result="blurOut3"/><feBlend in="SourceGraphic" in2="blurOut3" mode="normal"/></filter></defs><g><line style="stroke:#A80036;stroke-width:1.0;stroke-dasharray:5.0,5.0;" x1="29" x2="29" y1="40.2969" y2="1109.0781"/><line style="stroke:#A80036;stroke-width:1.0;stroke-dasharray:5.0,5.0;" x1="226.5" x2="226.5" y1="40.2969" y2="1109.0781"/><line style="stroke:#A80036;stroke-width:1.0;stroke-dasharray:5.0,5.0;" x1="444" x2="444" y1="40.2969" y2="1109.0781"/><line style="stroke:#A80036;stroke-width:1.0;stroke-dasharray:5.0,5.0;" x1="655" x2="655" y1="40.2969" y2="1109.0781"/><line style="stroke:#A80036;stroke-width:1.0;stroke-dasharray:5.0,5.0;" x1="785.5" x2="785.5" y1="40.2969" y2="1109.0781"/><line style="stroke:#A80036;stroke-width:1.0;stroke-dasharray:5.0,5.0;" x1="929.5" x2="929.5" y1="40.2969" y2="1109.0781"/><line style="stroke:#A80036;stroke-width:1.0;stroke-dasharray:5.0,5.0;" x1="1100.5" x2="1100.5" y1="40.2969" y2="1109.0781"/><line style="stroke:#A80036;stroke-width:1.0;stroke-dasharray:5.0,5.0;" x1="1262.5" x2="1262.5" y1="40.2969" y2="1109.0781"/><line style="stroke:#A80036;stroke-width:1.0;stroke-dasharray:5.0,5.0;" x1="1399" x2="1399" y1="40.2969" y2="1109.0781"/><line style="stroke:#A80036;stroke-width:1.0;stroke-dasharray:5.0,5.0;" x1="1480" x2="1480" y1="40.2969" y2="1109.0781"/><rect fill="#FEFECE" filter="url(#fwz5g0mo4st2x)" height="30.2969" style="stroke:#A80036;stroke-width:1.5;" width="45" x="5" y="5"/><text fill="#000000" font-family="sans-serif" font-size="14" lengthAdjust="spacing" textLength="31" x="12" y="24.9951">User</text><rect fill="#FEFECE" filter="url(#fwz5g0mo4st2x)" height="30.2969" style="stroke:#A80036;stroke-width:1.5;" width="45" x="5" y="1108.0781"/><text fill="#000000" font-family="sans-serif" font-size="14" lengthAdjust="spacing" textLength="31" x="12" y="1128.0732">User</text><rect fill="#FEFECE" filter="url(#fwz5g0mo4st2x)" height="30.2969" style="stroke:#A80036;stroke-width:1.5;" width="48" x="200.5" y="5"/><text fill="#000000" font-family="sans-serif" font-size="14" lengthAdjust="spacing" textLength="34" x="207.5" y="24.9951">View</text><rect fill="#FEFECE" filter="url(#fwz5g0mo4st2x)" height="30.2969" style="stroke:#A80036;stroke-width:1.5;" width="48" x="200.5" y="1108.0781"/><text fill="#000000" font-family="sans-serif" font-size="14" lengthAdjust="spacing" textLength="34" x="207.5" y="1128.0732">View</text><rect fill="#FEFECE" filter="url(#fwz5g0mo4st2x)" height="30.2969" style="stroke:#A80036;stroke-width:1.5;" width="85" x="400" y="5"/><text fill="#000000" font-family="sans-serif" font-size="14" lengthAdjust="spacing" textLength="71" x="407" y="24.9951">Presenter</text><rect fill="#FEFECE" filter="url(#fwz5g0mo4st2x)" height="30.2969" style="stroke:#A80036;stroke-width:1.5;" width="85" x="400" y="1108.0781"/><text fill="#000000" font-family="sans-serif" font-size="14" lengthAdjust="spacing" textLength="71" x="407" y="1128.0732">Presenter</text><rect fill="#FEFECE" filter="url(#fwz5g0mo4st2x)" height="30.2969" style="stroke:#A80036;stroke-width:1.5;" width="59" x="624" y="5"/><text fill="#000000" font-family="sans-serif" font-size="14" lengthAdjust="spacing" textLength="45" x="631" y="24.9951">Parser</text><rect fill="#FEFECE" filter="url(#fwz5g0mo4st2x)" height="30.2969" style="stroke:#A80036;stroke-width:1.5;" width="59" x="624" y="1108.0781"/><text fill="#000000" font-family="sans-serif" font-size="14" lengthAdjust="spacing" textLength="45" x="631" y="1128.0732">Parser</text><rect fill="#FEFECE" filter="url(#fwz5g0mo4st2x)" height="30.2969" style="stroke:#A80036;stroke-width:1.5;" width="84" x="741.5" y="5"/><text fill="#000000" font-family="sans-serif" font-size="14" lengthAdjust="spacing" textLength="70" x="748.5" y="24.9951">Processor</text><rect fill="#FEFECE" filter="url(#fwz5g0mo4st2x)" height="30.2969" style="stroke:#A80036;stroke-width:1.5;" width="84" x="741.5" y="1108.0781"/><text fill="#000000" font-family="sans-serif" font-size="14" lengthAdjust="spacing" textLength="70" x="748.5" y="1128.0732">Processor</text><rect fill="#FEFECE" filter="url(#fwz5g0mo4st2x)" height="30.2969" style="stroke:#A80036;stroke-width:1.5;" width="160" x="847.5" y="5"/><text fill="#000000" font-family="sans-serif" font-size="14" lengthAdjust="spacing" textLength="146" x="854.5" y="24.9951">SerializeGuitarScore</text><rect fill="#FEFECE" filter="url(#fwz5g0mo4st2x)" height="30.2969" style="stroke:#A80036;stroke-width:1.5;" width="160" x="847.5" y="1108.0781"/><text fill="#000000" font-family="sans-serif" font-size="14" lengthAdjust="spacing" textLength="146" x="854.5" y="1128.0732">SerializeGuitarScore</text><rect fill="#FEFECE" filter="url(#fwz5g0mo4st2x)" height="30.2969" style="stroke:#A80036;stroke-width:1.5;" width="155" x="1021.5" y="5"/><text fill="#000000" font-family="sans-serif" font-size="14" lengthAdjust="spacing" textLength="141" x="1028.5" y="24.9951">SerializeDrumScore</text><rect fill="#FEFECE" filter="url(#fwz5g0mo4st2x)" height="30.2969" style="stroke:#A80036;stroke-width:1.5;" width="155" x="1021.5" y="1108.0781"/><text fill="#000000" font-family="sans-serif" font-size="14" lengthAdjust="spacing" textLength="141" x="1028.5" y="1128.0732">SerializeDrumScore</text><rect fill="#FEFECE" filter="url(#fwz5g0mo4st2x)" height="30.2969" style="stroke:#A80036;stroke-width:1.5;" width="105" x="1208.5" y="5"/><text fill="#000000" font-family="sans-serif" font-size="14" lengthAdjust="spacing" textLength="91" x="1215.5" y="24.9951">sheet: Score</text><rect fill="#FEFECE" filter="url(#fwz5g0mo4st2x)" height="30.2969" style="stroke:#A80036;stroke-width:1.5;" width="105" x="1208.5" y="1108.0781"/><text fill="#000000" font-family="sans-serif" font-size="14" lengthAdjust="spacing" textLength="91" x="1215.5" y="1128.0732">sheet: Score</text><rect fill="#FEFECE" filter="url(#fwz5g0mo4st2x)" height="30.2969" style="stroke:#A80036;stroke-width:1.5;" width="88" x="1353" y="5"/><text fill="#000000" font-family="sans-serif" font-size="14" lengthAdjust="spacing" textLength="74" x="1360" y="24.9951">Transform</text><rect fill="#FEFECE" filter="url(#fwz5g0mo4st2x)" height="30.2969" style="stroke:#A80036;stroke-width:1.5;" width="88" x="1353" y="1108.0781"/><text fill="#000000" font-family="sans-serif" font-size="14" lengthAdjust="spacing" textLength="74" x="1360" y="1128.0732">Transform</text><rect fill="#FEFECE" filter="url(#fwz5g0mo4st2x)" height="30.2969" style="stroke:#A80036;stroke-width:1.5;" width="46" x="1455" y="5"/><text fill="#000000" font-family="sans-serif" font-size="14" lengthAdjust="spacing" textLength="32" x="1462" y="24.9951">Files</text><rect fill="#FEFECE" filter="url(#fwz5g0mo4st2x)" height="30.2969" style="stroke:#A80036;stroke-width:1.5;" width="46" x="1455" y="1108.0781"/><text fill="#000000" font-family="sans-serif" font-size="14" lengthAdjust="spacing" textLength="32" x="1462" y="1128.0732">Files</text><polygon fill="#A80036" points="214.5,67.4297,224.5,71.4297,214.5,75.4297,218.5,71.4297" style="stroke:#A80036;stroke-width:1.0;"/><line style="stroke:#A80036;stroke-width:1.0;" x1="29.5" x2="220.5" y1="71.4297" y2="71.4297"/><text fill="#000000" font-family="sans-serif" font-size="13" lengthAdjust="spacing" textLength="173" x="36.5" y="66.3638">Input text tab into text box</text><polygon fill="#A80036" points="432.5,96.5625,442.5,100.5625,432.5,104.5625,436.5,100.5625" style="stroke:#A80036;stroke-width:1.0;"/><line style="stroke:#A80036;stroke-width:1.0;" x1="226.5" x2="438.5" y1="100.5625" y2="100.5625"/><text fill="#000000" font-family="sans-serif" font-size="13" lengthAdjust="spacing" textLength="148" x="233.5" y="95.4966">Call detectInstrument()</text><polygon fill="#A80036" points="643.5,125.6953,653.5,129.6953,643.5,133.6953,647.5,129.6953" style="stroke:#A80036;stroke-width:1.0;"/><line style="stroke:#A80036;stroke-width:1.0;" x1="444.5" x2="649.5" y1="129.6953" y2="129.6953"/><text fill="#000000" font-family="sans-serif" font-size="13" lengthAdjust="spacing" textLength="187" x="451.5" y="124.6294">Call getDetectedInstrument()</text><polygon fill="#A80036" points="455.5,154.8281,445.5,158.8281,455.5,162.8281,451.5,158.8281" style="stroke:#A80036;stroke-width:1.0;"/><line style="stroke:#A80036;stroke-width:1.0;stroke-dasharray:2.0,2.0;" x1="449.5" x2="654.5" y1="158.8281" y2="158.8281"/><text fill="#000000" font-family="sans-serif" font-size="13" lengthAdjust="spacing" textLength="174" x="461.5" y="153.7622">return detected instrument</text><polygon fill="#A80036" points="237.5,183.9609,227.5,187.9609,237.5,191.9609,233.5,187.9609" style="stroke:#A80036;stroke-width:1.0;"/><line style="stroke:#A80036;stroke-width:1.0;stroke-dasharray:2.0,2.0;" x1="231.5" x2="443.5" y1="187.9609" y2="187.9609"/><text fill="#000000" font-family="sans-serif" font-size="13" lengthAdjust="spacing" textLength="178" x="243.5" y="182.895">Update selected instrument</text><polygon fill="#A80036" points="214.5,213.0938,224.5,217.0938,214.5,221.0938,218.5,217.0938" style="stroke:#A80036;stroke-width:1.0;"/><line style="stroke:#A80036;stroke-width:1.0;" x1="29.5" x2="220.5" y1="217.0938" y2="217.0938"/><text fill="#000000" font-family="sans-serif" font-size="13" lengthAdjust="spacing" textLength="158" x="36.5" y="212.0278">Click "Convert and Save"</text><polygon fill="#A80036" points="432.5,242.2266,442.5,246.2266,432.5,250.2266,436.5,246.2266" style="stroke:#A80036;stroke-width:1.0;"/><line style="stroke:#A80036;stroke-width:1.0;" x1="226.5" x2="438.5" y1="246.2266" y2="246.2266"/><text fill="#000000" font-family="sans-serif" font-size="13" lengthAdjust="spacing" textLength="143" x="233.5" y="241.1606">Call convertAndSave()</text><polygon fill="#A80036" points="432.5,271.3594,442.5,275.3594,432.5,279.3594,436.5,275.3594" style="stroke:#A80036;stroke-width:1.0;"/><line style="stroke:#A80036;stroke-width:1.0;" x1="226.5" x2="438.5" y1="275.3594" y2="275.3594"/><text fill="#000000" font-family="sans-serif" font-size="13" lengthAdjust="spacing" textLength="114" x="233.5" y="270.2935">provide input text</text><polygon fill="#A80036" points="643.5,300.4922,653.5,304.4922,643.5,308.4922,647.5,304.4922" style="stroke:#A80036;stroke-width:1.0;"/><line style="stroke:#A80036;stroke-width:1.0;" x1="444.5" x2="649.5" y1="304.4922" y2="304.4922"/><text fill="#000000" font-family="sans-serif" font-size="13" lengthAdjust="spacing" textLength="114" x="451.5" y="299.4263">provide input text</text><polygon fill="#A80036" points="773.5,329.625,783.5,333.625,773.5,337.625,777.5,333.625" style="stroke:#A80036;stroke-width:1.0;"/><line style="stroke:#A80036;stroke-width:1.0;" x1="655.5" x2="779.5" y1="333.625" y2="333.625"/><text fill="#000000" font-family="sans-serif" font-size="13" lengthAdjust="spacing" textLength="87" x="662.5" y="328.5591">Call process()</text><polygon fill="#A80036" points="917.5,358.7578,927.5,362.7578,917.5,366.7578,921.5,362.7578" style="stroke:#A80036;stroke-width:1.0;"/><line style="stroke:#A80036;stroke-width:1.0;" x1="785.5" x2="923.5" y1="362.7578" y2="362.7578"/><text fill="#000000" font-family="sans-serif" font-size="13" lengthAdjust="spacing" textLength="63" x="792.5" y="357.6919">Call visit()</text><polygon fill="#A80036" points="1089,387.8906,1099,391.8906,1089,395.8906,1093,391.8906" style="stroke:#A80036;stroke-width:1.0;"/><line style="stroke:#A80036;stroke-width:1.0;" x1="785.5" x2="1095" y1="391.8906" y2="391.8906"/><text fill="#000000" font-family="sans-serif" font-size="13" lengthAdjust="spacing" textLength="63" x="792.5" y="386.8247">Call visit()</text><polygon fill="#A80036" points="1251,417.0234,1261,421.0234,1251,425.0234,1255,421.0234" style="stroke:#A80036;stroke-width:1.0;"/><line style="stroke:#A80036;stroke-width:1.0;" x1="929.5" x2="1257" y1="421.0234" y2="421.0234"/><text fill="#000000" font-family="sans-serif" font-size="13" lengthAdjust="spacing" textLength="141" x="936.5" y="415.9575">construct guitar Score</text><polygon fill="#A80036" points="940.5,446.1563,930.5,450.1563,940.5,454.1563,936.5,450.1563" style="stroke:#A80036;stroke-width:1.0;"/><line style="stroke:#A80036;stroke-width:1.0;stroke-dasharray:2.0,2.0;" x1="934.5" x2="1262" y1="450.1563" y2="450.1563"/><text fill="#000000" font-family="sans-serif" font-size="13" lengthAdjust="spacing" textLength="120" x="946.5" y="445.0903">return guitar sheet</text><polygon fill="#A80036" points="796.5,475.2891,786.5,479.2891,796.5,483.2891,792.5,479.2891" style="stroke:#A80036;stroke-width:1.0;"/><line style="stroke:#A80036;stroke-width:1.0;stroke-dasharray:2.0,2.0;" x1="790.5" x2="928.5" y1="479.2891" y2="479.2891"/><text fill="#000000" font-family="sans-serif" font-size="13" lengthAdjust="spacing" textLength="120" x="802.5" y="474.2231">return guitar sheet</text><polygon fill="#A80036" points="1251,504.4219,1261,508.4219,1251,512.4219,1255,508.4219" style="stroke:#A80036;stroke-width:1.0;"/><line style="stroke:#A80036;stroke-width:1.0;" x1="1101" x2="1257" y1="508.4219" y2="508.4219"/><text fill="#000000" font-family="sans-serif" font-size="13" lengthAdjust="spacing" textLength="138" x="1108" y="503.356">construct drum Score</text><polygon fill="#A80036" points="1112,533.5547,1102,537.5547,1112,541.5547,1108,537.5547" style="stroke:#A80036;stroke-width:1.0;"/><line style="stroke:#A80036;stroke-width:1.0;stroke-dasharray:2.0,2.0;" x1="1106" x2="1262" y1="537.5547" y2="537.5547"/><text fill="#000000" font-family="sans-serif" font-size="13" lengthAdjust="spacing" textLength="117" x="1118" y="532.4888">return drum sheet</text><polygon fill="#A80036" points="796.5,562.6875,786.5,566.6875,796.5,570.6875,792.5,566.6875" style="stroke:#A80036;stroke-width:1.0;"/><line style="stroke:#A80036;stroke-width:1.0;stroke-dasharray:2.0,2.0;" x1="790.5" x2="1100" y1="566.6875" y2="566.6875"/><text fill="#000000" font-family="sans-serif" font-size="13" lengthAdjust="spacing" textLength="117" x="802.5" y="561.6216">return drum sheet</text><polygon fill="#A80036" points="1251,591.8203,1261,595.8203,1251,599.8203,1255,595.8203" style="stroke:#A80036;stroke-width:1.0;"/><line style="stroke:#A80036;stroke-width:1.0;" x1="785.5" x2="1257" y1="595.8203" y2="595.8203"/><text fill="#000000" font-family="sans-serif" font-size="13" lengthAdjust="spacing" textLength="56" x="792.5" y="590.7544">Call init()</text><polygon fill="#A80036" points="796.5,620.9531,786.5,624.9531,796.5,628.9531,792.5,624.9531" style="stroke:#A80036;stroke-width:1.0;"/><line style="stroke:#A80036;stroke-width:1.0;stroke-dasharray:2.0,2.0;" x1="790.5" x2="1262" y1="624.9531" y2="624.9531"/><text fill="#000000" font-family="sans-serif" font-size="13" lengthAdjust="spacing" textLength="158" x="802.5" y="619.8872">return aggregated staffs</text><polygon fill="#A80036" points="1251,650.0859,1261,654.0859,1251,658.0859,1255,654.0859" style="stroke:#A80036;stroke-width:1.0;"/><line style="stroke:#A80036;stroke-width:1.0;" x1="785.5" x2="1257" y1="654.0859" y2="654.0859"/><text fill="#000000" font-family="sans-serif" font-size="13" lengthAdjust="spacing" textLength="148" x="792.5" y="649.02">Call processMeasures()</text><polygon fill="#A80036" points="796.5,679.2188,786.5,683.2188,796.5,687.2188,792.5,683.2188" style="stroke:#A80036;stroke-width:1.0;"/><line style="stroke:#A80036;stroke-width:1.0;stroke-dasharray:2.0,2.0;" x1="790.5" x2="1262" y1="683.2188" y2="683.2188"/><text fill="#000000" font-family="sans-serif" font-size="13" lengthAdjust="spacing" textLength="185" x="802.5" y="678.1528">return aggregated measures</text><polygon fill="#A80036" points="1251,708.3516,1261,712.3516,1251,716.3516,1255,712.3516" style="stroke:#A80036;stroke-width:1.0;"/><line style="stroke:#A80036;stroke-width:1.0;" x1="785.5" x2="1257" y1="712.3516" y2="712.3516"/><text fill="#000000" font-family="sans-serif" font-size="13" lengthAdjust="spacing" textLength="142" x="792.5" y="707.2856">Call processDuration()</text><polygon fill="#A80036" points="796.5,737.4844,786.5,741.4844,796.5,745.4844,792.5,741.4844" style="stroke:#A80036;stroke-width:1.0;"/><line style="stroke:#A80036;stroke-width:1.0;stroke-dasharray:2.0,2.0;" x1="790.5" x2="1262" y1="741.4844" y2="741.4844"/><text fill="#000000" font-family="sans-serif" font-size="13" lengthAdjust="spacing" textLength="173" x="802.5" y="736.4185">return processed durations</text><polygon fill="#A80036" points="666.5,766.6172,656.5,770.6172,666.5,774.6172,662.5,770.6172" style="stroke:#A80036;stroke-width:1.0;"/><line style="stroke:#A80036;stroke-width:1.0;stroke-dasharray:2.0,2.0;" x1="660.5" x2="784.5" y1="770.6172" y2="770.6172"/><text fill="#000000" font-family="sans-serif" font-size="13" lengthAdjust="spacing" textLength="106" x="672.5" y="765.5513">aggregate sheet</text><polygon fill="#A80036" points="643.5,795.75,653.5,799.75,643.5,803.75,647.5,799.75" style="stroke:#A80036;stroke-width:1.0;"/><line style="stroke:#A80036;stroke-width:1.0;" x1="444.5" x2="649.5" y1="799.75" y2="799.75"/><text fill="#000000" font-family="sans-serif" font-size="13" lengthAdjust="spacing" textLength="73" x="451.5" y="794.6841">Call parse()</text><polygon fill="#A80036" points="1387,824.8828,1397,828.8828,1387,832.8828,1391,828.8828" style="stroke:#A80036;stroke-width:1.0;"/><line style="stroke:#A80036;stroke-width:1.0;" x1="655.5" x2="1393" y1="828.8828" y2="828.8828"/><text fill="#000000" font-family="sans-serif" font-size="13" lengthAdjust="spacing" textLength="76" x="662.5" y="823.8169">Call toXML()</text><polygon fill="#A80036" points="1274,854.0156,1264,858.0156,1274,862.0156,1270,858.0156" style="stroke:#A80036;stroke-width:1.0;"/><line style="stroke:#A80036;stroke-width:1.0;" x1="1268" x2="1398" y1="858.0156" y2="858.0156"/><text fill="#000000" font-family="sans-serif" font-size="13" lengthAdjust="spacing" textLength="94" x="1280" y="852.9497">get sheet data</text><polygon fill="#A80036" points="1387,883.1484,1397,887.1484,1387,891.1484,1391,887.1484" style="stroke:#A80036;stroke-width:1.0;"/><line style="stroke:#A80036;stroke-width:1.0;" x1="1263" x2="1393" y1="887.1484" y2="887.1484"/><text fill="#000000" font-family="sans-serif" font-size="13" lengthAdjust="spacing" textLength="112" x="1270" y="882.0825">return sheet data</text><polygon fill="#A80036" points="666.5,912.2813,656.5,916.2813,666.5,920.2813,662.5,916.2813" style="stroke:#A80036;stroke-width:1.0;"/><line style="stroke:#A80036;stroke-width:1.0;stroke-dasharray:2.0,2.0;" x1="660.5" x2="1398" y1="916.2813" y2="916.2813"/><text fill="#000000" font-family="sans-serif" font-size="13" lengthAdjust="spacing" textLength="168" x="672.5" y="911.2153">return sheet as XML string</text><polygon fill="#A80036" points="455.5,941.4141,445.5,945.4141,455.5,949.4141,451.5,945.4141" style="stroke:#A80036;stroke-width:1.0;"/><line style="stroke:#A80036;stroke-width:1.0;stroke-dasharray:2.0,2.0;" x1="449.5" x2="654.5" y1="945.4141" y2="945.4141"/><text fill="#000000" font-family="sans-serif" font-size="13" lengthAdjust="spacing" textLength="154" x="461.5" y="940.3481">return converted output</text><polygon fill="#A80036" points="237.5,970.5469,227.5,974.5469,237.5,978.5469,233.5,974.5469" style="stroke:#A80036;stroke-width:1.0;"/><line style="stroke:#A80036;stroke-width:1.0;stroke-dasharray:2.0,2.0;" x1="231.5" x2="443.5" y1="974.5469" y2="974.5469"/><text fill="#000000" font-family="sans-serif" font-size="13" lengthAdjust="spacing" textLength="194" x="243.5" y="969.481">display any errors or warnings</text><polygon fill="#A80036" points="214.5,999.6797,224.5,1003.6797,214.5,1007.6797,218.5,1003.6797" style="stroke:#A80036;stroke-width:1.0;"/><line style="stroke:#A80036;stroke-width:1.0;" x1="29.5" x2="220.5" y1="1003.6797" y2="1003.6797"/><text fill="#000000" font-family="sans-serif" font-size="13" lengthAdjust="spacing" textLength="107" x="36.5" y="998.6138">select output file</text><polygon fill="#A80036" points="432.5,1028.8125,442.5,1032.8125,432.5,1036.8125,436.5,1032.8125" style="stroke:#A80036;stroke-width:1.0;"/><line style="stroke:#A80036;stroke-width:1.0;" x1="226.5" x2="438.5" y1="1032.8125" y2="1032.8125"/><text fill="#000000" font-family="sans-serif" font-size="13" lengthAdjust="spacing" textLength="99" x="233.5" y="1027.7466">pass output file</text><polygon fill="#A80036" points="1468,1057.9453,1478,1061.9453,1468,1065.9453,1472,1061.9453" style="stroke:#A80036;stroke-width:1.0;"/><line style="stroke:#A80036;stroke-width:1.0;" x1="444.5" x2="1474" y1="1061.9453" y2="1061.9453"/><text fill="#000000" font-family="sans-serif" font-size="13" lengthAdjust="spacing" textLength="79" x="451.5" y="1056.8794">writeString()</text><polygon fill="#A80036" points="237.5,1087.0781,227.5,1091.0781,237.5,1095.0781,233.5,1091.0781" style="stroke:#A80036;stroke-width:1.0;"/><line style="stroke:#A80036;stroke-width:1.0;stroke-dasharray:2.0,2.0;" x1="231.5" x2="443.5" y1="1091.0781" y2="1091.0781"/><text fill="#000000" font-family="sans-serif" font-size="13" lengthAdjust="spacing" textLength="194" x="243.5" y="1086.0122">display any errors or warnings</text><!--MD5=[ecbf1aecf0de9a39e9a4df7b7dafb811]
@startuml
User -> View : Input text tab into text box
View -> Presenter : Call detectInstrument()
Presenter -> Parser : Call getDetectedInstrument()
Presenter <- - Parser : return detected instrument
View <- - Presenter : Update selected instrument
User -> View : Click "Convert and Save"
View -> Presenter : Call convertAndSave()
View -> Presenter : provide input text
Presenter -> Parser : provide input text
Parser -> Processor : Call process()
Processor -> SerializeGuitarScore : Call visit()
Processor -> SerializeDrumScore : Call visit()
SerializeGuitarScore -> "sheet: Score" : construct guitar Score
SerializeGuitarScore <- - "sheet: Score" : return guitar sheet
Processor <- - SerializeGuitarScore : return guitar sheet
SerializeDrumScore -> "sheet: Score" : construct drum Score
SerializeDrumScore <- - "sheet: Score" : return drum sheet
Processor <- - SerializeDrumScore : return drum sheet
Processor -> "sheet: Score" : Call init()
Processor <- - "sheet: Score" : return aggregated staffs
Processor -> "sheet: Score" : Call processMeasures()
Processor <- - "sheet: Score" : return aggregated measures   
Processor -> "sheet: Score" : Call processDuration()   
Processor <- - "sheet: Score" : return processed durations  
Parser <- - Processor : aggregate sheet
Presenter -> Parser : Call parse()
Parser -> Transform : Call toXML()
Transform -> "sheet: Score" : get sheet data
"sheet: Score" -> Transform : return sheet data
Parser <- - Transform : return sheet as XML string
Presenter <- - Parser : return converted output
View <- - Presenter : display any errors or warnings
User -> View : select output file
View -> Presenter : pass output file
Presenter -> Files : writeString()
View <- - Presenter : display any errors or warnings
@enduml

PlantUML version 1.2021.4beta3(Unknown compile time)
(GPL source distribution)
Java Runtime: Java(TM) SE Runtime Environment
JVM: Java HotSpot(TM) 64-Bit Server VM
Default Encoding: UTF-8
Language: en
Country: US
--></g></svg>