<?xml version="1.0" encoding="UTF-8" standalone="no"?>
<svg xmlns="http://www.w3.org/2000/svg" xmlns:xlink="http://www.w3.org/1999/xlink" contentScriptType="application/ecmascript" contentStyleType="text/css" height="540px" preserveAspectRatio="none" style="width:757px;height:540px;" version="1.1" viewBox="0 0 757 540" width="757px" zoomAndPan="magnify"><defs><filter height="300%" id="f1sdk98w6y06ww" width="300%" x="-1" y="-1"><feGaussianBlur result="blurOut" stdDeviation="2.0"/><feColorMatrix in="blurOut" result="blurOut2" type="matrix" values="0 0 0 0 0 0 0 0 0 0 0 0 0 0 0 0 0 0 .4 0"/><feOffset dx="4.0" dy="4.0" in="blurOut2" result="blurOut3"/><feBlend in="SourceGraphic" in2="blurOut3" mode="normal"/></filter></defs><g><line style="stroke:#A80036;stroke-width:1.0;stroke-dasharray:5.0,5.0;" x1="29" x2="29" y1="40.2969" y2="497.2891"/><line style="stroke:#A80036;stroke-width:1.0;stroke-dasharray:5.0,5.0;" x1="226.5" x2="226.5" y1="40.2969" y2="497.2891"/><line style="stroke:#A80036;stroke-width:1.0;stroke-dasharray:5.0,5.0;" x1="444" x2="444" y1="40.2969" y2="497.2891"/><line style="stroke:#A80036;stroke-width:1.0;stroke-dasharray:5.0,5.0;" x1="655" x2="655" y1="40.2969" y2="497.2891"/><line style="stroke:#A80036;stroke-width:1.0;stroke-dasharray:5.0,5.0;" x1="722" x2="722" y1="40.2969" y2="497.2891"/><rect fill="#FEFECE" filter="url(#f1sdk98w6y06ww)" height="30.2969" style="stroke:#A80036;stroke-width:1.5;" width="45" x="5" y="5"/><text fill="#000000" font-family="sans-serif" font-size="14" lengthAdjust="spacing" textLength="31" x="12" y="24.9951">User</text><rect fill="#FEFECE" filter="url(#f1sdk98w6y06ww)" height="30.2969" style="stroke:#A80036;stroke-width:1.5;" width="45" x="5" y="496.2891"/><text fill="#000000" font-family="sans-serif" font-size="14" lengthAdjust="spacing" textLength="31" x="12" y="516.2842">User</text><rect fill="#FEFECE" filter="url(#f1sdk98w6y06ww)" height="30.2969" style="stroke:#A80036;stroke-width:1.5;" width="48" x="200.5" y="5"/><text fill="#000000" font-family="sans-serif" font-size="14" lengthAdjust="spacing" textLength="34" x="207.5" y="24.9951">View</text><rect fill="#FEFECE" filter="url(#f1sdk98w6y06ww)" height="30.2969" style="stroke:#A80036;stroke-width:1.5;" width="48" x="200.5" y="496.2891"/><text fill="#000000" font-family="sans-serif" font-size="14" lengthAdjust="spacing" textLength="34" x="207.5" y="516.2842">View</text><rect fill="#FEFECE" filter="url(#f1sdk98w6y06ww)" height="30.2969" style="stroke:#A80036;stroke-width:1.5;" width="85" x="400" y="5"/><text fill="#000000" font-family="sans-serif" font-size="14" lengthAdjust="spacing" textLength="71" x="407" y="24.9951">Presenter</text><rect fill="#FEFECE" filter="url(#f1sdk98w6y06ww)" height="30.2969" style="stroke:#A80036;stroke-width:1.5;" width="85" x="400" y="496.2891"/><text fill="#000000" font-family="sans-serif" font-size="14" lengthAdjust="spacing" textLength="71" x="407" y="516.2842">Presenter</text><rect fill="#FEFECE" filter="url(#f1sdk98w6y06ww)" height="30.2969" style="stroke:#A80036;stroke-width:1.5;" width="59" x="624" y="5"/><text fill="#000000" font-family="sans-serif" font-size="14" lengthAdjust="spacing" textLength="45" x="631" y="24.9951">Parser</text><rect fill="#FEFECE" filter="url(#f1sdk98w6y06ww)" height="30.2969" style="stroke:#A80036;stroke-width:1.5;" width="59" x="624" y="496.2891"/><text fill="#000000" font-family="sans-serif" font-size="14" lengthAdjust="spacing" textLength="45" x="631" y="516.2842">Parser</text><rect fill="#FEFECE" filter="url(#f1sdk98w6y06ww)" height="30.2969" style="stroke:#A80036;stroke-width:1.5;" width="46" x="697" y="5"/><text fill="#000000" font-family="sans-serif" font-size="14" lengthAdjust="spacing" textLength="32" x="704" y="24.9951">Files</text><rect fill="#FEFECE" filter="url(#f1sdk98w6y06ww)" height="30.2969" style="stroke:#A80036;stroke-width:1.5;" width="46" x="697" y="496.2891"/><text fill="#000000" font-family="sans-serif" font-size="14" lengthAdjust="spacing" textLength="32" x="704" y="516.2842">Files</text><polygon fill="#A80036" points="214.5,67.4297,224.5,71.4297,214.5,75.4297,218.5,71.4297" style="stroke:#A80036;stroke-width:1.0;"/><line style="stroke:#A80036;stroke-width:1.0;" x1="29.5" x2="220.5" y1="71.4297" y2="71.4297"/><text fill="#000000" font-family="sans-serif" font-size="13" lengthAdjust="spacing" textLength="173" x="36.5" y="66.3638">Input text tab into text box</text><polygon fill="#A80036" points="432.5,96.5625,442.5,100.5625,432.5,104.5625,436.5,100.5625" style="stroke:#A80036;stroke-width:1.0;"/><line style="stroke:#A80036;stroke-width:1.0;" x1="226.5" x2="438.5" y1="100.5625" y2="100.5625"/><text fill="#000000" font-family="sans-serif" font-size="13" lengthAdjust="spacing" textLength="148" x="233.5" y="95.4966">Call detectInstrument()</text><polygon fill="#A80036" points="643.5,125.6953,653.5,129.6953,643.5,133.6953,647.5,129.6953" style="stroke:#A80036;stroke-width:1.0;"/><line style="stroke:#A80036;stroke-width:1.0;" x1="444.5" x2="649.5" y1="129.6953" y2="129.6953"/><text fill="#000000" font-family="sans-serif" font-size="13" lengthAdjust="spacing" textLength="187" x="451.5" y="124.6294">Call getDetectedInstrument()</text><polygon fill="#A80036" points="455.5,154.8281,445.5,158.8281,455.5,162.8281,451.5,158.8281" style="stroke:#A80036;stroke-width:1.0;"/><line style="stroke:#A80036;stroke-width:1.0;stroke-dasharray:2.0,2.0;" x1="449.5" x2="654.5" y1="158.8281" y2="158.8281"/><text fill="#000000" font-family="sans-serif" font-size="13" lengthAdjust="spacing" textLength="174" x="461.5" y="153.7622">return detected instrument</text><polygon fill="#A80036" points="237.5,183.9609,227.5,187.9609,237.5,191.9609,233.5,187.9609" style="stroke:#A80036;stroke-width:1.0;"/><line style="stroke:#A80036;stroke-width:1.0;stroke-dasharray:2.0,2.0;" x1="231.5" x2="443.5" y1="187.9609" y2="187.9609"/><text fill="#000000" font-family="sans-serif" font-size="13" lengthAdjust="spacing" textLength="178" x="243.5" y="182.895">Update selected instrument</text><polygon fill="#A80036" points="214.5,213.0938,224.5,217.0938,214.5,221.0938,218.5,217.0938" style="stroke:#A80036;stroke-width:1.0;"/><line style="stroke:#A80036;stroke-width:1.0;" x1="29.5" x2="220.5" y1="217.0938" y2="217.0938"/><text fill="#000000" font-family="sans-serif" font-size="13" lengthAdjust="spacing" textLength="158" x="36.5" y="212.0278">Click "Convert and Save"</text><polygon fill="#A80036" points="432.5,242.2266,442.5,246.2266,432.5,250.2266,436.5,246.2266" style="stroke:#A80036;stroke-width:1.0;"/><line style="stroke:#A80036;stroke-width:1.0;" x1="226.5" x2="438.5" y1="246.2266" y2="246.2266"/><text fill="#000000" font-family="sans-serif" font-size="13" lengthAdjust="spacing" textLength="143" x="233.5" y="241.1606">Call convertAndSave()</text><polygon fill="#A80036" points="432.5,271.3594,442.5,275.3594,432.5,279.3594,436.5,275.3594" style="stroke:#A80036;stroke-width:1.0;"/><line style="stroke:#A80036;stroke-width:1.0;" x1="226.5" x2="438.5" y1="275.3594" y2="275.3594"/><text fill="#000000" font-family="sans-serif" font-size="13" lengthAdjust="spacing" textLength="114" x="233.5" y="270.2935">provide input text</text><polygon fill="#A80036" points="643.5,300.4922,653.5,304.4922,643.5,308.4922,647.5,304.4922" style="stroke:#A80036;stroke-width:1.0;"/><line style="stroke:#A80036;stroke-width:1.0;" x1="444.5" x2="649.5" y1="304.4922" y2="304.4922"/><text fill="#000000" font-family="sans-serif" font-size="13" lengthAdjust="spacing" textLength="114" x="451.5" y="299.4263">provide input text</text><polygon fill="#A80036" points="455.5,329.625,445.5,333.625,455.5,337.625,451.5,333.625" style="stroke:#A80036;stroke-width:1.0;"/><line style="stroke:#A80036;stroke-width:1.0;stroke-dasharray:2.0,2.0;" x1="449.5" x2="654.5" y1="333.625" y2="333.625"/><text fill="#000000" font-family="sans-serif" font-size="13" lengthAdjust="spacing" textLength="154" x="461.5" y="328.5591">return converted output</text><polygon fill="#A80036" points="237.5,358.7578,227.5,362.7578,237.5,366.7578,233.5,362.7578" style="stroke:#A80036;stroke-width:1.0;"/><line style="stroke:#A80036;stroke-width:1.0;stroke-dasharray:2.0,2.0;" x1="231.5" x2="443.5" y1="362.7578" y2="362.7578"/><text fill="#000000" font-family="sans-serif" font-size="13" lengthAdjust="spacing" textLength="194" x="243.5" y="357.6919">display any errors or warnings</text><polygon fill="#A80036" points="214.5,387.8906,224.5,391.8906,214.5,395.8906,218.5,391.8906" style="stroke:#A80036;stroke-width:1.0;"/><line style="stroke:#A80036;stroke-width:1.0;" x1="29.5" x2="220.5" y1="391.8906" y2="391.8906"/><text fill="#000000" font-family="sans-serif" font-size="13" lengthAdjust="spacing" textLength="107" x="36.5" y="386.8247">select output file</text><polygon fill="#A80036" points="432.5,417.0234,442.5,421.0234,432.5,425.0234,436.5,421.0234" style="stroke:#A80036;stroke-width:1.0;"/><line style="stroke:#A80036;stroke-width:1.0;" x1="226.5" x2="438.5" y1="421.0234" y2="421.0234"/><text fill="#000000" font-family="sans-serif" font-size="13" lengthAdjust="spacing" textLength="99" x="233.5" y="415.9575">pass output file</text><polygon fill="#A80036" points="710,446.1563,720,450.1563,710,454.1563,714,450.1563" style="stroke:#A80036;stroke-width:1.0;"/><line style="stroke:#A80036;stroke-width:1.0;" x1="444.5" x2="716" y1="450.1563" y2="450.1563"/><text fill="#000000" font-family="sans-serif" font-size="13" lengthAdjust="spacing" textLength="79" x="451.5" y="445.0903">writeString()</text><polygon fill="#A80036" points="237.5,475.2891,227.5,479.2891,237.5,483.2891,233.5,479.2891" style="stroke:#A80036;stroke-width:1.0;"/><line style="stroke:#A80036;stroke-width:1.0;stroke-dasharray:2.0,2.0;" x1="231.5" x2="443.5" y1="479.2891" y2="479.2891"/><text fill="#000000" font-family="sans-serif" font-size="13" lengthAdjust="spacing" textLength="194" x="243.5" y="474.2231">display any errors or warnings</text><!--MD5=[05bfada7da241334529a5c77aefeee73]
@startuml
User -> View : Input text tab into text box
View -> Presenter : Call detectInstrument()
Presenter -> Parser : Call getDetectedInstrument()
Presenter <- - Parser : return detected instrument
View <- - Presenter : Update selected instrument
User -> View : Click "Convert and Save"
View -> Presenter : Call convertAndSave()
View -> Presenter : provide input text
Presenter -> Parser : provide input text
Presenter <- - Parser : return converted output
View <- - Presenter : display any errors or warnings
User -> View : select output file
View -> Presenter : pass output file
Presenter -> Files : writeString()
View <- - Presenter : display any errors or warnings
@enduml

PlantUML version 1.2021.4beta2(Unknown compile time)
(GPL source distribution)
Java Runtime: Java(TM) SE Runtime Environment
JVM: Java HotSpot(TM) 64-Bit Server VM
Default Encoding: UTF-8
Language: en
Country: US
--></g></svg>