<?xml version="1.0" encoding="UTF-8" standalone="no"?>
<svg xmlns="http://www.w3.org/2000/svg" xmlns:xlink="http://www.w3.org/1999/xlink" contentScriptType="application/ecmascript" contentStyleType="text/css" height="1196px" preserveAspectRatio="none" style="width:1515px;height:1196px;" version="1.1" viewBox="0 0 1515 1196" width="1515px" zoomAndPan="magnify"><defs><filter height="300%" id="f1j6rcc0978vor" width="300%" x="-1" y="-1"><feGaussianBlur result="blurOut" stdDeviation="2.0"/><feColorMatrix in="blurOut" result="blurOut2" type="matrix" values="0 0 0 0 0 0 0 0 0 0 0 0 0 0 0 0 0 0 .4 0"/><feOffset dx="4.0" dy="4.0" in="blurOut2" result="blurOut3"/><feBlend in="SourceGraphic" in2="blurOut3" mode="normal"/></filter></defs><g><line style="stroke:#A80036;stroke-width:1.0;stroke-dasharray:5.0,5.0;" x1="29" x2="29" y1="40.2969" y2="1153.3438"/><line style="stroke:#A80036;stroke-width:1.0;stroke-dasharray:5.0,5.0;" x1="226.5" x2="226.5" y1="40.2969" y2="1153.3438"/><line style="stroke:#A80036;stroke-width:1.0;stroke-dasharray:5.0,5.0;" x1="444" x2="444" y1="40.2969" y2="1153.3438"/><line style="stroke:#A80036;stroke-width:1.0;stroke-dasharray:5.0,5.0;" x1="655" x2="655" y1="40.2969" y2="1153.3438"/><line style="stroke:#A80036;stroke-width:1.0;stroke-dasharray:5.0,5.0;" x1="785.5" x2="785.5" y1="40.2969" y2="1153.3438"/><line style="stroke:#A80036;stroke-width:1.0;stroke-dasharray:5.0,5.0;" x1="929.5" x2="929.5" y1="40.2969" y2="1153.3438"/><line style="stroke:#A80036;stroke-width:1.0;stroke-dasharray:5.0,5.0;" x1="1100.5" x2="1100.5" y1="40.2969" y2="1153.3438"/><line style="stroke:#A80036;stroke-width:1.0;stroke-dasharray:5.0,5.0;" x1="1262.5" x2="1262.5" y1="40.2969" y2="1153.3438"/><line style="stroke:#A80036;stroke-width:1.0;stroke-dasharray:5.0,5.0;" x1="1399" x2="1399" y1="40.2969" y2="1153.3438"/><line style="stroke:#A80036;stroke-width:1.0;stroke-dasharray:5.0,5.0;" x1="1480" x2="1480" y1="40.2969" y2="1153.3438"/><rect fill="#FEFECE" filter="url(#f1j6rcc0978vor)" height="30.2969" style="stroke:#A80036;stroke-width:1.5;" width="45" x="5" y="5"/><text fill="#000000" font-family="sans-serif" font-size="14" lengthAdjust="spacing" textLength="31" x="12" y="24.9951">User</text><rect fill="#FEFECE" filter="url(#f1j6rcc0978vor)" height="30.2969" style="stroke:#A80036;stroke-width:1.5;" width="45" x="5" y="1152.3438"/><text fill="#000000" font-family="sans-serif" font-size="14" lengthAdjust="spacing" textLength="31" x="12" y="1172.3389">User</text><rect fill="#FEFECE" filter="url(#f1j6rcc0978vor)" height="30.2969" style="stroke:#A80036;stroke-width:1.5;" width="48" x="200.5" y="5"/><text fill="#000000" font-family="sans-serif" font-size="14" lengthAdjust="spacing" textLength="34" x="207.5" y="24.9951">View</text><rect fill="#FEFECE" filter="url(#f1j6rcc0978vor)" height="30.2969" style="stroke:#A80036;stroke-width:1.5;" width="48" x="200.5" y="1152.3438"/><text fill="#000000" font-family="sans-serif" font-size="14" lengthAdjust="spacing" textLength="34" x="207.5" y="1172.3389">View</text><rect fill="#FEFECE" filter="url(#f1j6rcc0978vor)" height="30.2969" style="stroke:#A80036;stroke-width:1.5;" width="85" x="400" y="5"/><text fill="#000000" font-family="sans-serif" font-size="14" lengthAdjust="spacing" textLength="71" x="407" y="24.9951">Presenter</text><rect fill="#FEFECE" filter="url(#f1j6rcc0978vor)" height="30.2969" style="stroke:#A80036;stroke-width:1.5;" width="85" x="400" y="1152.3438"/><text fill="#000000" font-family="sans-serif" font-size="14" lengthAdjust="spacing" textLength="71" x="407" y="1172.3389">Presenter</text><rect fill="#FEFECE" filter="url(#f1j6rcc0978vor)" height="30.2969" style="stroke:#A80036;stroke-width:1.5;" width="59" x="624" y="5"/><text fill="#000000" font-family="sans-serif" font-size="14" lengthAdjust="spacing" textLength="45" x="631" y="24.9951">Parser</text><rect fill="#FEFECE" filter="url(#f1j6rcc0978vor)" height="30.2969" style="stroke:#A80036;stroke-width:1.5;" width="59" x="624" y="1152.3438"/><text fill="#000000" font-family="sans-serif" font-size="14" lengthAdjust="spacing" textLength="45" x="631" y="1172.3389">Parser</text><rect fill="#FEFECE" filter="url(#f1j6rcc0978vor)" height="30.2969" style="stroke:#A80036;stroke-width:1.5;" width="84" x="741.5" y="5"/><text fill="#000000" font-family="sans-serif" font-size="14" lengthAdjust="spacing" textLength="70" x="748.5" y="24.9951">Processor</text><rect fill="#FEFECE" filter="url(#f1j6rcc0978vor)" height="30.2969" style="stroke:#A80036;stroke-width:1.5;" width="84" x="741.5" y="1152.3438"/><text fill="#000000" font-family="sans-serif" font-size="14" lengthAdjust="spacing" textLength="70" x="748.5" y="1172.3389">Processor</text><rect fill="#FEFECE" filter="url(#f1j6rcc0978vor)" height="30.2969" style="stroke:#A80036;stroke-width:1.5;" width="160" x="847.5" y="5"/><text fill="#000000" font-family="sans-serif" font-size="14" lengthAdjust="spacing" textLength="146" x="854.5" y="24.9951">SerializeGuitarScore</text><rect fill="#FEFECE" filter="url(#f1j6rcc0978vor)" height="30.2969" style="stroke:#A80036;stroke-width:1.5;" width="160" x="847.5" y="1152.3438"/><text fill="#000000" font-family="sans-serif" font-size="14" lengthAdjust="spacing" textLength="146" x="854.5" y="1172.3389">SerializeGuitarScore</text><rect fill="#FEFECE" filter="url(#f1j6rcc0978vor)" height="30.2969" style="stroke:#A80036;stroke-width:1.5;" width="155" x="1021.5" y="5"/><text fill="#000000" font-family="sans-serif" font-size="14" lengthAdjust="spacing" textLength="141" x="1028.5" y="24.9951">SerializeDrumScore</text><rect fill="#FEFECE" filter="url(#f1j6rcc0978vor)" height="30.2969" style="stroke:#A80036;stroke-width:1.5;" width="155" x="1021.5" y="1152.3438"/><text fill="#000000" font-family="sans-serif" font-size="14" lengthAdjust="spacing" textLength="141" x="1028.5" y="1172.3389">SerializeDrumScore</text><rect fill="#FEFECE" filter="url(#f1j6rcc0978vor)" height="30.2969" style="stroke:#A80036;stroke-width:1.5;" width="105" x="1208.5" y="5"/><text fill="#000000" font-family="sans-serif" font-size="14" lengthAdjust="spacing" textLength="91" x="1215.5" y="24.9951">sheet: Score</text><rect fill="#FEFECE" filter="url(#f1j6rcc0978vor)" height="30.2969" style="stroke:#A80036;stroke-width:1.5;" width="105" x="1208.5" y="1152.3438"/><text fill="#000000" font-family="sans-serif" font-size="14" lengthAdjust="spacing" textLength="91" x="1215.5" y="1172.3389">sheet: Score</text><rect fill="#FEFECE" filter="url(#f1j6rcc0978vor)" height="30.2969" style="stroke:#A80036;stroke-width:1.5;" width="88" x="1353" y="5"/><text fill="#000000" font-family="sans-serif" font-size="14" lengthAdjust="spacing" textLength="74" x="1360" y="24.9951">Transform</text><rect fill="#FEFECE" filter="url(#f1j6rcc0978vor)" height="30.2969" style="stroke:#A80036;stroke-width:1.5;" width="88" x="1353" y="1152.3438"/><text fill="#000000" font-family="sans-serif" font-size="14" lengthAdjust="spacing" textLength="74" x="1360" y="1172.3389">Transform</text><rect fill="#FEFECE" filter="url(#f1j6rcc0978vor)" height="30.2969" style="stroke:#A80036;stroke-width:1.5;" width="46" x="1455" y="5"/><text fill="#000000" font-family="sans-serif" font-size="14" lengthAdjust="spacing" textLength="32" x="1462" y="24.9951">Files</text><rect fill="#FEFECE" filter="url(#f1j6rcc0978vor)" height="30.2969" style="stroke:#A80036;stroke-width:1.5;" width="46" x="1455" y="1152.3438"/><text fill="#000000" font-family="sans-serif" font-size="14" lengthAdjust="spacing" textLength="32" x="1462" y="1172.3389">Files</text><polygon fill="#A80036" points="214.5,67.4297,224.5,71.4297,214.5,75.4297,218.5,71.4297" style="stroke:#A80036;stroke-width:1.0;"/><line style="stroke:#A80036;stroke-width:1.0;" x1="29.5" x2="220.5" y1="71.4297" y2="71.4297"/><text fill="#000000" font-family="sans-serif" font-size="13" lengthAdjust="spacing" textLength="173" x="36.5" y="66.3638">Input text tab into text box</text><polygon fill="#A80036" points="432.5,96.5625,442.5,100.5625,432.5,104.5625,436.5,100.5625" style="stroke:#A80036;stroke-width:1.0;"/><line style="stroke:#A80036;stroke-width:1.0;" x1="226.5" x2="438.5" y1="100.5625" y2="100.5625"/><text fill="#000000" font-family="sans-serif" font-size="13" lengthAdjust="spacing" textLength="148" x="233.5" y="95.4966">Call detectInstrument()</text><polygon fill="#A80036" points="643.5,125.6953,653.5,129.6953,643.5,133.6953,647.5,129.6953" style="stroke:#A80036;stroke-width:1.0;"/><line style="stroke:#A80036;stroke-width:1.0;" x1="444.5" x2="649.5" y1="129.6953" y2="129.6953"/><text fill="#000000" font-family="sans-serif" font-size="13" lengthAdjust="spacing" textLength="187" x="451.5" y="124.6294">Call getDetectedInstrument()</text><polygon fill="#A80036" points="455.5,154.8281,445.5,158.8281,455.5,162.8281,451.5,158.8281" style="stroke:#A80036;stroke-width:1.0;"/><line style="stroke:#A80036;stroke-width:1.0;stroke-dasharray:2.0,2.0;" x1="449.5" x2="654.5" y1="158.8281" y2="158.8281"/><text fill="#000000" font-family="sans-serif" font-size="13" lengthAdjust="spacing" textLength="174" x="461.5" y="153.7622">return detected instrument</text><polygon fill="#A80036" points="237.5,183.9609,227.5,187.9609,237.5,191.9609,233.5,187.9609" style="stroke:#A80036;stroke-width:1.0;"/><line style="stroke:#A80036;stroke-width:1.0;stroke-dasharray:2.0,2.0;" x1="231.5" x2="443.5" y1="187.9609" y2="187.9609"/><text fill="#000000" font-family="sans-serif" font-size="13" lengthAdjust="spacing" textLength="178" x="243.5" y="182.895">Update selected instrument</text><polygon fill="#A80036" points="214.5,213.0938,224.5,217.0938,214.5,221.0938,218.5,217.0938" style="stroke:#A80036;stroke-width:1.0;"/><line style="stroke:#A80036;stroke-width:1.0;" x1="29.5" x2="220.5" y1="217.0938" y2="217.0938"/><text fill="#000000" font-family="sans-serif" font-size="13" lengthAdjust="spacing" textLength="99" x="36.5" y="212.0278">Input metadata</text><polygon fill="#A80036" points="214.5,242.2266,224.5,246.2266,214.5,250.2266,218.5,246.2266" style="stroke:#A80036;stroke-width:1.0;"/><line style="stroke:#A80036;stroke-width:1.0;" x1="29.5" x2="220.5" y1="246.2266" y2="246.2266"/><text fill="#000000" font-family="sans-serif" font-size="13" lengthAdjust="spacing" textLength="158" x="36.5" y="241.1606">Click "Convert and Save"</text><polygon fill="#A80036" points="432.5,271.3594,442.5,275.3594,432.5,279.3594,436.5,275.3594" style="stroke:#A80036;stroke-width:1.0;"/><line style="stroke:#A80036;stroke-width:1.0;" x1="226.5" x2="438.5" y1="275.3594" y2="275.3594"/><text fill="#000000" font-family="sans-serif" font-size="13" lengthAdjust="spacing" textLength="143" x="233.5" y="270.2935">Call convertAndSave()</text><polygon fill="#A80036" points="432.5,315.625,442.5,319.625,432.5,323.625,436.5,319.625" style="stroke:#A80036;stroke-width:1.0;"/><line style="stroke:#A80036;stroke-width:1.0;" x1="226.5" x2="438.5" y1="319.625" y2="319.625"/><text fill="#000000" font-family="sans-serif" font-size="13" lengthAdjust="spacing" textLength="118" x="233.5" y="299.4263">provide input text,</text><text fill="#000000" font-family="sans-serif" font-size="13" lengthAdjust="spacing" textLength="165" x="233.5" y="314.5591">instrument and metadata</text><polygon fill="#A80036" points="643.5,344.7578,653.5,348.7578,643.5,352.7578,647.5,348.7578" style="stroke:#A80036;stroke-width:1.0;"/><line style="stroke:#A80036;stroke-width:1.0;" x1="444.5" x2="649.5" y1="348.7578" y2="348.7578"/><text fill="#000000" font-family="sans-serif" font-size="13" lengthAdjust="spacing" textLength="114" x="451.5" y="343.6919">provide input text</text><polygon fill="#A80036" points="773.5,373.8906,783.5,377.8906,773.5,381.8906,777.5,377.8906" style="stroke:#A80036;stroke-width:1.0;"/><line style="stroke:#A80036;stroke-width:1.0;" x1="655.5" x2="779.5" y1="377.8906" y2="377.8906"/><text fill="#000000" font-family="sans-serif" font-size="13" lengthAdjust="spacing" textLength="87" x="662.5" y="372.8247">Call process()</text><polygon fill="#A80036" points="917.5,403.0234,927.5,407.0234,917.5,411.0234,921.5,407.0234" style="stroke:#A80036;stroke-width:1.0;"/><line style="stroke:#A80036;stroke-width:1.0;" x1="785.5" x2="923.5" y1="407.0234" y2="407.0234"/><text fill="#000000" font-family="sans-serif" font-size="13" lengthAdjust="spacing" textLength="63" x="792.5" y="401.9575">Call visit()</text><polygon fill="#A80036" points="1089,432.1563,1099,436.1563,1089,440.1563,1093,436.1563" style="stroke:#A80036;stroke-width:1.0;"/><line style="stroke:#A80036;stroke-width:1.0;" x1="785.5" x2="1095" y1="436.1563" y2="436.1563"/><text fill="#000000" font-family="sans-serif" font-size="13" lengthAdjust="spacing" textLength="63" x="792.5" y="431.0903">Call visit()</text><polygon fill="#A80036" points="1251,461.2891,1261,465.2891,1251,469.2891,1255,465.2891" style="stroke:#A80036;stroke-width:1.0;"/><line style="stroke:#A80036;stroke-width:1.0;" x1="929.5" x2="1257" y1="465.2891" y2="465.2891"/><text fill="#000000" font-family="sans-serif" font-size="13" lengthAdjust="spacing" textLength="141" x="936.5" y="460.2231">construct guitar Score</text><polygon fill="#A80036" points="940.5,490.4219,930.5,494.4219,940.5,498.4219,936.5,494.4219" style="stroke:#A80036;stroke-width:1.0;"/><line style="stroke:#A80036;stroke-width:1.0;stroke-dasharray:2.0,2.0;" x1="934.5" x2="1262" y1="494.4219" y2="494.4219"/><text fill="#000000" font-family="sans-serif" font-size="13" lengthAdjust="spacing" textLength="120" x="946.5" y="489.356">return guitar sheet</text><polygon fill="#A80036" points="796.5,519.5547,786.5,523.5547,796.5,527.5547,792.5,523.5547" style="stroke:#A80036;stroke-width:1.0;"/><line style="stroke:#A80036;stroke-width:1.0;stroke-dasharray:2.0,2.0;" x1="790.5" x2="928.5" y1="523.5547" y2="523.5547"/><text fill="#000000" font-family="sans-serif" font-size="13" lengthAdjust="spacing" textLength="120" x="802.5" y="518.4888">return guitar sheet</text><polygon fill="#A80036" points="1251,548.6875,1261,552.6875,1251,556.6875,1255,552.6875" style="stroke:#A80036;stroke-width:1.0;"/><line style="stroke:#A80036;stroke-width:1.0;" x1="1101" x2="1257" y1="552.6875" y2="552.6875"/><text fill="#000000" font-family="sans-serif" font-size="13" lengthAdjust="spacing" textLength="138" x="1108" y="547.6216">construct drum Score</text><polygon fill="#A80036" points="1112,577.8203,1102,581.8203,1112,585.8203,1108,581.8203" style="stroke:#A80036;stroke-width:1.0;"/><line style="stroke:#A80036;stroke-width:1.0;stroke-dasharray:2.0,2.0;" x1="1106" x2="1262" y1="581.8203" y2="581.8203"/><text fill="#000000" font-family="sans-serif" font-size="13" lengthAdjust="spacing" textLength="117" x="1118" y="576.7544">return drum sheet</text><polygon fill="#A80036" points="796.5,606.9531,786.5,610.9531,796.5,614.9531,792.5,610.9531" style="stroke:#A80036;stroke-width:1.0;"/><line style="stroke:#A80036;stroke-width:1.0;stroke-dasharray:2.0,2.0;" x1="790.5" x2="1100" y1="610.9531" y2="610.9531"/><text fill="#000000" font-family="sans-serif" font-size="13" lengthAdjust="spacing" textLength="117" x="802.5" y="605.8872">return drum sheet</text><polygon fill="#A80036" points="1251,636.0859,1261,640.0859,1251,644.0859,1255,640.0859" style="stroke:#A80036;stroke-width:1.0;"/><line style="stroke:#A80036;stroke-width:1.0;" x1="785.5" x2="1257" y1="640.0859" y2="640.0859"/><text fill="#000000" font-family="sans-serif" font-size="13" lengthAdjust="spacing" textLength="56" x="792.5" y="635.02">Call init()</text><polygon fill="#A80036" points="796.5,665.2188,786.5,669.2188,796.5,673.2188,792.5,669.2188" style="stroke:#A80036;stroke-width:1.0;"/><line style="stroke:#A80036;stroke-width:1.0;stroke-dasharray:2.0,2.0;" x1="790.5" x2="1262" y1="669.2188" y2="669.2188"/><text fill="#000000" font-family="sans-serif" font-size="13" lengthAdjust="spacing" textLength="158" x="802.5" y="664.1528">return aggregated staffs</text><polygon fill="#A80036" points="1251,694.3516,1261,698.3516,1251,702.3516,1255,698.3516" style="stroke:#A80036;stroke-width:1.0;"/><line style="stroke:#A80036;stroke-width:1.0;" x1="785.5" x2="1257" y1="698.3516" y2="698.3516"/><text fill="#000000" font-family="sans-serif" font-size="13" lengthAdjust="spacing" textLength="148" x="792.5" y="693.2856">Call processMeasures()</text><polygon fill="#A80036" points="796.5,723.4844,786.5,727.4844,796.5,731.4844,792.5,727.4844" style="stroke:#A80036;stroke-width:1.0;"/><line style="stroke:#A80036;stroke-width:1.0;stroke-dasharray:2.0,2.0;" x1="790.5" x2="1262" y1="727.4844" y2="727.4844"/><text fill="#000000" font-family="sans-serif" font-size="13" lengthAdjust="spacing" textLength="185" x="802.5" y="722.4185">return aggregated measures</text><polygon fill="#A80036" points="1251,752.6172,1261,756.6172,1251,760.6172,1255,756.6172" style="stroke:#A80036;stroke-width:1.0;"/><line style="stroke:#A80036;stroke-width:1.0;" x1="785.5" x2="1257" y1="756.6172" y2="756.6172"/><text fill="#000000" font-family="sans-serif" font-size="13" lengthAdjust="spacing" textLength="142" x="792.5" y="751.5513">Call processDuration()</text><polygon fill="#A80036" points="796.5,781.75,786.5,785.75,796.5,789.75,792.5,785.75" style="stroke:#A80036;stroke-width:1.0;"/><line style="stroke:#A80036;stroke-width:1.0;stroke-dasharray:2.0,2.0;" x1="790.5" x2="1262" y1="785.75" y2="785.75"/><text fill="#000000" font-family="sans-serif" font-size="13" lengthAdjust="spacing" textLength="173" x="802.5" y="780.6841">return processed durations</text><polygon fill="#A80036" points="666.5,810.8828,656.5,814.8828,666.5,818.8828,662.5,814.8828" style="stroke:#A80036;stroke-width:1.0;"/><line style="stroke:#A80036;stroke-width:1.0;stroke-dasharray:2.0,2.0;" x1="660.5" x2="784.5" y1="814.8828" y2="814.8828"/><text fill="#000000" font-family="sans-serif" font-size="13" lengthAdjust="spacing" textLength="106" x="672.5" y="809.8169">aggregate sheet</text><polygon fill="#A80036" points="643.5,840.0156,653.5,844.0156,643.5,848.0156,647.5,844.0156" style="stroke:#A80036;stroke-width:1.0;"/><line style="stroke:#A80036;stroke-width:1.0;" x1="444.5" x2="649.5" y1="844.0156" y2="844.0156"/><text fill="#000000" font-family="sans-serif" font-size="13" lengthAdjust="spacing" textLength="73" x="451.5" y="838.9497">Call parse()</text><polygon fill="#A80036" points="1387,869.1484,1397,873.1484,1387,877.1484,1391,873.1484" style="stroke:#A80036;stroke-width:1.0;"/><line style="stroke:#A80036;stroke-width:1.0;" x1="655.5" x2="1393" y1="873.1484" y2="873.1484"/><text fill="#000000" font-family="sans-serif" font-size="13" lengthAdjust="spacing" textLength="76" x="662.5" y="868.0825">Call toXML()</text><polygon fill="#A80036" points="1274,898.2813,1264,902.2813,1274,906.2813,1270,902.2813" style="stroke:#A80036;stroke-width:1.0;"/><line style="stroke:#A80036;stroke-width:1.0;" x1="1268" x2="1398" y1="902.2813" y2="902.2813"/><text fill="#000000" font-family="sans-serif" font-size="13" lengthAdjust="spacing" textLength="94" x="1280" y="897.2153">get sheet data</text><polygon fill="#A80036" points="1387,927.4141,1397,931.4141,1387,935.4141,1391,931.4141" style="stroke:#A80036;stroke-width:1.0;"/><line style="stroke:#A80036;stroke-width:1.0;" x1="1263" x2="1393" y1="931.4141" y2="931.4141"/><text fill="#000000" font-family="sans-serif" font-size="13" lengthAdjust="spacing" textLength="112" x="1270" y="926.3481">return sheet data</text><polygon fill="#A80036" points="666.5,956.5469,656.5,960.5469,666.5,964.5469,662.5,960.5469" style="stroke:#A80036;stroke-width:1.0;"/><line style="stroke:#A80036;stroke-width:1.0;stroke-dasharray:2.0,2.0;" x1="660.5" x2="1398" y1="960.5469" y2="960.5469"/><text fill="#000000" font-family="sans-serif" font-size="13" lengthAdjust="spacing" textLength="168" x="672.5" y="955.481">return sheet as XML string</text><polygon fill="#A80036" points="455.5,985.6797,445.5,989.6797,455.5,993.6797,451.5,989.6797" style="stroke:#A80036;stroke-width:1.0;"/><line style="stroke:#A80036;stroke-width:1.0;stroke-dasharray:2.0,2.0;" x1="449.5" x2="654.5" y1="989.6797" y2="989.6797"/><text fill="#000000" font-family="sans-serif" font-size="13" lengthAdjust="spacing" textLength="154" x="461.5" y="984.6138">return converted output</text><polygon fill="#A80036" points="237.5,1014.8125,227.5,1018.8125,237.5,1022.8125,233.5,1018.8125" style="stroke:#A80036;stroke-width:1.0;"/><line style="stroke:#A80036;stroke-width:1.0;stroke-dasharray:2.0,2.0;" x1="231.5" x2="443.5" y1="1018.8125" y2="1018.8125"/><text fill="#000000" font-family="sans-serif" font-size="13" lengthAdjust="spacing" textLength="194" x="243.5" y="1013.7466">display any errors or warnings</text><polygon fill="#A80036" points="214.5,1043.9453,224.5,1047.9453,214.5,1051.9453,218.5,1047.9453" style="stroke:#A80036;stroke-width:1.0;"/><line style="stroke:#A80036;stroke-width:1.0;" x1="29.5" x2="220.5" y1="1047.9453" y2="1047.9453"/><text fill="#000000" font-family="sans-serif" font-size="13" lengthAdjust="spacing" textLength="107" x="36.5" y="1042.8794">select output file</text><polygon fill="#A80036" points="432.5,1073.0781,442.5,1077.0781,432.5,1081.0781,436.5,1077.0781" style="stroke:#A80036;stroke-width:1.0;"/><line style="stroke:#A80036;stroke-width:1.0;" x1="226.5" x2="438.5" y1="1077.0781" y2="1077.0781"/><text fill="#000000" font-family="sans-serif" font-size="13" lengthAdjust="spacing" textLength="99" x="233.5" y="1072.0122">pass output file</text><polygon fill="#A80036" points="1468,1102.2109,1478,1106.2109,1468,1110.2109,1472,1106.2109" style="stroke:#A80036;stroke-width:1.0;"/><line style="stroke:#A80036;stroke-width:1.0;" x1="444.5" x2="1474" y1="1106.2109" y2="1106.2109"/><text fill="#000000" font-family="sans-serif" font-size="13" lengthAdjust="spacing" textLength="79" x="451.5" y="1101.145">writeString()</text><polygon fill="#A80036" points="237.5,1131.3438,227.5,1135.3438,237.5,1139.3438,233.5,1135.3438" style="stroke:#A80036;stroke-width:1.0;"/><line style="stroke:#A80036;stroke-width:1.0;stroke-dasharray:2.0,2.0;" x1="231.5" x2="443.5" y1="1135.3438" y2="1135.3438"/><text fill="#000000" font-family="sans-serif" font-size="13" lengthAdjust="spacing" textLength="194" x="243.5" y="1130.2778">display any errors or warnings</text><!--MD5=[a42e4cf95f6f538834395b09f69d3b67]
@startuml
User -> View : Input text tab into text box
View -> Presenter : Call detectInstrument()
Presenter -> Parser : Call getDetectedInstrument()
Presenter <- - Parser : return detected instrument
View <- - Presenter : Update selected instrument
User -> View : Input metadata
User -> View : Click "Convert and Save"
View -> Presenter : Call convertAndSave()
View -> Presenter : provide input text, \ninstrument and metadata
Presenter -> Parser : provide input text
Parser -> Processor : Call process()
Processor -> SerializeGuitarScore : Call visit()
Processor -> SerializeDrumScore : Call visit()
SerializeGuitarScore -> "sheet: Score" : construct guitar Score
SerializeGuitarScore <- - "sheet: Score" : return guitar sheet
Processor <- - SerializeGuitarScore : return guitar sheet
SerializeDrumScore -> "sheet: Score" : construct drum Score
SerializeDrumScore <- - "sheet: Score" : return drum sheet
Processor <- - SerializeDrumScore : return drum sheet
Processor -> "sheet: Score" : Call init()
Processor <- - "sheet: Score" : return aggregated staffs
Processor -> "sheet: Score" : Call processMeasures()
Processor <- - "sheet: Score" : return aggregated measures   
Processor -> "sheet: Score" : Call processDuration()   
Processor <- - "sheet: Score" : return processed durations  
Parser <- - Processor : aggregate sheet
Presenter -> Parser : Call parse()
Parser -> Transform : Call toXML()
Transform -> "sheet: Score" : get sheet data
"sheet: Score" -> Transform : return sheet data
Parser <- - Transform : return sheet as XML string
Presenter <- - Parser : return converted output
View <- - Presenter : display any errors or warnings
User -> View : select output file
View -> Presenter : pass output file
Presenter -> Files : writeString()
View <- - Presenter : display any errors or warnings
@enduml

PlantUML version 1.2021.5beta3(Unknown compile time)
(GPL source distribution)
Java Runtime: Java(TM) SE Runtime Environment
JVM: Java HotSpot(TM) 64-Bit Server VM
Default Encoding: UTF-8
Language: en
Country: US
--></g></svg>