<?xml version="1.0" encoding="UTF-8" standalone="no"?>
<svg xmlns="http://www.w3.org/2000/svg" xmlns:xlink="http://www.w3.org/1999/xlink" contentScriptType="application/ecmascript" contentStyleType="text/css" height="579px" preserveAspectRatio="none" style="width:841px;height:579px;" version="1.1" viewBox="0 0 841 579" width="841px" zoomAndPan="magnify"><defs><filter height="300%" id="f1arp158knhkvv" width="300%" x="-1" y="-1"><feGaussianBlur result="blurOut" stdDeviation="2.0"/><feColorMatrix in="blurOut" result="blurOut2" type="matrix" values="0 0 0 0 0 0 0 0 0 0 0 0 0 0 0 0 0 0 .4 0"/><feOffset dx="4.0" dy="4.0" in="blurOut2" result="blurOut3"/><feBlend in="SourceGraphic" in2="blurOut3" mode="normal"/></filter></defs><g><!--MD5=[c045e12321b83266d36d22b9096c24ea]
class View--><rect codeLine="1" fill="#FEFECE" filter="url(#f1arp158knhkvv)" height="124.8281" id="View" style="stroke:#A80036;stroke-width:1.5;" width="349" x="338" y="7"/><ellipse cx="494.25" cy="23" fill="#B4A7E5" rx="11" ry="11" style="stroke:#A80036;stroke-width:1.0;"/><path d="M495.2031,19.7813 L496.9219,19.7813 C497.3125,19.7813 497.5,19.75 497.625,19.6719 C497.8906,19.5156 498.0313,19.2344 498.0313,18.9375 C498.0313,18.6719 497.9219,18.4063 497.6875,18.2344 C497.5156,18.125 497.375,18.0938 496.9219,18.0938 L491.7813,18.0938 C491.3438,18.0938 491.2188,18.1094 491.0625,18.2031 C490.8125,18.3594 490.6563,18.6563 490.6563,18.9375 C490.6563,19.2188 490.7969,19.4688 491.0156,19.6406 C491.1719,19.75 491.3594,19.7813 491.7813,19.7813 L493.5,19.7813 L493.5,26.2969 L491.7813,26.2969 C491.3438,26.2969 491.2188,26.3125 491.0625,26.4219 C490.8125,26.5781 490.6563,26.8594 490.6563,27.1563 C490.6563,27.4063 490.7969,27.6719 491.0156,27.8281 C491.1719,27.9531 491.375,28 491.7813,28 L496.9219,28 C497.6719,28 498.0313,27.7188 498.0313,27.1563 C498.0313,26.875 497.9219,26.625 497.6875,26.4531 C497.5156,26.3281 497.375,26.2969 496.9219,26.2969 L495.2031,26.2969 L495.2031,19.7813 Z " fill="#000000"/><text fill="#000000" font-family="sans-serif" font-size="12" font-style="italic" lengthAdjust="spacing" textLength="28" x="514.75" y="27.1543">View</text><line style="stroke:#A80036;stroke-width:1.5;" x1="339" x2="686" y1="39" y2="39"/><line style="stroke:#A80036;stroke-width:1.5;" x1="339" x2="686" y1="47" y2="47"/><ellipse cx="349" cy="58" fill="#84BE84" rx="3" ry="3" style="stroke:#038048;stroke-width:1.0;"/><text fill="#000000" font-family="sans-serif" font-size="11" lengthAdjust="spacing" text-decoration="underline" textLength="169" x="358" y="61.2104">createView(ViewType) : View</text><ellipse cx="349" cy="70.8047" fill="#84BE84" rx="3" ry="3" style="stroke:#038048;stroke-width:1.0;"/><text fill="#000000" font-family="sans-serif" font-size="11" font-style="italic" lengthAdjust="spacing" textLength="124" x="358" y="74.0151">getInputText() : String</text><ellipse cx="349" cy="83.6094" fill="#84BE84" rx="3" ry="3" style="stroke:#038048;stroke-width:1.0;"/><text fill="#000000" font-family="sans-serif" font-size="11" font-style="italic" lengthAdjust="spacing" textLength="208" x="358" y="86.8198">getSelectedInstrument() : Instrument</text><ellipse cx="349" cy="96.4141" fill="#84BE84" rx="3" ry="3" style="stroke:#038048;stroke-width:1.0;"/><text fill="#000000" font-family="sans-serif" font-size="11" font-style="italic" lengthAdjust="spacing" textLength="121" x="358" y="99.6245">setOutputText(String)</text><ellipse cx="349" cy="109.2188" fill="#84BE84" rx="3" ry="3" style="stroke:#038048;stroke-width:1.0;"/><text fill="#000000" font-family="sans-serif" font-size="11" font-style="italic" lengthAdjust="spacing" textLength="323" x="358" y="112.4292">promptForFile(FileNameExtensionFilter) : Optional&lt;Path&gt;</text><ellipse cx="349" cy="122.0234" fill="#84BE84" rx="3" ry="3" style="stroke:#038048;stroke-width:1.0;"/><text fill="#000000" font-family="sans-serif" font-size="11" font-style="italic" lengthAdjust="spacing" textLength="189" x="358" y="125.2339">showErrorMessage(String, String)</text><!--MD5=[44cbf6f34365bb19dad97cafe344f2b1]
class NarrowingView--><rect codeLine="10" fill="#FEFECE" filter="url(#f1arp158knhkvv)" height="73.6094" id="NarrowingView" style="stroke:#A80036;stroke-width:1.5;" width="177" x="7" y="230"/><ellipse cx="46.75" cy="246" fill="#B4A7E5" rx="11" ry="11" style="stroke:#A80036;stroke-width:1.0;"/><path d="M47.7031,242.7813 L49.4219,242.7813 C49.8125,242.7813 50,242.75 50.125,242.6719 C50.3906,242.5156 50.5313,242.2344 50.5313,241.9375 C50.5313,241.6719 50.4219,241.4063 50.1875,241.2344 C50.0156,241.125 49.875,241.0938 49.4219,241.0938 L44.2813,241.0938 C43.8438,241.0938 43.7188,241.1094 43.5625,241.2031 C43.3125,241.3594 43.1563,241.6563 43.1563,241.9375 C43.1563,242.2188 43.2969,242.4688 43.5156,242.6406 C43.6719,242.75 43.8594,242.7813 44.2813,242.7813 L46,242.7813 L46,249.2969 L44.2813,249.2969 C43.8438,249.2969 43.7188,249.3125 43.5625,249.4219 C43.3125,249.5781 43.1563,249.8594 43.1563,250.1563 C43.1563,250.4063 43.2969,250.6719 43.5156,250.8281 C43.6719,250.9531 43.875,251 44.2813,251 L49.4219,251 C50.1719,251 50.5313,250.7188 50.5313,250.1563 C50.5313,249.875 50.4219,249.625 50.1875,249.4531 C50.0156,249.3281 49.875,249.2969 49.4219,249.2969 L47.7031,249.2969 L47.7031,242.7813 Z " fill="#000000"/><text fill="#000000" font-family="sans-serif" font-size="12" font-style="italic" lengthAdjust="spacing" textLength="90" x="66.25" y="250.1543">NarrowingView</text><line style="stroke:#A80036;stroke-width:1.5;" x1="8" x2="183" y1="262" y2="262"/><line style="stroke:#A80036;stroke-width:1.5;" x1="8" x2="183" y1="270" y2="270"/><ellipse cx="18" cy="281" fill="#84BE84" rx="3" ry="3" style="stroke:#038048;stroke-width:1.0;"/><text fill="#000000" font-family="sans-serif" font-size="11" font-style="italic" lengthAdjust="spacing" textLength="151" x="27" y="284.2104">getNarrowedText() : String</text><ellipse cx="18" cy="293.8047" fill="#84BE84" rx="3" ry="3" style="stroke:#038048;stroke-width:1.0;"/><text fill="#000000" font-family="sans-serif" font-size="11" font-style="italic" lengthAdjust="spacing" textLength="138" x="27" y="297.0151">setNarrowedText(String)</text><!--MD5=[3de993ac3dd18e6abf686ebe9c2e07b2]
class Presenter--><rect codeLine="15" fill="#FEFECE" filter="url(#f1arp158knhkvv)" height="163.2422" id="Presenter" style="stroke:#A80036;stroke-width:1.5;" width="287" x="540" y="402"/><ellipse cx="650.25" cy="418" fill="#ADD1B2" rx="11" ry="11" style="stroke:#A80036;stroke-width:1.0;"/><path d="M652.5938,413.6719 C651.6563,413.2344 651.0625,413.0938 650.1875,413.0938 C647.5625,413.0938 645.5625,415.1719 645.5625,417.8906 L645.5625,419.0156 C645.5625,421.5938 647.6719,423.4844 650.5625,423.4844 C651.7813,423.4844 652.9375,423.1875 653.6875,422.6406 C654.2656,422.2344 654.5938,421.7813 654.5938,421.3906 C654.5938,420.9375 654.2031,420.5469 653.7344,420.5469 C653.5156,420.5469 653.3125,420.625 653.125,420.8125 C652.6719,421.2969 652.6719,421.2969 652.4844,421.3906 C652.0625,421.6563 651.375,421.7813 650.6094,421.7813 C648.5625,421.7813 647.2656,420.6875 647.2656,418.9844 L647.2656,417.8906 C647.2656,416.1094 648.5156,414.7969 650.25,414.7969 C650.8281,414.7969 651.4375,414.9531 651.9063,415.2031 C652.3906,415.4844 652.5625,415.7031 652.6563,416.1094 C652.7188,416.5156 652.75,416.6406 652.8906,416.7656 C653.0313,416.9063 653.2656,417.0156 653.4844,417.0156 C653.75,417.0156 654.0156,416.875 654.1875,416.6563 C654.2969,416.5 654.3281,416.3125 654.3281,415.8906 L654.3281,414.4688 C654.3281,414.0313 654.3125,413.9063 654.2188,413.75 C654.0625,413.4844 653.7813,413.3438 653.4844,413.3438 C653.1875,413.3438 652.9844,413.4375 652.7656,413.75 L652.5938,413.6719 Z " fill="#000000"/><text fill="#000000" font-family="sans-serif" font-size="12" lengthAdjust="spacing" textLength="58" x="670.75" y="422.1543">Presenter</text><line style="stroke:#A80036;stroke-width:1.5;" x1="541" x2="826" y1="434" y2="434"/><rect fill="none" height="6" style="stroke:#C82930;stroke-width:1.0;" width="6" x="548" y="442"/><text fill="#000000" font-family="sans-serif" font-size="11" lengthAdjust="spacing" textLength="59" x="560" y="448.2104">View view</text><line style="stroke:#A80036;stroke-width:1.5;" x1="541" x2="826" y1="454.8047" y2="454.8047"/><rect fill="#F24D5C" height="6" style="stroke:#C82930;stroke-width:1.0;" width="6" x="548" y="462.8047"/><text fill="#000000" font-family="sans-serif" font-size="11" lengthAdjust="spacing" textLength="261" x="560" y="469.0151">convert(String, Instrument) : Optional&lt;String&gt;</text><ellipse cx="551" cy="478.6094" fill="#84BE84" rx="3" ry="3" style="stroke:#038048;stroke-width:1.0;"/><text fill="#000000" font-family="sans-serif" font-size="11" lengthAdjust="spacing" textLength="108" x="560" y="481.8198">convert() : boolean</text><ellipse cx="551" cy="491.4141" fill="#84BE84" rx="3" ry="3" style="stroke:#038048;stroke-width:1.0;"/><text fill="#000000" font-family="sans-serif" font-size="11" lengthAdjust="spacing" textLength="163" x="560" y="494.6245">detectInstrument() : boolean</text><ellipse cx="551" cy="504.2188" fill="#84BE84" rx="3" ry="3" style="stroke:#038048;stroke-width:1.0;"/><text fill="#000000" font-family="sans-serif" font-size="11" lengthAdjust="spacing" textLength="117" x="560" y="507.4292">loadInput() : boolean</text><rect fill="#F24D5C" height="6" style="stroke:#C82930;stroke-width:1.0;" width="6" x="548" y="514.0234"/><text fill="#000000" font-family="sans-serif" font-size="11" lengthAdjust="spacing" textLength="213" x="560" y="520.2339">loadFromFile(Path) : Optional&lt;String&gt;</text><ellipse cx="551" cy="529.8281" fill="#84BE84" rx="3" ry="3" style="stroke:#038048;stroke-width:1.0;"/><text fill="#000000" font-family="sans-serif" font-size="11" lengthAdjust="spacing" textLength="121" x="560" y="533.0386">saveInput() : boolean</text><ellipse cx="551" cy="542.6328" fill="#84BE84" rx="3" ry="3" style="stroke:#038048;stroke-width:1.0;"/><text fill="#000000" font-family="sans-serif" font-size="11" lengthAdjust="spacing" textLength="131" x="560" y="545.8433">saveOutput() : boolean</text><rect fill="#F24D5C" height="6" style="stroke:#C82930;stroke-width:1.0;" width="6" x="548" y="552.4375"/><text fill="#000000" font-family="sans-serif" font-size="11" lengthAdjust="spacing" textLength="191" x="560" y="558.6479">saveToFile(Path, String) : boolean</text><!--MD5=[b4dac3d107fd108a1286c53798d83979]
class AbstractSwingView--><rect codeLine="28" fill="#FEFECE" filter="url(#f1arp158knhkvv)" height="150.4375" id="AbstractSwingView" style="stroke:#A80036;stroke-width:1.5;" width="341" x="219" y="192"/><ellipse cx="327.25" cy="208" fill="#A9DCDF" rx="11" ry="11" style="stroke:#A80036;stroke-width:1.0;"/><path d="M329.3281,209.8125 L329.7188,210.7969 L329.3281,210.7969 C328.875,210.7969 328.7656,210.8125 328.6094,210.9219 C328.3594,211.0781 328.2031,211.3594 328.2031,211.6563 C328.2031,211.9219 328.3438,212.1719 328.5625,212.3281 C328.7031,212.4531 328.9063,212.5 329.3281,212.5 L331.6875,212.5 C332.0469,212.5 332.2656,212.4688 332.4063,212.375 C332.6563,212.2344 332.8125,211.9375 332.8125,211.6563 C332.8125,211.375 332.6719,211.125 332.4531,210.9688 C332.2813,210.8281 332.125,210.7969 331.6563,210.7969 L328.2656,202.5938 L324.5938,202.5938 C324.1406,202.5938 324.0156,202.6094 323.8594,202.7031 C323.6094,202.875 323.4531,203.1563 323.4531,203.4375 C323.4531,203.7188 323.5938,203.9688 323.8125,204.1406 C323.9844,204.25 324.1563,204.2813 324.5938,204.2813 L325.6719,204.2813 L323.0313,210.7969 C322.6094,210.7969 322.4531,210.8125 322.2969,210.9219 C322.0469,211.0781 321.8906,211.3594 321.8906,211.6563 C321.8906,212.2188 322.2656,212.5 323.0156,212.5 L325.2813,212.5 C325.6406,212.5 325.8594,212.4688 325.9844,212.375 C326.25,212.2344 326.3906,211.9375 326.3906,211.6563 C326.3906,211.375 326.2656,211.125 326.0469,210.9531 C325.875,210.8281 325.7344,210.7969 325.2813,210.7969 L324.8906,210.7969 L325.2813,209.8125 L329.3281,209.8125 Z M328.625,208.1094 L325.9531,208.1094 L327.2969,204.8438 L328.625,208.1094 Z " fill="#000000"/><text fill="#000000" font-family="sans-serif" font-size="12" font-style="italic" lengthAdjust="spacing" textLength="116" x="347.75" y="212.1543">AbstractSwingView</text><line style="stroke:#A80036;stroke-width:1.5;" x1="220" x2="559" y1="224" y2="224"/><polygon fill="none" points="230,230,234,234,230,238,226,234" style="stroke:#B38D22;stroke-width:1.0;"/><text fill="#000000" font-family="sans-serif" font-size="11" lengthAdjust="spacing" textLength="77" x="239" y="238.2104">JFrame frame</text><polygon fill="none" points="230,242.8047,234,246.8047,230,250.8047,226,246.8047" style="stroke:#B38D22;stroke-width:1.0;"/><text fill="#000000" font-family="sans-serif" font-size="11" lengthAdjust="spacing" textLength="115" x="239" y="251.0151">Presenter presenter</text><line style="stroke:#A80036;stroke-width:1.5;" x1="220" x2="559" y1="257.6094" y2="257.6094"/><rect fill="#F24D5C" height="6" style="stroke:#C82930;stroke-width:1.0;" width="6" x="227" y="265.6094"/><text fill="#000000" font-family="sans-serif" font-size="11" lengthAdjust="spacing" text-decoration="underline" textLength="315" x="239" y="271.8198">highlightToken(ErrorToken, Highlighter, HighlightPainter)</text><polygon fill="#FFFF44" points="230,276.4141,234,280.4141,230,284.4141,226,280.4141" style="stroke:#B38D22;stroke-width:1.0;"/><text fill="#000000" font-family="sans-serif" font-size="11" font-style="italic" lengthAdjust="spacing" textLength="159" x="239" y="284.6245">getInput() : JTextComponent</text><polygon fill="#FFFF44" points="230,289.2188,234,293.2188,230,297.2188,226,293.2188" style="stroke:#B38D22;stroke-width:1.0;"/><text fill="#000000" font-family="sans-serif" font-size="11" font-style="italic" lengthAdjust="spacing" textLength="169" x="239" y="297.4292">getOutput() : JTextComponent</text><polygon fill="#FFFF44" points="230,302.0234,234,306.0234,230,310.0234,226,306.0234" style="stroke:#B38D22;stroke-width:1.0;"/><text fill="#000000" font-family="sans-serif" font-size="11" lengthAdjust="spacing" textLength="216" x="239" y="310.2339">getInstrumentSelector() : JComponent</text><polygon fill="#FFFF44" points="230,314.8281,234,318.8281,230,322.8281,226,318.8281" style="stroke:#B38D22;stroke-width:1.0;"/><text fill="#000000" font-family="sans-serif" font-size="11" lengthAdjust="spacing" textLength="172" x="239" y="323.0386">setUpFileDragAndDrop() : void</text><text fill="#000000" font-family="sans-serif" font-size="11" lengthAdjust="spacing" textLength="209" x="239" y="335.8433">(Implements every method of View)</text><!--MD5=[78cc7eb74c3fa10aac8e4dcb55cf04c2]
class TabbedView--><rect codeLine="40" fill="#FEFECE" filter="url(#f1arp158knhkvv)" height="48" id="TabbedView" style="stroke:#A80036;stroke-width:1.5;" width="118" x="101.5" y="459.5"/><ellipse cx="116.5" cy="475.5" fill="#ADD1B2" rx="11" ry="11" style="stroke:#A80036;stroke-width:1.0;"/><path d="M118.8438,471.1719 C117.9063,470.7344 117.3125,470.5938 116.4375,470.5938 C113.8125,470.5938 111.8125,472.6719 111.8125,475.3906 L111.8125,476.5156 C111.8125,479.0938 113.9219,480.9844 116.8125,480.9844 C118.0313,480.9844 119.1875,480.6875 119.9375,480.1406 C120.5156,479.7344 120.8438,479.2813 120.8438,478.8906 C120.8438,478.4375 120.4531,478.0469 119.9844,478.0469 C119.7656,478.0469 119.5625,478.125 119.375,478.3125 C118.9219,478.7969 118.9219,478.7969 118.7344,478.8906 C118.3125,479.1563 117.625,479.2813 116.8594,479.2813 C114.8125,479.2813 113.5156,478.1875 113.5156,476.4844 L113.5156,475.3906 C113.5156,473.6094 114.7656,472.2969 116.5,472.2969 C117.0781,472.2969 117.6875,472.4531 118.1563,472.7031 C118.6406,472.9844 118.8125,473.2031 118.9063,473.6094 C118.9688,474.0156 119,474.1406 119.1406,474.2656 C119.2813,474.4063 119.5156,474.5156 119.7344,474.5156 C120,474.5156 120.2656,474.375 120.4375,474.1563 C120.5469,474 120.5781,473.8125 120.5781,473.3906 L120.5781,471.9688 C120.5781,471.5313 120.5625,471.4063 120.4688,471.25 C120.3125,470.9844 120.0313,470.8438 119.7344,470.8438 C119.4375,470.8438 119.2344,470.9375 119.0156,471.25 L118.8438,471.1719 Z " fill="#000000"/><polygon fill="#4177AF" points="135.5,471,131.5,477,139.5,477" style="stroke:#1963A0;stroke-width:1.0;"/><text fill="#000000" font-family="sans-serif" font-size="12" lengthAdjust="spacing" textLength="75" x="141.5" y="479.6543">TabbedView</text><line style="stroke:#A80036;stroke-width:1.5;" x1="102.5" x2="218.5" y1="491.5" y2="491.5"/><line style="stroke:#A80036;stroke-width:1.5;" x1="102.5" x2="218.5" y1="499.5" y2="499.5"/><!--MD5=[6f062b0358e71ed36a9a041bba5d4781]
class SingleEntryView--><rect codeLine="42" fill="#FEFECE" filter="url(#f1arp158knhkvv)" height="48" id="SingleEntryView" style="stroke:#A80036;stroke-width:1.5;" width="139" x="320" y="459.5"/><ellipse cx="335" cy="475.5" fill="#ADD1B2" rx="11" ry="11" style="stroke:#A80036;stroke-width:1.0;"/><path d="M337.3438,471.1719 C336.4063,470.7344 335.8125,470.5938 334.9375,470.5938 C332.3125,470.5938 330.3125,472.6719 330.3125,475.3906 L330.3125,476.5156 C330.3125,479.0938 332.4219,480.9844 335.3125,480.9844 C336.5313,480.9844 337.6875,480.6875 338.4375,480.1406 C339.0156,479.7344 339.3438,479.2813 339.3438,478.8906 C339.3438,478.4375 338.9531,478.0469 338.4844,478.0469 C338.2656,478.0469 338.0625,478.125 337.875,478.3125 C337.4219,478.7969 337.4219,478.7969 337.2344,478.8906 C336.8125,479.1563 336.125,479.2813 335.3594,479.2813 C333.3125,479.2813 332.0156,478.1875 332.0156,476.4844 L332.0156,475.3906 C332.0156,473.6094 333.2656,472.2969 335,472.2969 C335.5781,472.2969 336.1875,472.4531 336.6563,472.7031 C337.1406,472.9844 337.3125,473.2031 337.4063,473.6094 C337.4688,474.0156 337.5,474.1406 337.6406,474.2656 C337.7813,474.4063 338.0156,474.5156 338.2344,474.5156 C338.5,474.5156 338.7656,474.375 338.9375,474.1563 C339.0469,474 339.0781,473.8125 339.0781,473.3906 L339.0781,471.9688 C339.0781,471.5313 339.0625,471.4063 338.9688,471.25 C338.8125,470.9844 338.5313,470.8438 338.2344,470.8438 C337.9375,470.8438 337.7344,470.9375 337.5156,471.25 L337.3438,471.1719 Z " fill="#000000"/><polygon fill="#4177AF" points="354,471,350,477,358,477" style="stroke:#1963A0;stroke-width:1.0;"/><text fill="#000000" font-family="sans-serif" font-size="12" lengthAdjust="spacing" textLength="96" x="360" y="479.6543">SingleEntryView</text><line style="stroke:#A80036;stroke-width:1.5;" x1="321" x2="458" y1="491.5" y2="491.5"/><line style="stroke:#A80036;stroke-width:1.5;" x1="321" x2="458" y1="499.5" y2="499.5"/><!--MD5=[ea9bc3d3f88adb0f251b791a11fa27ff]
class ViewBot--><rect fill="#FEFECE" filter="url(#f1arp158knhkvv)" height="48" id="ViewBot" style="stroke:#A80036;stroke-width:1.5;" width="81" x="595" y="243"/><ellipse cx="610" cy="259" fill="#ADD1B2" rx="11" ry="11" style="stroke:#A80036;stroke-width:1.0;"/><path d="M612.3438,254.6719 C611.4063,254.2344 610.8125,254.0938 609.9375,254.0938 C607.3125,254.0938 605.3125,256.1719 605.3125,258.8906 L605.3125,260.0156 C605.3125,262.5938 607.4219,264.4844 610.3125,264.4844 C611.5313,264.4844 612.6875,264.1875 613.4375,263.6406 C614.0156,263.2344 614.3438,262.7813 614.3438,262.3906 C614.3438,261.9375 613.9531,261.5469 613.4844,261.5469 C613.2656,261.5469 613.0625,261.625 612.875,261.8125 C612.4219,262.2969 612.4219,262.2969 612.2344,262.3906 C611.8125,262.6563 611.125,262.7813 610.3594,262.7813 C608.3125,262.7813 607.0156,261.6875 607.0156,259.9844 L607.0156,258.8906 C607.0156,257.1094 608.2656,255.7969 610,255.7969 C610.5781,255.7969 611.1875,255.9531 611.6563,256.2031 C612.1406,256.4844 612.3125,256.7031 612.4063,257.1094 C612.4688,257.5156 612.5,257.6406 612.6406,257.7656 C612.7813,257.9063 613.0156,258.0156 613.2344,258.0156 C613.5,258.0156 613.7656,257.875 613.9375,257.6563 C614.0469,257.5 614.0781,257.3125 614.0781,256.8906 L614.0781,255.4688 C614.0781,255.0313 614.0625,254.9063 613.9688,254.75 C613.8125,254.4844 613.5313,254.3438 613.2344,254.3438 C612.9375,254.3438 612.7344,254.4375 612.5156,254.75 L612.3438,254.6719 Z " fill="#000000"/><text fill="#000000" font-family="sans-serif" font-size="12" lengthAdjust="spacing" textLength="49" x="624" y="263.1543">ViewBot</text><line style="stroke:#A80036;stroke-width:1.5;" x1="596" x2="675" y1="275" y2="275"/><line style="stroke:#A80036;stroke-width:1.5;" x1="596" x2="675" y1="283" y2="283"/><!--MD5=[94ac34da17b748a109eb6ac0e62bba58]
reverse link Presenter to View--><path codeLine="45" d="M709.667,388.941 C721.042,329.18 725.461,251.948 693.5,192 C680.947,168.455 661.581,148.664 640.107,132.344 " fill="none" id="Presenter-backto-View" style="stroke:#A80036;stroke-width:1.0;"/><polygon fill="#FFFFFF" points="707.062,401.8,712.1739,396.7139,709.4451,390.039,704.3332,395.1251,707.062,401.8" style="stroke:#A80036;stroke-width:1.0;"/><text fill="#000000" font-family="sans-serif" font-size="13" lengthAdjust="spacing" textLength="8" x="700.8042" y="390.9176">1</text><!--MD5=[92049614234c8fc16c78d5d1e88763b6]
reverse link AbstractSwingView to Presenter--><path codeLine="46" d="M501.744,349.892 C525.143,366.964 549.788,384.945 573.119,401.967 " fill="none" id="AbstractSwingView-backto-Presenter" style="stroke:#A80036;stroke-width:1.0;"/><polygon fill="#FFFFFF" points="491.09,342.119,493.579,348.8869,500.7836,349.1924,498.2946,342.4245,491.09,342.119" style="stroke:#A80036;stroke-width:1.0;"/><text fill="#000000" font-family="sans-serif" font-size="13" lengthAdjust="spacing" textLength="8" x="493.154" y="362.6903">1</text><!--MD5=[c674bec0a95d94d719dfc8334bddd9b1]
reverse link View to AbstractSwingView--><path codeLine="47" d="M462.859,149.401 C454.073,163.365 444.952,177.862 436.25,191.694 " fill="none" id="View-backto-AbstractSwingView" style="stroke:#A80036;stroke-width:1.0;"/><polygon fill="none" points="457.175,145.29,473.751,132.089,469.025,152.745,457.175,145.29" style="stroke:#A80036;stroke-width:1.0;"/><!--MD5=[9d1f9c3d6dc2402df331f650dc526c4e]
reverse link View to NarrowingView--><path codeLine="48" d="M319,137.878 C279.349,153.951 238.46,172.241 201.5,192 C181.114,202.899 159.973,217.007 141.984,229.977 " fill="none" id="View-backto-NarrowingView" style="stroke:#A80036;stroke-width:1.0;"/><polygon fill="none" points="316.555,131.317,337.726,130.41,321.741,144.321,316.555,131.317" style="stroke:#A80036;stroke-width:1.0;"/><!--MD5=[635464eb733e8a9eadf7aca0fc614806]
reverse link AbstractSwingView to TabbedView--><path codeLine="49" d="M295.753,355.811 C255.54,393.478 211.793,434.454 185.258,459.309 " fill="none" id="AbstractSwingView-backto-TabbedView" style="stroke:#A80036;stroke-width:1.0;"/><polygon fill="none" points="290.988,350.683,310.371,342.119,300.559,360.9,290.988,350.683" style="stroke:#A80036;stroke-width:1.0;"/><!--MD5=[745f33a23d253db90ebee695e6ad6e7a]
reverse link NarrowingView to TabbedView--><path codeLine="50" d="M112.377,323.693 C125.718,367.72 143.669,426.957 153.44,459.204 " fill="none" id="NarrowingView-backto-TabbedView" style="stroke:#A80036;stroke-width:1.0;"/><polygon fill="none" points="105.6274,325.558,106.5264,304.387,119.026,321.497,105.6274,325.558" style="stroke:#A80036;stroke-width:1.0;"/><!--MD5=[98d9c72a06d40076dfbf5f3d33083827]
reverse link AbstractSwingView to SingleEntryView--><path codeLine="51" d="M389.5,362.222 C389.5,397.93 389.5,435.593 389.5,459.062 " fill="none" id="AbstractSwingView-backto-SingleEntryView" style="stroke:#A80036;stroke-width:1.0;"/><polygon fill="none" points="382.5,362.119,389.5,342.119,396.5,362.119,382.5,362.119" style="stroke:#A80036;stroke-width:1.0;"/><!--MD5=[3d3c893ffaceb7884d2fd7a722af2a9c]
reverse link View to ViewBot--><path codeLine="52" d="M562.075,149.296 C583.226,182.913 606.333,219.64 620.865,242.739 " fill="none" id="View-backto-ViewBot" style="stroke:#A80036;stroke-width:1.0;"/><polygon fill="none" points="555.975,152.745,551.249,132.089,567.825,145.29,555.975,152.745" style="stroke:#A80036;stroke-width:1.0;"/><!--MD5=[ccb543d4b13c46c74d39a68ce05a0ce5]
@startuml
interface View {
  +{static} createView(ViewType) : View
  +{abstract} getInputText() : String
  +{abstract} getSelectedInstrument() : Instrument
  +{abstract} setOutputText(String)
  +{abstract} promptForFile(FileNameExtensionFilter) : Optional<Path>
  +{abstract} showErrorMessage(String, String)
}

interface NarrowingView {
  +{abstract} getNarrowedText() : String
  +{abstract} setNarrowedText(String)
}

class Presenter {
  -View view

  -convert(String, Instrument) : Optional<String>
  +convert() : boolean
  +detectInstrument() : boolean
  +loadInput() : boolean
  -loadFromFile(Path) : Optional<String>
  +saveInput() : boolean
  +saveOutput() : boolean
  -saveToFile(Path, String) : boolean
}

abstract class AbstractSwingView {
  #JFrame frame
  #Presenter presenter
  
  -{static} highlightToken(ErrorToken, Highlighter, HighlightPainter)
  #{abstract} getInput() : JTextComponent
  #{abstract} getOutput() : JTextComponent
  #getInstrumentSelector() : JComponent
  #setUpFileDragAndDrop() : void
  (Implements every method of View)
}

~class TabbedView {
}
~class SingleEntryView {
}

Presenter "1" o- - View
AbstractSwingView "1" o- - Presenter
View <|- - AbstractSwingView
View <|- - NarrowingView
AbstractSwingView <|- - TabbedView
NarrowingView <|- - TabbedView
AbstractSwingView <|- - SingleEntryView
View <|- - ViewBot
@enduml

PlantUML version 1.2021.4beta2(Unknown compile time)
(GPL source distribution)
Java Runtime: Java(TM) SE Runtime Environment
JVM: Java HotSpot(TM) 64-Bit Server VM
Default Encoding: UTF-8
Language: en
Country: US
--></g></svg>