<?xml version="1.0" encoding="UTF-8" standalone="no"?>
<svg xmlns="http://www.w3.org/2000/svg" xmlns:xlink="http://www.w3.org/1999/xlink" contentScriptType="application/ecmascript" contentStyleType="text/css" height="502px" preserveAspectRatio="none" style="width:692px;height:502px;" version="1.1" viewBox="0 0 692 502" width="692px" zoomAndPan="magnify"><defs><filter height="300%" id="f6npesg0vxrz" width="300%" x="-1" y="-1"><feGaussianBlur result="blurOut" stdDeviation="2.0"/><feColorMatrix in="blurOut" result="blurOut2" type="matrix" values="0 0 0 0 0 0 0 0 0 0 0 0 0 0 0 0 0 0 .4 0"/><feOffset dx="4.0" dy="4.0" in="blurOut2" result="blurOut3"/><feBlend in="SourceGraphic" in2="blurOut3" mode="normal"/></filter></defs><g><!--MD5=[c045e12321b83266d36d22b9096c24ea]
class View--><rect codeLine="1" fill="#FEFECE" filter="url(#f6npesg0vxrz)" height="137.6328" id="View" style="stroke:#A80036;stroke-width:1.5;" width="349" x="7" y="19.5"/><ellipse cx="163.25" cy="35.5" fill="#B4A7E5" rx="11" ry="11" style="stroke:#A80036;stroke-width:1.0;"/><path d="M164.2031,32.2813 L165.9219,32.2813 C166.3125,32.2813 166.5,32.25 166.625,32.1719 C166.8906,32.0156 167.0313,31.7344 167.0313,31.4375 C167.0313,31.1719 166.9219,30.9063 166.6875,30.7344 C166.5156,30.625 166.375,30.5938 165.9219,30.5938 L160.7813,30.5938 C160.3438,30.5938 160.2188,30.6094 160.0625,30.7031 C159.8125,30.8594 159.6563,31.1563 159.6563,31.4375 C159.6563,31.7188 159.7969,31.9688 160.0156,32.1406 C160.1719,32.25 160.3594,32.2813 160.7813,32.2813 L162.5,32.2813 L162.5,38.7969 L160.7813,38.7969 C160.3438,38.7969 160.2188,38.8125 160.0625,38.9219 C159.8125,39.0781 159.6563,39.3594 159.6563,39.6563 C159.6563,39.9063 159.7969,40.1719 160.0156,40.3281 C160.1719,40.4531 160.375,40.5 160.7813,40.5 L165.9219,40.5 C166.6719,40.5 167.0313,40.2188 167.0313,39.6563 C167.0313,39.375 166.9219,39.125 166.6875,38.9531 C166.5156,38.8281 166.375,38.7969 165.9219,38.7969 L164.2031,38.7969 L164.2031,32.2813 Z " fill="#000000"/><text fill="#000000" font-family="sans-serif" font-size="12" font-style="italic" lengthAdjust="spacing" textLength="28" x="183.75" y="39.6543">View</text><line style="stroke:#A80036;stroke-width:1.5;" x1="8" x2="355" y1="51.5" y2="51.5"/><line style="stroke:#A80036;stroke-width:1.5;" x1="8" x2="355" y1="59.5" y2="59.5"/><ellipse cx="18" cy="70.5" fill="#84BE84" rx="3" ry="3" style="stroke:#038048;stroke-width:1.0;"/><text fill="#000000" font-family="sans-serif" font-size="11" lengthAdjust="spacing" text-decoration="underline" textLength="169" x="27" y="73.7104">createView(ViewType) : View</text><ellipse cx="18" cy="83.3047" fill="#84BE84" rx="3" ry="3" style="stroke:#038048;stroke-width:1.0;"/><text fill="#000000" font-family="sans-serif" font-size="11" font-style="italic" lengthAdjust="spacing" textLength="124" x="27" y="86.5151">getInputText() : String</text><ellipse cx="18" cy="96.1094" fill="#84BE84" rx="3" ry="3" style="stroke:#038048;stroke-width:1.0;"/><text fill="#000000" font-family="sans-serif" font-size="11" font-style="italic" lengthAdjust="spacing" textLength="208" x="27" y="99.3198">getSelectedInstrument() : Instrument</text><ellipse cx="18" cy="108.9141" fill="#84BE84" rx="3" ry="3" style="stroke:#038048;stroke-width:1.0;"/><text fill="#000000" font-family="sans-serif" font-size="11" lengthAdjust="spacing" textLength="167" x="27" y="112.1245">getMetadata() : XMLMetadata</text><ellipse cx="18" cy="121.7188" fill="#84BE84" rx="3" ry="3" style="stroke:#038048;stroke-width:1.0;"/><text fill="#000000" font-family="sans-serif" font-size="11" font-style="italic" lengthAdjust="spacing" textLength="121" x="27" y="124.9292">setOutputText(String)</text><ellipse cx="18" cy="134.5234" fill="#84BE84" rx="3" ry="3" style="stroke:#038048;stroke-width:1.0;"/><text fill="#000000" font-family="sans-serif" font-size="11" font-style="italic" lengthAdjust="spacing" textLength="323" x="27" y="137.7339">promptForFile(FileNameExtensionFilter) : Optional&lt;Path&gt;</text><ellipse cx="18" cy="147.3281" fill="#84BE84" rx="3" ry="3" style="stroke:#038048;stroke-width:1.0;"/><text fill="#000000" font-family="sans-serif" font-size="11" font-style="italic" lengthAdjust="spacing" textLength="189" x="27" y="150.5386">showErrorMessage(String, String)</text><!--MD5=[44cbf6f34365bb19dad97cafe344f2b1]
class NarrowingView--><rect codeLine="11" fill="#FEFECE" filter="url(#f6npesg0vxrz)" height="73.6094" id="NarrowingView" style="stroke:#A80036;stroke-width:1.5;" width="177" x="93" y="268"/><ellipse cx="132.75" cy="284" fill="#B4A7E5" rx="11" ry="11" style="stroke:#A80036;stroke-width:1.0;"/><path d="M133.7031,280.7813 L135.4219,280.7813 C135.8125,280.7813 136,280.75 136.125,280.6719 C136.3906,280.5156 136.5313,280.2344 136.5313,279.9375 C136.5313,279.6719 136.4219,279.4063 136.1875,279.2344 C136.0156,279.125 135.875,279.0938 135.4219,279.0938 L130.2813,279.0938 C129.8438,279.0938 129.7188,279.1094 129.5625,279.2031 C129.3125,279.3594 129.1563,279.6563 129.1563,279.9375 C129.1563,280.2188 129.2969,280.4688 129.5156,280.6406 C129.6719,280.75 129.8594,280.7813 130.2813,280.7813 L132,280.7813 L132,287.2969 L130.2813,287.2969 C129.8438,287.2969 129.7188,287.3125 129.5625,287.4219 C129.3125,287.5781 129.1563,287.8594 129.1563,288.1563 C129.1563,288.4063 129.2969,288.6719 129.5156,288.8281 C129.6719,288.9531 129.875,289 130.2813,289 L135.4219,289 C136.1719,289 136.5313,288.7188 136.5313,288.1563 C136.5313,287.875 136.4219,287.625 136.1875,287.4531 C136.0156,287.3281 135.875,287.2969 135.4219,287.2969 L133.7031,287.2969 L133.7031,280.7813 Z " fill="#000000"/><text fill="#000000" font-family="sans-serif" font-size="12" font-style="italic" lengthAdjust="spacing" textLength="90" x="152.25" y="288.1543">NarrowingView</text><line style="stroke:#A80036;stroke-width:1.5;" x1="94" x2="269" y1="300" y2="300"/><line style="stroke:#A80036;stroke-width:1.5;" x1="94" x2="269" y1="308" y2="308"/><ellipse cx="104" cy="319" fill="#84BE84" rx="3" ry="3" style="stroke:#038048;stroke-width:1.0;"/><text fill="#000000" font-family="sans-serif" font-size="11" font-style="italic" lengthAdjust="spacing" textLength="151" x="113" y="322.2104">getNarrowedText() : String</text><ellipse cx="104" cy="331.8047" fill="#84BE84" rx="3" ry="3" style="stroke:#038048;stroke-width:1.0;"/><text fill="#000000" font-family="sans-serif" font-size="11" font-style="italic" lengthAdjust="spacing" textLength="138" x="113" y="335.0151">setNarrowedText(String)</text><!--MD5=[3de993ac3dd18e6abf686ebe9c2e07b2]
class Presenter--><rect codeLine="16" fill="#FEFECE" filter="url(#f6npesg0vxrz)" height="163.2422" id="Presenter" style="stroke:#A80036;stroke-width:1.5;" width="287" x="391" y="7"/><ellipse cx="501.25" cy="23" fill="#ADD1B2" rx="11" ry="11" style="stroke:#A80036;stroke-width:1.0;"/><path d="M503.5938,18.6719 C502.6563,18.2344 502.0625,18.0938 501.1875,18.0938 C498.5625,18.0938 496.5625,20.1719 496.5625,22.8906 L496.5625,24.0156 C496.5625,26.5938 498.6719,28.4844 501.5625,28.4844 C502.7813,28.4844 503.9375,28.1875 504.6875,27.6406 C505.2656,27.2344 505.5938,26.7813 505.5938,26.3906 C505.5938,25.9375 505.2031,25.5469 504.7344,25.5469 C504.5156,25.5469 504.3125,25.625 504.125,25.8125 C503.6719,26.2969 503.6719,26.2969 503.4844,26.3906 C503.0625,26.6563 502.375,26.7813 501.6094,26.7813 C499.5625,26.7813 498.2656,25.6875 498.2656,23.9844 L498.2656,22.8906 C498.2656,21.1094 499.5156,19.7969 501.25,19.7969 C501.8281,19.7969 502.4375,19.9531 502.9063,20.2031 C503.3906,20.4844 503.5625,20.7031 503.6563,21.1094 C503.7188,21.5156 503.75,21.6406 503.8906,21.7656 C504.0313,21.9063 504.2656,22.0156 504.4844,22.0156 C504.75,22.0156 505.0156,21.875 505.1875,21.6563 C505.2969,21.5 505.3281,21.3125 505.3281,20.8906 L505.3281,19.4688 C505.3281,19.0313 505.3125,18.9063 505.2188,18.75 C505.0625,18.4844 504.7813,18.3438 504.4844,18.3438 C504.1875,18.3438 503.9844,18.4375 503.7656,18.75 L503.5938,18.6719 Z " fill="#000000"/><text fill="#000000" font-family="sans-serif" font-size="12" lengthAdjust="spacing" textLength="58" x="521.75" y="27.1543">Presenter</text><line style="stroke:#A80036;stroke-width:1.5;" x1="392" x2="677" y1="39" y2="39"/><rect fill="none" height="6" style="stroke:#C82930;stroke-width:1.0;" width="6" x="399" y="47"/><text fill="#000000" font-family="sans-serif" font-size="11" lengthAdjust="spacing" textLength="59" x="411" y="53.2104">View view</text><line style="stroke:#A80036;stroke-width:1.5;" x1="392" x2="677" y1="59.8047" y2="59.8047"/><rect fill="#F24D5C" height="6" style="stroke:#C82930;stroke-width:1.0;" width="6" x="399" y="67.8047"/><text fill="#000000" font-family="sans-serif" font-size="11" lengthAdjust="spacing" textLength="261" x="411" y="74.0151">convert(String, Instrument) : Optional&lt;String&gt;</text><ellipse cx="402" cy="83.6094" fill="#84BE84" rx="3" ry="3" style="stroke:#038048;stroke-width:1.0;"/><text fill="#000000" font-family="sans-serif" font-size="11" lengthAdjust="spacing" textLength="108" x="411" y="86.8198">convert() : boolean</text><ellipse cx="402" cy="96.4141" fill="#84BE84" rx="3" ry="3" style="stroke:#038048;stroke-width:1.0;"/><text fill="#000000" font-family="sans-serif" font-size="11" lengthAdjust="spacing" textLength="163" x="411" y="99.6245">detectInstrument() : boolean</text><ellipse cx="402" cy="109.2188" fill="#84BE84" rx="3" ry="3" style="stroke:#038048;stroke-width:1.0;"/><text fill="#000000" font-family="sans-serif" font-size="11" lengthAdjust="spacing" textLength="117" x="411" y="112.4292">loadInput() : boolean</text><rect fill="#F24D5C" height="6" style="stroke:#C82930;stroke-width:1.0;" width="6" x="399" y="119.0234"/><text fill="#000000" font-family="sans-serif" font-size="11" lengthAdjust="spacing" textLength="213" x="411" y="125.2339">loadFromFile(Path) : Optional&lt;String&gt;</text><ellipse cx="402" cy="134.8281" fill="#84BE84" rx="3" ry="3" style="stroke:#038048;stroke-width:1.0;"/><text fill="#000000" font-family="sans-serif" font-size="11" lengthAdjust="spacing" textLength="121" x="411" y="138.0386">saveInput() : boolean</text><ellipse cx="402" cy="147.6328" fill="#84BE84" rx="3" ry="3" style="stroke:#038048;stroke-width:1.0;"/><text fill="#000000" font-family="sans-serif" font-size="11" lengthAdjust="spacing" textLength="131" x="411" y="150.8433">saveOutput() : boolean</text><rect fill="#F24D5C" height="6" style="stroke:#C82930;stroke-width:1.0;" width="6" x="399" y="157.4375"/><text fill="#000000" font-family="sans-serif" font-size="11" lengthAdjust="spacing" textLength="191" x="411" y="163.6479">saveToFile(Path, String) : boolean</text><!--MD5=[b4dac3d107fd108a1286c53798d83979]
class AbstractSwingView--><rect codeLine="29" fill="#FEFECE" filter="url(#f6npesg0vxrz)" height="150.4375" id="AbstractSwingView" style="stroke:#A80036;stroke-width:1.5;" width="341" x="307" y="230"/><ellipse cx="415.25" cy="246" fill="#A9DCDF" rx="11" ry="11" style="stroke:#A80036;stroke-width:1.0;"/><path d="M417.3281,247.8125 L417.7188,248.7969 L417.3281,248.7969 C416.875,248.7969 416.7656,248.8125 416.6094,248.9219 C416.3594,249.0781 416.2031,249.3594 416.2031,249.6563 C416.2031,249.9219 416.3438,250.1719 416.5625,250.3281 C416.7031,250.4531 416.9063,250.5 417.3281,250.5 L419.6875,250.5 C420.0469,250.5 420.2656,250.4688 420.4063,250.375 C420.6563,250.2344 420.8125,249.9375 420.8125,249.6563 C420.8125,249.375 420.6719,249.125 420.4531,248.9688 C420.2813,248.8281 420.125,248.7969 419.6563,248.7969 L416.2656,240.5938 L412.5938,240.5938 C412.1406,240.5938 412.0156,240.6094 411.8594,240.7031 C411.6094,240.875 411.4531,241.1563 411.4531,241.4375 C411.4531,241.7188 411.5938,241.9688 411.8125,242.1406 C411.9844,242.25 412.1563,242.2813 412.5938,242.2813 L413.6719,242.2813 L411.0313,248.7969 C410.6094,248.7969 410.4531,248.8125 410.2969,248.9219 C410.0469,249.0781 409.8906,249.3594 409.8906,249.6563 C409.8906,250.2188 410.2656,250.5 411.0156,250.5 L413.2813,250.5 C413.6406,250.5 413.8594,250.4688 413.9844,250.375 C414.25,250.2344 414.3906,249.9375 414.3906,249.6563 C414.3906,249.375 414.2656,249.125 414.0469,248.9531 C413.875,248.8281 413.7344,248.7969 413.2813,248.7969 L412.8906,248.7969 L413.2813,247.8125 L417.3281,247.8125 Z M416.625,246.1094 L413.9531,246.1094 L415.2969,242.8438 L416.625,246.1094 Z " fill="#000000"/><text fill="#000000" font-family="sans-serif" font-size="12" font-style="italic" lengthAdjust="spacing" textLength="116" x="435.75" y="250.1543">AbstractSwingView</text><line style="stroke:#A80036;stroke-width:1.5;" x1="308" x2="647" y1="262" y2="262"/><polygon fill="none" points="318,268,322,272,318,276,314,272" style="stroke:#B38D22;stroke-width:1.0;"/><text fill="#000000" font-family="sans-serif" font-size="11" lengthAdjust="spacing" textLength="77" x="327" y="276.2104">JFrame frame</text><polygon fill="none" points="318,280.8047,322,284.8047,318,288.8047,314,284.8047" style="stroke:#B38D22;stroke-width:1.0;"/><text fill="#000000" font-family="sans-serif" font-size="11" lengthAdjust="spacing" textLength="115" x="327" y="289.0151">Presenter presenter</text><line style="stroke:#A80036;stroke-width:1.5;" x1="308" x2="647" y1="295.6094" y2="295.6094"/><rect fill="#F24D5C" height="6" style="stroke:#C82930;stroke-width:1.0;" width="6" x="315" y="303.6094"/><text fill="#000000" font-family="sans-serif" font-size="11" lengthAdjust="spacing" text-decoration="underline" textLength="315" x="327" y="309.8198">highlightToken(ErrorToken, Highlighter, HighlightPainter)</text><polygon fill="#FFFF44" points="318,314.4141,322,318.4141,318,322.4141,314,318.4141" style="stroke:#B38D22;stroke-width:1.0;"/><text fill="#000000" font-family="sans-serif" font-size="11" font-style="italic" lengthAdjust="spacing" textLength="159" x="327" y="322.6245">getInput() : JTextComponent</text><polygon fill="#FFFF44" points="318,327.2188,322,331.2188,318,335.2188,314,331.2188" style="stroke:#B38D22;stroke-width:1.0;"/><text fill="#000000" font-family="sans-serif" font-size="11" font-style="italic" lengthAdjust="spacing" textLength="169" x="327" y="335.4292">getOutput() : JTextComponent</text><polygon fill="#FFFF44" points="318,340.0234,322,344.0234,318,348.0234,314,344.0234" style="stroke:#B38D22;stroke-width:1.0;"/><text fill="#000000" font-family="sans-serif" font-size="11" lengthAdjust="spacing" textLength="216" x="327" y="348.2339">getInstrumentSelector() : JComponent</text><polygon fill="#FFFF44" points="318,352.8281,322,356.8281,318,360.8281,314,356.8281" style="stroke:#B38D22;stroke-width:1.0;"/><text fill="#000000" font-family="sans-serif" font-size="11" lengthAdjust="spacing" textLength="172" x="327" y="361.0386">setUpFileDragAndDrop() : void</text><text fill="#000000" font-family="sans-serif" font-size="11" lengthAdjust="spacing" textLength="209" x="327" y="373.8433">(Implements every method of View)</text><!--MD5=[78cc7eb74c3fa10aac8e4dcb55cf04c2]
class TabbedView--><rect codeLine="41" fill="#FEFECE" filter="url(#f6npesg0vxrz)" height="48" id="TabbedView" style="stroke:#A80036;stroke-width:1.5;" width="118" x="256.5" y="440"/><ellipse cx="271.5" cy="456" fill="#ADD1B2" rx="11" ry="11" style="stroke:#A80036;stroke-width:1.0;"/><path d="M273.8438,451.6719 C272.9063,451.2344 272.3125,451.0938 271.4375,451.0938 C268.8125,451.0938 266.8125,453.1719 266.8125,455.8906 L266.8125,457.0156 C266.8125,459.5938 268.9219,461.4844 271.8125,461.4844 C273.0313,461.4844 274.1875,461.1875 274.9375,460.6406 C275.5156,460.2344 275.8438,459.7813 275.8438,459.3906 C275.8438,458.9375 275.4531,458.5469 274.9844,458.5469 C274.7656,458.5469 274.5625,458.625 274.375,458.8125 C273.9219,459.2969 273.9219,459.2969 273.7344,459.3906 C273.3125,459.6563 272.625,459.7813 271.8594,459.7813 C269.8125,459.7813 268.5156,458.6875 268.5156,456.9844 L268.5156,455.8906 C268.5156,454.1094 269.7656,452.7969 271.5,452.7969 C272.0781,452.7969 272.6875,452.9531 273.1563,453.2031 C273.6406,453.4844 273.8125,453.7031 273.9063,454.1094 C273.9688,454.5156 274,454.6406 274.1406,454.7656 C274.2813,454.9063 274.5156,455.0156 274.7344,455.0156 C275,455.0156 275.2656,454.875 275.4375,454.6563 C275.5469,454.5 275.5781,454.3125 275.5781,453.8906 L275.5781,452.4688 C275.5781,452.0313 275.5625,451.9063 275.4688,451.75 C275.3125,451.4844 275.0313,451.3438 274.7344,451.3438 C274.4375,451.3438 274.2344,451.4375 274.0156,451.75 L273.8438,451.6719 Z " fill="#000000"/><polygon fill="#4177AF" points="290.5,451.5,286.5,457.5,294.5,457.5" style="stroke:#1963A0;stroke-width:1.0;"/><text fill="#000000" font-family="sans-serif" font-size="12" lengthAdjust="spacing" textLength="75" x="296.5" y="460.1543">TabbedView</text><line style="stroke:#A80036;stroke-width:1.5;" x1="257.5" x2="373.5" y1="472" y2="472"/><line style="stroke:#A80036;stroke-width:1.5;" x1="257.5" x2="373.5" y1="480" y2="480"/><!--MD5=[6f062b0358e71ed36a9a041bba5d4781]
class SingleEntryView--><rect codeLine="43" fill="#FEFECE" filter="url(#f6npesg0vxrz)" height="48" id="SingleEntryView" style="stroke:#A80036;stroke-width:1.5;" width="139" x="410" y="440"/><ellipse cx="425" cy="456" fill="#ADD1B2" rx="11" ry="11" style="stroke:#A80036;stroke-width:1.0;"/><path d="M427.3438,451.6719 C426.4063,451.2344 425.8125,451.0938 424.9375,451.0938 C422.3125,451.0938 420.3125,453.1719 420.3125,455.8906 L420.3125,457.0156 C420.3125,459.5938 422.4219,461.4844 425.3125,461.4844 C426.5313,461.4844 427.6875,461.1875 428.4375,460.6406 C429.0156,460.2344 429.3438,459.7813 429.3438,459.3906 C429.3438,458.9375 428.9531,458.5469 428.4844,458.5469 C428.2656,458.5469 428.0625,458.625 427.875,458.8125 C427.4219,459.2969 427.4219,459.2969 427.2344,459.3906 C426.8125,459.6563 426.125,459.7813 425.3594,459.7813 C423.3125,459.7813 422.0156,458.6875 422.0156,456.9844 L422.0156,455.8906 C422.0156,454.1094 423.2656,452.7969 425,452.7969 C425.5781,452.7969 426.1875,452.9531 426.6563,453.2031 C427.1406,453.4844 427.3125,453.7031 427.4063,454.1094 C427.4688,454.5156 427.5,454.6406 427.6406,454.7656 C427.7813,454.9063 428.0156,455.0156 428.2344,455.0156 C428.5,455.0156 428.7656,454.875 428.9375,454.6563 C429.0469,454.5 429.0781,454.3125 429.0781,453.8906 L429.0781,452.4688 C429.0781,452.0313 429.0625,451.9063 428.9688,451.75 C428.8125,451.4844 428.5313,451.3438 428.2344,451.3438 C427.9375,451.3438 427.7344,451.4375 427.5156,451.75 L427.3438,451.6719 Z " fill="#000000"/><polygon fill="#4177AF" points="444,451.5,440,457.5,448,457.5" style="stroke:#1963A0;stroke-width:1.0;"/><text fill="#000000" font-family="sans-serif" font-size="12" lengthAdjust="spacing" textLength="96" x="450" y="460.1543">SingleEntryView</text><line style="stroke:#A80036;stroke-width:1.5;" x1="411" x2="548" y1="472" y2="472"/><line style="stroke:#A80036;stroke-width:1.5;" x1="411" x2="548" y1="480" y2="480"/><!--MD5=[ea9bc3d3f88adb0f251b791a11fa27ff]
class ViewBot--><rect fill="#FEFECE" filter="url(#f6npesg0vxrz)" height="48" id="ViewBot" style="stroke:#A80036;stroke-width:1.5;" width="81" x="140" y="440"/><ellipse cx="155" cy="456" fill="#ADD1B2" rx="11" ry="11" style="stroke:#A80036;stroke-width:1.0;"/><path d="M157.3438,451.6719 C156.4063,451.2344 155.8125,451.0938 154.9375,451.0938 C152.3125,451.0938 150.3125,453.1719 150.3125,455.8906 L150.3125,457.0156 C150.3125,459.5938 152.4219,461.4844 155.3125,461.4844 C156.5313,461.4844 157.6875,461.1875 158.4375,460.6406 C159.0156,460.2344 159.3438,459.7813 159.3438,459.3906 C159.3438,458.9375 158.9531,458.5469 158.4844,458.5469 C158.2656,458.5469 158.0625,458.625 157.875,458.8125 C157.4219,459.2969 157.4219,459.2969 157.2344,459.3906 C156.8125,459.6563 156.125,459.7813 155.3594,459.7813 C153.3125,459.7813 152.0156,458.6875 152.0156,456.9844 L152.0156,455.8906 C152.0156,454.1094 153.2656,452.7969 155,452.7969 C155.5781,452.7969 156.1875,452.9531 156.6563,453.2031 C157.1406,453.4844 157.3125,453.7031 157.4063,454.1094 C157.4688,454.5156 157.5,454.6406 157.6406,454.7656 C157.7813,454.9063 158.0156,455.0156 158.2344,455.0156 C158.5,455.0156 158.7656,454.875 158.9375,454.6563 C159.0469,454.5 159.0781,454.3125 159.0781,453.8906 L159.0781,452.4688 C159.0781,452.0313 159.0625,451.9063 158.9688,451.75 C158.8125,451.4844 158.5313,451.3438 158.2344,451.3438 C157.9375,451.3438 157.7344,451.4375 157.5156,451.75 L157.3438,451.6719 Z " fill="#000000"/><text fill="#000000" font-family="sans-serif" font-size="12" lengthAdjust="spacing" textLength="49" x="169" y="460.1543">ViewBot</text><line style="stroke:#A80036;stroke-width:1.5;" x1="141" x2="220" y1="472" y2="472"/><line style="stroke:#A80036;stroke-width:1.5;" x1="141" x2="220" y1="480" y2="480"/><!--MD5=[8875c3698b788d44f6b8338bb7156fa2]
link View to Presenter--><path codeLine="46" d="M356.276,88.5 C363.366,88.5 370.456,88.5 377.545,88.5 " fill="none" id="View-to-Presenter" style="stroke:#A80036;stroke-width:1.0;"/><polygon fill="#FFFFFF" points="390.738,88.5,384.738,84.5,378.738,88.5,384.738,92.5,390.738,88.5" style="stroke:#A80036;stroke-width:1.0;"/><text fill="#000000" font-family="sans-serif" font-size="13" lengthAdjust="spacing" textLength="8" x="375.119" y="85.1774">1</text><!--MD5=[1b574a388d6b6442a06e24782020e012]
link Presenter to AbstractSwingView--><path codeLine="47" d="M513.032,170.288 C508.964,185.596 504.692,201.672 500.577,217.159 " fill="none" id="Presenter-to-AbstractSwingView" style="stroke:#A80036;stroke-width:1.0;"/><polygon fill="#FFFFFF" points="497.165,229.999,502.5717,225.2275,500.2467,218.4014,494.84,223.173,497.165,229.999" style="stroke:#A80036;stroke-width:1.0;"/><text fill="#000000" font-family="sans-serif" font-size="13" lengthAdjust="spacing" textLength="8" x="490.707" y="218.9297">1</text><!--MD5=[c674bec0a95d94d719dfc8334bddd9b1]
reverse link View to AbstractSwingView--><path codeLine="48" d="M291.848,169.465 C319.163,189.259 348.311,210.382 375.223,229.884 " fill="none" id="View-backto-AbstractSwingView" style="stroke:#A80036;stroke-width:1.0;"/><polygon fill="none" points="287.65,175.068,275.563,157.664,295.865,163.731,287.65,175.068" style="stroke:#A80036;stroke-width:1.0;"/><!--MD5=[9d1f9c3d6dc2402df331f650dc526c4e]
reverse link View to NarrowingView--><path codeLine="49" d="M181.5,177.931 C181.5,209.443 181.5,243.194 181.5,267.836 " fill="none" id="View-backto-NarrowingView" style="stroke:#A80036;stroke-width:1.0;"/><polygon fill="none" points="174.5,177.664,181.5,157.664,188.5,177.664,174.5,177.664" style="stroke:#A80036;stroke-width:1.0;"/><!--MD5=[635464eb733e8a9eadf7aca0fc614806]
reverse link AbstractSwingView to TabbedView--><path codeLine="50" d="M386.18,394.501 C368.907,411.2418 352.269,427.3657 339.48,439.7602 " fill="none" id="AbstractSwingView-backto-TabbedView" style="stroke:#A80036;stroke-width:1.0;"/><polygon fill="none" points="381.536,389.2541,400.77,380.362,391.279,399.3076,381.536,389.2541" style="stroke:#A80036;stroke-width:1.0;"/><!--MD5=[745f33a23d253db90ebee695e6ad6e7a]
reverse link NarrowingView to TabbedView--><path codeLine="51" d="M225.25,357.26 C249.009,385.096 277.22,418.1499 295.699,439.7998 " fill="none" id="NarrowingView-backto-TabbedView" style="stroke:#A80036;stroke-width:1.0;"/><polygon fill="none" points="219.902,361.776,212.242,342.019,230.551,352.687,219.902,361.776" style="stroke:#A80036;stroke-width:1.0;"/><!--MD5=[98d9c72a06d40076dfbf5f3d33083827]
reverse link AbstractSwingView to SingleEntryView--><path codeLine="52" d="M478.704,400.4957 C478.889,415.0578 479.065,428.8531 479.204,439.7602 " fill="none" id="AbstractSwingView-backto-SingleEntryView" style="stroke:#A80036;stroke-width:1.0;"/><polygon fill="none" points="471.703,400.4496,478.447,380.362,485.702,400.2712,471.703,400.4496" style="stroke:#A80036;stroke-width:1.0;"/><!--MD5=[c158ad582aa84afe59dc2e073e61ef44]
reverse link NarrowingView to ViewBot--><path codeLine="53" d="M181.141,362.363 C180.971,389.0518 180.777,419.4589 180.648,439.7998 " fill="none" id="NarrowingView-backto-ViewBot" style="stroke:#A80036;stroke-width:1.0;"/><polygon fill="none" points="174.143,361.974,181.271,342.019,188.143,362.063,174.143,361.974" style="stroke:#A80036;stroke-width:1.0;"/><!--MD5=[5de0253c79038d261e69c3fad9486cbd]
@startuml
interface View {
  +{static} createView(ViewType) : View
  +{abstract} getInputText() : String
  +{abstract} getSelectedInstrument() : Instrument
  +getMetadata() : XMLMetadata
  +{abstract} setOutputText(String)
  +{abstract} promptForFile(FileNameExtensionFilter) : Optional<Path>
  +{abstract} showErrorMessage(String, String)
}

interface NarrowingView {
  +{abstract} getNarrowedText() : String
  +{abstract} setNarrowedText(String)
}

class Presenter {
  -View view

  -convert(String, Instrument) : Optional<String>
  +convert() : boolean
  +detectInstrument() : boolean
  +loadInput() : boolean
  -loadFromFile(Path) : Optional<String>
  +saveInput() : boolean
  +saveOutput() : boolean
  -saveToFile(Path, String) : boolean
}

abstract class AbstractSwingView {
  #JFrame frame
  #Presenter presenter
  
  -{static} highlightToken(ErrorToken, Highlighter, HighlightPainter)
  #{abstract} getInput() : JTextComponent
  #{abstract} getOutput() : JTextComponent
  #getInstrumentSelector() : JComponent
  #setUpFileDragAndDrop() : void
  (Implements every method of View)
}

~class TabbedView {
}
~class SingleEntryView {
}

View -o "1" Presenter
Presenter - -o "1" AbstractSwingView
View <|- - AbstractSwingView
View <|- - NarrowingView
AbstractSwingView <|- - TabbedView
NarrowingView <|- - TabbedView
AbstractSwingView <|- - SingleEntryView
NarrowingView <|- - ViewBot
@enduml

PlantUML version 1.2021.5beta3(Unknown compile time)
(GPL source distribution)
Java Runtime: Java(TM) SE Runtime Environment
JVM: Java HotSpot(TM) 64-Bit Server VM
Default Encoding: UTF-8
Language: en
Country: US
--></g></svg>