<?xml version="1.0" encoding="UTF-8" standalone="no"?>
<svg xmlns="http://www.w3.org/2000/svg" xmlns:xlink="http://www.w3.org/1999/xlink" contentScriptType="application/ecmascript" contentStyleType="text/css" height="343px" preserveAspectRatio="none" style="width:607px;height:343px;" version="1.1" viewBox="0 0 607 343" width="607px" zoomAndPan="magnify"><defs><filter height="300%" id="f1jlwdv44z74xv" width="300%" x="-1" y="-1"><feGaussianBlur result="blurOut" stdDeviation="2.0"/><feColorMatrix in="blurOut" result="blurOut2" type="matrix" values="0 0 0 0 0 0 0 0 0 0 0 0 0 0 0 0 0 0 .4 0"/><feOffset dx="4.0" dy="4.0" in="blurOut2" result="blurOut3"/><feBlend in="SourceGraphic" in2="blurOut3" mode="normal"/></filter></defs><g><!--MD5=[3cb1a85086cd955916a5604e4280a7ce]
cluster tab2xml.gui--><polygon fill="#FFFFFF" filter="url(#f1jlwdv44z74xv)" points="16,6,119,6,126,28.2969,196,28.2969,196,336,16,336,16,6" style="stroke:#000000;stroke-width:1.5;"/><line style="stroke:#000000;stroke-width:1.5;" x1="16" x2="126" y1="28.2969" y2="28.2969"/><text fill="#000000" font-family="sans-serif" font-size="14" font-weight="bold" lengthAdjust="spacing" textLength="97" x="20" y="20.9951">tab2xml.gui</text><!--MD5=[7ed4ff44fbac114393e754225b28e44b]
cluster tab2xml.model--><polygon fill="#FFFFFF" filter="url(#f1jlwdv44z74xv)" points="384,129,511,129,518,151.2969,521,151.2969,521,228,384,228,384,129" style="stroke:#000000;stroke-width:1.5;"/><line style="stroke:#000000;stroke-width:1.5;" x1="384" x2="518" y1="151.2969" y2="151.2969"/><text fill="#000000" font-family="sans-serif" font-size="14" font-weight="bold" lengthAdjust="spacing" textLength="121" x="388" y="143.9951">tab2xml.model</text><!--MD5=[8fad10821e429ab9c28bf057ead20119]
cluster tab2xml.parser--><polygon fill="#FFFFFF" filter="url(#f1jlwdv44z74xv)" points="220,6,350,6,357,28.2969,360,28.2969,360,228,220,228,220,6" style="stroke:#000000;stroke-width:1.5;"/><line style="stroke:#000000;stroke-width:1.5;" x1="220" x2="357" y1="28.2969" y2="28.2969"/><text fill="#000000" font-family="sans-serif" font-size="14" font-weight="bold" lengthAdjust="spacing" textLength="124" x="224" y="20.9951">tab2xml.parser</text><!--MD5=[25d093052d8730c094934a26955b3640]
cluster tab2xml.xmlConversion--><polygon fill="#FFFFFF" filter="url(#f1jlwdv44z74xv)" points="384,6,580,6,587,28.2969,590,28.2969,590,105,384,105,384,6" style="stroke:#000000;stroke-width:1.5;"/><line style="stroke:#000000;stroke-width:1.5;" x1="384" x2="587" y1="28.2969" y2="28.2969"/><text fill="#000000" font-family="sans-serif" font-size="14" font-weight="bold" lengthAdjust="spacing" textLength="190" x="388" y="20.9951">tab2xml.xmlConversion</text><!--MD5=[c045e12321b83266d36d22b9096c24ea]
class View--><rect codeLine="2" fill="#FEFECE" filter="url(#f1jlwdv44z74xv)" height="48" id="View" style="stroke:#A80036;stroke-width:1.5;" width="60" x="57" y="164"/><ellipse cx="72" cy="180" fill="#B4A7E5" rx="11" ry="11" style="stroke:#A80036;stroke-width:1.0;"/><path d="M72.9531,176.7813 L74.6719,176.7813 C75.0625,176.7813 75.25,176.75 75.375,176.6719 C75.6406,176.5156 75.7813,176.2344 75.7813,175.9375 C75.7813,175.6719 75.6719,175.4063 75.4375,175.2344 C75.2656,175.125 75.125,175.0938 74.6719,175.0938 L69.5313,175.0938 C69.0938,175.0938 68.9688,175.1094 68.8125,175.2031 C68.5625,175.3594 68.4063,175.6563 68.4063,175.9375 C68.4063,176.2188 68.5469,176.4688 68.7656,176.6406 C68.9219,176.75 69.1094,176.7813 69.5313,176.7813 L71.25,176.7813 L71.25,183.2969 L69.5313,183.2969 C69.0938,183.2969 68.9688,183.3125 68.8125,183.4219 C68.5625,183.5781 68.4063,183.8594 68.4063,184.1563 C68.4063,184.4063 68.5469,184.6719 68.7656,184.8281 C68.9219,184.9531 69.125,185 69.5313,185 L74.6719,185 C75.4219,185 75.7813,184.7188 75.7813,184.1563 C75.7813,183.875 75.6719,183.625 75.4375,183.4531 C75.2656,183.3281 75.125,183.2969 74.6719,183.2969 L72.9531,183.2969 L72.9531,176.7813 Z " fill="#000000"/><text fill="#000000" font-family="sans-serif" font-size="12" font-style="italic" lengthAdjust="spacing" textLength="28" x="86" y="184.1543">View</text><line style="stroke:#A80036;stroke-width:1.5;" x1="58" x2="116" y1="196" y2="196"/><line style="stroke:#A80036;stroke-width:1.5;" x1="58" x2="116" y1="204" y2="204"/><!--MD5=[b4dac3d107fd108a1286c53798d83979]
class AbstractSwingView--><rect codeLine="3" fill="#FEFECE" filter="url(#f1jlwdv44z74xv)" height="48" id="AbstractSwingView" style="stroke:#A80036;stroke-width:1.5;" width="148" x="32" y="272"/><ellipse cx="47" cy="288" fill="#A9DCDF" rx="11" ry="11" style="stroke:#A80036;stroke-width:1.0;"/><path d="M49.0781,289.8125 L49.4688,290.7969 L49.0781,290.7969 C48.625,290.7969 48.5156,290.8125 48.3594,290.9219 C48.1094,291.0781 47.9531,291.3594 47.9531,291.6563 C47.9531,291.9219 48.0938,292.1719 48.3125,292.3281 C48.4531,292.4531 48.6563,292.5 49.0781,292.5 L51.4375,292.5 C51.7969,292.5 52.0156,292.4688 52.1563,292.375 C52.4063,292.2344 52.5625,291.9375 52.5625,291.6563 C52.5625,291.375 52.4219,291.125 52.2031,290.9688 C52.0313,290.8281 51.875,290.7969 51.4063,290.7969 L48.0156,282.5938 L44.3438,282.5938 C43.8906,282.5938 43.7656,282.6094 43.6094,282.7031 C43.3594,282.875 43.2031,283.1563 43.2031,283.4375 C43.2031,283.7188 43.3438,283.9688 43.5625,284.1406 C43.7344,284.25 43.9063,284.2813 44.3438,284.2813 L45.4219,284.2813 L42.7813,290.7969 C42.3594,290.7969 42.2031,290.8125 42.0469,290.9219 C41.7969,291.0781 41.6406,291.3594 41.6406,291.6563 C41.6406,292.2188 42.0156,292.5 42.7656,292.5 L45.0313,292.5 C45.3906,292.5 45.6094,292.4688 45.7344,292.375 C46,292.2344 46.1406,291.9375 46.1406,291.6563 C46.1406,291.375 46.0156,291.125 45.7969,290.9531 C45.625,290.8281 45.4844,290.7969 45.0313,290.7969 L44.6406,290.7969 L45.0313,289.8125 L49.0781,289.8125 Z M48.375,288.1094 L45.7031,288.1094 L47.0469,284.8438 L48.375,288.1094 Z " fill="#000000"/><text fill="#000000" font-family="sans-serif" font-size="12" font-style="italic" lengthAdjust="spacing" textLength="116" x="61" y="292.1543">AbstractSwingView</text><line style="stroke:#A80036;stroke-width:1.5;" x1="33" x2="179" y1="304" y2="304"/><line style="stroke:#A80036;stroke-width:1.5;" x1="33" x2="179" y1="312" y2="312"/><!--MD5=[3de993ac3dd18e6abf686ebe9c2e07b2]
class Presenter--><rect codeLine="4" fill="#FEFECE" filter="url(#f1jlwdv44z74xv)" height="48" id="Presenter" style="stroke:#A80036;stroke-width:1.5;" width="90" x="90" y="41"/><ellipse cx="105" cy="57" fill="#ADD1B2" rx="11" ry="11" style="stroke:#A80036;stroke-width:1.0;"/><path d="M107.3438,52.6719 C106.4063,52.2344 105.8125,52.0938 104.9375,52.0938 C102.3125,52.0938 100.3125,54.1719 100.3125,56.8906 L100.3125,58.0156 C100.3125,60.5938 102.4219,62.4844 105.3125,62.4844 C106.5313,62.4844 107.6875,62.1875 108.4375,61.6406 C109.0156,61.2344 109.3438,60.7813 109.3438,60.3906 C109.3438,59.9375 108.9531,59.5469 108.4844,59.5469 C108.2656,59.5469 108.0625,59.625 107.875,59.8125 C107.4219,60.2969 107.4219,60.2969 107.2344,60.3906 C106.8125,60.6563 106.125,60.7813 105.3594,60.7813 C103.3125,60.7813 102.0156,59.6875 102.0156,57.9844 L102.0156,56.8906 C102.0156,55.1094 103.2656,53.7969 105,53.7969 C105.5781,53.7969 106.1875,53.9531 106.6563,54.2031 C107.1406,54.4844 107.3125,54.7031 107.4063,55.1094 C107.4688,55.5156 107.5,55.6406 107.6406,55.7656 C107.7813,55.9063 108.0156,56.0156 108.2344,56.0156 C108.5,56.0156 108.7656,55.875 108.9375,55.6563 C109.0469,55.5 109.0781,55.3125 109.0781,54.8906 L109.0781,53.4688 C109.0781,53.0313 109.0625,52.9063 108.9688,52.75 C108.8125,52.4844 108.5313,52.3438 108.2344,52.3438 C107.9375,52.3438 107.7344,52.4375 107.5156,52.75 L107.3438,52.6719 Z " fill="#000000"/><text fill="#000000" font-family="sans-serif" font-size="12" lengthAdjust="spacing" textLength="58" x="119" y="61.1543">Presenter</text><line style="stroke:#A80036;stroke-width:1.5;" x1="91" x2="179" y1="73" y2="73"/><line style="stroke:#A80036;stroke-width:1.5;" x1="91" x2="179" y1="81" y2="81"/><!--MD5=[107af66394bf1ebaa045812c9c475148]
class Score--><rect codeLine="12" fill="#FEFECE" filter="url(#f1jlwdv44z74xv)" height="48" id="Score" style="stroke:#A80036;stroke-width:1.5;" width="68" x="400" y="164"/><ellipse cx="415" cy="180" fill="#ADD1B2" rx="11" ry="11" style="stroke:#A80036;stroke-width:1.0;"/><path d="M417.3438,175.6719 C416.4063,175.2344 415.8125,175.0938 414.9375,175.0938 C412.3125,175.0938 410.3125,177.1719 410.3125,179.8906 L410.3125,181.0156 C410.3125,183.5938 412.4219,185.4844 415.3125,185.4844 C416.5313,185.4844 417.6875,185.1875 418.4375,184.6406 C419.0156,184.2344 419.3438,183.7813 419.3438,183.3906 C419.3438,182.9375 418.9531,182.5469 418.4844,182.5469 C418.2656,182.5469 418.0625,182.625 417.875,182.8125 C417.4219,183.2969 417.4219,183.2969 417.2344,183.3906 C416.8125,183.6563 416.125,183.7813 415.3594,183.7813 C413.3125,183.7813 412.0156,182.6875 412.0156,180.9844 L412.0156,179.8906 C412.0156,178.1094 413.2656,176.7969 415,176.7969 C415.5781,176.7969 416.1875,176.9531 416.6563,177.2031 C417.1406,177.4844 417.3125,177.7031 417.4063,178.1094 C417.4688,178.5156 417.5,178.6406 417.6406,178.7656 C417.7813,178.9063 418.0156,179.0156 418.2344,179.0156 C418.5,179.0156 418.7656,178.875 418.9375,178.6563 C419.0469,178.5 419.0781,178.3125 419.0781,177.8906 L419.0781,176.4688 C419.0781,176.0313 419.0625,175.9063 418.9688,175.75 C418.8125,175.4844 418.5313,175.3438 418.2344,175.3438 C417.9375,175.3438 417.7344,175.4375 417.5156,175.75 L417.3438,175.6719 Z " fill="#000000"/><text fill="#000000" font-family="sans-serif" font-size="12" lengthAdjust="spacing" textLength="36" x="429" y="184.1543">Score</text><line style="stroke:#A80036;stroke-width:1.5;" x1="401" x2="467" y1="196" y2="196"/><line style="stroke:#A80036;stroke-width:1.5;" x1="401" x2="467" y1="204" y2="204"/><!--MD5=[628cc5a2753cca06eb1ffef55c386535]
class Parser--><rect codeLine="16" fill="#FEFECE" filter="url(#f1jlwdv44z74xv)" height="48" id="Parser" style="stroke:#A80036;stroke-width:1.5;" width="70" x="268" y="41"/><ellipse cx="283" cy="57" fill="#ADD1B2" rx="11" ry="11" style="stroke:#A80036;stroke-width:1.0;"/><path d="M285.3438,52.6719 C284.4063,52.2344 283.8125,52.0938 282.9375,52.0938 C280.3125,52.0938 278.3125,54.1719 278.3125,56.8906 L278.3125,58.0156 C278.3125,60.5938 280.4219,62.4844 283.3125,62.4844 C284.5313,62.4844 285.6875,62.1875 286.4375,61.6406 C287.0156,61.2344 287.3438,60.7813 287.3438,60.3906 C287.3438,59.9375 286.9531,59.5469 286.4844,59.5469 C286.2656,59.5469 286.0625,59.625 285.875,59.8125 C285.4219,60.2969 285.4219,60.2969 285.2344,60.3906 C284.8125,60.6563 284.125,60.7813 283.3594,60.7813 C281.3125,60.7813 280.0156,59.6875 280.0156,57.9844 L280.0156,56.8906 C280.0156,55.1094 281.2656,53.7969 283,53.7969 C283.5781,53.7969 284.1875,53.9531 284.6563,54.2031 C285.1406,54.4844 285.3125,54.7031 285.4063,55.1094 C285.4688,55.5156 285.5,55.6406 285.6406,55.7656 C285.7813,55.9063 286.0156,56.0156 286.2344,56.0156 C286.5,56.0156 286.7656,55.875 286.9375,55.6563 C287.0469,55.5 287.0781,55.3125 287.0781,54.8906 L287.0781,53.4688 C287.0781,53.0313 287.0625,52.9063 286.9688,52.75 C286.8125,52.4844 286.5313,52.3438 286.2344,52.3438 C285.9375,52.3438 285.7344,52.4375 285.5156,52.75 L285.3438,52.6719 Z " fill="#000000"/><text fill="#000000" font-family="sans-serif" font-size="12" lengthAdjust="spacing" textLength="38" x="297" y="61.1543">Parser</text><line style="stroke:#A80036;stroke-width:1.5;" x1="269" x2="337" y1="73" y2="73"/><line style="stroke:#A80036;stroke-width:1.5;" x1="269" x2="337" y1="81" y2="81"/><!--MD5=[df152c2476dc0702efc46fc22338464c]
class Processor--><rect codeLine="17" fill="#FEFECE" filter="url(#f1jlwdv44z74xv)" height="48" id="Processor" style="stroke:#A80036;stroke-width:1.5;" width="93" x="250.5" y="164"/><ellipse cx="265.5" cy="180" fill="#ADD1B2" rx="11" ry="11" style="stroke:#A80036;stroke-width:1.0;"/><path d="M267.8438,175.6719 C266.9063,175.2344 266.3125,175.0938 265.4375,175.0938 C262.8125,175.0938 260.8125,177.1719 260.8125,179.8906 L260.8125,181.0156 C260.8125,183.5938 262.9219,185.4844 265.8125,185.4844 C267.0313,185.4844 268.1875,185.1875 268.9375,184.6406 C269.5156,184.2344 269.8438,183.7813 269.8438,183.3906 C269.8438,182.9375 269.4531,182.5469 268.9844,182.5469 C268.7656,182.5469 268.5625,182.625 268.375,182.8125 C267.9219,183.2969 267.9219,183.2969 267.7344,183.3906 C267.3125,183.6563 266.625,183.7813 265.8594,183.7813 C263.8125,183.7813 262.5156,182.6875 262.5156,180.9844 L262.5156,179.8906 C262.5156,178.1094 263.7656,176.7969 265.5,176.7969 C266.0781,176.7969 266.6875,176.9531 267.1563,177.2031 C267.6406,177.4844 267.8125,177.7031 267.9063,178.1094 C267.9688,178.5156 268,178.6406 268.1406,178.7656 C268.2813,178.9063 268.5156,179.0156 268.7344,179.0156 C269,179.0156 269.2656,178.875 269.4375,178.6563 C269.5469,178.5 269.5781,178.3125 269.5781,177.8906 L269.5781,176.4688 C269.5781,176.0313 269.5625,175.9063 269.4688,175.75 C269.3125,175.4844 269.0313,175.3438 268.7344,175.3438 C268.4375,175.3438 268.2344,175.4375 268.0156,175.75 L267.8438,175.6719 Z " fill="#000000"/><text fill="#000000" font-family="sans-serif" font-size="12" lengthAdjust="spacing" textLength="61" x="279.5" y="184.1543">Processor</text><line style="stroke:#A80036;stroke-width:1.5;" x1="251.5" x2="342.5" y1="196" y2="196"/><line style="stroke:#A80036;stroke-width:1.5;" x1="251.5" x2="342.5" y1="204" y2="204"/><!--MD5=[004b1d6c4ca8aad4ba8b586a335ed4f3]
class Transform--><rect codeLine="21" fill="#FEFECE" filter="url(#f1jlwdv44z74xv)" height="48" id="Transform" style="stroke:#A80036;stroke-width:1.5;" width="93" x="400.5" y="41"/><ellipse cx="415.5" cy="57" fill="#ADD1B2" rx="11" ry="11" style="stroke:#A80036;stroke-width:1.0;"/><path d="M417.8438,52.6719 C416.9063,52.2344 416.3125,52.0938 415.4375,52.0938 C412.8125,52.0938 410.8125,54.1719 410.8125,56.8906 L410.8125,58.0156 C410.8125,60.5938 412.9219,62.4844 415.8125,62.4844 C417.0313,62.4844 418.1875,62.1875 418.9375,61.6406 C419.5156,61.2344 419.8438,60.7813 419.8438,60.3906 C419.8438,59.9375 419.4531,59.5469 418.9844,59.5469 C418.7656,59.5469 418.5625,59.625 418.375,59.8125 C417.9219,60.2969 417.9219,60.2969 417.7344,60.3906 C417.3125,60.6563 416.625,60.7813 415.8594,60.7813 C413.8125,60.7813 412.5156,59.6875 412.5156,57.9844 L412.5156,56.8906 C412.5156,55.1094 413.7656,53.7969 415.5,53.7969 C416.0781,53.7969 416.6875,53.9531 417.1563,54.2031 C417.6406,54.4844 417.8125,54.7031 417.9063,55.1094 C417.9688,55.5156 418,55.6406 418.1406,55.7656 C418.2813,55.9063 418.5156,56.0156 418.7344,56.0156 C419,56.0156 419.2656,55.875 419.4375,55.6563 C419.5469,55.5 419.5781,55.3125 419.5781,54.8906 L419.5781,53.4688 C419.5781,53.0313 419.5625,52.9063 419.4688,52.75 C419.3125,52.4844 419.0313,52.3438 418.7344,52.3438 C418.4375,52.3438 418.2344,52.4375 418.0156,52.75 L417.8438,52.6719 Z " fill="#000000"/><text fill="#000000" font-family="sans-serif" font-size="12" lengthAdjust="spacing" textLength="61" x="429.5" y="61.1543">Transform</text><line style="stroke:#A80036;stroke-width:1.5;" x1="401.5" x2="492.5" y1="73" y2="73"/><line style="stroke:#A80036;stroke-width:1.5;" x1="401.5" x2="492.5" y1="81" y2="81"/><!--MD5=[94ac34da17b748a109eb6ac0e62bba58]
reverse link Presenter to View--><path codeLine="6" d="M121.049,101.169 C113.077,121.265 103.3,145.911 96.2709,163.63 " fill="none" id="Presenter-backto-View" style="stroke:#A80036;stroke-width:1.0;"/><polygon fill="#FFFFFF" points="125.859,89.044,119.9281,93.1458,121.4333,100.198,127.3641,96.0963,125.859,89.044" style="stroke:#A80036;stroke-width:1.0;"/><text fill="#000000" font-family="sans-serif" font-size="13" lengthAdjust="spacing" textLength="8" x="114.4916" y="109.2111">1</text><!--MD5=[c674bec0a95d94d719dfc8334bddd9b1]
reverse link View to AbstractSwingView--><path codeLine="7" d="M94.7118,232.024 C97.1416,245.579 99.7332,260.0381 101.82,271.6784 " fill="none" id="View-backto-AbstractSwingView" style="stroke:#A80036;stroke-width:1.0;"/><polygon fill="none" points="87.7613,232.922,91.1227,212,101.542,230.452,87.7613,232.922" style="stroke:#A80036;stroke-width:1.0;"/><!--MD5=[92049614234c8fc16c78d5d1e88763b6]
reverse link AbstractSwingView to Presenter--><path codeLine="8" d="M125.697,259.9078 C129.12,252.2489 132.167,244.028 134,236 C145.728,184.639 141.587,122.252 138.005,89.186 " fill="none" id="AbstractSwingView-backto-Presenter" style="stroke:#A80036;stroke-width:1.0;"/><polygon fill="#FFFFFF" points="119.928,271.7488,126.1517,268.1066,125.1834,260.9608,118.9597,264.603,119.928,271.7488" style="stroke:#A80036;stroke-width:1.0;"/><text fill="#000000" font-family="sans-serif" font-size="13" lengthAdjust="spacing" textLength="8" x="114.348" y="261.0925">1</text><!--MD5=[ea3244b827293de151933372d2f50868]
reverse link Parser to Score--><path codeLine="24" d="M337.715,98.065 C360.03,118.676 388.515,144.987 408.698,163.63 " fill="none" id="Parser-backto-Score" style="stroke:#A80036;stroke-width:1.0;"/><polygon fill="#FFFFFF" points="327.948,89.044,329.6419,96.0533,336.7635,97.1857,335.0696,90.1763,327.948,89.044" style="stroke:#A80036;stroke-width:1.0;"/><text fill="#000000" font-family="sans-serif" font-size="13" lengthAdjust="spacing" textLength="8" x="325.3159" y="109.2111">1</text><!--MD5=[54824497402a5e2eec52c1338129c753]
reverse link Parser to Processor--><path codeLine="25" d="M301.213,102.029 C300.225,121.964 299.025,146.163 298.159,163.63 " fill="none" id="Parser-backto-Processor" style="stroke:#A80036;stroke-width:1.0;"/><polygon fill="#FFFFFF" points="301.857,89.044,297.5652,94.8389,301.2636,101.0293,305.5554,95.2345,301.857,89.044" style="stroke:#A80036;stroke-width:1.0;"/><text fill="#000000" font-family="sans-serif" font-size="13" lengthAdjust="spacing" textLength="8" x="292.5391" y="109.2111">1</text><!--MD5=[8a9f6621c5852b442a658f8c77707d4f]
link Presenter to Parser--><path codeLine="26" d="M180.281,65 C207.659,65 235.037,65 262.415,65 " fill="none" id="Presenter-to-Parser" style="stroke:#A80036;stroke-width:1.0;"/><polygon fill="#A80036" points="267.527,65,258.527,61,262.527,65,258.527,69,267.527,65" style="stroke:#A80036;stroke-width:1.0;"/><!--MD5=[43b6fe369902da6002757ec1b1af6c2a]
link Parser to Transform--><path codeLine="27" d="M338.156,65 C357.07,65 375.983,65 394.897,65 " fill="none" id="Parser-to-Transform" style="stroke:#A80036;stroke-width:1.0;"/><polygon fill="#A80036" points="400.231,65,391.231,61,395.231,65,391.231,69,400.231,65" style="stroke:#A80036;stroke-width:1.0;"/><!--MD5=[c9696a764e2d47cf4669d7a4aed986c8]
@startuml
package tab2xml.gui {
  interface View {}
  abstract class AbstractSwingView {}
  class Presenter {}

  Presenter "1" o- - View
  View <|- - AbstractSwingView
  AbstractSwingView "1" o- - Presenter
}

package tab2xml.model {
  class Score {}
}

package tab2xml.parser {
  class Parser {}
  class Processor {}
}

package tab2xml.xmlConversion {
  class Transform {}
}

Parser "1" o- - Score
Parser "1" o- - Processor
Presenter -> Parser
Parser -> Transform
@enduml

PlantUML version 1.2021.5beta3(Unknown compile time)
(GPL source distribution)
Java Runtime: Java(TM) SE Runtime Environment
JVM: Java HotSpot(TM) 64-Bit Server VM
Default Encoding: UTF-8
Language: en
Country: US
--></g></svg>