<?xml version="1.0" encoding="UTF-8" standalone="no"?>
<svg xmlns="http://www.w3.org/2000/svg" xmlns:xlink="http://www.w3.org/1999/xlink" contentScriptType="application/ecmascript" contentStyleType="text/css" height="235px" preserveAspectRatio="none" style="width:549px;height:235px;" version="1.1" viewBox="0 0 549 235" width="549px" zoomAndPan="magnify"><defs><filter height="300%" id="f1edmd2b03grh3" width="300%" x="-1" y="-1"><feGaussianBlur result="blurOut" stdDeviation="2.0"/><feColorMatrix in="blurOut" result="blurOut2" type="matrix" values="0 0 0 0 0 0 0 0 0 0 0 0 0 0 0 0 0 0 .4 0"/><feOffset dx="4.0" dy="4.0" in="blurOut2" result="blurOut3"/><feBlend in="SourceGraphic" in2="blurOut3" mode="normal"/></filter></defs><g><!--MD5=[3cb1a85086cd955916a5604e4280a7ce]
cluster tab2xml.gui--><polygon fill="#FFFFFF" filter="url(#f1edmd2b03grh3)" points="16,6,119,6,126,28.2969,138,28.2969,138,228,16,228,16,6" style="stroke:#000000;stroke-width:1.5;"/><line style="stroke:#000000;stroke-width:1.5;" x1="16" x2="126" y1="28.2969" y2="28.2969"/><text fill="#000000" font-family="sans-serif" font-size="14" font-weight="bold" lengthAdjust="spacing" textLength="97" x="20" y="20.9951">tab2xml.gui</text><!--MD5=[7ed4ff44fbac114393e754225b28e44b]
cluster tab2xml.model--><polygon fill="#FFFFFF" filter="url(#f1edmd2b03grh3)" points="326,129,453,129,460,151.2969,463,151.2969,463,228,326,228,326,129" style="stroke:#000000;stroke-width:1.5;"/><line style="stroke:#000000;stroke-width:1.5;" x1="326" x2="460" y1="151.2969" y2="151.2969"/><text fill="#000000" font-family="sans-serif" font-size="14" font-weight="bold" lengthAdjust="spacing" textLength="121" x="330" y="143.9951">tab2xml.model</text><!--MD5=[8fad10821e429ab9c28bf057ead20119]
cluster tab2xml.parser--><polygon fill="#FFFFFF" filter="url(#f1edmd2b03grh3)" points="162,6,292,6,299,28.2969,302,28.2969,302,228,162,228,162,6" style="stroke:#000000;stroke-width:1.5;"/><line style="stroke:#000000;stroke-width:1.5;" x1="162" x2="299" y1="28.2969" y2="28.2969"/><text fill="#000000" font-family="sans-serif" font-size="14" font-weight="bold" lengthAdjust="spacing" textLength="124" x="166" y="20.9951">tab2xml.parser</text><!--MD5=[25d093052d8730c094934a26955b3640]
cluster tab2xml.xmlConversion--><polygon fill="#FFFFFF" filter="url(#f1edmd2b03grh3)" points="326,6,522,6,529,28.2969,532,28.2969,532,105,326,105,326,6" style="stroke:#000000;stroke-width:1.5;"/><line style="stroke:#000000;stroke-width:1.5;" x1="326" x2="529" y1="28.2969" y2="28.2969"/><text fill="#000000" font-family="sans-serif" font-size="14" font-weight="bold" lengthAdjust="spacing" textLength="190" x="330" y="20.9951">tab2xml.xmlConversion</text><!--MD5=[c045e12321b83266d36d22b9096c24ea]
class View--><rect codeLine="2" fill="#FEFECE" filter="url(#f1edmd2b03grh3)" height="48" id="View" style="stroke:#A80036;stroke-width:1.5;" width="60" x="47" y="164"/><ellipse cx="62" cy="180" fill="#B4A7E5" rx="11" ry="11" style="stroke:#A80036;stroke-width:1.0;"/><path d="M62.9531,176.7813 L64.6719,176.7813 C65.0625,176.7813 65.25,176.75 65.375,176.6719 C65.6406,176.5156 65.7813,176.2344 65.7813,175.9375 C65.7813,175.6719 65.6719,175.4063 65.4375,175.2344 C65.2656,175.125 65.125,175.0938 64.6719,175.0938 L59.5313,175.0938 C59.0938,175.0938 58.9688,175.1094 58.8125,175.2031 C58.5625,175.3594 58.4063,175.6563 58.4063,175.9375 C58.4063,176.2188 58.5469,176.4688 58.7656,176.6406 C58.9219,176.75 59.1094,176.7813 59.5313,176.7813 L61.25,176.7813 L61.25,183.2969 L59.5313,183.2969 C59.0938,183.2969 58.9688,183.3125 58.8125,183.4219 C58.5625,183.5781 58.4063,183.8594 58.4063,184.1563 C58.4063,184.4063 58.5469,184.6719 58.7656,184.8281 C58.9219,184.9531 59.125,185 59.5313,185 L64.6719,185 C65.4219,185 65.7813,184.7188 65.7813,184.1563 C65.7813,183.875 65.6719,183.625 65.4375,183.4531 C65.2656,183.3281 65.125,183.2969 64.6719,183.2969 L62.9531,183.2969 L62.9531,176.7813 Z " fill="#000000"/><text fill="#000000" font-family="sans-serif" font-size="12" font-style="italic" lengthAdjust="spacing" textLength="28" x="76" y="184.1543">View</text><line style="stroke:#A80036;stroke-width:1.5;" x1="48" x2="106" y1="196" y2="196"/><line style="stroke:#A80036;stroke-width:1.5;" x1="48" x2="106" y1="204" y2="204"/><!--MD5=[3de993ac3dd18e6abf686ebe9c2e07b2]
class Presenter--><rect codeLine="3" fill="#FEFECE" filter="url(#f1edmd2b03grh3)" height="48" id="Presenter" style="stroke:#A80036;stroke-width:1.5;" width="90" x="32" y="41"/><ellipse cx="47" cy="57" fill="#ADD1B2" rx="11" ry="11" style="stroke:#A80036;stroke-width:1.0;"/><path d="M49.3438,52.6719 C48.4063,52.2344 47.8125,52.0938 46.9375,52.0938 C44.3125,52.0938 42.3125,54.1719 42.3125,56.8906 L42.3125,58.0156 C42.3125,60.5938 44.4219,62.4844 47.3125,62.4844 C48.5313,62.4844 49.6875,62.1875 50.4375,61.6406 C51.0156,61.2344 51.3438,60.7813 51.3438,60.3906 C51.3438,59.9375 50.9531,59.5469 50.4844,59.5469 C50.2656,59.5469 50.0625,59.625 49.875,59.8125 C49.4219,60.2969 49.4219,60.2969 49.2344,60.3906 C48.8125,60.6563 48.125,60.7813 47.3594,60.7813 C45.3125,60.7813 44.0156,59.6875 44.0156,57.9844 L44.0156,56.8906 C44.0156,55.1094 45.2656,53.7969 47,53.7969 C47.5781,53.7969 48.1875,53.9531 48.6563,54.2031 C49.1406,54.4844 49.3125,54.7031 49.4063,55.1094 C49.4688,55.5156 49.5,55.6406 49.6406,55.7656 C49.7813,55.9063 50.0156,56.0156 50.2344,56.0156 C50.5,56.0156 50.7656,55.875 50.9375,55.6563 C51.0469,55.5 51.0781,55.3125 51.0781,54.8906 L51.0781,53.4688 C51.0781,53.0313 51.0625,52.9063 50.9688,52.75 C50.8125,52.4844 50.5313,52.3438 50.2344,52.3438 C49.9375,52.3438 49.7344,52.4375 49.5156,52.75 L49.3438,52.6719 Z " fill="#000000"/><text fill="#000000" font-family="sans-serif" font-size="12" lengthAdjust="spacing" textLength="58" x="61" y="61.1543">Presenter</text><line style="stroke:#A80036;stroke-width:1.5;" x1="33" x2="121" y1="73" y2="73"/><line style="stroke:#A80036;stroke-width:1.5;" x1="33" x2="121" y1="81" y2="81"/><!--MD5=[107af66394bf1ebaa045812c9c475148]
class Score--><rect codeLine="10" fill="#FEFECE" filter="url(#f1edmd2b03grh3)" height="48" id="Score" style="stroke:#A80036;stroke-width:1.5;" width="68" x="342" y="164"/><ellipse cx="357" cy="180" fill="#ADD1B2" rx="11" ry="11" style="stroke:#A80036;stroke-width:1.0;"/><path d="M359.3438,175.6719 C358.4063,175.2344 357.8125,175.0938 356.9375,175.0938 C354.3125,175.0938 352.3125,177.1719 352.3125,179.8906 L352.3125,181.0156 C352.3125,183.5938 354.4219,185.4844 357.3125,185.4844 C358.5313,185.4844 359.6875,185.1875 360.4375,184.6406 C361.0156,184.2344 361.3438,183.7813 361.3438,183.3906 C361.3438,182.9375 360.9531,182.5469 360.4844,182.5469 C360.2656,182.5469 360.0625,182.625 359.875,182.8125 C359.4219,183.2969 359.4219,183.2969 359.2344,183.3906 C358.8125,183.6563 358.125,183.7813 357.3594,183.7813 C355.3125,183.7813 354.0156,182.6875 354.0156,180.9844 L354.0156,179.8906 C354.0156,178.1094 355.2656,176.7969 357,176.7969 C357.5781,176.7969 358.1875,176.9531 358.6563,177.2031 C359.1406,177.4844 359.3125,177.7031 359.4063,178.1094 C359.4688,178.5156 359.5,178.6406 359.6406,178.7656 C359.7813,178.9063 360.0156,179.0156 360.2344,179.0156 C360.5,179.0156 360.7656,178.875 360.9375,178.6563 C361.0469,178.5 361.0781,178.3125 361.0781,177.8906 L361.0781,176.4688 C361.0781,176.0313 361.0625,175.9063 360.9688,175.75 C360.8125,175.4844 360.5313,175.3438 360.2344,175.3438 C359.9375,175.3438 359.7344,175.4375 359.5156,175.75 L359.3438,175.6719 Z " fill="#000000"/><text fill="#000000" font-family="sans-serif" font-size="12" lengthAdjust="spacing" textLength="36" x="371" y="184.1543">Score</text><line style="stroke:#A80036;stroke-width:1.5;" x1="343" x2="409" y1="196" y2="196"/><line style="stroke:#A80036;stroke-width:1.5;" x1="343" x2="409" y1="204" y2="204"/><!--MD5=[628cc5a2753cca06eb1ffef55c386535]
class Parser--><rect codeLine="14" fill="#FEFECE" filter="url(#f1edmd2b03grh3)" height="48" id="Parser" style="stroke:#A80036;stroke-width:1.5;" width="70" x="210" y="41"/><ellipse cx="225" cy="57" fill="#ADD1B2" rx="11" ry="11" style="stroke:#A80036;stroke-width:1.0;"/><path d="M227.3438,52.6719 C226.4063,52.2344 225.8125,52.0938 224.9375,52.0938 C222.3125,52.0938 220.3125,54.1719 220.3125,56.8906 L220.3125,58.0156 C220.3125,60.5938 222.4219,62.4844 225.3125,62.4844 C226.5313,62.4844 227.6875,62.1875 228.4375,61.6406 C229.0156,61.2344 229.3438,60.7813 229.3438,60.3906 C229.3438,59.9375 228.9531,59.5469 228.4844,59.5469 C228.2656,59.5469 228.0625,59.625 227.875,59.8125 C227.4219,60.2969 227.4219,60.2969 227.2344,60.3906 C226.8125,60.6563 226.125,60.7813 225.3594,60.7813 C223.3125,60.7813 222.0156,59.6875 222.0156,57.9844 L222.0156,56.8906 C222.0156,55.1094 223.2656,53.7969 225,53.7969 C225.5781,53.7969 226.1875,53.9531 226.6563,54.2031 C227.1406,54.4844 227.3125,54.7031 227.4063,55.1094 C227.4688,55.5156 227.5,55.6406 227.6406,55.7656 C227.7813,55.9063 228.0156,56.0156 228.2344,56.0156 C228.5,56.0156 228.7656,55.875 228.9375,55.6563 C229.0469,55.5 229.0781,55.3125 229.0781,54.8906 L229.0781,53.4688 C229.0781,53.0313 229.0625,52.9063 228.9688,52.75 C228.8125,52.4844 228.5313,52.3438 228.2344,52.3438 C227.9375,52.3438 227.7344,52.4375 227.5156,52.75 L227.3438,52.6719 Z " fill="#000000"/><text fill="#000000" font-family="sans-serif" font-size="12" lengthAdjust="spacing" textLength="38" x="239" y="61.1543">Parser</text><line style="stroke:#A80036;stroke-width:1.5;" x1="211" x2="279" y1="73" y2="73"/><line style="stroke:#A80036;stroke-width:1.5;" x1="211" x2="279" y1="81" y2="81"/><!--MD5=[df152c2476dc0702efc46fc22338464c]
class Processor--><rect codeLine="15" fill="#FEFECE" filter="url(#f1edmd2b03grh3)" height="48" id="Processor" style="stroke:#A80036;stroke-width:1.5;" width="93" x="192.5" y="164"/><ellipse cx="207.5" cy="180" fill="#ADD1B2" rx="11" ry="11" style="stroke:#A80036;stroke-width:1.0;"/><path d="M209.8438,175.6719 C208.9063,175.2344 208.3125,175.0938 207.4375,175.0938 C204.8125,175.0938 202.8125,177.1719 202.8125,179.8906 L202.8125,181.0156 C202.8125,183.5938 204.9219,185.4844 207.8125,185.4844 C209.0313,185.4844 210.1875,185.1875 210.9375,184.6406 C211.5156,184.2344 211.8438,183.7813 211.8438,183.3906 C211.8438,182.9375 211.4531,182.5469 210.9844,182.5469 C210.7656,182.5469 210.5625,182.625 210.375,182.8125 C209.9219,183.2969 209.9219,183.2969 209.7344,183.3906 C209.3125,183.6563 208.625,183.7813 207.8594,183.7813 C205.8125,183.7813 204.5156,182.6875 204.5156,180.9844 L204.5156,179.8906 C204.5156,178.1094 205.7656,176.7969 207.5,176.7969 C208.0781,176.7969 208.6875,176.9531 209.1563,177.2031 C209.6406,177.4844 209.8125,177.7031 209.9063,178.1094 C209.9688,178.5156 210,178.6406 210.1406,178.7656 C210.2813,178.9063 210.5156,179.0156 210.7344,179.0156 C211,179.0156 211.2656,178.875 211.4375,178.6563 C211.5469,178.5 211.5781,178.3125 211.5781,177.8906 L211.5781,176.4688 C211.5781,176.0313 211.5625,175.9063 211.4688,175.75 C211.3125,175.4844 211.0313,175.3438 210.7344,175.3438 C210.4375,175.3438 210.2344,175.4375 210.0156,175.75 L209.8438,175.6719 Z " fill="#000000"/><text fill="#000000" font-family="sans-serif" font-size="12" lengthAdjust="spacing" textLength="61" x="221.5" y="184.1543">Processor</text><line style="stroke:#A80036;stroke-width:1.5;" x1="193.5" x2="284.5" y1="196" y2="196"/><line style="stroke:#A80036;stroke-width:1.5;" x1="193.5" x2="284.5" y1="204" y2="204"/><!--MD5=[004b1d6c4ca8aad4ba8b586a335ed4f3]
class Transform--><rect codeLine="19" fill="#FEFECE" filter="url(#f1edmd2b03grh3)" height="48" id="Transform" style="stroke:#A80036;stroke-width:1.5;" width="93" x="342.5" y="41"/><ellipse cx="357.5" cy="57" fill="#ADD1B2" rx="11" ry="11" style="stroke:#A80036;stroke-width:1.0;"/><path d="M359.8438,52.6719 C358.9063,52.2344 358.3125,52.0938 357.4375,52.0938 C354.8125,52.0938 352.8125,54.1719 352.8125,56.8906 L352.8125,58.0156 C352.8125,60.5938 354.9219,62.4844 357.8125,62.4844 C359.0313,62.4844 360.1875,62.1875 360.9375,61.6406 C361.5156,61.2344 361.8438,60.7813 361.8438,60.3906 C361.8438,59.9375 361.4531,59.5469 360.9844,59.5469 C360.7656,59.5469 360.5625,59.625 360.375,59.8125 C359.9219,60.2969 359.9219,60.2969 359.7344,60.3906 C359.3125,60.6563 358.625,60.7813 357.8594,60.7813 C355.8125,60.7813 354.5156,59.6875 354.5156,57.9844 L354.5156,56.8906 C354.5156,55.1094 355.7656,53.7969 357.5,53.7969 C358.0781,53.7969 358.6875,53.9531 359.1563,54.2031 C359.6406,54.4844 359.8125,54.7031 359.9063,55.1094 C359.9688,55.5156 360,55.6406 360.1406,55.7656 C360.2813,55.9063 360.5156,56.0156 360.7344,56.0156 C361,56.0156 361.2656,55.875 361.4375,55.6563 C361.5469,55.5 361.5781,55.3125 361.5781,54.8906 L361.5781,53.4688 C361.5781,53.0313 361.5625,52.9063 361.4688,52.75 C361.3125,52.4844 361.0313,52.3438 360.7344,52.3438 C360.4375,52.3438 360.2344,52.4375 360.0156,52.75 L359.8438,52.6719 Z " fill="#000000"/><text fill="#000000" font-family="sans-serif" font-size="12" lengthAdjust="spacing" textLength="61" x="371.5" y="61.1543">Transform</text><line style="stroke:#A80036;stroke-width:1.5;" x1="343.5" x2="434.5" y1="73" y2="73"/><line style="stroke:#A80036;stroke-width:1.5;" x1="343.5" x2="434.5" y1="81" y2="81"/><!--MD5=[94ac34da17b748a109eb6ac0e62bba58]
reverse link Presenter to View--><path codeLine="5" d="M65.2263,102.029 C63.5477,121.964 64.0337,146.1631 66.6843,163.6297 " fill="none" id="Presenter-backto-View" style="stroke:#A80036;stroke-width:1.0;"/><polygon fill="#FFFFFF" points="66.7342,89.044,62.0686,94.5424,65.3496,100.9639,70.0152,95.4655,66.7342,89.044" style="stroke:#A80036;stroke-width:1.0;"/><text fill="#000000" font-family="sans-serif" font-size="13" lengthAdjust="spacing" textLength="8" x="55.0786" y="109.2111">1</text><!--MD5=[5439f94e577273a877020d5c6d6e0bca]
reverse link View to Presenter--><path codeLine="6" d="M89.4993,150.597 C91.248,130.609 90.7048,106.426 87.8697,89.044 " fill="none" id="View-backto-Presenter" style="stroke:#A80036;stroke-width:1.0;"/><polygon fill="#FFFFFF" points="87.9225,163.6297,92.6143,158.1536,89.364,151.7166,84.6722,157.1927,87.9225,163.6297" style="stroke:#A80036;stroke-width:1.0;"/><text fill="#000000" font-family="sans-serif" font-size="13" lengthAdjust="spacing" textLength="21" x="67.0255" y="152.9444">0-1</text><!--MD5=[ea3244b827293de151933372d2f50868]
reverse link Parser to Score--><path codeLine="22" d="M279.715,98.065 C302.03,118.676 330.515,144.9874 350.698,163.6297 " fill="none" id="Parser-backto-Score" style="stroke:#A80036;stroke-width:1.0;"/><polygon fill="#FFFFFF" points="269.948,89.044,271.6419,96.0533,278.7635,97.1857,277.0696,90.1763,269.948,89.044" style="stroke:#A80036;stroke-width:1.0;"/><text fill="#000000" font-family="sans-serif" font-size="13" lengthAdjust="spacing" textLength="8" x="267.3159" y="109.2111">1</text><!--MD5=[54824497402a5e2eec52c1338129c753]
reverse link Parser to Processor--><path codeLine="23" d="M243.213,102.029 C242.225,121.964 241.025,146.1631 240.159,163.6297 " fill="none" id="Parser-backto-Processor" style="stroke:#A80036;stroke-width:1.0;"/><polygon fill="#FFFFFF" points="243.857,89.044,239.5652,94.8389,243.2636,101.0293,247.5554,95.2345,243.857,89.044" style="stroke:#A80036;stroke-width:1.0;"/><text fill="#000000" font-family="sans-serif" font-size="13" lengthAdjust="spacing" textLength="8" x="234.5391" y="109.2111">1</text><!--MD5=[8a9f6621c5852b442a658f8c77707d4f]
link Presenter to Parser--><path codeLine="24" d="M122.281,65 C149.659,65 177.037,65 204.415,65 " fill="none" id="Presenter-to-Parser" style="stroke:#A80036;stroke-width:1.0;"/><polygon fill="#A80036" points="209.527,65,200.527,61,204.527,65,200.527,69,209.527,65" style="stroke:#A80036;stroke-width:1.0;"/><!--MD5=[43b6fe369902da6002757ec1b1af6c2a]
link Parser to Transform--><path codeLine="25" d="M280.156,65 C299.07,65 317.983,65 336.897,65 " fill="none" id="Parser-to-Transform" style="stroke:#A80036;stroke-width:1.0;"/><polygon fill="#A80036" points="342.231,65,333.231,61,337.231,65,333.231,69,342.231,65" style="stroke:#A80036;stroke-width:1.0;"/><!--MD5=[5fe4ad4d05291bf094ada24b61b11082]
@startuml
package tab2xml.gui {
  interface View {}
  class Presenter {}

  Presenter "1" o- - View
  View "0-1" o- - Presenter
}

package tab2xml.model {
  class Score {}
}

package tab2xml.parser {
  class Parser {}
  class Processor {}
}

package tab2xml.xmlConversion {
  class Transform {}
}

Parser "1" o- - Score
Parser "1" o- - Processor
Presenter -> Parser
Parser -> Transform
@enduml

PlantUML version 1.2021.5beta3(Unknown compile time)
(GPL source distribution)
Java Runtime: Java(TM) SE Runtime Environment
JVM: Java HotSpot(TM) 64-Bit Server VM
Default Encoding: UTF-8
Language: en
Country: US
--></g></svg>