<?xml version="1.0" encoding="UTF-8" standalone="no"?>
<svg xmlns="http://www.w3.org/2000/svg" xmlns:xlink="http://www.w3.org/1999/xlink" contentScriptType="application/ecmascript" contentStyleType="text/css" height="207px" preserveAspectRatio="none" style="width:432px;height:207px;" version="1.1" viewBox="0 0 432 207" width="432px" zoomAndPan="magnify"><defs><filter height="300%" id="fon8zdomi4pbu" width="300%" x="-1" y="-1"><feGaussianBlur result="blurOut" stdDeviation="2.0"/><feColorMatrix in="blurOut" result="blurOut2" type="matrix" values="0 0 0 0 0 0 0 0 0 0 0 0 0 0 0 0 0 0 .4 0"/><feOffset dx="4.0" dy="4.0" in="blurOut2" result="blurOut3"/><feBlend in="SourceGraphic" in2="blurOut3" mode="normal"/></filter></defs><g><!--MD5=[9da66ae18e307bbf9a38935d3372c613]
cluster Tab2xmlSystem--><polygon fill="#FFFFFF" filter="url(#fon8zdomi4pbu)" points="16,110.5,152,110.5,159,132.7969,415,132.7969,415,200.5,16,200.5,16,110.5" style="stroke:#000000;stroke-width:1.5;"/><line style="stroke:#000000;stroke-width:1.5;" x1="16" x2="159" y1="132.7969" y2="132.7969"/><text fill="#000000" font-family="sans-serif" font-size="14" font-weight="bold" lengthAdjust="spacing" textLength="130" x="20" y="125.4951">Tab2xmlSystem</text><ellipse cx="312.7932" cy="164.9586" fill="#FEFECE" filter="url(#fon8zdomi4pbu)" rx="85.2932" ry="19.4586" style="stroke:#A80036;stroke-width:1.5;"/><text fill="#000000" font-family="sans-serif" font-size="14" lengthAdjust="spacing" textLength="131" x="247.2932" y="167.8053">Convert Tablature</text><ellipse cx="112.1963" cy="164.9393" fill="#FEFECE" filter="url(#fon8zdomi4pbu)" rx="80.1963" ry="18.4393" style="stroke:#A80036;stroke-width:1.5;"/><text fill="#000000" font-family="sans-serif" font-size="14" lengthAdjust="spacing" textLength="119" x="51.1039" y="168.2979">Change Settings</text><!--MD5=[8036ddc157acaafd5f649faeab90d36a]
entity Musician--><ellipse cx="212" cy="14" fill="#FEFECE" filter="url(#fon8zdomi4pbu)" rx="8" ry="8" style="stroke:#A80036;stroke-width:1.5;"/><path d="M212,22 L212,49 M199,30 L225,30 M212,49 L199,64 M212,49 L225,64 " fill="none" filter="url(#fon8zdomi4pbu)" style="stroke:#A80036;stroke-width:1.5;"/><text fill="#000000" font-family="sans-serif" font-size="14" lengthAdjust="spacing" textLength="60" x="182" y="82.4951">Musician</text><!--MD5=[ff84eae84868f3fd26088fe0308390fe]
link Musician to UC1--><path d="M242.03,81.084 C258.755,100.624 279.086,124.3773 293.693,141.4432 " fill="none" id="Musician-to-UC1" style="stroke:#A80036;stroke-width:1.0;"/><polygon fill="#A80036" points="297.278,145.6313,294.4645,136.1928,294.0267,141.8327,288.3868,141.3949,297.278,145.6313" style="stroke:#A80036;stroke-width:1.0;"/><!--MD5=[3b728f328298eb8421cd794354456444]
link Musician to UC2--><path d="M181.997,81.404 C165.131,101.305 144.632,125.4947 130.189,142.5375 " fill="none" id="Musician-to-UC2" style="stroke:#A80036;stroke-width:1.0;"/><polygon fill="#A80036" points="126.653,146.7095,135.5234,142.4297,129.8857,142.8951,129.4203,137.2574,126.653,146.7095" style="stroke:#A80036;stroke-width:1.0;"/><!--MD5=[a10907fd18627b7c4fb94cc7103ebfe5]
@startuml
actor Musician

package Tab2xmlSystem {
  usecase "Convert Tablature" as UC1
  usecase "Change Settings" as UC2
}

Musician - -> UC1
Musician - -> UC2
@enduml

PlantUML version 1.2021.3beta6(Unknown compile time)
(GPL source distribution)
Java Runtime: Java(TM) SE Runtime Environment
JVM: Java HotSpot(TM) 64-Bit Server VM
Default Encoding: UTF-8
Language: en
Country: US
--></g></svg>