<?xml version="1.0" encoding="UTF-8" standalone="no"?>
<svg xmlns="http://www.w3.org/2000/svg" xmlns:xlink="http://www.w3.org/1999/xlink" contentScriptType="application/ecmascript" contentStyleType="text/css" height="207px" preserveAspectRatio="none" style="width:614px;height:207px;" version="1.1" viewBox="0 0 614 207" width="614px" zoomAndPan="magnify"><defs><filter height="300%" id="fpck81c156feq" width="300%" x="-1" y="-1"><feGaussianBlur result="blurOut" stdDeviation="2.0"/><feColorMatrix in="blurOut" result="blurOut2" type="matrix" values="0 0 0 0 0 0 0 0 0 0 0 0 0 0 0 0 0 0 .4 0"/><feOffset dx="4.0" dy="4.0" in="blurOut2" result="blurOut3"/><feBlend in="SourceGraphic" in2="blurOut3" mode="normal"/></filter></defs><g><!--MD5=[9da66ae18e307bbf9a38935d3372c613]
cluster Tab2xmlSystem--><polygon fill="#FFFFFF" filter="url(#fpck81c156feq)" points="16,110.5,152,110.5,159,132.7969,597,132.7969,597,200.5,16,200.5,16,110.5" style="stroke:#000000;stroke-width:1.5;"/><line style="stroke:#000000;stroke-width:1.5;" x1="16" x2="159" y1="132.7969" y2="132.7969"/><text fill="#000000" font-family="sans-serif" font-size="14" font-weight="bold" lengthAdjust="spacing" textLength="130" x="20" y="125.4951">Tab2xmlSystem</text><ellipse cx="494.7932" cy="164.9586" fill="#FEFECE" filter="url(#fpck81c156feq)" rx="85.2932" ry="19.4586" style="stroke:#A80036;stroke-width:1.5;"/><text fill="#000000" font-family="sans-serif" font-size="14" lengthAdjust="spacing" textLength="131" x="429.2932" y="167.8053">Convert Tablature</text><ellipse cx="300.9504" cy="165.0901" fill="#FEFECE" filter="url(#fpck81c156feq)" rx="73.4504" ry="17.0901" style="stroke:#A80036;stroke-width:1.5;"/><text fill="#000000" font-family="sans-serif" font-size="14" lengthAdjust="spacing" textLength="102" x="246.9504" y="168.8376">Edit Tablature</text><ellipse cx="112.1963" cy="164.9393" fill="#FEFECE" filter="url(#fpck81c156feq)" rx="80.1963" ry="18.4393" style="stroke:#A80036;stroke-width:1.5;"/><text fill="#000000" font-family="sans-serif" font-size="14" lengthAdjust="spacing" textLength="119" x="51.1039" y="168.2979">Change Settings</text><!--MD5=[8036ddc157acaafd5f649faeab90d36a]
entity Musician--><ellipse cx="301" cy="14" fill="#FEFECE" filter="url(#fpck81c156feq)" rx="8" ry="8" style="stroke:#A80036;stroke-width:1.5;"/><path d="M301,22 L301,49 M288,30 L314,30 M301,49 L288,64 M301,49 L314,64 " fill="none" filter="url(#fpck81c156feq)" style="stroke:#A80036;stroke-width:1.5;"/><text fill="#000000" font-family="sans-serif" font-size="14" lengthAdjust="spacing" textLength="60" x="271" y="82.4951">Musician</text><!--MD5=[ff84eae84868f3fd26088fe0308390fe]
link Musician to UC1--><path d="M331.312,64.438 C366.744,85.989 425.185,121.5355 461.81,143.8125 " fill="none" id="Musician-to-UC1" style="stroke:#A80036;stroke-width:1.0;"/><polygon fill="#A80036" points="466.166,146.4616,460.5557,138.3669,461.8943,143.8631,456.3981,145.2017,466.166,146.4616" style="stroke:#A80036;stroke-width:1.0;"/><!--MD5=[3b728f328298eb8421cd794354456444]
link Musician to UC2--><path d="M301,85.621 C301,104.749 301,126.9357 301,142.8109 " fill="none" id="Musician-to-UC2" style="stroke:#A80036;stroke-width:1.0;"/><polygon fill="#A80036" points="301,147.9392,305,138.9392,301,142.9392,297,138.9392,301,147.9392" style="stroke:#A80036;stroke-width:1.0;"/><!--MD5=[a7123bb186c49eb455e1cc14a9a24d19]
link Musician to UC3--><path d="M270.644,64.797 C252.942,75.771 230.192,89.896 210,102.5 C187.505,116.5415 162.15,132.4558 142.866,144.5773 " fill="none" id="Musician-to-UC3" style="stroke:#A80036;stroke-width:1.0;"/><polygon fill="#A80036" points="138.599,147.26,148.3473,145.8559,142.8319,144.5987,144.0891,139.0833,138.599,147.26" style="stroke:#A80036;stroke-width:1.0;"/><!--MD5=[5bea3b8e55e0a04dc49d7580a7680f40]
@startuml
actor Musician

package Tab2xmlSystem {
  usecase "Convert Tablature" as UC1
  usecase "Edit Tablature" as UC2
  usecase "Change Settings" as UC3
}

Musician - -> UC1
Musician - -> UC2
Musician - -> UC3
@enduml

PlantUML version 1.2021.5beta3(Unknown compile time)
(GPL source distribution)
Java Runtime: Java(TM) SE Runtime Environment
JVM: Java HotSpot(TM) 64-Bit Server VM
Default Encoding: UTF-8
Language: en
Country: US
--></g></svg>