<?xml version="1.0" encoding="UTF-8" standalone="no"?>
<svg xmlns="http://www.w3.org/2000/svg" xmlns:xlink="http://www.w3.org/1999/xlink" contentScriptType="application/ecmascript" contentStyleType="text/css" height="424px" preserveAspectRatio="none" style="width:724px;height:424px;" version="1.1" viewBox="0 0 724 424" width="724px" zoomAndPan="magnify"><defs><filter height="300%" id="f14idxzibuhnlr" width="300%" x="-1" y="-1"><feGaussianBlur result="blurOut" stdDeviation="2.0"/><feColorMatrix in="blurOut" result="blurOut2" type="matrix" values="0 0 0 0 0 0 0 0 0 0 0 0 0 0 0 0 0 0 .4 0"/><feOffset dx="4.0" dy="4.0" in="blurOut2" result="blurOut3"/><feBlend in="SourceGraphic" in2="blurOut3" mode="normal"/></filter></defs><g><line style="stroke:#A80036;stroke-width:1.0;stroke-dasharray:5.0,5.0;" x1="29" x2="29" y1="40.2969" y2="380.7578"/><line style="stroke:#A80036;stroke-width:1.0;stroke-dasharray:5.0,5.0;" x1="226.5" x2="226.5" y1="40.2969" y2="380.7578"/><line style="stroke:#A80036;stroke-width:1.0;stroke-dasharray:5.0,5.0;" x1="444" x2="444" y1="40.2969" y2="380.7578"/><line style="stroke:#A80036;stroke-width:1.0;stroke-dasharray:5.0,5.0;" x1="622" x2="622" y1="40.2969" y2="380.7578"/><line style="stroke:#A80036;stroke-width:1.0;stroke-dasharray:5.0,5.0;" x1="689" x2="689" y1="40.2969" y2="380.7578"/><rect fill="#FEFECE" filter="url(#f14idxzibuhnlr)" height="30.2969" style="stroke:#A80036;stroke-width:1.5;" width="45" x="5" y="5"/><text fill="#000000" font-family="sans-serif" font-size="14" lengthAdjust="spacing" textLength="31" x="12" y="24.9951">User</text><rect fill="#FEFECE" filter="url(#f14idxzibuhnlr)" height="30.2969" style="stroke:#A80036;stroke-width:1.5;" width="45" x="5" y="379.7578"/><text fill="#000000" font-family="sans-serif" font-size="14" lengthAdjust="spacing" textLength="31" x="12" y="399.7529">User</text><rect fill="#FEFECE" filter="url(#f14idxzibuhnlr)" height="30.2969" style="stroke:#A80036;stroke-width:1.5;" width="48" x="200.5" y="5"/><text fill="#000000" font-family="sans-serif" font-size="14" lengthAdjust="spacing" textLength="34" x="207.5" y="24.9951">View</text><rect fill="#FEFECE" filter="url(#f14idxzibuhnlr)" height="30.2969" style="stroke:#A80036;stroke-width:1.5;" width="48" x="200.5" y="379.7578"/><text fill="#000000" font-family="sans-serif" font-size="14" lengthAdjust="spacing" textLength="34" x="207.5" y="399.7529">View</text><rect fill="#FEFECE" filter="url(#f14idxzibuhnlr)" height="30.2969" style="stroke:#A80036;stroke-width:1.5;" width="85" x="400" y="5"/><text fill="#000000" font-family="sans-serif" font-size="14" lengthAdjust="spacing" textLength="71" x="407" y="24.9951">Presenter</text><rect fill="#FEFECE" filter="url(#f14idxzibuhnlr)" height="30.2969" style="stroke:#A80036;stroke-width:1.5;" width="85" x="400" y="379.7578"/><text fill="#000000" font-family="sans-serif" font-size="14" lengthAdjust="spacing" textLength="71" x="407" y="399.7529">Presenter</text><rect fill="#FEFECE" filter="url(#f14idxzibuhnlr)" height="30.2969" style="stroke:#A80036;stroke-width:1.5;" width="59" x="591" y="5"/><text fill="#000000" font-family="sans-serif" font-size="14" lengthAdjust="spacing" textLength="45" x="598" y="24.9951">Parser</text><rect fill="#FEFECE" filter="url(#f14idxzibuhnlr)" height="30.2969" style="stroke:#A80036;stroke-width:1.5;" width="59" x="591" y="379.7578"/><text fill="#000000" font-family="sans-serif" font-size="14" lengthAdjust="spacing" textLength="45" x="598" y="399.7529">Parser</text><rect fill="#FEFECE" filter="url(#f14idxzibuhnlr)" height="30.2969" style="stroke:#A80036;stroke-width:1.5;" width="46" x="664" y="5"/><text fill="#000000" font-family="sans-serif" font-size="14" lengthAdjust="spacing" textLength="32" x="671" y="24.9951">Files</text><rect fill="#FEFECE" filter="url(#f14idxzibuhnlr)" height="30.2969" style="stroke:#A80036;stroke-width:1.5;" width="46" x="664" y="379.7578"/><text fill="#000000" font-family="sans-serif" font-size="14" lengthAdjust="spacing" textLength="32" x="671" y="399.7529">Files</text><polygon fill="#A80036" points="214.5,67.4297,224.5,71.4297,214.5,75.4297,218.5,71.4297" style="stroke:#A80036;stroke-width:1.0;"/><line style="stroke:#A80036;stroke-width:1.0;" x1="29.5" x2="220.5" y1="71.4297" y2="71.4297"/><text fill="#000000" font-family="sans-serif" font-size="13" lengthAdjust="spacing" textLength="173" x="36.5" y="66.3638">Input text tab into text box</text><polygon fill="#A80036" points="214.5,96.5625,224.5,100.5625,214.5,104.5625,218.5,100.5625" style="stroke:#A80036;stroke-width:1.0;"/><line style="stroke:#A80036;stroke-width:1.0;" x1="29.5" x2="220.5" y1="100.5625" y2="100.5625"/><text fill="#000000" font-family="sans-serif" font-size="13" lengthAdjust="spacing" textLength="158" x="36.5" y="95.4966">Click "Convert and Save"</text><polygon fill="#A80036" points="432.5,125.6953,442.5,129.6953,432.5,133.6953,436.5,129.6953" style="stroke:#A80036;stroke-width:1.0;"/><line style="stroke:#A80036;stroke-width:1.0;" x1="226.5" x2="438.5" y1="129.6953" y2="129.6953"/><text fill="#000000" font-family="sans-serif" font-size="13" lengthAdjust="spacing" textLength="143" x="233.5" y="124.6294">Call convertAndSave()</text><polygon fill="#A80036" points="432.5,154.8281,442.5,158.8281,432.5,162.8281,436.5,158.8281" style="stroke:#A80036;stroke-width:1.0;"/><line style="stroke:#A80036;stroke-width:1.0;" x1="226.5" x2="438.5" y1="158.8281" y2="158.8281"/><text fill="#000000" font-family="sans-serif" font-size="13" lengthAdjust="spacing" textLength="114" x="233.5" y="153.7622">provide input text</text><polygon fill="#A80036" points="610.5,183.9609,620.5,187.9609,610.5,191.9609,614.5,187.9609" style="stroke:#A80036;stroke-width:1.0;"/><line style="stroke:#A80036;stroke-width:1.0;" x1="444.5" x2="616.5" y1="187.9609" y2="187.9609"/><text fill="#000000" font-family="sans-serif" font-size="13" lengthAdjust="spacing" textLength="114" x="451.5" y="182.895">provide input text</text><polygon fill="#A80036" points="455.5,213.0938,445.5,217.0938,455.5,221.0938,451.5,217.0938" style="stroke:#A80036;stroke-width:1.0;"/><line style="stroke:#A80036;stroke-width:1.0;stroke-dasharray:2.0,2.0;" x1="449.5" x2="621.5" y1="217.0938" y2="217.0938"/><text fill="#000000" font-family="sans-serif" font-size="13" lengthAdjust="spacing" textLength="154" x="461.5" y="212.0278">return converted output</text><polygon fill="#A80036" points="237.5,242.2266,227.5,246.2266,237.5,250.2266,233.5,246.2266" style="stroke:#A80036;stroke-width:1.0;"/><line style="stroke:#A80036;stroke-width:1.0;stroke-dasharray:2.0,2.0;" x1="231.5" x2="443.5" y1="246.2266" y2="246.2266"/><text fill="#000000" font-family="sans-serif" font-size="13" lengthAdjust="spacing" textLength="194" x="243.5" y="241.1606">display any errors or warnings</text><polygon fill="#A80036" points="214.5,271.3594,224.5,275.3594,214.5,279.3594,218.5,275.3594" style="stroke:#A80036;stroke-width:1.0;"/><line style="stroke:#A80036;stroke-width:1.0;" x1="29.5" x2="220.5" y1="275.3594" y2="275.3594"/><text fill="#000000" font-family="sans-serif" font-size="13" lengthAdjust="spacing" textLength="107" x="36.5" y="270.2935">select output file</text><polygon fill="#A80036" points="432.5,300.4922,442.5,304.4922,432.5,308.4922,436.5,304.4922" style="stroke:#A80036;stroke-width:1.0;"/><line style="stroke:#A80036;stroke-width:1.0;" x1="226.5" x2="438.5" y1="304.4922" y2="304.4922"/><text fill="#000000" font-family="sans-serif" font-size="13" lengthAdjust="spacing" textLength="99" x="233.5" y="299.4263">pass output file</text><polygon fill="#A80036" points="677,329.625,687,333.625,677,337.625,681,333.625" style="stroke:#A80036;stroke-width:1.0;"/><line style="stroke:#A80036;stroke-width:1.0;" x1="444.5" x2="683" y1="333.625" y2="333.625"/><text fill="#000000" font-family="sans-serif" font-size="13" lengthAdjust="spacing" textLength="79" x="451.5" y="328.5591">writeString()</text><polygon fill="#A80036" points="237.5,358.7578,227.5,362.7578,237.5,366.7578,233.5,362.7578" style="stroke:#A80036;stroke-width:1.0;"/><line style="stroke:#A80036;stroke-width:1.0;stroke-dasharray:2.0,2.0;" x1="231.5" x2="443.5" y1="362.7578" y2="362.7578"/><text fill="#000000" font-family="sans-serif" font-size="13" lengthAdjust="spacing" textLength="194" x="243.5" y="357.6919">display any errors or warnings</text><!--MD5=[56dfddf1ec2c5d47fef150cc82dcacc4]
@startuml
User -> View : Input text tab into text box
User -> View : Click "Convert and Save"
View -> Presenter : Call convertAndSave()
View -> Presenter : provide input text
Presenter -> Parser : provide input text
Presenter <- - Parser : return converted output
View <- - Presenter : display any errors or warnings
User -> View : select output file
View -> Presenter : pass output file
Presenter -> Files : writeString()
View <- - Presenter : display any errors or warnings
@enduml

PlantUML version 1.2021.2(Sun Mar 07 11:10:27 UTC 2021)
(GPL source distribution)
Java Runtime: Java(TM) SE Runtime Environment
JVM: Java HotSpot(TM) 64-Bit Server VM
Default Encoding: UTF-8
Language: en
Country: US
--></g></svg>