<?xml version="1.0" encoding="UTF-8" standalone="no"?>
<svg xmlns="http://www.w3.org/2000/svg" xmlns:xlink="http://www.w3.org/1999/xlink" contentScriptType="application/ecmascript" contentStyleType="text/css" height="426px" preserveAspectRatio="none" style="width:370px;height:426px;" version="1.1" viewBox="0 0 370 426" width="370px" zoomAndPan="magnify"><defs><filter height="300%" id="f1i3hxet2ht8y4" width="300%" x="-1" y="-1"><feGaussianBlur result="blurOut" stdDeviation="2.0"/><feColorMatrix in="blurOut" result="blurOut2" type="matrix" values="0 0 0 0 0 0 0 0 0 0 0 0 0 0 0 0 0 0 .4 0"/><feOffset dx="4.0" dy="4.0" in="blurOut2" result="blurOut3"/><feBlend in="SourceGraphic" in2="blurOut3" mode="normal"/></filter></defs><g><!--MD5=[c045e12321b83266d36d22b9096c24ea]
class View--><rect codeLine="1" fill="#FEFECE" filter="url(#f1i3hxet2ht8y4)" height="124.8281" id="View" style="stroke:#A80036;stroke-width:1.5;" width="349" x="7" y="179"/><ellipse cx="163.25" cy="195" fill="#B4A7E5" rx="11" ry="11" style="stroke:#A80036;stroke-width:1.0;"/><path d="M164.2031,191.7813 L165.9219,191.7813 C166.3125,191.7813 166.5,191.75 166.625,191.6719 C166.8906,191.5156 167.0313,191.2344 167.0313,190.9375 C167.0313,190.6719 166.9219,190.4063 166.6875,190.2344 C166.5156,190.125 166.375,190.0938 165.9219,190.0938 L160.7813,190.0938 C160.3438,190.0938 160.2188,190.1094 160.0625,190.2031 C159.8125,190.3594 159.6563,190.6563 159.6563,190.9375 C159.6563,191.2188 159.7969,191.4688 160.0156,191.6406 C160.1719,191.75 160.3594,191.7813 160.7813,191.7813 L162.5,191.7813 L162.5,198.2969 L160.7813,198.2969 C160.3438,198.2969 160.2188,198.3125 160.0625,198.4219 C159.8125,198.5781 159.6563,198.8594 159.6563,199.1563 C159.6563,199.4063 159.7969,199.6719 160.0156,199.8281 C160.1719,199.9531 160.375,200 160.7813,200 L165.9219,200 C166.6719,200 167.0313,199.7188 167.0313,199.1563 C167.0313,198.875 166.9219,198.625 166.6875,198.4531 C166.5156,198.3281 166.375,198.2969 165.9219,198.2969 L164.2031,198.2969 L164.2031,191.7813 Z " fill="#000000"/><text fill="#000000" font-family="sans-serif" font-size="12" font-style="italic" lengthAdjust="spacing" textLength="28" x="183.75" y="199.1543">View</text><line style="stroke:#A80036;stroke-width:1.5;" x1="8" x2="355" y1="211" y2="211"/><line style="stroke:#A80036;stroke-width:1.5;" x1="8" x2="355" y1="219" y2="219"/><ellipse cx="18" cy="230" fill="#84BE84" rx="3" ry="3" style="stroke:#038048;stroke-width:1.0;"/><text fill="#000000" font-family="sans-serif" font-size="11" lengthAdjust="spacing" text-decoration="underline" textLength="169" x="27" y="233.2104">createView(ViewType) : View</text><ellipse cx="18" cy="242.8047" fill="#84BE84" rx="3" ry="3" style="stroke:#038048;stroke-width:1.0;"/><text fill="#000000" font-family="sans-serif" font-size="11" font-style="italic" lengthAdjust="spacing" textLength="124" x="27" y="246.0151">getInputText() : String</text><ellipse cx="18" cy="255.6094" fill="#84BE84" rx="3" ry="3" style="stroke:#038048;stroke-width:1.0;"/><text fill="#000000" font-family="sans-serif" font-size="11" font-style="italic" lengthAdjust="spacing" textLength="208" x="27" y="258.8198">getSelectedInstrument() : Instrument</text><ellipse cx="18" cy="268.4141" fill="#84BE84" rx="3" ry="3" style="stroke:#038048;stroke-width:1.0;"/><text fill="#000000" font-family="sans-serif" font-size="11" font-style="italic" lengthAdjust="spacing" textLength="121" x="27" y="271.6245">setOutputText(String)</text><ellipse cx="18" cy="281.2188" fill="#84BE84" rx="3" ry="3" style="stroke:#038048;stroke-width:1.0;"/><text fill="#000000" font-family="sans-serif" font-size="11" font-style="italic" lengthAdjust="spacing" textLength="323" x="27" y="284.4292">promptForFile(FileNameExtensionFilter) : Optional&lt;Path&gt;</text><ellipse cx="18" cy="294.0234" fill="#84BE84" rx="3" ry="3" style="stroke:#038048;stroke-width:1.0;"/><text fill="#000000" font-family="sans-serif" font-size="11" font-style="italic" lengthAdjust="spacing" textLength="189" x="27" y="297.2339">showErrorMessage(String, String)</text><!--MD5=[3de993ac3dd18e6abf686ebe9c2e07b2]
class Presenter--><rect codeLine="10" fill="#FEFECE" filter="url(#f1i3hxet2ht8y4)" height="112.0234" id="Presenter" style="stroke:#A80036;stroke-width:1.5;" width="325" x="19" y="7"/><ellipse cx="148.25" cy="23" fill="#ADD1B2" rx="11" ry="11" style="stroke:#A80036;stroke-width:1.0;"/><path d="M150.5938,18.6719 C149.6563,18.2344 149.0625,18.0938 148.1875,18.0938 C145.5625,18.0938 143.5625,20.1719 143.5625,22.8906 L143.5625,24.0156 C143.5625,26.5938 145.6719,28.4844 148.5625,28.4844 C149.7813,28.4844 150.9375,28.1875 151.6875,27.6406 C152.2656,27.2344 152.5938,26.7813 152.5938,26.3906 C152.5938,25.9375 152.2031,25.5469 151.7344,25.5469 C151.5156,25.5469 151.3125,25.625 151.125,25.8125 C150.6719,26.2969 150.6719,26.2969 150.4844,26.3906 C150.0625,26.6563 149.375,26.7813 148.6094,26.7813 C146.5625,26.7813 145.2656,25.6875 145.2656,23.9844 L145.2656,22.8906 C145.2656,21.1094 146.5156,19.7969 148.25,19.7969 C148.8281,19.7969 149.4375,19.9531 149.9063,20.2031 C150.3906,20.4844 150.5625,20.7031 150.6563,21.1094 C150.7188,21.5156 150.75,21.6406 150.8906,21.7656 C151.0313,21.9063 151.2656,22.0156 151.4844,22.0156 C151.75,22.0156 152.0156,21.875 152.1875,21.6563 C152.2969,21.5 152.3281,21.3125 152.3281,20.8906 L152.3281,19.4688 C152.3281,19.0313 152.3125,18.9063 152.2188,18.75 C152.0625,18.4844 151.7813,18.3438 151.4844,18.3438 C151.1875,18.3438 150.9844,18.4375 150.7656,18.75 L150.5938,18.6719 Z " fill="#000000"/><text fill="#000000" font-family="sans-serif" font-size="12" lengthAdjust="spacing" textLength="58" x="168.75" y="27.1543">Presenter</text><line style="stroke:#A80036;stroke-width:1.5;" x1="20" x2="343" y1="39" y2="39"/><rect fill="none" height="6" style="stroke:#C82930;stroke-width:1.0;" width="6" x="27" y="47"/><text fill="#000000" font-family="sans-serif" font-size="11" lengthAdjust="spacing" textLength="59" x="39" y="53.2104">View view</text><line style="stroke:#A80036;stroke-width:1.5;" x1="20" x2="343" y1="59.8047" y2="59.8047"/><rect fill="#F24D5C" height="6" style="stroke:#C82930;stroke-width:1.0;" width="6" x="27" y="67.8047"/><text fill="#000000" font-family="sans-serif" font-size="11" lengthAdjust="spacing" textLength="299" x="39" y="74.0151">convert(String input, Instrument selectedInstrument)</text><ellipse cx="30" cy="83.6094" fill="#84BE84" rx="3" ry="3" style="stroke:#038048;stroke-width:1.0;"/><text fill="#000000" font-family="sans-serif" font-size="11" lengthAdjust="spacing" textLength="51" x="39" y="86.8198">convert()</text><ellipse cx="30" cy="96.4141" fill="#84BE84" rx="3" ry="3" style="stroke:#038048;stroke-width:1.0;"/><text fill="#000000" font-family="sans-serif" font-size="11" lengthAdjust="spacing" textLength="80" x="39" y="99.6245">loadFromFile()</text><ellipse cx="30" cy="109.2188" fill="#84BE84" rx="3" ry="3" style="stroke:#038048;stroke-width:1.0;"/><text fill="#000000" font-family="sans-serif" font-size="11" lengthAdjust="spacing" textLength="70" x="39" y="112.4292">saveToFile()</text><!--MD5=[6f062b0358e71ed36a9a041bba5d4781]
class SingleEntryView--><rect fill="#FEFECE" filter="url(#f1i3hxet2ht8y4)" height="48" id="SingleEntryView" style="stroke:#A80036;stroke-width:1.5;" width="128" x="47.5" y="364"/><ellipse cx="62.5" cy="380" fill="#ADD1B2" rx="11" ry="11" style="stroke:#A80036;stroke-width:1.0;"/><path d="M64.8438,375.6719 C63.9063,375.2344 63.3125,375.0938 62.4375,375.0938 C59.8125,375.0938 57.8125,377.1719 57.8125,379.8906 L57.8125,381.0156 C57.8125,383.5938 59.9219,385.4844 62.8125,385.4844 C64.0313,385.4844 65.1875,385.1875 65.9375,384.6406 C66.5156,384.2344 66.8438,383.7813 66.8438,383.3906 C66.8438,382.9375 66.4531,382.5469 65.9844,382.5469 C65.7656,382.5469 65.5625,382.625 65.375,382.8125 C64.9219,383.2969 64.9219,383.2969 64.7344,383.3906 C64.3125,383.6563 63.625,383.7813 62.8594,383.7813 C60.8125,383.7813 59.5156,382.6875 59.5156,380.9844 L59.5156,379.8906 C59.5156,378.1094 60.7656,376.7969 62.5,376.7969 C63.0781,376.7969 63.6875,376.9531 64.1563,377.2031 C64.6406,377.4844 64.8125,377.7031 64.9063,378.1094 C64.9688,378.5156 65,378.6406 65.1406,378.7656 C65.2813,378.9063 65.5156,379.0156 65.7344,379.0156 C66,379.0156 66.2656,378.875 66.4375,378.6563 C66.5469,378.5 66.5781,378.3125 66.5781,377.8906 L66.5781,376.4688 C66.5781,376.0313 66.5625,375.9063 66.4688,375.75 C66.3125,375.4844 66.0313,375.3438 65.7344,375.3438 C65.4375,375.3438 65.2344,375.4375 65.0156,375.75 L64.8438,375.6719 Z " fill="#000000"/><text fill="#000000" font-family="sans-serif" font-size="12" lengthAdjust="spacing" textLength="96" x="76.5" y="384.1543">SingleEntryView</text><line style="stroke:#A80036;stroke-width:1.5;" x1="48.5" x2="174.5" y1="396" y2="396"/><line style="stroke:#A80036;stroke-width:1.5;" x1="48.5" x2="174.5" y1="404" y2="404"/><!--MD5=[ea9bc3d3f88adb0f251b791a11fa27ff]
class ViewBot--><rect fill="#FEFECE" filter="url(#f1i3hxet2ht8y4)" height="48" id="ViewBot" style="stroke:#A80036;stroke-width:1.5;" width="81" x="211" y="364"/><ellipse cx="226" cy="380" fill="#ADD1B2" rx="11" ry="11" style="stroke:#A80036;stroke-width:1.0;"/><path d="M228.3438,375.6719 C227.4063,375.2344 226.8125,375.0938 225.9375,375.0938 C223.3125,375.0938 221.3125,377.1719 221.3125,379.8906 L221.3125,381.0156 C221.3125,383.5938 223.4219,385.4844 226.3125,385.4844 C227.5313,385.4844 228.6875,385.1875 229.4375,384.6406 C230.0156,384.2344 230.3438,383.7813 230.3438,383.3906 C230.3438,382.9375 229.9531,382.5469 229.4844,382.5469 C229.2656,382.5469 229.0625,382.625 228.875,382.8125 C228.4219,383.2969 228.4219,383.2969 228.2344,383.3906 C227.8125,383.6563 227.125,383.7813 226.3594,383.7813 C224.3125,383.7813 223.0156,382.6875 223.0156,380.9844 L223.0156,379.8906 C223.0156,378.1094 224.2656,376.7969 226,376.7969 C226.5781,376.7969 227.1875,376.9531 227.6563,377.2031 C228.1406,377.4844 228.3125,377.7031 228.4063,378.1094 C228.4688,378.5156 228.5,378.6406 228.6406,378.7656 C228.7813,378.9063 229.0156,379.0156 229.2344,379.0156 C229.5,379.0156 229.7656,378.875 229.9375,378.6563 C230.0469,378.5 230.0781,378.3125 230.0781,377.8906 L230.0781,376.4688 C230.0781,376.0313 230.0625,375.9063 229.9688,375.75 C229.8125,375.4844 229.5313,375.3438 229.2344,375.3438 C228.9375,375.3438 228.7344,375.4375 228.5156,375.75 L228.3438,375.6719 Z " fill="#000000"/><text fill="#000000" font-family="sans-serif" font-size="12" lengthAdjust="spacing" textLength="49" x="240" y="384.1543">ViewBot</text><line style="stroke:#A80036;stroke-width:1.5;" x1="212" x2="291" y1="396" y2="396"/><line style="stroke:#A80036;stroke-width:1.5;" x1="212" x2="291" y1="404" y2="404"/><!--MD5=[94ac34da17b748a109eb6ac0e62bba58]
reverse link Presenter to View--><path codeLine="19" d="M181.5,132.524 C181.5,147.801 181.5,163.909 181.5,178.888 " fill="none" id="Presenter-backto-View" style="stroke:#A80036;stroke-width:1.0;"/><polygon fill="#FFFFFF" points="181.5,119.361,177.5,125.361,181.5,131.361,185.5,125.361,181.5,119.361" style="stroke:#A80036;stroke-width:1.0;"/><!--MD5=[03212d6e3c1dd294ea6a670ce7952129]
reverse link View to SingleEntryView--><path codeLine="20" d="M142.654,322.6887 C135.332,337.8034 128.238,352.449 122.673,363.9363 " fill="none" id="View-backto-SingleEntryView" style="stroke:#A80036;stroke-width:1.0;"/><polygon fill="none" points="136.592,319.1476,151.611,304.2,149.191,325.2512,136.592,319.1476" style="stroke:#A80036;stroke-width:1.0;"/><!--MD5=[3d3c893ffaceb7884d2fd7a722af2a9c]
reverse link View to ViewBot--><path codeLine="21" d="M220.346,322.6887 C227.668,337.8034 234.762,352.449 240.327,363.9363 " fill="none" id="View-backto-ViewBot" style="stroke:#A80036;stroke-width:1.0;"/><polygon fill="none" points="213.809,325.2512,211.389,304.2,226.408,319.1476,213.809,325.2512" style="stroke:#A80036;stroke-width:1.0;"/><!--MD5=[6941d4419cf5b052d19747fbc7a82ac4]
@startuml
interface View {
  +{static} createView(ViewType) : View
  +{abstract} getInputText() : String
  +{abstract} getSelectedInstrument() : Instrument
  +{abstract} setOutputText(String)
  +{abstract} promptForFile(FileNameExtensionFilter) : Optional<Path>
  +{abstract} showErrorMessage(String, String)
}

class Presenter {
  -View view

  -convert(String input, Instrument selectedInstrument)
  +convert()
  +loadFromFile()
  +saveToFile()
}

Presenter o- - View
View <|- - SingleEntryView
View <|- - ViewBot
@enduml

PlantUML version 1.2021.2(Sun Mar 07 11:10:27 UTC 2021)
(GPL source distribution)
Java Runtime: Java(TM) SE Runtime Environment
JVM: Java HotSpot(TM) 64-Bit Server VM
Default Encoding: UTF-8
Language: en
Country: US
--></g></svg>