<?xml version="1.0" encoding="UTF-8" standalone="no"?>
<svg xmlns="http://www.w3.org/2000/svg" xmlns:xlink="http://www.w3.org/1999/xlink" contentScriptType="application/ecmascript" contentStyleType="text/css" height="566px" preserveAspectRatio="none" style="width:658px;height:566px;" version="1.1" viewBox="0 0 658 566" width="658px" zoomAndPan="magnify"><defs><filter height="300%" id="f1jpte2ub98xr8" width="300%" x="-1" y="-1"><feGaussianBlur result="blurOut" stdDeviation="2.0"/><feColorMatrix in="blurOut" result="blurOut2" type="matrix" values="0 0 0 0 0 0 0 0 0 0 0 0 0 0 0 0 0 0 .4 0"/><feOffset dx="4.0" dy="4.0" in="blurOut2" result="blurOut3"/><feBlend in="SourceGraphic" in2="blurOut3" mode="normal"/></filter></defs><g><!--MD5=[c045e12321b83266d36d22b9096c24ea]
class View--><rect codeLine="1" fill="#FEFECE" filter="url(#f1jpte2ub98xr8)" height="124.8281" id="View" style="stroke:#A80036;stroke-width:1.5;" width="349" x="278.5" y="7"/><ellipse cx="434.75" cy="23" fill="#B4A7E5" rx="11" ry="11" style="stroke:#A80036;stroke-width:1.0;"/><path d="M435.7031,19.7813 L437.4219,19.7813 C437.8125,19.7813 438,19.75 438.125,19.6719 C438.3906,19.5156 438.5313,19.2344 438.5313,18.9375 C438.5313,18.6719 438.4219,18.4063 438.1875,18.2344 C438.0156,18.125 437.875,18.0938 437.4219,18.0938 L432.2813,18.0938 C431.8438,18.0938 431.7188,18.1094 431.5625,18.2031 C431.3125,18.3594 431.1563,18.6563 431.1563,18.9375 C431.1563,19.2188 431.2969,19.4688 431.5156,19.6406 C431.6719,19.75 431.8594,19.7813 432.2813,19.7813 L434,19.7813 L434,26.2969 L432.2813,26.2969 C431.8438,26.2969 431.7188,26.3125 431.5625,26.4219 C431.3125,26.5781 431.1563,26.8594 431.1563,27.1563 C431.1563,27.4063 431.2969,27.6719 431.5156,27.8281 C431.6719,27.9531 431.875,28 432.2813,28 L437.4219,28 C438.1719,28 438.5313,27.7188 438.5313,27.1563 C438.5313,26.875 438.4219,26.625 438.1875,26.4531 C438.0156,26.3281 437.875,26.2969 437.4219,26.2969 L435.7031,26.2969 L435.7031,19.7813 Z " fill="#000000"/><text fill="#000000" font-family="sans-serif" font-size="12" font-style="italic" lengthAdjust="spacing" textLength="28" x="455.25" y="27.1543">View</text><line style="stroke:#A80036;stroke-width:1.5;" x1="279.5" x2="626.5" y1="39" y2="39"/><line style="stroke:#A80036;stroke-width:1.5;" x1="279.5" x2="626.5" y1="47" y2="47"/><ellipse cx="289.5" cy="58" fill="#84BE84" rx="3" ry="3" style="stroke:#038048;stroke-width:1.0;"/><text fill="#000000" font-family="sans-serif" font-size="11" lengthAdjust="spacing" text-decoration="underline" textLength="169" x="298.5" y="61.2104">createView(ViewType) : View</text><ellipse cx="289.5" cy="70.8047" fill="#84BE84" rx="3" ry="3" style="stroke:#038048;stroke-width:1.0;"/><text fill="#000000" font-family="sans-serif" font-size="11" font-style="italic" lengthAdjust="spacing" textLength="124" x="298.5" y="74.0151">getInputText() : String</text><ellipse cx="289.5" cy="83.6094" fill="#84BE84" rx="3" ry="3" style="stroke:#038048;stroke-width:1.0;"/><text fill="#000000" font-family="sans-serif" font-size="11" font-style="italic" lengthAdjust="spacing" textLength="208" x="298.5" y="86.8198">getSelectedInstrument() : Instrument</text><ellipse cx="289.5" cy="96.4141" fill="#84BE84" rx="3" ry="3" style="stroke:#038048;stroke-width:1.0;"/><text fill="#000000" font-family="sans-serif" font-size="11" font-style="italic" lengthAdjust="spacing" textLength="121" x="298.5" y="99.6245">setOutputText(String)</text><ellipse cx="289.5" cy="109.2188" fill="#84BE84" rx="3" ry="3" style="stroke:#038048;stroke-width:1.0;"/><text fill="#000000" font-family="sans-serif" font-size="11" font-style="italic" lengthAdjust="spacing" textLength="323" x="298.5" y="112.4292">promptForFile(FileNameExtensionFilter) : Optional&lt;Path&gt;</text><ellipse cx="289.5" cy="122.0234" fill="#84BE84" rx="3" ry="3" style="stroke:#038048;stroke-width:1.0;"/><text fill="#000000" font-family="sans-serif" font-size="11" font-style="italic" lengthAdjust="spacing" textLength="189" x="298.5" y="125.2339">showErrorMessage(String, String)</text><!--MD5=[3de993ac3dd18e6abf686ebe9c2e07b2]
class Presenter--><rect codeLine="10" fill="#FEFECE" filter="url(#f1jpte2ub98xr8)" height="150.4375" id="Presenter" style="stroke:#A80036;stroke-width:1.5;" width="287" x="357.5" y="402"/><ellipse cx="467.75" cy="418" fill="#ADD1B2" rx="11" ry="11" style="stroke:#A80036;stroke-width:1.0;"/><path d="M470.0938,413.6719 C469.1563,413.2344 468.5625,413.0938 467.6875,413.0938 C465.0625,413.0938 463.0625,415.1719 463.0625,417.8906 L463.0625,419.0156 C463.0625,421.5938 465.1719,423.4844 468.0625,423.4844 C469.2813,423.4844 470.4375,423.1875 471.1875,422.6406 C471.7656,422.2344 472.0938,421.7813 472.0938,421.3906 C472.0938,420.9375 471.7031,420.5469 471.2344,420.5469 C471.0156,420.5469 470.8125,420.625 470.625,420.8125 C470.1719,421.2969 470.1719,421.2969 469.9844,421.3906 C469.5625,421.6563 468.875,421.7813 468.1094,421.7813 C466.0625,421.7813 464.7656,420.6875 464.7656,418.9844 L464.7656,417.8906 C464.7656,416.1094 466.0156,414.7969 467.75,414.7969 C468.3281,414.7969 468.9375,414.9531 469.4063,415.2031 C469.8906,415.4844 470.0625,415.7031 470.1563,416.1094 C470.2188,416.5156 470.25,416.6406 470.3906,416.7656 C470.5313,416.9063 470.7656,417.0156 470.9844,417.0156 C471.25,417.0156 471.5156,416.875 471.6875,416.6563 C471.7969,416.5 471.8281,416.3125 471.8281,415.8906 L471.8281,414.4688 C471.8281,414.0313 471.8125,413.9063 471.7188,413.75 C471.5625,413.4844 471.2813,413.3438 470.9844,413.3438 C470.6875,413.3438 470.4844,413.4375 470.2656,413.75 L470.0938,413.6719 Z " fill="#000000"/><text fill="#000000" font-family="sans-serif" font-size="12" lengthAdjust="spacing" textLength="58" x="488.25" y="422.1543">Presenter</text><line style="stroke:#A80036;stroke-width:1.5;" x1="358.5" x2="643.5" y1="434" y2="434"/><rect fill="none" height="6" style="stroke:#C82930;stroke-width:1.0;" width="6" x="365.5" y="442"/><text fill="#000000" font-family="sans-serif" font-size="11" lengthAdjust="spacing" textLength="59" x="377.5" y="448.2104">View view</text><line style="stroke:#A80036;stroke-width:1.5;" x1="358.5" x2="643.5" y1="454.8047" y2="454.8047"/><rect fill="#F24D5C" height="6" style="stroke:#C82930;stroke-width:1.0;" width="6" x="365.5" y="462.8047"/><text fill="#000000" font-family="sans-serif" font-size="11" lengthAdjust="spacing" textLength="261" x="377.5" y="469.0151">convert(String, Instrument) : Optional&lt;String&gt;</text><ellipse cx="368.5" cy="478.6094" fill="#84BE84" rx="3" ry="3" style="stroke:#038048;stroke-width:1.0;"/><text fill="#000000" font-family="sans-serif" font-size="11" lengthAdjust="spacing" textLength="108" x="377.5" y="481.8198">convert() : boolean</text><ellipse cx="368.5" cy="491.4141" fill="#84BE84" rx="3" ry="3" style="stroke:#038048;stroke-width:1.0;"/><text fill="#000000" font-family="sans-serif" font-size="11" lengthAdjust="spacing" textLength="117" x="377.5" y="494.6245">loadInput() : boolean</text><rect fill="#F24D5C" height="6" style="stroke:#C82930;stroke-width:1.0;" width="6" x="365.5" y="501.2188"/><text fill="#000000" font-family="sans-serif" font-size="11" lengthAdjust="spacing" textLength="213" x="377.5" y="507.4292">loadFromFile(Path) : Optional&lt;String&gt;</text><ellipse cx="368.5" cy="517.0234" fill="#84BE84" rx="3" ry="3" style="stroke:#038048;stroke-width:1.0;"/><text fill="#000000" font-family="sans-serif" font-size="11" lengthAdjust="spacing" textLength="121" x="377.5" y="520.2339">saveInput() : boolean</text><ellipse cx="368.5" cy="529.8281" fill="#84BE84" rx="3" ry="3" style="stroke:#038048;stroke-width:1.0;"/><text fill="#000000" font-family="sans-serif" font-size="11" lengthAdjust="spacing" textLength="131" x="377.5" y="533.0386">saveOutput() : boolean</text><rect fill="#F24D5C" height="6" style="stroke:#C82930;stroke-width:1.0;" width="6" x="365.5" y="539.6328"/><text fill="#000000" font-family="sans-serif" font-size="11" lengthAdjust="spacing" textLength="191" x="377.5" y="545.8433">saveToFile(Path, String) : boolean</text><!--MD5=[b4dac3d107fd108a1286c53798d83979]
class AbstractSwingView--><rect codeLine="22" fill="#FEFECE" filter="url(#f1jpte2ub98xr8)" height="150.4375" id="AbstractSwingView" style="stroke:#A80036;stroke-width:1.5;" width="341" x="36.5" y="192"/><ellipse cx="144.75" cy="208" fill="#A9DCDF" rx="11" ry="11" style="stroke:#A80036;stroke-width:1.0;"/><path d="M146.8281,209.8125 L147.2188,210.7969 L146.8281,210.7969 C146.375,210.7969 146.2656,210.8125 146.1094,210.9219 C145.8594,211.0781 145.7031,211.3594 145.7031,211.6563 C145.7031,211.9219 145.8438,212.1719 146.0625,212.3281 C146.2031,212.4531 146.4063,212.5 146.8281,212.5 L149.1875,212.5 C149.5469,212.5 149.7656,212.4688 149.9063,212.375 C150.1563,212.2344 150.3125,211.9375 150.3125,211.6563 C150.3125,211.375 150.1719,211.125 149.9531,210.9688 C149.7813,210.8281 149.625,210.7969 149.1563,210.7969 L145.7656,202.5938 L142.0938,202.5938 C141.6406,202.5938 141.5156,202.6094 141.3594,202.7031 C141.1094,202.875 140.9531,203.1563 140.9531,203.4375 C140.9531,203.7188 141.0938,203.9688 141.3125,204.1406 C141.4844,204.25 141.6563,204.2813 142.0938,204.2813 L143.1719,204.2813 L140.5313,210.7969 C140.1094,210.7969 139.9531,210.8125 139.7969,210.9219 C139.5469,211.0781 139.3906,211.3594 139.3906,211.6563 C139.3906,212.2188 139.7656,212.5 140.5156,212.5 L142.7813,212.5 C143.1406,212.5 143.3594,212.4688 143.4844,212.375 C143.75,212.2344 143.8906,211.9375 143.8906,211.6563 C143.8906,211.375 143.7656,211.125 143.5469,210.9531 C143.375,210.8281 143.2344,210.7969 142.7813,210.7969 L142.3906,210.7969 L142.7813,209.8125 L146.8281,209.8125 Z M146.125,208.1094 L143.4531,208.1094 L144.7969,204.8438 L146.125,208.1094 Z " fill="#000000"/><text fill="#000000" font-family="sans-serif" font-size="12" font-style="italic" lengthAdjust="spacing" textLength="116" x="165.25" y="212.1543">AbstractSwingView</text><line style="stroke:#A80036;stroke-width:1.5;" x1="37.5" x2="376.5" y1="224" y2="224"/><polygon fill="none" points="47.5,230,51.5,234,47.5,238,43.5,234" style="stroke:#B38D22;stroke-width:1.0;"/><text fill="#000000" font-family="sans-serif" font-size="11" lengthAdjust="spacing" textLength="77" x="56.5" y="238.2104">JFrame frame</text><polygon fill="none" points="47.5,242.8047,51.5,246.8047,47.5,250.8047,43.5,246.8047" style="stroke:#B38D22;stroke-width:1.0;"/><text fill="#000000" font-family="sans-serif" font-size="11" lengthAdjust="spacing" textLength="115" x="56.5" y="251.0151">Presenter presenter</text><line style="stroke:#A80036;stroke-width:1.5;" x1="37.5" x2="376.5" y1="257.6094" y2="257.6094"/><rect fill="#F24D5C" height="6" style="stroke:#C82930;stroke-width:1.0;" width="6" x="44.5" y="265.6094"/><text fill="#000000" font-family="sans-serif" font-size="11" lengthAdjust="spacing" text-decoration="underline" textLength="315" x="56.5" y="271.8198">highlightToken(ErrorToken, Highlighter, HighlightPainter)</text><polygon fill="#FFFF44" points="47.5,276.4141,51.5,280.4141,47.5,284.4141,43.5,280.4141" style="stroke:#B38D22;stroke-width:1.0;"/><text fill="#000000" font-family="sans-serif" font-size="11" font-style="italic" lengthAdjust="spacing" textLength="159" x="56.5" y="284.6245">getInput() : JTextComponent</text><polygon fill="#FFFF44" points="47.5,289.2188,51.5,293.2188,47.5,297.2188,43.5,293.2188" style="stroke:#B38D22;stroke-width:1.0;"/><text fill="#000000" font-family="sans-serif" font-size="11" font-style="italic" lengthAdjust="spacing" textLength="169" x="56.5" y="297.4292">getOutput() : JTextComponent</text><polygon fill="#FFFF44" points="47.5,302.0234,51.5,306.0234,47.5,310.0234,43.5,306.0234" style="stroke:#B38D22;stroke-width:1.0;"/><text fill="#000000" font-family="sans-serif" font-size="11" lengthAdjust="spacing" textLength="216" x="56.5" y="310.2339">getInstrumentSelector() : JComponent</text><polygon fill="#FFFF44" points="47.5,314.8281,51.5,318.8281,47.5,322.8281,43.5,318.8281" style="stroke:#B38D22;stroke-width:1.0;"/><text fill="#000000" font-family="sans-serif" font-size="11" lengthAdjust="spacing" textLength="172" x="56.5" y="323.0386">setUpFileDragAndDrop() : void</text><text fill="#000000" font-family="sans-serif" font-size="11" lengthAdjust="spacing" textLength="209" x="56.5" y="335.8433">(Implements every method of View)</text><!--MD5=[78cc7eb74c3fa10aac8e4dcb55cf04c2]
class TabbedView--><rect codeLine="34" fill="#FEFECE" filter="url(#f1jpte2ub98xr8)" height="48" id="TabbedView" style="stroke:#A80036;stroke-width:1.5;" width="118" x="7" y="453"/><ellipse cx="22" cy="469" fill="#ADD1B2" rx="11" ry="11" style="stroke:#A80036;stroke-width:1.0;"/><path d="M24.3438,464.6719 C23.4063,464.2344 22.8125,464.0938 21.9375,464.0938 C19.3125,464.0938 17.3125,466.1719 17.3125,468.8906 L17.3125,470.0156 C17.3125,472.5938 19.4219,474.4844 22.3125,474.4844 C23.5313,474.4844 24.6875,474.1875 25.4375,473.6406 C26.0156,473.2344 26.3438,472.7813 26.3438,472.3906 C26.3438,471.9375 25.9531,471.5469 25.4844,471.5469 C25.2656,471.5469 25.0625,471.625 24.875,471.8125 C24.4219,472.2969 24.4219,472.2969 24.2344,472.3906 C23.8125,472.6563 23.125,472.7813 22.3594,472.7813 C20.3125,472.7813 19.0156,471.6875 19.0156,469.9844 L19.0156,468.8906 C19.0156,467.1094 20.2656,465.7969 22,465.7969 C22.5781,465.7969 23.1875,465.9531 23.6563,466.2031 C24.1406,466.4844 24.3125,466.7031 24.4063,467.1094 C24.4688,467.5156 24.5,467.6406 24.6406,467.7656 C24.7813,467.9063 25.0156,468.0156 25.2344,468.0156 C25.5,468.0156 25.7656,467.875 25.9375,467.6563 C26.0469,467.5 26.0781,467.3125 26.0781,466.8906 L26.0781,465.4688 C26.0781,465.0313 26.0625,464.9063 25.9688,464.75 C25.8125,464.4844 25.5313,464.3438 25.2344,464.3438 C24.9375,464.3438 24.7344,464.4375 24.5156,464.75 L24.3438,464.6719 Z " fill="#000000"/><polygon fill="#4177AF" points="41,464.5,37,470.5,45,470.5" style="stroke:#1963A0;stroke-width:1.0;"/><text fill="#000000" font-family="sans-serif" font-size="12" lengthAdjust="spacing" textLength="75" x="47" y="473.1543">TabbedView</text><line style="stroke:#A80036;stroke-width:1.5;" x1="8" x2="124" y1="485" y2="485"/><line style="stroke:#A80036;stroke-width:1.5;" x1="8" x2="124" y1="493" y2="493"/><!--MD5=[6f062b0358e71ed36a9a041bba5d4781]
class SingleEntryView--><rect codeLine="36" fill="#FEFECE" filter="url(#f1jpte2ub98xr8)" height="48" id="SingleEntryView" style="stroke:#A80036;stroke-width:1.5;" width="139" x="160.5" y="453"/><ellipse cx="175.5" cy="469" fill="#ADD1B2" rx="11" ry="11" style="stroke:#A80036;stroke-width:1.0;"/><path d="M177.8438,464.6719 C176.9063,464.2344 176.3125,464.0938 175.4375,464.0938 C172.8125,464.0938 170.8125,466.1719 170.8125,468.8906 L170.8125,470.0156 C170.8125,472.5938 172.9219,474.4844 175.8125,474.4844 C177.0313,474.4844 178.1875,474.1875 178.9375,473.6406 C179.5156,473.2344 179.8438,472.7813 179.8438,472.3906 C179.8438,471.9375 179.4531,471.5469 178.9844,471.5469 C178.7656,471.5469 178.5625,471.625 178.375,471.8125 C177.9219,472.2969 177.9219,472.2969 177.7344,472.3906 C177.3125,472.6563 176.625,472.7813 175.8594,472.7813 C173.8125,472.7813 172.5156,471.6875 172.5156,469.9844 L172.5156,468.8906 C172.5156,467.1094 173.7656,465.7969 175.5,465.7969 C176.0781,465.7969 176.6875,465.9531 177.1563,466.2031 C177.6406,466.4844 177.8125,466.7031 177.9063,467.1094 C177.9688,467.5156 178,467.6406 178.1406,467.7656 C178.2813,467.9063 178.5156,468.0156 178.7344,468.0156 C179,468.0156 179.2656,467.875 179.4375,467.6563 C179.5469,467.5 179.5781,467.3125 179.5781,466.8906 L179.5781,465.4688 C179.5781,465.0313 179.5625,464.9063 179.4688,464.75 C179.3125,464.4844 179.0313,464.3438 178.7344,464.3438 C178.4375,464.3438 178.2344,464.4375 178.0156,464.75 L177.8438,464.6719 Z " fill="#000000"/><polygon fill="#4177AF" points="194.5,464.5,190.5,470.5,198.5,470.5" style="stroke:#1963A0;stroke-width:1.0;"/><text fill="#000000" font-family="sans-serif" font-size="12" lengthAdjust="spacing" textLength="96" x="200.5" y="473.1543">SingleEntryView</text><line style="stroke:#A80036;stroke-width:1.5;" x1="161.5" x2="298.5" y1="485" y2="485"/><line style="stroke:#A80036;stroke-width:1.5;" x1="161.5" x2="298.5" y1="493" y2="493"/><!--MD5=[ea9bc3d3f88adb0f251b791a11fa27ff]
class ViewBot--><rect fill="#FEFECE" filter="url(#f1jpte2ub98xr8)" height="48" id="ViewBot" style="stroke:#A80036;stroke-width:1.5;" width="81" x="412.5" y="243"/><ellipse cx="427.5" cy="259" fill="#ADD1B2" rx="11" ry="11" style="stroke:#A80036;stroke-width:1.0;"/><path d="M429.8438,254.6719 C428.9063,254.2344 428.3125,254.0938 427.4375,254.0938 C424.8125,254.0938 422.8125,256.1719 422.8125,258.8906 L422.8125,260.0156 C422.8125,262.5938 424.9219,264.4844 427.8125,264.4844 C429.0313,264.4844 430.1875,264.1875 430.9375,263.6406 C431.5156,263.2344 431.8438,262.7813 431.8438,262.3906 C431.8438,261.9375 431.4531,261.5469 430.9844,261.5469 C430.7656,261.5469 430.5625,261.625 430.375,261.8125 C429.9219,262.2969 429.9219,262.2969 429.7344,262.3906 C429.3125,262.6563 428.625,262.7813 427.8594,262.7813 C425.8125,262.7813 424.5156,261.6875 424.5156,259.9844 L424.5156,258.8906 C424.5156,257.1094 425.7656,255.7969 427.5,255.7969 C428.0781,255.7969 428.6875,255.9531 429.1563,256.2031 C429.6406,256.4844 429.8125,256.7031 429.9063,257.1094 C429.9688,257.5156 430,257.6406 430.1406,257.7656 C430.2813,257.9063 430.5156,258.0156 430.7344,258.0156 C431,258.0156 431.2656,257.875 431.4375,257.6563 C431.5469,257.5 431.5781,257.3125 431.5781,256.8906 L431.5781,255.4688 C431.5781,255.0313 431.5625,254.9063 431.4688,254.75 C431.3125,254.4844 431.0313,254.3438 430.7344,254.3438 C430.4375,254.3438 430.2344,254.4375 430.0156,254.75 L429.8438,254.6719 Z " fill="#000000"/><text fill="#000000" font-family="sans-serif" font-size="12" lengthAdjust="spacing" textLength="49" x="441.5" y="263.1543">ViewBot</text><line style="stroke:#A80036;stroke-width:1.5;" x1="413.5" x2="492.5" y1="275" y2="275"/><line style="stroke:#A80036;stroke-width:1.5;" x1="413.5" x2="492.5" y1="283" y2="283"/><!--MD5=[94ac34da17b748a109eb6ac0e62bba58]
reverse link Presenter to View--><path codeLine="39" d="M515.485,388.862 C522.137,332.109 525.683,256.84 511,192 C506.406,171.711 497.996,150.844 488.978,132.253 " fill="none" id="Presenter-backto-View" style="stroke:#A80036;stroke-width:1.0;"/><polygon fill="#FFFFFF" points="513.882,401.773,518.5907,396.3115,515.3604,389.8644,510.6516,395.3259,513.882,401.773" style="stroke:#A80036;stroke-width:1.0;"/><text fill="#000000" font-family="sans-serif" font-size="13" lengthAdjust="spacing" textLength="8" x="506.7286" y="390.9405">1</text><!--MD5=[92049614234c8fc16c78d5d1e88763b6]
reverse link AbstractSwingView to Presenter--><path codeLine="40" d="M322.579,349.77 C346.841,366.935 372.301,384.948 396.145,401.817 " fill="none" id="AbstractSwingView-backto-Presenter" style="stroke:#A80036;stroke-width:1.0;"/><polygon fill="#FFFFFF" points="311.896,342.212,314.4838,348.9428,321.6922,349.1428,319.1043,342.412,311.896,342.212" style="stroke:#A80036;stroke-width:1.0;"/><text fill="#000000" font-family="sans-serif" font-size="13" lengthAdjust="spacing" textLength="8" x="313.828" y="362.4059">1</text><!--MD5=[c674bec0a95d94d719dfc8334bddd9b1]
reverse link View to AbstractSwingView--><path codeLine="41" d="M359.838,144.537 C340.415,159.973 319.935,176.249 300.5,191.694 " fill="none" id="View-backto-AbstractSwingView" style="stroke:#A80036;stroke-width:1.0;"/><polygon fill="none" points="355.489,139.052,375.502,132.089,364.199,150.013,355.489,139.052" style="stroke:#A80036;stroke-width:1.0;"/><!--MD5=[635464eb733e8a9eadf7aca0fc614806]
reverse link AbstractSwingView to TabbedView--><path codeLine="42" d="M145.35,358.945 C121.934,393.488 97.1936,429.984 81.6849,452.8619 " fill="none" id="AbstractSwingView-backto-TabbedView" style="stroke:#A80036;stroke-width:1.0;"/><polygon fill="none" points="139.676,354.839,156.693,342.212,151.265,362.694,139.676,354.839" style="stroke:#A80036;stroke-width:1.0;"/><!--MD5=[98d9c72a06d40076dfbf5f3d33083827]
reverse link AbstractSwingView to SingleEntryView--><path codeLine="43" d="M217.422,362.247 C221.131,395.797 224.992,430.712 227.441,452.8619 " fill="none" id="AbstractSwingView-backto-SingleEntryView" style="stroke:#A80036;stroke-width:1.0;"/><polygon fill="none" points="210.447,362.86,215.206,342.212,224.362,361.321,210.447,362.86" style="stroke:#A80036;stroke-width:1.0;"/><!--MD5=[3d3c893ffaceb7884d2fd7a722af2a9c]
reverse link View to ViewBot--><path codeLine="44" d="M453,152.544 C453,185.258 453,220.382 453,242.739 " fill="none" id="View-backto-ViewBot" style="stroke:#A80036;stroke-width:1.0;"/><polygon fill="none" points="446,152.089,453,132.089,460,152.089,446,152.089" style="stroke:#A80036;stroke-width:1.0;"/><!--MD5=[858f883e12ee8af6641e24363646e082]
@startuml
interface View {
  +{static} createView(ViewType) : View
  +{abstract} getInputText() : String
  +{abstract} getSelectedInstrument() : Instrument
  +{abstract} setOutputText(String)
  +{abstract} promptForFile(FileNameExtensionFilter) : Optional<Path>
  +{abstract} showErrorMessage(String, String)
}

class Presenter {
  -View view

  -convert(String, Instrument) : Optional<String>
  +convert() : boolean
  +loadInput() : boolean
  -loadFromFile(Path) : Optional<String>
  +saveInput() : boolean
  +saveOutput() : boolean
  -saveToFile(Path, String) : boolean
}

abstract class AbstractSwingView {
  #JFrame frame
  #Presenter presenter
  
  -{static} highlightToken(ErrorToken, Highlighter, HighlightPainter)
  #{abstract} getInput() : JTextComponent
  #{abstract} getOutput() : JTextComponent
  #getInstrumentSelector() : JComponent
  #setUpFileDragAndDrop() : void
  (Implements every method of View)
}

~class TabbedView {
}
~class SingleEntryView {
}

Presenter "1" o- - View
AbstractSwingView "1" o- - Presenter
View <|- - AbstractSwingView
AbstractSwingView <|- - TabbedView
AbstractSwingView <|- - SingleEntryView
View <|- - ViewBot
@enduml

PlantUML version 1.2021.3beta6(Unknown compile time)
(GPL source distribution)
Java Runtime: Java(TM) SE Runtime Environment
JVM: Java HotSpot(TM) 64-Bit Server VM
Default Encoding: UTF-8
Language: en
Country: US
--></g></svg>