<?xml version="1.0" encoding="UTF-8" standalone="no"?>
<svg xmlns="http://www.w3.org/2000/svg" xmlns:xlink="http://www.w3.org/1999/xlink" contentScriptType="application/ecmascript" contentStyleType="text/css" height="426px" preserveAspectRatio="none" style="width:455px;height:426px;" version="1.1" viewBox="0 0 455 426" width="455px" zoomAndPan="magnify"><defs><filter height="300%" id="fopaux28mq25h" width="300%" x="-1" y="-1"><feGaussianBlur result="blurOut" stdDeviation="2.0"/><feColorMatrix in="blurOut" result="blurOut2" type="matrix" values="0 0 0 0 0 0 0 0 0 0 0 0 0 0 0 0 0 0 .4 0"/><feOffset dx="4.0" dy="4.0" in="blurOut2" result="blurOut3"/><feBlend in="SourceGraphic" in2="blurOut3" mode="normal"/></filter></defs><g><!--MD5=[c045e12321b83266d36d22b9096c24ea]
class View--><rect codeLine="1" fill="#FEFECE" filter="url(#fopaux28mq25h)" height="124.8281" id="View" style="stroke:#A80036;stroke-width:1.5;" width="349" x="49.5" y="179"/><ellipse cx="205.75" cy="195" fill="#B4A7E5" rx="11" ry="11" style="stroke:#A80036;stroke-width:1.0;"/><path d="M206.7031,191.7813 L208.4219,191.7813 C208.8125,191.7813 209,191.75 209.125,191.6719 C209.3906,191.5156 209.5313,191.2344 209.5313,190.9375 C209.5313,190.6719 209.4219,190.4063 209.1875,190.2344 C209.0156,190.125 208.875,190.0938 208.4219,190.0938 L203.2813,190.0938 C202.8438,190.0938 202.7188,190.1094 202.5625,190.2031 C202.3125,190.3594 202.1563,190.6563 202.1563,190.9375 C202.1563,191.2188 202.2969,191.4688 202.5156,191.6406 C202.6719,191.75 202.8594,191.7813 203.2813,191.7813 L205,191.7813 L205,198.2969 L203.2813,198.2969 C202.8438,198.2969 202.7188,198.3125 202.5625,198.4219 C202.3125,198.5781 202.1563,198.8594 202.1563,199.1563 C202.1563,199.4063 202.2969,199.6719 202.5156,199.8281 C202.6719,199.9531 202.875,200 203.2813,200 L208.4219,200 C209.1719,200 209.5313,199.7188 209.5313,199.1563 C209.5313,198.875 209.4219,198.625 209.1875,198.4531 C209.0156,198.3281 208.875,198.2969 208.4219,198.2969 L206.7031,198.2969 L206.7031,191.7813 Z " fill="#000000"/><text fill="#000000" font-family="sans-serif" font-size="12" font-style="italic" lengthAdjust="spacing" textLength="28" x="226.25" y="199.1543">View</text><line style="stroke:#A80036;stroke-width:1.5;" x1="50.5" x2="397.5" y1="211" y2="211"/><line style="stroke:#A80036;stroke-width:1.5;" x1="50.5" x2="397.5" y1="219" y2="219"/><ellipse cx="60.5" cy="230" fill="#84BE84" rx="3" ry="3" style="stroke:#038048;stroke-width:1.0;"/><text fill="#000000" font-family="sans-serif" font-size="11" lengthAdjust="spacing" text-decoration="underline" textLength="169" x="69.5" y="233.2104">createView(ViewType) : View</text><ellipse cx="60.5" cy="242.8047" fill="#84BE84" rx="3" ry="3" style="stroke:#038048;stroke-width:1.0;"/><text fill="#000000" font-family="sans-serif" font-size="11" font-style="italic" lengthAdjust="spacing" textLength="124" x="69.5" y="246.0151">getInputText() : String</text><ellipse cx="60.5" cy="255.6094" fill="#84BE84" rx="3" ry="3" style="stroke:#038048;stroke-width:1.0;"/><text fill="#000000" font-family="sans-serif" font-size="11" font-style="italic" lengthAdjust="spacing" textLength="208" x="69.5" y="258.8198">getSelectedInstrument() : Instrument</text><ellipse cx="60.5" cy="268.4141" fill="#84BE84" rx="3" ry="3" style="stroke:#038048;stroke-width:1.0;"/><text fill="#000000" font-family="sans-serif" font-size="11" font-style="italic" lengthAdjust="spacing" textLength="121" x="69.5" y="271.6245">setOutputText(String)</text><ellipse cx="60.5" cy="281.2188" fill="#84BE84" rx="3" ry="3" style="stroke:#038048;stroke-width:1.0;"/><text fill="#000000" font-family="sans-serif" font-size="11" font-style="italic" lengthAdjust="spacing" textLength="323" x="69.5" y="284.4292">promptForFile(FileNameExtensionFilter) : Optional&lt;Path&gt;</text><ellipse cx="60.5" cy="294.0234" fill="#84BE84" rx="3" ry="3" style="stroke:#038048;stroke-width:1.0;"/><text fill="#000000" font-family="sans-serif" font-size="11" font-style="italic" lengthAdjust="spacing" textLength="189" x="69.5" y="297.2339">showErrorMessage(String, String)</text><!--MD5=[3de993ac3dd18e6abf686ebe9c2e07b2]
class Presenter--><rect codeLine="10" fill="#FEFECE" filter="url(#fopaux28mq25h)" height="112.0234" id="Presenter" style="stroke:#A80036;stroke-width:1.5;" width="434" x="7" y="7"/><ellipse cx="190.75" cy="23" fill="#ADD1B2" rx="11" ry="11" style="stroke:#A80036;stroke-width:1.0;"/><path d="M193.0938,18.6719 C192.1563,18.2344 191.5625,18.0938 190.6875,18.0938 C188.0625,18.0938 186.0625,20.1719 186.0625,22.8906 L186.0625,24.0156 C186.0625,26.5938 188.1719,28.4844 191.0625,28.4844 C192.2813,28.4844 193.4375,28.1875 194.1875,27.6406 C194.7656,27.2344 195.0938,26.7813 195.0938,26.3906 C195.0938,25.9375 194.7031,25.5469 194.2344,25.5469 C194.0156,25.5469 193.8125,25.625 193.625,25.8125 C193.1719,26.2969 193.1719,26.2969 192.9844,26.3906 C192.5625,26.6563 191.875,26.7813 191.1094,26.7813 C189.0625,26.7813 187.7656,25.6875 187.7656,23.9844 L187.7656,22.8906 C187.7656,21.1094 189.0156,19.7969 190.75,19.7969 C191.3281,19.7969 191.9375,19.9531 192.4063,20.2031 C192.8906,20.4844 193.0625,20.7031 193.1563,21.1094 C193.2188,21.5156 193.25,21.6406 193.3906,21.7656 C193.5313,21.9063 193.7656,22.0156 193.9844,22.0156 C194.25,22.0156 194.5156,21.875 194.6875,21.6563 C194.7969,21.5 194.8281,21.3125 194.8281,20.8906 L194.8281,19.4688 C194.8281,19.0313 194.8125,18.9063 194.7188,18.75 C194.5625,18.4844 194.2813,18.3438 193.9844,18.3438 C193.6875,18.3438 193.4844,18.4375 193.2656,18.75 L193.0938,18.6719 Z " fill="#000000"/><text fill="#000000" font-family="sans-serif" font-size="12" lengthAdjust="spacing" textLength="58" x="211.25" y="27.1543">Presenter</text><line style="stroke:#A80036;stroke-width:1.5;" x1="8" x2="440" y1="39" y2="39"/><rect fill="none" height="6" style="stroke:#C82930;stroke-width:1.0;" width="6" x="15" y="47"/><text fill="#000000" font-family="sans-serif" font-size="11" lengthAdjust="spacing" textLength="59" x="27" y="53.2104">View view</text><line style="stroke:#A80036;stroke-width:1.5;" x1="8" x2="440" y1="59.8047" y2="59.8047"/><rect fill="#F24D5C" height="6" style="stroke:#C82930;stroke-width:1.0;" width="6" x="15" y="67.8047"/><text fill="#000000" font-family="sans-serif" font-size="11" lengthAdjust="spacing" textLength="408" x="27" y="74.0151">convert(String input, Instrument selectedInstrument) : Optional&lt;String&gt;</text><ellipse cx="18" cy="83.6094" fill="#84BE84" rx="3" ry="3" style="stroke:#038048;stroke-width:1.0;"/><text fill="#000000" font-family="sans-serif" font-size="11" lengthAdjust="spacing" textLength="51" x="27" y="86.8198">convert()</text><ellipse cx="18" cy="96.4141" fill="#84BE84" rx="3" ry="3" style="stroke:#038048;stroke-width:1.0;"/><text fill="#000000" font-family="sans-serif" font-size="11" lengthAdjust="spacing" textLength="80" x="27" y="99.6245">loadFromFile()</text><ellipse cx="18" cy="109.2188" fill="#84BE84" rx="3" ry="3" style="stroke:#038048;stroke-width:1.0;"/><text fill="#000000" font-family="sans-serif" font-size="11" lengthAdjust="spacing" textLength="70" x="27" y="112.4292">saveToFile()</text><!--MD5=[6f062b0358e71ed36a9a041bba5d4781]
class SingleEntryView--><rect fill="#FEFECE" filter="url(#fopaux28mq25h)" height="48" id="SingleEntryView" style="stroke:#A80036;stroke-width:1.5;" width="128" x="90" y="364"/><ellipse cx="105" cy="380" fill="#ADD1B2" rx="11" ry="11" style="stroke:#A80036;stroke-width:1.0;"/><path d="M107.3438,375.6719 C106.4063,375.2344 105.8125,375.0938 104.9375,375.0938 C102.3125,375.0938 100.3125,377.1719 100.3125,379.8906 L100.3125,381.0156 C100.3125,383.5938 102.4219,385.4844 105.3125,385.4844 C106.5313,385.4844 107.6875,385.1875 108.4375,384.6406 C109.0156,384.2344 109.3438,383.7813 109.3438,383.3906 C109.3438,382.9375 108.9531,382.5469 108.4844,382.5469 C108.2656,382.5469 108.0625,382.625 107.875,382.8125 C107.4219,383.2969 107.4219,383.2969 107.2344,383.3906 C106.8125,383.6563 106.125,383.7813 105.3594,383.7813 C103.3125,383.7813 102.0156,382.6875 102.0156,380.9844 L102.0156,379.8906 C102.0156,378.1094 103.2656,376.7969 105,376.7969 C105.5781,376.7969 106.1875,376.9531 106.6563,377.2031 C107.1406,377.4844 107.3125,377.7031 107.4063,378.1094 C107.4688,378.5156 107.5,378.6406 107.6406,378.7656 C107.7813,378.9063 108.0156,379.0156 108.2344,379.0156 C108.5,379.0156 108.7656,378.875 108.9375,378.6563 C109.0469,378.5 109.0781,378.3125 109.0781,377.8906 L109.0781,376.4688 C109.0781,376.0313 109.0625,375.9063 108.9688,375.75 C108.8125,375.4844 108.5313,375.3438 108.2344,375.3438 C107.9375,375.3438 107.7344,375.4375 107.5156,375.75 L107.3438,375.6719 Z " fill="#000000"/><text fill="#000000" font-family="sans-serif" font-size="12" lengthAdjust="spacing" textLength="96" x="119" y="384.1543">SingleEntryView</text><line style="stroke:#A80036;stroke-width:1.5;" x1="91" x2="217" y1="396" y2="396"/><line style="stroke:#A80036;stroke-width:1.5;" x1="91" x2="217" y1="404" y2="404"/><!--MD5=[ea9bc3d3f88adb0f251b791a11fa27ff]
class ViewBot--><rect fill="#FEFECE" filter="url(#fopaux28mq25h)" height="48" id="ViewBot" style="stroke:#A80036;stroke-width:1.5;" width="81" x="253.5" y="364"/><ellipse cx="268.5" cy="380" fill="#ADD1B2" rx="11" ry="11" style="stroke:#A80036;stroke-width:1.0;"/><path d="M270.8438,375.6719 C269.9063,375.2344 269.3125,375.0938 268.4375,375.0938 C265.8125,375.0938 263.8125,377.1719 263.8125,379.8906 L263.8125,381.0156 C263.8125,383.5938 265.9219,385.4844 268.8125,385.4844 C270.0313,385.4844 271.1875,385.1875 271.9375,384.6406 C272.5156,384.2344 272.8438,383.7813 272.8438,383.3906 C272.8438,382.9375 272.4531,382.5469 271.9844,382.5469 C271.7656,382.5469 271.5625,382.625 271.375,382.8125 C270.9219,383.2969 270.9219,383.2969 270.7344,383.3906 C270.3125,383.6563 269.625,383.7813 268.8594,383.7813 C266.8125,383.7813 265.5156,382.6875 265.5156,380.9844 L265.5156,379.8906 C265.5156,378.1094 266.7656,376.7969 268.5,376.7969 C269.0781,376.7969 269.6875,376.9531 270.1563,377.2031 C270.6406,377.4844 270.8125,377.7031 270.9063,378.1094 C270.9688,378.5156 271,378.6406 271.1406,378.7656 C271.2813,378.9063 271.5156,379.0156 271.7344,379.0156 C272,379.0156 272.2656,378.875 272.4375,378.6563 C272.5469,378.5 272.5781,378.3125 272.5781,377.8906 L272.5781,376.4688 C272.5781,376.0313 272.5625,375.9063 272.4688,375.75 C272.3125,375.4844 272.0313,375.3438 271.7344,375.3438 C271.4375,375.3438 271.2344,375.4375 271.0156,375.75 L270.8438,375.6719 Z " fill="#000000"/><text fill="#000000" font-family="sans-serif" font-size="12" lengthAdjust="spacing" textLength="49" x="282.5" y="384.1543">ViewBot</text><line style="stroke:#A80036;stroke-width:1.5;" x1="254.5" x2="333.5" y1="396" y2="396"/><line style="stroke:#A80036;stroke-width:1.5;" x1="254.5" x2="333.5" y1="404" y2="404"/><!--MD5=[94ac34da17b748a109eb6ac0e62bba58]
reverse link Presenter to View--><path codeLine="19" d="M224,132.524 C224,147.801 224,163.909 224,178.888 " fill="none" id="Presenter-backto-View" style="stroke:#A80036;stroke-width:1.0;"/><polygon fill="#FFFFFF" points="224,119.361,220,125.361,224,131.361,228,125.361,224,119.361" style="stroke:#A80036;stroke-width:1.0;"/><!--MD5=[03212d6e3c1dd294ea6a670ce7952129]
reverse link View to SingleEntryView--><path codeLine="20" d="M185.154,322.6887 C177.832,337.8034 170.738,352.449 165.173,363.9363 " fill="none" id="View-backto-SingleEntryView" style="stroke:#A80036;stroke-width:1.0;"/><polygon fill="none" points="179.092,319.1476,194.111,304.2,191.691,325.2512,179.092,319.1476" style="stroke:#A80036;stroke-width:1.0;"/><!--MD5=[3d3c893ffaceb7884d2fd7a722af2a9c]
reverse link View to ViewBot--><path codeLine="21" d="M262.846,322.6887 C270.168,337.8034 277.262,352.449 282.827,363.9363 " fill="none" id="View-backto-ViewBot" style="stroke:#A80036;stroke-width:1.0;"/><polygon fill="none" points="256.309,325.2512,253.889,304.2,268.908,319.1476,256.309,325.2512" style="stroke:#A80036;stroke-width:1.0;"/><!--MD5=[593d1204405650980b4af24ddc042651]
@startuml
interface View {
  +{static} createView(ViewType) : View
  +{abstract} getInputText() : String
  +{abstract} getSelectedInstrument() : Instrument
  +{abstract} setOutputText(String)
  +{abstract} promptForFile(FileNameExtensionFilter) : Optional<Path>
  +{abstract} showErrorMessage(String, String)
}

class Presenter {
  -View view

  -convert(String input, Instrument selectedInstrument) : Optional<String>
  +convert()
  +loadFromFile()
  +saveToFile()
}

Presenter o- - View
View <|- - SingleEntryView
View <|- - ViewBot
@enduml

PlantUML version 1.2021.2(Sun Mar 07 11:10:27 UTC 2021)
(GPL source distribution)
Java Runtime: Java(TM) SE Runtime Environment
JVM: Java HotSpot(TM) 64-Bit Server VM
Default Encoding: UTF-8
Language: en
Country: US
--></g></svg>